ISO-10303-21;
HEADER;
/* Generated by software containing ST-Developer
 * from STEP Tools, Inc. (www.steptools.com) 
 */

FILE_DESCRIPTION(
/* description */ (''),
/* implementation_level */ '2;1');

FILE_NAME(
/* name */ '24183_fusion-360-151130-9344-1269b670-whistl_v1.step',
/* time_stamp */ '2026-02-10T10:46:15Z',
/* author */ (''),
/* organization */ (''),
/* preprocessor_version */ 'ST-DEVELOPER v20.1',
/* originating_system */ 'Autodesk Translation Framework v14.24.0.0',
/* authorisation */ '');

FILE_SCHEMA (('AUTOMOTIVE_DESIGN { 1 0 10303 214 3 1 1 }'));
ENDSEC;

DATA;
#10=MECHANICAL_DESIGN_GEOMETRIC_PRESENTATION_REPRESENTATION('',(#13),#1240);
#11=SHAPE_REPRESENTATION_RELATIONSHIP('SRR','None',#1247,#12);
#12=ADVANCED_BREP_SHAPE_REPRESENTATION('',(#14),#1239);
#13=STYLED_ITEM('',(#1257),#14);
#14=MANIFOLD_SOLID_BREP('Body3',#662);
#15=SPHERICAL_SURFACE('',#736,5.);
#16=SPHERICAL_SURFACE('',#740,30.);
#17=B_SPLINE_CURVE_WITH_KNOTS('',3,(#1200,#1201,#1202,#1203),
 .UNSPECIFIED.,.F.,.F.,(4,4),(5.05069352764373,5.41956925727161),
 .UNSPECIFIED.);
#18=B_SPLINE_SURFACE_WITH_KNOTS('',3,3,((#1086,#1087,#1088,#1089,#1090,
#1091,#1092,#1093),(#1094,#1095,#1096,#1097,#1098,#1099,#1100,#1101),(#1102,
#1103,#1104,#1105,#1106,#1107,#1108,#1109),(#1110,#1111,#1112,#1113,#1114,
#1115,#1116,#1117),(#1118,#1119,#1120,#1121,#1122,#1123,#1124,#1125),(#1126,
#1127,#1128,#1129,#1130,#1131,#1132,#1133)),.UNSPECIFIED.,.F.,.F.,.F.,(4,
1,1,4),(4,1,1,1,1,4),(0.,0.285714285714286,0.571428571428571,1.),(-7.83324022929971E-17,
0.224399475256414,0.448798950512828,0.897597901025655,1.12199737628207,
1.5707963267949),.UNSPECIFIED.);
#19=B_SPLINE_SURFACE_WITH_KNOTS('',3,3,((#1140,#1141,#1142,#1143,#1144,
#1145,#1146,#1147),(#1148,#1149,#1150,#1151,#1152,#1153,#1154,#1155),(#1156,
#1157,#1158,#1159,#1160,#1161,#1162,#1163),(#1164,#1165,#1166,#1167,#1168,
#1169,#1170,#1171),(#1172,#1173,#1174,#1175,#1176,#1177,#1178,#1179),(#1180,
#1181,#1182,#1183,#1184,#1185,#1186,#1187)),.UNSPECIFIED.,.F.,.F.,.F.,(4,
1,1,4),(4,1,1,1,1,4),(0.,0.285714285714286,0.571428571428571,1.),(-7.83324022929971E-17,
0.224399475256414,0.448798950512828,0.897597901025655,1.12199737628207,
1.5707963267949),.UNSPECIFIED.);
#20=FACE_BOUND('',#107,.T.);
#21=FACE_BOUND('',#110,.T.);
#22=CYLINDRICAL_SURFACE('',#682,35.);
#23=CYLINDRICAL_SURFACE('',#689,2.5);
#24=CYLINDRICAL_SURFACE('',#696,10.);
#25=CYLINDRICAL_SURFACE('',#717,14.1421356237309);
#26=CYLINDRICAL_SURFACE('',#725,5.);
#27=CYLINDRICAL_SURFACE('',#728,30.);
#28=CYLINDRICAL_SURFACE('',#730,30.);
#29=CYLINDRICAL_SURFACE('',#732,30.);
#30=CYLINDRICAL_SURFACE('',#734,5.);
#31=CYLINDRICAL_SURFACE('',#743,5.);
#32=CYLINDRICAL_SURFACE('',#744,30.);
#33=CYLINDRICAL_SURFACE('',#745,30.);
#34=ELLIPSE('',#680,42.4264068711929,30.);
#35=ELLIPSE('',#681,7.07106781186547,5.);
#36=ELLIPSE('',#685,42.4264068711929,30.);
#37=ELLIPSE('',#690,3.53553390593274,2.5);
#38=ELLIPSE('',#695,14.1421356237309,10.);
#39=ELLIPSE('',#719,39.0512483795333,30.);
#40=ELLIPSE('',#720,39.0512483795333,30.);
#41=ELLIPSE('',#722,39.0512483795333,30.);
#42=ELLIPSE('',#723,39.0512483795333,30.);
#43=PLANE('',#679);
#44=PLANE('',#684);
#45=PLANE('',#688);
#46=PLANE('',#692);
#47=PLANE('',#694);
#48=PLANE('',#699);
#49=PLANE('',#704);
#50=PLANE('',#705);
#51=PLANE('',#706);
#52=PLANE('',#707);
#53=PLANE('',#708);
#54=PLANE('',#711);
#55=PLANE('',#712);
#56=PLANE('',#713);
#57=PLANE('',#716);
#58=PLANE('',#727);
#59=PLANE('',#729);
#60=PLANE('',#738);
#61=PLANE('',#739);
#62=PLANE('',#742);
#63=FACE_OUTER_BOUND('',#101,.T.);
#64=FACE_OUTER_BOUND('',#102,.T.);
#65=FACE_OUTER_BOUND('',#103,.T.);
#66=FACE_OUTER_BOUND('',#104,.T.);
#67=FACE_OUTER_BOUND('',#105,.T.);
#68=FACE_OUTER_BOUND('',#106,.T.);
#69=FACE_OUTER_BOUND('',#108,.T.);
#70=FACE_OUTER_BOUND('',#109,.T.);
#71=FACE_OUTER_BOUND('',#111,.T.);
#72=FACE_OUTER_BOUND('',#112,.T.);
#73=FACE_OUTER_BOUND('',#113,.T.);
#74=FACE_OUTER_BOUND('',#114,.T.);
#75=FACE_OUTER_BOUND('',#115,.T.);
#76=FACE_OUTER_BOUND('',#116,.T.);
#77=FACE_OUTER_BOUND('',#117,.T.);
#78=FACE_OUTER_BOUND('',#118,.T.);
#79=FACE_OUTER_BOUND('',#119,.T.);
#80=FACE_OUTER_BOUND('',#120,.T.);
#81=FACE_OUTER_BOUND('',#121,.T.);
#82=FACE_OUTER_BOUND('',#122,.T.);
#83=FACE_OUTER_BOUND('',#123,.T.);
#84=FACE_OUTER_BOUND('',#124,.T.);
#85=FACE_OUTER_BOUND('',#125,.T.);
#86=FACE_OUTER_BOUND('',#126,.T.);
#87=FACE_OUTER_BOUND('',#127,.T.);
#88=FACE_OUTER_BOUND('',#128,.T.);
#89=FACE_OUTER_BOUND('',#129,.T.);
#90=FACE_OUTER_BOUND('',#130,.T.);
#91=FACE_OUTER_BOUND('',#131,.T.);
#92=FACE_OUTER_BOUND('',#132,.T.);
#93=FACE_OUTER_BOUND('',#133,.T.);
#94=FACE_OUTER_BOUND('',#134,.T.);
#95=FACE_OUTER_BOUND('',#135,.T.);
#96=FACE_OUTER_BOUND('',#136,.T.);
#97=FACE_OUTER_BOUND('',#137,.T.);
#98=FACE_OUTER_BOUND('',#138,.T.);
#99=FACE_OUTER_BOUND('',#139,.T.);
#100=FACE_OUTER_BOUND('',#140,.T.);
#101=EDGE_LOOP('',(#434,#435,#436,#437));
#102=EDGE_LOOP('',(#438,#439,#440,#441,#442));
#103=EDGE_LOOP('',(#443,#444,#445,#446));
#104=EDGE_LOOP('',(#447,#448,#449,#450));
#105=EDGE_LOOP('',(#451,#452,#453,#454));
#106=EDGE_LOOP('',(#455,#456,#457,#458));
#107=EDGE_LOOP('',(#459,#460,#461,#462));
#108=EDGE_LOOP('',(#463,#464,#465,#466));
#109=EDGE_LOOP('',(#467,#468,#469,#470));
#110=EDGE_LOOP('',(#471));
#111=EDGE_LOOP('',(#472,#473,#474,#475,#476));
#112=EDGE_LOOP('',(#477,#478,#479,#480,#481));
#113=EDGE_LOOP('',(#482,#483,#484,#485,#486,#487,#488,#489,#490,#491,#492,
#493,#494,#495,#496));
#114=EDGE_LOOP('',(#497,#498,#499,#500));
#115=EDGE_LOOP('',(#501,#502,#503,#504,#505,#506,#507));
#116=EDGE_LOOP('',(#508,#509,#510,#511));
#117=EDGE_LOOP('',(#512,#513,#514,#515,#516,#517,#518));
#118=EDGE_LOOP('',(#519,#520,#521,#522,#523,#524));
#119=EDGE_LOOP('',(#525,#526,#527,#528));
#120=EDGE_LOOP('',(#529,#530,#531,#532));
#121=EDGE_LOOP('',(#533,#534,#535,#536,#537,#538));
#122=EDGE_LOOP('',(#539,#540,#541,#542));
#123=EDGE_LOOP('',(#543,#544,#545,#546,#547,#548,#549,#550,#551,#552,#553,
#554));
#124=EDGE_LOOP('',(#555,#556,#557));
#125=EDGE_LOOP('',(#558,#559,#560));
#126=EDGE_LOOP('',(#561,#562,#563,#564));
#127=EDGE_LOOP('',(#565));
#128=EDGE_LOOP('',(#566,#567,#568,#569,#570,#571,#572));
#129=EDGE_LOOP('',(#573,#574,#575,#576));
#130=EDGE_LOOP('',(#577,#578,#579,#580));
#131=EDGE_LOOP('',(#581,#582,#583,#584));
#132=EDGE_LOOP('',(#585,#586,#587,#588,#589,#590,#591));
#133=EDGE_LOOP('',(#592,#593,#594));
#134=EDGE_LOOP('',(#595,#596,#597,#598));
#135=EDGE_LOOP('',(#599,#600,#601,#602));
#136=EDGE_LOOP('',(#603,#604,#605));
#137=EDGE_LOOP('',(#606,#607,#608,#609));
#138=EDGE_LOOP('',(#610,#611,#612,#613));
#139=EDGE_LOOP('',(#614,#615,#616,#617));
#140=EDGE_LOOP('',(#618,#619,#620,#621));
#141=(
BOUNDED_CURVE()
B_SPLINE_CURVE(2,(#953,#954,#955),.UNSPECIFIED.,.F.,.F.)
B_SPLINE_CURVE_WITH_KNOTS((3,3),(0.,0.752275808258672),.UNSPECIFIED.)
CURVE()
GEOMETRIC_REPRESENTATION_ITEM()
RATIONAL_B_SPLINE_CURVE((1.,1.00375961059777,1.))
REPRESENTATION_ITEM('')
);
#142=(
BOUNDED_CURVE()
B_SPLINE_CURVE(2,(#981,#982,#983),.UNSPECIFIED.,.F.,.F.)
B_SPLINE_CURVE_WITH_KNOTS((3,3),(0.,0.752275808258672),.UNSPECIFIED.)
CURVE()
GEOMETRIC_REPRESENTATION_ITEM()
RATIONAL_B_SPLINE_CURVE((1.,1.00375961059435,1.))
REPRESENTATION_ITEM('')
);
#143=CIRCLE('',#677,30.);
#144=CIRCLE('',#678,35.);
#145=CIRCLE('',#683,35.);
#146=CIRCLE('',#687,30.);
#147=CIRCLE('',#691,2.5);
#148=CIRCLE('',#693,14.1421356237309);
#149=CIRCLE('',#697,10.);
#150=CIRCLE('',#698,10.);
#151=CIRCLE('',#700,5.);
#152=CIRCLE('',#701,30.);
#153=CIRCLE('',#702,30.);
#154=CIRCLE('',#703,30.);
#155=CIRCLE('',#709,14.1421356237309);
#156=CIRCLE('',#710,14.1421356237309);
#157=CIRCLE('',#714,14.1421356237309);
#158=CIRCLE('',#715,14.1421356237309);
#159=CIRCLE('',#718,14.1421356237309);
#160=CIRCLE('',#721,5.);
#161=CIRCLE('',#724,5.);
#162=CIRCLE('',#726,5.);
#163=CIRCLE('',#731,30.);
#164=CIRCLE('',#733,30.);
#165=CIRCLE('',#735,5.);
#166=CIRCLE('',#737,5.);
#167=CIRCLE('',#741,30.);
#168=LINE('',#949,#225);
#169=LINE('',#959,#226);
#170=LINE('',#964,#227);
#171=LINE('',#967,#228);
#172=LINE('',#970,#229);
#173=LINE('',#975,#230);
#174=LINE('',#977,#231);
#175=LINE('',#978,#232);
#176=LINE('',#986,#233);
#177=LINE('',#989,#234);
#178=LINE('',#991,#235);
#179=LINE('',#993,#236);
#180=LINE('',#994,#237);
#181=LINE('',#1000,#238);
#182=LINE('',#1003,#239);
#183=LINE('',#1006,#240);
#184=LINE('',#1008,#241);
#185=LINE('',#1009,#242);
#186=LINE('',#1014,#243);
#187=LINE('',#1016,#244);
#188=LINE('',#1023,#245);
#189=LINE('',#1025,#246);
#190=LINE('',#1027,#247);
#191=LINE('',#1029,#248);
#192=LINE('',#1033,#249);
#193=LINE('',#1037,#250);
#194=LINE('',#1041,#251);
#195=LINE('',#1045,#252);
#196=LINE('',#1046,#253);
#197=LINE('',#1048,#254);
#198=LINE('',#1049,#255);
#199=LINE('',#1052,#256);
#200=LINE('',#1053,#257);
#201=LINE('',#1059,#258);
#202=LINE('',#1061,#259);
#203=LINE('',#1063,#260);
#204=LINE('',#1067,#261);
#205=LINE('',#1069,#262);
#206=LINE('',#1070,#263);
#207=LINE('',#1072,#264);
#208=LINE('',#1077,#265);
#209=LINE('',#1080,#266);
#210=LINE('',#1082,#267);
#211=LINE('',#1084,#268);
#212=LINE('',#1197,#269);
#213=LINE('',#1204,#270);
#214=LINE('',#1207,#271);
#215=LINE('',#1208,#272);
#216=LINE('',#1211,#273);
#217=LINE('',#1216,#274);
#218=LINE('',#1219,#275);
#219=LINE('',#1224,#276);
#220=LINE('',#1225,#277);
#221=LINE('',#1227,#278);
#222=LINE('',#1228,#279);
#223=LINE('',#1232,#280);
#224=LINE('',#1233,#281);
#225=VECTOR('',#750,10.);
#226=VECTOR('',#757,10.);
#227=VECTOR('',#762,10.);
#228=VECTOR('',#765,10.);
#229=VECTOR('',#768,35.);
#230=VECTOR('',#773,10.);
#231=VECTOR('',#774,10.);
#232=VECTOR('',#775,10.);
#233=VECTOR('',#782,10.);
#234=VECTOR('',#783,10.);
#235=VECTOR('',#784,10.);
#236=VECTOR('',#785,10.);
#237=VECTOR('',#786,10.);
#238=VECTOR('',#791,10.);
#239=VECTOR('',#794,10.);
#240=VECTOR('',#797,10.);
#241=VECTOR('',#798,10.);
#242=VECTOR('',#799,10.);
#243=VECTOR('',#804,10.);
#244=VECTOR('',#805,10.);
#245=VECTOR('',#814,10.);
#246=VECTOR('',#817,10.);
#247=VECTOR('',#818,10.);
#248=VECTOR('',#819,10.);
#249=VECTOR('',#822,10.);
#250=VECTOR('',#825,10.);
#251=VECTOR('',#828,10.);
#252=VECTOR('',#833,10.);
#253=VECTOR('',#834,10.);
#254=VECTOR('',#837,10.);
#255=VECTOR('',#838,10.);
#256=VECTOR('',#841,10.);
#257=VECTOR('',#842,10.);
#258=VECTOR('',#849,10.);
#259=VECTOR('',#850,10.);
#260=VECTOR('',#851,10.);
#261=VECTOR('',#856,10.);
#262=VECTOR('',#857,10.);
#263=VECTOR('',#858,10.);
#264=VECTOR('',#861,10.);
#265=VECTOR('',#866,10.);
#266=VECTOR('',#871,10.);
#267=VECTOR('',#874,14.1421356237309);
#268=VECTOR('',#875,14.1421356237309);
#269=VECTOR('',#894,10.);
#270=VECTOR('',#899,10.);
#271=VECTOR('',#902,10.);
#272=VECTOR('',#903,10.);
#273=VECTOR('',#906,10.);
#274=VECTOR('',#913,10.);
#275=VECTOR('',#916,10.);
#276=VECTOR('',#925,10.);
#277=VECTOR('',#926,10.);
#278=VECTOR('',#929,10.);
#279=VECTOR('',#930,10.);
#280=VECTOR('',#937,10.);
#281=VECTOR('',#938,10.);
#282=VERTEX_POINT('',#947);
#283=VERTEX_POINT('',#948);
#284=VERTEX_POINT('',#950);
#285=VERTEX_POINT('',#952);
#286=VERTEX_POINT('',#958);
#287=VERTEX_POINT('',#960);
#288=VERTEX_POINT('',#962);
#289=VERTEX_POINT('',#966);
#290=VERTEX_POINT('',#968);
#291=VERTEX_POINT('',#972);
#292=VERTEX_POINT('',#973);
#293=VERTEX_POINT('',#976);
#294=VERTEX_POINT('',#980);
#295=VERTEX_POINT('',#987);
#296=VERTEX_POINT('',#988);
#297=VERTEX_POINT('',#990);
#298=VERTEX_POINT('',#992);
#299=VERTEX_POINT('',#996);
#300=VERTEX_POINT('',#997);
#301=VERTEX_POINT('',#999);
#302=VERTEX_POINT('',#1001);
#303=VERTEX_POINT('',#1005);
#304=VERTEX_POINT('',#1007);
#305=VERTEX_POINT('',#1010);
#306=VERTEX_POINT('',#1013);
#307=VERTEX_POINT('',#1015);
#308=VERTEX_POINT('',#1019);
#309=VERTEX_POINT('',#1021);
#310=VERTEX_POINT('',#1026);
#311=VERTEX_POINT('',#1028);
#312=VERTEX_POINT('',#1030);
#313=VERTEX_POINT('',#1032);
#314=VERTEX_POINT('',#1034);
#315=VERTEX_POINT('',#1036);
#316=VERTEX_POINT('',#1038);
#317=VERTEX_POINT('',#1040);
#318=VERTEX_POINT('',#1044);
#319=VERTEX_POINT('',#1051);
#320=VERTEX_POINT('',#1056);
#321=VERTEX_POINT('',#1057);
#322=VERTEX_POINT('',#1060);
#323=VERTEX_POINT('',#1062);
#324=VERTEX_POINT('',#1066);
#325=VERTEX_POINT('',#1068);
#326=VERTEX_POINT('',#1074);
#327=VERTEX_POINT('',#1076);
#328=VERTEX_POINT('',#1083);
#329=VERTEX_POINT('',#1134);
#330=VERTEX_POINT('',#1135);
#331=VERTEX_POINT('',#1137);
#332=VERTEX_POINT('',#1188);
#333=VERTEX_POINT('',#1189);
#334=VERTEX_POINT('',#1191);
#335=VERTEX_POINT('',#1195);
#336=VERTEX_POINT('',#1206);
#337=VERTEX_POINT('',#1210);
#338=VERTEX_POINT('',#1214);
#339=VERTEX_POINT('',#1218);
#340=EDGE_CURVE('',#282,#283,#168,.T.);
#341=EDGE_CURVE('',#282,#284,#143,.T.);
#342=EDGE_CURVE('',#284,#285,#141,.F.);
#343=EDGE_CURVE('',#285,#283,#144,.T.);
#344=EDGE_CURVE('',#283,#286,#169,.T.);
#345=EDGE_CURVE('',#286,#287,#34,.F.);
#346=EDGE_CURVE('',#288,#287,#35,.T.);
#347=EDGE_CURVE('',#288,#282,#170,.T.);
#348=EDGE_CURVE('',#289,#285,#171,.T.);
#349=EDGE_CURVE('',#290,#289,#145,.T.);
#350=EDGE_CURVE('',#290,#283,#172,.T.);
#351=EDGE_CURVE('',#291,#292,#36,.F.);
#352=EDGE_CURVE('',#292,#290,#173,.T.);
#353=EDGE_CURVE('',#290,#293,#174,.T.);
#354=EDGE_CURVE('',#293,#291,#175,.T.);
#355=EDGE_CURVE('',#289,#294,#142,.F.);
#356=EDGE_CURVE('',#294,#293,#146,.T.);
#357=EDGE_CURVE('',#286,#292,#176,.T.);
#358=EDGE_CURVE('',#295,#296,#177,.T.);
#359=EDGE_CURVE('',#296,#297,#178,.T.);
#360=EDGE_CURVE('',#297,#298,#179,.T.);
#361=EDGE_CURVE('',#298,#295,#180,.T.);
#362=EDGE_CURVE('',#299,#300,#37,.T.);
#363=EDGE_CURVE('',#300,#301,#181,.T.);
#364=EDGE_CURVE('',#301,#302,#147,.T.);
#365=EDGE_CURVE('',#302,#299,#182,.T.);
#366=EDGE_CURVE('',#303,#300,#183,.T.);
#367=EDGE_CURVE('',#304,#303,#184,.T.);
#368=EDGE_CURVE('',#304,#301,#185,.T.);
#369=EDGE_CURVE('',#305,#305,#148,.T.);
#370=EDGE_CURVE('',#299,#306,#186,.T.);
#371=EDGE_CURVE('',#306,#307,#187,.T.);
#372=EDGE_CURVE('',#303,#307,#38,.T.);
#373=EDGE_CURVE('',#308,#304,#149,.T.);
#374=EDGE_CURVE('',#307,#309,#150,.T.);
#375=EDGE_CURVE('',#309,#308,#188,.T.);
#376=EDGE_CURVE('',#294,#302,#189,.T.);
#377=EDGE_CURVE('',#308,#310,#190,.T.);
#378=EDGE_CURVE('',#310,#311,#191,.T.);
#379=EDGE_CURVE('',#312,#311,#151,.T.);
#380=EDGE_CURVE('',#312,#313,#192,.T.);
#381=EDGE_CURVE('',#314,#313,#152,.T.);
#382=EDGE_CURVE('',#315,#314,#193,.T.);
#383=EDGE_CURVE('',#316,#315,#153,.T.);
#384=EDGE_CURVE('',#317,#316,#194,.T.);
#385=EDGE_CURVE('',#291,#317,#154,.T.);
#386=EDGE_CURVE('',#318,#309,#195,.T.);
#387=EDGE_CURVE('',#310,#318,#196,.T.);
#388=EDGE_CURVE('',#318,#288,#197,.T.);
#389=EDGE_CURVE('',#306,#284,#198,.T.);
#390=EDGE_CURVE('',#319,#318,#199,.T.);
#391=EDGE_CURVE('',#311,#319,#200,.T.);
#392=EDGE_CURVE('',#320,#321,#155,.T.);
#393=EDGE_CURVE('',#296,#320,#201,.T.);
#394=EDGE_CURVE('',#295,#322,#202,.T.);
#395=EDGE_CURVE('',#322,#323,#203,.T.);
#396=EDGE_CURVE('',#321,#323,#156,.T.);
#397=EDGE_CURVE('',#323,#324,#204,.T.);
#398=EDGE_CURVE('',#325,#322,#205,.T.);
#399=EDGE_CURVE('',#324,#325,#206,.T.);
#400=EDGE_CURVE('',#298,#325,#207,.T.);
#401=EDGE_CURVE('',#324,#326,#157,.T.);
#402=EDGE_CURVE('',#297,#327,#208,.T.);
#403=EDGE_CURVE('',#326,#327,#158,.T.);
#404=EDGE_CURVE('',#327,#320,#209,.T.);
#405=EDGE_CURVE('',#305,#321,#210,.T.);
#406=EDGE_CURVE('',#326,#328,#211,.T.);
#407=EDGE_CURVE('',#328,#328,#159,.T.);
#408=EDGE_CURVE('',#329,#330,#39,.T.);
#409=EDGE_CURVE('',#330,#331,#40,.T.);
#410=EDGE_CURVE('',#331,#329,#160,.T.);
#411=EDGE_CURVE('',#332,#333,#41,.T.);
#412=EDGE_CURVE('',#333,#334,#42,.T.);
#413=EDGE_CURVE('',#334,#332,#161,.T.);
#414=EDGE_CURVE('',#319,#335,#162,.F.);
#415=EDGE_CURVE('',#335,#312,#212,.T.);
#416=EDGE_CURVE('',#287,#332,#17,.T.);
#417=EDGE_CURVE('',#317,#333,#213,.T.);
#418=EDGE_CURVE('',#336,#316,#214,.T.);
#419=EDGE_CURVE('',#333,#336,#215,.T.);
#420=EDGE_CURVE('',#315,#337,#216,.T.);
#421=EDGE_CURVE('',#337,#336,#163,.F.);
#422=EDGE_CURVE('',#336,#338,#164,.F.);
#423=EDGE_CURVE('',#338,#334,#217,.T.);
#424=EDGE_CURVE('',#334,#339,#218,.T.);
#425=EDGE_CURVE('',#339,#319,#165,.F.);
#426=EDGE_CURVE('',#335,#339,#166,.F.);
#427=EDGE_CURVE('',#313,#331,#219,.T.);
#428=EDGE_CURVE('',#331,#335,#220,.T.);
#429=EDGE_CURVE('',#330,#314,#221,.T.);
#430=EDGE_CURVE('',#337,#330,#222,.T.);
#431=EDGE_CURVE('',#338,#337,#167,.F.);
#432=EDGE_CURVE('',#329,#338,#223,.T.);
#433=EDGE_CURVE('',#339,#329,#224,.T.);
#434=ORIENTED_EDGE('',*,*,#340,.F.);
#435=ORIENTED_EDGE('',*,*,#341,.T.);
#436=ORIENTED_EDGE('',*,*,#342,.T.);
#437=ORIENTED_EDGE('',*,*,#343,.T.);
#438=ORIENTED_EDGE('',*,*,#340,.T.);
#439=ORIENTED_EDGE('',*,*,#344,.T.);
#440=ORIENTED_EDGE('',*,*,#345,.T.);
#441=ORIENTED_EDGE('',*,*,#346,.F.);
#442=ORIENTED_EDGE('',*,*,#347,.T.);
#443=ORIENTED_EDGE('',*,*,#343,.F.);
#444=ORIENTED_EDGE('',*,*,#348,.F.);
#445=ORIENTED_EDGE('',*,*,#349,.F.);
#446=ORIENTED_EDGE('',*,*,#350,.T.);
#447=ORIENTED_EDGE('',*,*,#351,.T.);
#448=ORIENTED_EDGE('',*,*,#352,.T.);
#449=ORIENTED_EDGE('',*,*,#353,.T.);
#450=ORIENTED_EDGE('',*,*,#354,.T.);
#451=ORIENTED_EDGE('',*,*,#355,.T.);
#452=ORIENTED_EDGE('',*,*,#356,.T.);
#453=ORIENTED_EDGE('',*,*,#353,.F.);
#454=ORIENTED_EDGE('',*,*,#349,.T.);
#455=ORIENTED_EDGE('',*,*,#352,.F.);
#456=ORIENTED_EDGE('',*,*,#357,.F.);
#457=ORIENTED_EDGE('',*,*,#344,.F.);
#458=ORIENTED_EDGE('',*,*,#350,.F.);
#459=ORIENTED_EDGE('',*,*,#358,.T.);
#460=ORIENTED_EDGE('',*,*,#359,.T.);
#461=ORIENTED_EDGE('',*,*,#360,.T.);
#462=ORIENTED_EDGE('',*,*,#361,.T.);
#463=ORIENTED_EDGE('',*,*,#362,.T.);
#464=ORIENTED_EDGE('',*,*,#363,.T.);
#465=ORIENTED_EDGE('',*,*,#364,.T.);
#466=ORIENTED_EDGE('',*,*,#365,.T.);
#467=ORIENTED_EDGE('',*,*,#363,.F.);
#468=ORIENTED_EDGE('',*,*,#366,.F.);
#469=ORIENTED_EDGE('',*,*,#367,.F.);
#470=ORIENTED_EDGE('',*,*,#368,.T.);
#471=ORIENTED_EDGE('',*,*,#369,.T.);
#472=ORIENTED_EDGE('',*,*,#362,.F.);
#473=ORIENTED_EDGE('',*,*,#370,.T.);
#474=ORIENTED_EDGE('',*,*,#371,.T.);
#475=ORIENTED_EDGE('',*,*,#372,.F.);
#476=ORIENTED_EDGE('',*,*,#366,.T.);
#477=ORIENTED_EDGE('',*,*,#373,.T.);
#478=ORIENTED_EDGE('',*,*,#367,.T.);
#479=ORIENTED_EDGE('',*,*,#372,.T.);
#480=ORIENTED_EDGE('',*,*,#374,.T.);
#481=ORIENTED_EDGE('',*,*,#375,.T.);
#482=ORIENTED_EDGE('',*,*,#376,.T.);
#483=ORIENTED_EDGE('',*,*,#364,.F.);
#484=ORIENTED_EDGE('',*,*,#368,.F.);
#485=ORIENTED_EDGE('',*,*,#373,.F.);
#486=ORIENTED_EDGE('',*,*,#377,.T.);
#487=ORIENTED_EDGE('',*,*,#378,.T.);
#488=ORIENTED_EDGE('',*,*,#379,.F.);
#489=ORIENTED_EDGE('',*,*,#380,.T.);
#490=ORIENTED_EDGE('',*,*,#381,.F.);
#491=ORIENTED_EDGE('',*,*,#382,.F.);
#492=ORIENTED_EDGE('',*,*,#383,.F.);
#493=ORIENTED_EDGE('',*,*,#384,.F.);
#494=ORIENTED_EDGE('',*,*,#385,.F.);
#495=ORIENTED_EDGE('',*,*,#354,.F.);
#496=ORIENTED_EDGE('',*,*,#356,.F.);
#497=ORIENTED_EDGE('',*,*,#375,.F.);
#498=ORIENTED_EDGE('',*,*,#386,.F.);
#499=ORIENTED_EDGE('',*,*,#387,.F.);
#500=ORIENTED_EDGE('',*,*,#377,.F.);
#501=ORIENTED_EDGE('',*,*,#341,.F.);
#502=ORIENTED_EDGE('',*,*,#347,.F.);
#503=ORIENTED_EDGE('',*,*,#388,.F.);
#504=ORIENTED_EDGE('',*,*,#386,.T.);
#505=ORIENTED_EDGE('',*,*,#374,.F.);
#506=ORIENTED_EDGE('',*,*,#371,.F.);
#507=ORIENTED_EDGE('',*,*,#389,.T.);
#508=ORIENTED_EDGE('',*,*,#390,.F.);
#509=ORIENTED_EDGE('',*,*,#391,.F.);
#510=ORIENTED_EDGE('',*,*,#378,.F.);
#511=ORIENTED_EDGE('',*,*,#387,.T.);
#512=ORIENTED_EDGE('',*,*,#365,.F.);
#513=ORIENTED_EDGE('',*,*,#376,.F.);
#514=ORIENTED_EDGE('',*,*,#355,.F.);
#515=ORIENTED_EDGE('',*,*,#348,.T.);
#516=ORIENTED_EDGE('',*,*,#342,.F.);
#517=ORIENTED_EDGE('',*,*,#389,.F.);
#518=ORIENTED_EDGE('',*,*,#370,.F.);
#519=ORIENTED_EDGE('',*,*,#392,.F.);
#520=ORIENTED_EDGE('',*,*,#393,.F.);
#521=ORIENTED_EDGE('',*,*,#358,.F.);
#522=ORIENTED_EDGE('',*,*,#394,.T.);
#523=ORIENTED_EDGE('',*,*,#395,.T.);
#524=ORIENTED_EDGE('',*,*,#396,.F.);
#525=ORIENTED_EDGE('',*,*,#397,.F.);
#526=ORIENTED_EDGE('',*,*,#395,.F.);
#527=ORIENTED_EDGE('',*,*,#398,.F.);
#528=ORIENTED_EDGE('',*,*,#399,.F.);
#529=ORIENTED_EDGE('',*,*,#361,.F.);
#530=ORIENTED_EDGE('',*,*,#400,.T.);
#531=ORIENTED_EDGE('',*,*,#398,.T.);
#532=ORIENTED_EDGE('',*,*,#394,.F.);
#533=ORIENTED_EDGE('',*,*,#401,.F.);
#534=ORIENTED_EDGE('',*,*,#399,.T.);
#535=ORIENTED_EDGE('',*,*,#400,.F.);
#536=ORIENTED_EDGE('',*,*,#360,.F.);
#537=ORIENTED_EDGE('',*,*,#402,.T.);
#538=ORIENTED_EDGE('',*,*,#403,.F.);
#539=ORIENTED_EDGE('',*,*,#404,.F.);
#540=ORIENTED_EDGE('',*,*,#402,.F.);
#541=ORIENTED_EDGE('',*,*,#359,.F.);
#542=ORIENTED_EDGE('',*,*,#393,.T.);
#543=ORIENTED_EDGE('',*,*,#369,.F.);
#544=ORIENTED_EDGE('',*,*,#405,.T.);
#545=ORIENTED_EDGE('',*,*,#396,.T.);
#546=ORIENTED_EDGE('',*,*,#397,.T.);
#547=ORIENTED_EDGE('',*,*,#401,.T.);
#548=ORIENTED_EDGE('',*,*,#406,.T.);
#549=ORIENTED_EDGE('',*,*,#407,.F.);
#550=ORIENTED_EDGE('',*,*,#406,.F.);
#551=ORIENTED_EDGE('',*,*,#403,.T.);
#552=ORIENTED_EDGE('',*,*,#404,.T.);
#553=ORIENTED_EDGE('',*,*,#392,.T.);
#554=ORIENTED_EDGE('',*,*,#405,.F.);
#555=ORIENTED_EDGE('',*,*,#408,.T.);
#556=ORIENTED_EDGE('',*,*,#409,.T.);
#557=ORIENTED_EDGE('',*,*,#410,.T.);
#558=ORIENTED_EDGE('',*,*,#411,.T.);
#559=ORIENTED_EDGE('',*,*,#412,.T.);
#560=ORIENTED_EDGE('',*,*,#413,.T.);
#561=ORIENTED_EDGE('',*,*,#379,.T.);
#562=ORIENTED_EDGE('',*,*,#391,.T.);
#563=ORIENTED_EDGE('',*,*,#414,.T.);
#564=ORIENTED_EDGE('',*,*,#415,.T.);
#565=ORIENTED_EDGE('',*,*,#407,.T.);
#566=ORIENTED_EDGE('',*,*,#411,.F.);
#567=ORIENTED_EDGE('',*,*,#416,.F.);
#568=ORIENTED_EDGE('',*,*,#345,.F.);
#569=ORIENTED_EDGE('',*,*,#357,.T.);
#570=ORIENTED_EDGE('',*,*,#351,.F.);
#571=ORIENTED_EDGE('',*,*,#385,.T.);
#572=ORIENTED_EDGE('',*,*,#417,.T.);
#573=ORIENTED_EDGE('',*,*,#417,.F.);
#574=ORIENTED_EDGE('',*,*,#384,.T.);
#575=ORIENTED_EDGE('',*,*,#418,.F.);
#576=ORIENTED_EDGE('',*,*,#419,.F.);
#577=ORIENTED_EDGE('',*,*,#383,.T.);
#578=ORIENTED_EDGE('',*,*,#420,.T.);
#579=ORIENTED_EDGE('',*,*,#421,.T.);
#580=ORIENTED_EDGE('',*,*,#418,.T.);
#581=ORIENTED_EDGE('',*,*,#412,.F.);
#582=ORIENTED_EDGE('',*,*,#419,.T.);
#583=ORIENTED_EDGE('',*,*,#422,.T.);
#584=ORIENTED_EDGE('',*,*,#423,.T.);
#585=ORIENTED_EDGE('',*,*,#413,.F.);
#586=ORIENTED_EDGE('',*,*,#424,.T.);
#587=ORIENTED_EDGE('',*,*,#425,.T.);
#588=ORIENTED_EDGE('',*,*,#390,.T.);
#589=ORIENTED_EDGE('',*,*,#388,.T.);
#590=ORIENTED_EDGE('',*,*,#346,.T.);
#591=ORIENTED_EDGE('',*,*,#416,.T.);
#592=ORIENTED_EDGE('',*,*,#426,.F.);
#593=ORIENTED_EDGE('',*,*,#414,.F.);
#594=ORIENTED_EDGE('',*,*,#425,.F.);
#595=ORIENTED_EDGE('',*,*,#427,.F.);
#596=ORIENTED_EDGE('',*,*,#380,.F.);
#597=ORIENTED_EDGE('',*,*,#415,.F.);
#598=ORIENTED_EDGE('',*,*,#428,.F.);
#599=ORIENTED_EDGE('',*,*,#429,.F.);
#600=ORIENTED_EDGE('',*,*,#430,.F.);
#601=ORIENTED_EDGE('',*,*,#420,.F.);
#602=ORIENTED_EDGE('',*,*,#382,.T.);
#603=ORIENTED_EDGE('',*,*,#422,.F.);
#604=ORIENTED_EDGE('',*,*,#421,.F.);
#605=ORIENTED_EDGE('',*,*,#431,.F.);
#606=ORIENTED_EDGE('',*,*,#432,.F.);
#607=ORIENTED_EDGE('',*,*,#433,.F.);
#608=ORIENTED_EDGE('',*,*,#424,.F.);
#609=ORIENTED_EDGE('',*,*,#423,.F.);
#610=ORIENTED_EDGE('',*,*,#410,.F.);
#611=ORIENTED_EDGE('',*,*,#428,.T.);
#612=ORIENTED_EDGE('',*,*,#426,.T.);
#613=ORIENTED_EDGE('',*,*,#433,.T.);
#614=ORIENTED_EDGE('',*,*,#409,.F.);
#615=ORIENTED_EDGE('',*,*,#429,.T.);
#616=ORIENTED_EDGE('',*,*,#381,.T.);
#617=ORIENTED_EDGE('',*,*,#427,.T.);
#618=ORIENTED_EDGE('',*,*,#408,.F.);
#619=ORIENTED_EDGE('',*,*,#432,.T.);
#620=ORIENTED_EDGE('',*,*,#431,.T.);
#621=ORIENTED_EDGE('',*,*,#430,.T.);
#622=CONICAL_SURFACE('',#676,32.5,0.785398163397448);
#623=CONICAL_SURFACE('',#686,32.5,0.785398163397449);
#624=ADVANCED_FACE('',(#63),#622,.T.);
#625=ADVANCED_FACE('',(#64),#43,.T.);
#626=ADVANCED_FACE('',(#65),#22,.T.);
#627=ADVANCED_FACE('',(#66),#44,.T.);
#628=ADVANCED_FACE('',(#67),#623,.T.);
#629=ADVANCED_FACE('',(#68,#20),#45,.T.);
#630=ADVANCED_FACE('',(#69),#23,.T.);
#631=ADVANCED_FACE('',(#70,#21),#46,.T.);
#632=ADVANCED_FACE('',(#71),#47,.T.);
#633=ADVANCED_FACE('',(#72),#24,.T.);
#634=ADVANCED_FACE('',(#73),#48,.F.);
#635=ADVANCED_FACE('',(#74),#49,.F.);
#636=ADVANCED_FACE('',(#75),#50,.T.);
#637=ADVANCED_FACE('',(#76),#51,.F.);
#638=ADVANCED_FACE('',(#77),#52,.F.);
#639=ADVANCED_FACE('',(#78),#53,.F.);
#640=ADVANCED_FACE('',(#79),#54,.F.);
#641=ADVANCED_FACE('',(#80),#55,.F.);
#642=ADVANCED_FACE('',(#81),#56,.F.);
#643=ADVANCED_FACE('',(#82),#57,.F.);
#644=ADVANCED_FACE('',(#83),#25,.F.);
#645=ADVANCED_FACE('',(#84),#18,.F.);
#646=ADVANCED_FACE('',(#85),#19,.F.);
#647=ADVANCED_FACE('',(#86),#26,.T.);
#648=ADVANCED_FACE('',(#87),#58,.T.);
#649=ADVANCED_FACE('',(#88),#27,.T.);
#650=ADVANCED_FACE('',(#89),#59,.F.);
#651=ADVANCED_FACE('',(#90),#28,.T.);
#652=ADVANCED_FACE('',(#91),#29,.T.);
#653=ADVANCED_FACE('',(#92),#30,.T.);
#654=ADVANCED_FACE('',(#93),#15,.T.);
#655=ADVANCED_FACE('',(#94),#60,.F.);
#656=ADVANCED_FACE('',(#95),#61,.F.);
#657=ADVANCED_FACE('',(#96),#16,.T.);
#658=ADVANCED_FACE('',(#97),#62,.F.);
#659=ADVANCED_FACE('',(#98),#31,.T.);
#660=ADVANCED_FACE('',(#99),#32,.T.);
#661=ADVANCED_FACE('',(#100),#33,.T.);
#662=CLOSED_SHELL('',(#624,#625,#626,#627,#628,#629,#630,#631,#632,#633,
#634,#635,#636,#637,#638,#639,#640,#641,#642,#643,#644,#645,#646,#647,#648,
#649,#650,#651,#652,#653,#654,#655,#656,#657,#658,#659,#660,#661));
#663=DERIVED_UNIT_ELEMENT(#665,1.);
#664=DERIVED_UNIT_ELEMENT(#1242,-3.);
#665=(
MASS_UNIT()
NAMED_UNIT(*)
SI_UNIT(.KILO.,.GRAM.)
);
#666=DERIVED_UNIT((#663,#664));
#667=MEASURE_REPRESENTATION_ITEM('density measure',
POSITIVE_RATIO_MEASURE(7850.),#666);
#668=PROPERTY_DEFINITION_REPRESENTATION(#673,#670);
#669=PROPERTY_DEFINITION_REPRESENTATION(#674,#671);
#670=REPRESENTATION('material name',(#672),#1239);
#671=REPRESENTATION('density',(#667),#1239);
#672=DESCRIPTIVE_REPRESENTATION_ITEM('Steel','Steel');
#673=PROPERTY_DEFINITION('material property','material name',#1249);
#674=PROPERTY_DEFINITION('material property','density of part',#1249);
#675=AXIS2_PLACEMENT_3D('',#945,#746,#747);
#676=AXIS2_PLACEMENT_3D('',#946,#748,#749);
#677=AXIS2_PLACEMENT_3D('',#951,#751,#752);
#678=AXIS2_PLACEMENT_3D('',#956,#753,#754);
#679=AXIS2_PLACEMENT_3D('',#957,#755,#756);
#680=AXIS2_PLACEMENT_3D('',#961,#758,#759);
#681=AXIS2_PLACEMENT_3D('',#963,#760,#761);
#682=AXIS2_PLACEMENT_3D('',#965,#763,#764);
#683=AXIS2_PLACEMENT_3D('',#969,#766,#767);
#684=AXIS2_PLACEMENT_3D('',#971,#769,#770);
#685=AXIS2_PLACEMENT_3D('',#974,#771,#772);
#686=AXIS2_PLACEMENT_3D('',#979,#776,#777);
#687=AXIS2_PLACEMENT_3D('',#984,#778,#779);
#688=AXIS2_PLACEMENT_3D('',#985,#780,#781);
#689=AXIS2_PLACEMENT_3D('',#995,#787,#788);
#690=AXIS2_PLACEMENT_3D('',#998,#789,#790);
#691=AXIS2_PLACEMENT_3D('',#1002,#792,#793);
#692=AXIS2_PLACEMENT_3D('',#1004,#795,#796);
#693=AXIS2_PLACEMENT_3D('',#1011,#800,#801);
#694=AXIS2_PLACEMENT_3D('',#1012,#802,#803);
#695=AXIS2_PLACEMENT_3D('',#1017,#806,#807);
#696=AXIS2_PLACEMENT_3D('',#1018,#808,#809);
#697=AXIS2_PLACEMENT_3D('',#1020,#810,#811);
#698=AXIS2_PLACEMENT_3D('',#1022,#812,#813);
#699=AXIS2_PLACEMENT_3D('',#1024,#815,#816);
#700=AXIS2_PLACEMENT_3D('',#1031,#820,#821);
#701=AXIS2_PLACEMENT_3D('',#1035,#823,#824);
#702=AXIS2_PLACEMENT_3D('',#1039,#826,#827);
#703=AXIS2_PLACEMENT_3D('',#1042,#829,#830);
#704=AXIS2_PLACEMENT_3D('',#1043,#831,#832);
#705=AXIS2_PLACEMENT_3D('',#1047,#835,#836);
#706=AXIS2_PLACEMENT_3D('',#1050,#839,#840);
#707=AXIS2_PLACEMENT_3D('',#1054,#843,#844);
#708=AXIS2_PLACEMENT_3D('',#1055,#845,#846);
#709=AXIS2_PLACEMENT_3D('',#1058,#847,#848);
#710=AXIS2_PLACEMENT_3D('',#1064,#852,#853);
#711=AXIS2_PLACEMENT_3D('',#1065,#854,#855);
#712=AXIS2_PLACEMENT_3D('',#1071,#859,#860);
#713=AXIS2_PLACEMENT_3D('',#1073,#862,#863);
#714=AXIS2_PLACEMENT_3D('',#1075,#864,#865);
#715=AXIS2_PLACEMENT_3D('',#1078,#867,#868);
#716=AXIS2_PLACEMENT_3D('',#1079,#869,#870);
#717=AXIS2_PLACEMENT_3D('',#1081,#872,#873);
#718=AXIS2_PLACEMENT_3D('',#1085,#876,#877);
#719=AXIS2_PLACEMENT_3D('',#1136,#878,#879);
#720=AXIS2_PLACEMENT_3D('',#1138,#880,#881);
#721=AXIS2_PLACEMENT_3D('',#1139,#882,#883);
#722=AXIS2_PLACEMENT_3D('',#1190,#884,#885);
#723=AXIS2_PLACEMENT_3D('',#1192,#886,#887);
#724=AXIS2_PLACEMENT_3D('',#1193,#888,#889);
#725=AXIS2_PLACEMENT_3D('',#1194,#890,#891);
#726=AXIS2_PLACEMENT_3D('',#1196,#892,#893);
#727=AXIS2_PLACEMENT_3D('',#1198,#895,#896);
#728=AXIS2_PLACEMENT_3D('',#1199,#897,#898);
#729=AXIS2_PLACEMENT_3D('',#1205,#900,#901);
#730=AXIS2_PLACEMENT_3D('',#1209,#904,#905);
#731=AXIS2_PLACEMENT_3D('',#1212,#907,#908);
#732=AXIS2_PLACEMENT_3D('',#1213,#909,#910);
#733=AXIS2_PLACEMENT_3D('',#1215,#911,#912);
#734=AXIS2_PLACEMENT_3D('',#1217,#914,#915);
#735=AXIS2_PLACEMENT_3D('',#1220,#917,#918);
#736=AXIS2_PLACEMENT_3D('',#1221,#919,#920);
#737=AXIS2_PLACEMENT_3D('',#1222,#921,#922);
#738=AXIS2_PLACEMENT_3D('',#1223,#923,#924);
#739=AXIS2_PLACEMENT_3D('',#1226,#927,#928);
#740=AXIS2_PLACEMENT_3D('',#1229,#931,#932);
#741=AXIS2_PLACEMENT_3D('',#1230,#933,#934);
#742=AXIS2_PLACEMENT_3D('',#1231,#935,#936);
#743=AXIS2_PLACEMENT_3D('',#1234,#939,#940);
#744=AXIS2_PLACEMENT_3D('',#1235,#941,#942);
#745=AXIS2_PLACEMENT_3D('',#1236,#943,#944);
#746=DIRECTION('axis',(0.,0.,1.));
#747=DIRECTION('refdir',(1.,0.,0.));
#748=DIRECTION('center_axis',(0.,0.,1.));
#749=DIRECTION('ref_axis',(0.906345498206484,-0.422537380453895,0.));
#750=DIRECTION('',(0.,-0.707106781186548,0.707106781186547));
#751=DIRECTION('center_axis',(0.,0.,1.));
#752=DIRECTION('ref_axis',(0.906345498206484,-0.422537380453895,0.));
#753=DIRECTION('center_axis',(0.,0.,-1.));
#754=DIRECTION('ref_axis',(0.906345498206484,-0.422537380453895,0.));
#755=DIRECTION('center_axis',(0.,-0.707106781186548,-0.707106781186548));
#756=DIRECTION('ref_axis',(-1.,0.,0.));
#757=DIRECTION('',(-1.,0.,0.));
#758=DIRECTION('center_axis',(0.,-0.707106781186548,-0.707106781186548));
#759=DIRECTION('ref_axis',(5.23364152894592E-17,-0.707106781186547,0.707106781186547));
#760=DIRECTION('center_axis',(0.,-0.707106781186548,-0.707106781186548));
#761=DIRECTION('ref_axis',(7.85046229341888E-17,0.707106781186547,-0.707106781186547));
#762=DIRECTION('',(1.,0.,0.));
#763=DIRECTION('center_axis',(0.,0.,-1.));
#764=DIRECTION('ref_axis',(0.906345498206484,-0.422537380453895,0.));
#765=DIRECTION('',(0.,0.,-1.));
#766=DIRECTION('center_axis',(0.,0.,1.));
#767=DIRECTION('ref_axis',(0.906345498206484,-0.422537380453895,0.));
#768=DIRECTION('',(0.,0.,-1.));
#769=DIRECTION('center_axis',(0.,-0.707106781186548,0.707106781186548));
#770=DIRECTION('ref_axis',(1.,0.,0.));
#771=DIRECTION('center_axis',(0.,-0.707106781186548,0.707106781186548));
#772=DIRECTION('ref_axis',(5.23364152894592E-17,-0.707106781186547,-0.707106781186547));
#773=DIRECTION('',(1.,0.,0.));
#774=DIRECTION('',(0.,0.707106781186547,0.707106781186547));
#775=DIRECTION('',(-1.,0.,0.));
#776=DIRECTION('center_axis',(0.,0.,-1.));
#777=DIRECTION('ref_axis',(0.906345498206484,-0.422537380453895,0.));
#778=DIRECTION('center_axis',(0.,0.,-1.));
#779=DIRECTION('ref_axis',(0.906345498206484,-0.422537380453895,0.));
#780=DIRECTION('center_axis',(0.,-1.,0.));
#781=DIRECTION('ref_axis',(0.,0.,-1.));
#782=DIRECTION('',(0.,0.,1.));
#783=DIRECTION('',(0.,0.,-1.));
#784=DIRECTION('',(-1.,0.,0.));
#785=DIRECTION('',(0.,0.,1.));
#786=DIRECTION('',(1.,0.,0.));
#787=DIRECTION('center_axis',(0.,0.,-1.));
#788=DIRECTION('ref_axis',(0.707106781186547,-0.707106781186547,0.));
#789=DIRECTION('center_axis',(-0.707106781186548,0.,0.707106781186548));
#790=DIRECTION('ref_axis',(0.707106781186547,-7.85046229341888E-17,0.707106781186547));
#791=DIRECTION('',(0.,0.,1.));
#792=DIRECTION('center_axis',(0.,0.,-1.));
#793=DIRECTION('ref_axis',(0.707106781186547,-0.707106781186547,0.));
#794=DIRECTION('',(0.,0.,-1.));
#795=DIRECTION('center_axis',(1.,0.,0.));
#796=DIRECTION('ref_axis',(0.,0.,-1.));
#797=DIRECTION('',(0.,-1.,0.));
#798=DIRECTION('',(0.,0.,-1.));
#799=DIRECTION('',(0.,-1.,0.));
#800=DIRECTION('center_axis',(-1.,0.,0.));
#801=DIRECTION('ref_axis',(0.,0.,-1.));
#802=DIRECTION('center_axis',(0.707106781186548,0.,-0.707106781186548));
#803=DIRECTION('ref_axis',(-0.707106781186548,0.,-0.707106781186548));
#804=DIRECTION('',(-0.707106781186548,0.,-0.707106781186548));
#805=DIRECTION('',(0.,1.,0.));
#806=DIRECTION('center_axis',(-0.707106781186548,0.,0.707106781186548));
#807=DIRECTION('ref_axis',(0.707106781186547,7.85046229341888E-17,0.707106781186547));
#808=DIRECTION('center_axis',(0.,0.,1.));
#809=DIRECTION('ref_axis',(0.707106781186547,0.707106781186547,0.));
#810=DIRECTION('center_axis',(0.,0.,-1.));
#811=DIRECTION('ref_axis',(0.707106781186547,0.707106781186547,0.));
#812=DIRECTION('center_axis',(0.,0.,1.));
#813=DIRECTION('ref_axis',(0.707106781186547,0.707106781186547,0.));
#814=DIRECTION('',(0.,0.,1.));
#815=DIRECTION('center_axis',(0.,0.,-1.));
#816=DIRECTION('ref_axis',(-1.,0.,0.));
#817=DIRECTION('',(1.,0.,0.));
#818=DIRECTION('',(-1.,0.,0.));
#819=DIRECTION('',(0.,1.,0.));
#820=DIRECTION('center_axis',(0.,0.,-1.));
#821=DIRECTION('ref_axis',(0.707106781186547,0.707106781186547,0.));
#822=DIRECTION('',(-1.,0.,0.));
#823=DIRECTION('center_axis',(0.,0.,-1.));
#824=DIRECTION('ref_axis',(-0.707106781186547,0.707106781186547,0.));
#825=DIRECTION('',(0.,1.,0.));
#826=DIRECTION('center_axis',(0.,0.,-1.));
#827=DIRECTION('ref_axis',(-0.707106781186547,-0.707106781186547,0.));
#828=DIRECTION('',(-1.,0.,0.));
#829=DIRECTION('center_axis',(0.,0.,-1.));
#830=DIRECTION('ref_axis',(0.707106781186547,-0.707106781186547,0.));
#831=DIRECTION('center_axis',(0.,-1.,0.));
#832=DIRECTION('ref_axis',(-1.,0.,0.));
#833=DIRECTION('',(1.,0.,0.));
#834=DIRECTION('',(0.,0.,-1.));
#835=DIRECTION('center_axis',(0.,0.,-1.));
#836=DIRECTION('ref_axis',(0.,1.,0.));
#837=DIRECTION('',(0.,-1.,0.));
#838=DIRECTION('',(-1.,0.,0.));
#839=DIRECTION('center_axis',(-1.,0.,0.));
#840=DIRECTION('ref_axis',(0.,1.,0.));
#841=DIRECTION('',(0.,-1.,0.));
#842=DIRECTION('',(0.,0.,-1.));
#843=DIRECTION('center_axis',(0.,1.,0.));
#844=DIRECTION('ref_axis',(1.,0.,0.));
#845=DIRECTION('center_axis',(1.,0.,0.));
#846=DIRECTION('ref_axis',(0.,0.,-1.));
#847=DIRECTION('center_axis',(-1.,0.,0.));
#848=DIRECTION('ref_axis',(0.,0.,-1.));
#849=DIRECTION('',(0.,1.,0.));
#850=DIRECTION('',(0.,1.,0.));
#851=DIRECTION('',(0.,0.,-1.));
#852=DIRECTION('center_axis',(-1.,0.,0.));
#853=DIRECTION('ref_axis',(0.,0.,-1.));
#854=DIRECTION('center_axis',(0.,1.,0.));
#855=DIRECTION('ref_axis',(0.,0.,1.));
#856=DIRECTION('',(-1.,0.,0.));
#857=DIRECTION('',(1.,0.,0.));
#858=DIRECTION('',(0.,0.,1.));
#859=DIRECTION('center_axis',(0.,0.,1.));
#860=DIRECTION('ref_axis',(1.,0.,0.));
#861=DIRECTION('',(0.,1.,0.));
#862=DIRECTION('center_axis',(-1.,0.,0.));
#863=DIRECTION('ref_axis',(0.,0.,1.));
#864=DIRECTION('center_axis',(1.,0.,0.));
#865=DIRECTION('ref_axis',(0.,0.,-1.));
#866=DIRECTION('',(0.,1.,0.));
#867=DIRECTION('center_axis',(1.,0.,0.));
#868=DIRECTION('ref_axis',(0.,0.,-1.));
#869=DIRECTION('center_axis',(0.,0.,-1.));
#870=DIRECTION('ref_axis',(-1.,0.,0.));
#871=DIRECTION('',(1.,0.,0.));
#872=DIRECTION('center_axis',(1.,0.,0.));
#873=DIRECTION('ref_axis',(0.,0.,-1.));
#874=DIRECTION('',(-1.,0.,0.));
#875=DIRECTION('',(-1.,0.,0.));
#876=DIRECTION('center_axis',(1.,0.,0.));
#877=DIRECTION('ref_axis',(0.,0.,-1.));
#878=DIRECTION('center_axis',(0.,0.768221279597376,0.64018439966448));
#879=DIRECTION('ref_axis',(0.,0.64018439966448,-0.768221279597376));
#880=DIRECTION('center_axis',(0.,-0.64018439966448,-0.768221279597376));
#881=DIRECTION('ref_axis',(0.,0.768221279597376,-0.64018439966448));
#882=DIRECTION('center_axis',(-1.,8.88178419700125E-16,-8.88178419700125E-16));
#883=DIRECTION('ref_axis',(8.88178419700125E-16,1.,0.));
#884=DIRECTION('center_axis',(-0.64018439966448,0.,-0.768221279597376));
#885=DIRECTION('ref_axis',(0.768221279597376,0.,-0.64018439966448));
#886=DIRECTION('center_axis',(0.768221279597376,0.,0.64018439966448));
#887=DIRECTION('ref_axis',(0.64018439966448,0.,-0.768221279597376));
#888=DIRECTION('center_axis',(0.,-1.,0.));
#889=DIRECTION('ref_axis',(0.,0.,-1.));
#890=DIRECTION('center_axis',(0.,0.,1.));
#891=DIRECTION('ref_axis',(0.707106781186547,0.707106781186547,0.));
#892=DIRECTION('center_axis',(0.,0.,-1.));
#893=DIRECTION('ref_axis',(1.,0.,0.));
#894=DIRECTION('',(0.,0.,1.));
#895=DIRECTION('center_axis',(1.,0.,0.));
#896=DIRECTION('ref_axis',(0.,1.,0.));
#897=DIRECTION('center_axis',(0.,0.,-1.));
#898=DIRECTION('ref_axis',(0.707106781186547,-0.707106781186547,0.));
#899=DIRECTION('',(0.,0.,-1.));
#900=DIRECTION('center_axis',(0.,1.,0.));
#901=DIRECTION('ref_axis',(-1.,0.,0.));
#902=DIRECTION('',(0.,0.,1.));
#903=DIRECTION('',(-1.,0.,0.));
#904=DIRECTION('center_axis',(0.,0.,1.));
#905=DIRECTION('ref_axis',(-0.707106781186547,-0.707106781186547,0.));
#906=DIRECTION('',(0.,0.,-1.));
#907=DIRECTION('center_axis',(0.,0.,-1.));
#908=DIRECTION('ref_axis',(-1.,0.,0.));
#909=DIRECTION('center_axis',(1.,0.,0.));
#910=DIRECTION('ref_axis',(0.,-0.707106781186547,-0.707106781186547));
#911=DIRECTION('center_axis',(-1.,0.,0.));
#912=DIRECTION('ref_axis',(0.,-1.,0.));
#913=DIRECTION('',(1.,0.,0.));
#914=DIRECTION('center_axis',(0.,1.,0.));
#915=DIRECTION('ref_axis',(0.707106781186547,0.,-0.707106781186547));
#916=DIRECTION('',(0.,1.,0.));
#917=DIRECTION('center_axis',(0.,1.,0.));
#918=DIRECTION('ref_axis',(0.,0.,-1.));
#919=DIRECTION('center_axis',(0.408248290463862,-0.816496580927729,-0.408248290463859));
#920=DIRECTION('ref_axis',(0.577350269189624,0.577350269189627,-0.577350269189627));
#921=DIRECTION('center_axis',(1.,0.,0.));
#922=DIRECTION('ref_axis',(0.,1.,0.));
#923=DIRECTION('center_axis',(0.,-1.,0.));
#924=DIRECTION('ref_axis',(1.,0.,0.));
#925=DIRECTION('',(0.,0.,-1.));
#926=DIRECTION('',(1.,0.,0.));
#927=DIRECTION('center_axis',(1.,0.,0.));
#928=DIRECTION('ref_axis',(0.,1.,0.));
#929=DIRECTION('',(0.,0.,1.));
#930=DIRECTION('',(0.,1.,0.));
#931=DIRECTION('center_axis',(0.408248290463863,-0.816496580927726,0.408248290463863));
#932=DIRECTION('ref_axis',(-0.577350269189626,-0.577350269189625,-0.577350269189626));
#933=DIRECTION('center_axis',(0.,-1.,0.));
#934=DIRECTION('ref_axis',(0.,0.,-1.));
#935=DIRECTION('center_axis',(0.,0.,1.));
#936=DIRECTION('ref_axis',(1.,0.,0.));
#937=DIRECTION('',(0.,-1.,0.));
#938=DIRECTION('',(-1.,0.,0.));
#939=DIRECTION('center_axis',(-1.,0.,0.));
#940=DIRECTION('ref_axis',(0.,0.707106781186547,-0.707106781186547));
#941=DIRECTION('center_axis',(0.,0.,-1.));
#942=DIRECTION('ref_axis',(-0.707106781186547,0.707106781186547,0.));
#943=DIRECTION('center_axis',(0.,-1.,0.));
#944=DIRECTION('ref_axis',(-0.707106781186547,0.,-0.707106781186547));
#945=CARTESIAN_POINT('',(0.,0.,0.));
#946=CARTESIAN_POINT('Origin',(233.230463663301,265.,-442.5));
#947=CARTESIAN_POINT('',(233.230463663301,235.,-445.));
#948=CARTESIAN_POINT('',(233.230463663301,230.,-440.));
#949=CARTESIAN_POINT('',(233.230463663301,232.5,-442.5));
#950=CARTESIAN_POINT('',(259.332018187812,250.211191684114,-445.));
#951=CARTESIAN_POINT('Origin',(233.230463663301,265.,-445.));
#952=CARTESIAN_POINT('',(264.952556100528,250.211191684114,-440.));
#953=CARTESIAN_POINT('Ctrl Pts',(264.952556100528,250.211191684114,-440.));
#954=CARTESIAN_POINT('Ctrl Pts',(261.926112609065,250.211191684114,-442.743003434065));
#955=CARTESIAN_POINT('Ctrl Pts',(259.332018187812,250.211191684114,-445.));
#956=CARTESIAN_POINT('Origin',(233.230463663301,265.,-440.));
#957=CARTESIAN_POINT('Origin',(100.,232.5,-442.5));
#958=CARTESIAN_POINT('',(100.,230.,-440.));
#959=CARTESIAN_POINT('',(100.,230.,-440.));
#960=CARTESIAN_POINT('',(99.7880607233954,233.559696383023,-443.559696383023));
#961=CARTESIAN_POINT('Origin',(70.,230.,-440.));
#962=CARTESIAN_POINT('',(100.,235.,-445.));
#963=CARTESIAN_POINT('Origin',(95.,235.,-445.));
#964=CARTESIAN_POINT('',(100.,235.,-445.));
#965=CARTESIAN_POINT('Origin',(233.230463663301,265.,-340.));
#966=CARTESIAN_POINT('',(264.952556100528,250.211191684114,-345.));
#967=CARTESIAN_POINT('',(264.952556100528,250.211191684114,-340.));
#968=CARTESIAN_POINT('',(233.230463663301,230.,-345.));
#969=CARTESIAN_POINT('Origin',(233.230463663301,265.,-345.));
#970=CARTESIAN_POINT('',(233.230463663301,230.,-340.));
#971=CARTESIAN_POINT('Origin',(75.,232.5,-342.5));
#972=CARTESIAN_POINT('',(99.5803989154981,235.,-340.));
#973=CARTESIAN_POINT('',(100.,230.,-345.));
#974=CARTESIAN_POINT('Origin',(70.,230.,-345.));
#975=CARTESIAN_POINT('',(75.,230.,-345.));
#976=CARTESIAN_POINT('',(233.230463663301,235.,-340.));
#977=CARTESIAN_POINT('',(233.230463663301,230.,-345.));
#978=CARTESIAN_POINT('',(75.,235.,-340.));
#979=CARTESIAN_POINT('Origin',(233.230463663301,265.,-342.5));
#980=CARTESIAN_POINT('',(259.332018187812,250.211191684114,-340.));
#981=CARTESIAN_POINT('Ctrl Pts',(259.332018187812,250.211191684114,-340.));
#982=CARTESIAN_POINT('Ctrl Pts',(261.926112609065,250.211191684114,-342.256996565936));
#983=CARTESIAN_POINT('Ctrl Pts',(264.952556100528,250.211191684114,-345.));
#984=CARTESIAN_POINT('Origin',(233.230463663301,265.,-340.));
#985=CARTESIAN_POINT('Origin',(100.,230.,-340.));
#986=CARTESIAN_POINT('',(100.,230.,-440.));
#987=CARTESIAN_POINT('',(168.336332841936,230.,-374.121747444196));
#988=CARTESIAN_POINT('',(168.336332841936,230.,-405.071245021764));
#989=CARTESIAN_POINT('',(168.336332841936,230.,-357.060873722098));
#990=CARTESIAN_POINT('',(125.350919539759,230.,-405.071245021764));
#991=CARTESIAN_POINT('',(134.168166420968,230.,-405.071245021764));
#992=CARTESIAN_POINT('',(125.350919539759,230.,-374.121747444196));
#993=CARTESIAN_POINT('',(125.350919539759,230.,-372.535622510882));
#994=CARTESIAN_POINT('',(112.675459769879,230.,-374.121747444196));
#995=CARTESIAN_POINT('Origin',(297.5,252.711191684114,-366.25));
#996=CARTESIAN_POINT('',(297.5,250.211191684114,-442.5));
#997=CARTESIAN_POINT('',(300.,252.711191684114,-440.));
#998=CARTESIAN_POINT('Origin',(297.5,252.711191684114,-442.5));
#999=CARTESIAN_POINT('',(300.,252.711191684114,-340.));
#1000=CARTESIAN_POINT('',(300.,252.711191684114,-366.25));
#1001=CARTESIAN_POINT('',(297.5,250.211191684114,-340.));
#1002=CARTESIAN_POINT('Origin',(297.5,252.711191684114,-340.));
#1003=CARTESIAN_POINT('',(297.5,250.211191684114,-366.25));
#1004=CARTESIAN_POINT('Origin',(300.,272.5,-392.5));
#1005=CARTESIAN_POINT('',(300.,284.336014978997,-440.));
#1006=CARTESIAN_POINT('',(300.,251.25,-440.));
#1007=CARTESIAN_POINT('',(300.,284.336014978997,-340.));
#1008=CARTESIAN_POINT('',(300.,284.336014978997,-366.25));
#1009=CARTESIAN_POINT('',(300.,315.,-340.));
#1010=CARTESIAN_POINT('',(300.,270.,-385.857864376269));
#1011=CARTESIAN_POINT('Origin',(300.,270.,-400.));
#1012=CARTESIAN_POINT('Origin',(297.5,251.25,-442.5));
#1013=CARTESIAN_POINT('',(295.,250.211191684114,-445.));
#1014=CARTESIAN_POINT('',(314.988139025132,250.211191684114,-425.011860974868));
#1015=CARTESIAN_POINT('',(295.,292.996269016841,-445.));
#1016=CARTESIAN_POINT('',(295.,251.25,-445.));
#1017=CARTESIAN_POINT('Origin',(290.,284.336014978997,-450.));
#1018=CARTESIAN_POINT('Origin',(290.,284.336014978997,-366.25));
#1019=CARTESIAN_POINT('',(290.,294.336014978997,-340.));
#1020=CARTESIAN_POINT('Origin',(290.,284.336014978997,-340.));
#1021=CARTESIAN_POINT('',(290.,294.336014978997,-445.));
#1022=CARTESIAN_POINT('Origin',(290.,284.336014978997,-445.));
#1023=CARTESIAN_POINT('',(290.,294.336014978997,-366.25));
#1024=CARTESIAN_POINT('Origin',(50.,260.,-340.));
#1025=CARTESIAN_POINT('',(157.476278050264,250.211191684114,-340.));
#1026=CARTESIAN_POINT('',(100.,294.336014978997,-340.));
#1027=CARTESIAN_POINT('',(175.,294.336014978997,-340.));
#1028=CARTESIAN_POINT('',(100.,315.,-340.));
#1029=CARTESIAN_POINT('',(100.,277.168007489498,-340.));
#1030=CARTESIAN_POINT('',(95.,320.,-340.));
#1031=CARTESIAN_POINT('Origin',(95.,315.,-340.));
#1032=CARTESIAN_POINT('',(30.,320.,-340.));
#1033=CARTESIAN_POINT('',(50.,320.,-340.));
#1034=CARTESIAN_POINT('',(0.,290.,-340.));
#1035=CARTESIAN_POINT('Origin',(30.,290.,-340.));
#1036=CARTESIAN_POINT('',(0.,230.,-340.));
#1037=CARTESIAN_POINT('',(0.,260.,-340.));
#1038=CARTESIAN_POINT('',(30.,200.,-340.));
#1039=CARTESIAN_POINT('Origin',(30.,230.,-340.));
#1040=CARTESIAN_POINT('',(70.,200.,-340.));
#1041=CARTESIAN_POINT('',(50.,200.,-340.));
#1042=CARTESIAN_POINT('Origin',(70.,230.,-340.));
#1043=CARTESIAN_POINT('Origin',(300.,294.336014978997,-340.));
#1044=CARTESIAN_POINT('',(100.,294.336014978997,-445.));
#1045=CARTESIAN_POINT('',(200.,294.336014978997,-445.));
#1046=CARTESIAN_POINT('',(100.,294.336014978997,-340.));
#1047=CARTESIAN_POINT('Origin',(100.,230.,-445.));
#1048=CARTESIAN_POINT('',(100.,260.,-445.));
#1049=CARTESIAN_POINT('',(182.476278050264,250.211191684114,-445.));
#1050=CARTESIAN_POINT('Origin',(100.,294.336014978997,-340.));
#1051=CARTESIAN_POINT('',(100.,315.,-445.));
#1052=CARTESIAN_POINT('',(100.,260.,-445.));
#1053=CARTESIAN_POINT('',(100.,315.,-440.));
#1054=CARTESIAN_POINT('Origin',(264.952556100528,250.211191684114,-340.));
#1055=CARTESIAN_POINT('Origin',(168.336332841936,230.,-374.121747444196));
#1056=CARTESIAN_POINT('',(168.336332841936,256.798391237079,-405.071245021764));
#1057=CARTESIAN_POINT('',(168.336332841936,270.,-385.857864376269));
#1058=CARTESIAN_POINT('Origin',(168.336332841936,270.,-400.));
#1059=CARTESIAN_POINT('',(168.336332841936,230.,-405.071245021764));
#1060=CARTESIAN_POINT('',(168.336332841936,280.,-374.121747444196));
#1061=CARTESIAN_POINT('',(168.336332841936,230.,-374.121747444196));
#1062=CARTESIAN_POINT('',(168.336332841936,280.,-390.));
#1063=CARTESIAN_POINT('',(168.336332841936,280.,-374.121747444196));
#1064=CARTESIAN_POINT('Origin',(168.336332841936,270.,-400.));
#1065=CARTESIAN_POINT('Origin',(146.843626190848,280.,-389.59649623298));
#1066=CARTESIAN_POINT('',(125.350919539759,280.,-390.));
#1067=CARTESIAN_POINT('',(100.,280.,-390.));
#1068=CARTESIAN_POINT('',(125.350919539759,280.,-374.121747444196));
#1069=CARTESIAN_POINT('',(125.350919539759,280.,-374.121747444196));
#1070=CARTESIAN_POINT('',(125.350919539759,280.,-405.071245021764));
#1071=CARTESIAN_POINT('Origin',(125.350919539759,230.,-374.121747444196));
#1072=CARTESIAN_POINT('',(125.350919539759,230.,-374.121747444196));
#1073=CARTESIAN_POINT('Origin',(125.350919539759,230.,-405.071245021764));
#1074=CARTESIAN_POINT('',(125.350919539759,270.,-385.857864376269));
#1075=CARTESIAN_POINT('Origin',(125.350919539759,270.,-400.));
#1076=CARTESIAN_POINT('',(125.350919539759,256.798391237079,-405.071245021764));
#1077=CARTESIAN_POINT('',(125.350919539759,230.,-405.071245021764));
#1078=CARTESIAN_POINT('Origin',(125.350919539759,270.,-400.));
#1079=CARTESIAN_POINT('Origin',(168.336332841936,230.,-405.071245021764));
#1080=CARTESIAN_POINT('',(100.,256.798391237079,-405.071245021764));
#1081=CARTESIAN_POINT('Origin',(100.,270.,-400.));
#1082=CARTESIAN_POINT('',(100.,270.,-385.857864376269));
#1083=CARTESIAN_POINT('',(100.,270.,-385.857864376269));
#1084=CARTESIAN_POINT('',(100.,270.,-385.857864376269));
#1085=CARTESIAN_POINT('Origin',(100.,270.,-400.));
#1086=CARTESIAN_POINT('Ctrl Pts',(30.,315.,-450.));
#1087=CARTESIAN_POINT('Ctrl Pts',(27.7560052474359,315.,-450.));
#1088=CARTESIAN_POINT('Ctrl Pts',(23.2706817634411,314.576547994499,-449.491857593398));
#1089=CARTESIAN_POINT('Ctrl Pts',(14.7391540897491,312.096144667299,-446.515373600759));
#1090=CARTESIAN_POINT('Ctrl Pts',(7.54943027566631,307.314180571456,-440.777016685747));
#1091=CARTESIAN_POINT('Ctrl Pts',(1.54314252143814,299.343171159103,-431.211805390924));
#1092=CARTESIAN_POINT('Ctrl Pts',(3.32177952191298E-16,293.739991254274,
-424.487989505128));
#1093=CARTESIAN_POINT('Ctrl Pts',(0.,290.,-420.));
#1094=CARTESIAN_POINT('Ctrl Pts',(30.,315.747998250855,-450.));
#1095=CARTESIAN_POINT('Ctrl Pts',(27.6999660535059,315.747998250855,-450.));
#1096=CARTESIAN_POINT('Ctrl Pts',(23.1034986028271,315.295298833267,-449.466032134853));
#1097=CARTESIAN_POINT('Ctrl Pts',(14.4576575167159,312.665204629743,-446.367874298234));
#1098=CARTESIAN_POINT('Ctrl Pts',(7.34979227515026,307.69453870045,-440.54542695347));
#1099=CARTESIAN_POINT('Ctrl Pts',(1.48958552487687,299.522235739993,-431.036315857762));
#1100=CARTESIAN_POINT('Ctrl Pts',(3.32177952191299E-16,293.811229182926,
-424.416751576475));
#1101=CARTESIAN_POINT('Ctrl Pts',(0.,290.,-420.));
#1102=CARTESIAN_POINT('Ctrl Pts',(30.,317.24063550642,-449.657556415359));
#1103=CARTESIAN_POINT('Ctrl Pts',(27.613789315781,317.24063550642,-449.657556415359));
#1104=CARTESIAN_POINT('Ctrl Pts',(22.8463319999986,316.729906052042,-449.092804120072));
#1105=CARTESIAN_POINT('Ctrl Pts',(14.0332221168758,313.801719667735,-445.861591074192));
#1106=CARTESIAN_POINT('Ctrl Pts',(7.05833018961833,308.454801731086,-440.001229442638));
#1107=CARTESIAN_POINT('Ctrl Pts',(1.41343617014519,299.880108133917,-430.683144026671));
#1108=CARTESIAN_POINT('Ctrl Pts',(3.32177952191298E-16,293.953705040232,
-424.27427571917));
#1109=CARTESIAN_POINT('Ctrl Pts',(0.,290.,-420.));
#1110=CARTESIAN_POINT('Ctrl Pts',(30.,319.343368027743,-447.984838582791));
#1111=CARTESIAN_POINT('Ctrl Pts',(27.5817657856032,319.343368027743,-447.984838582791));
#1112=CARTESIAN_POINT('Ctrl Pts',(22.7506675804881,318.772787016242,-447.445239497271));
#1113=CARTESIAN_POINT('Ctrl Pts',(13.8778140703608,315.523869876867,-444.370360422494));
#1114=CARTESIAN_POINT('Ctrl Pts',(6.9543508500639,309.697971110213,-438.835606679159));
#1115=CARTESIAN_POINT('Ctrl Pts',(1.38684109187122,300.505733721464,-430.059741167411));
#1116=CARTESIAN_POINT('Ctrl Pts',(3.32177952191298E-16,294.203037790517,
-424.024942968885));
#1117=CARTESIAN_POINT('Ctrl Pts',(0.,290.,-420.));
#1118=CARTESIAN_POINT('Ctrl Pts',(30.,320.,-446.121997376282));
#1119=CARTESIAN_POINT('Ctrl Pts',(27.6715210715536,320.,-446.121997376282));
#1120=CARTESIAN_POINT('Ctrl Pts',(23.0188099827544,319.453484124433,-445.654727501155));
#1121=CARTESIAN_POINT('Ctrl Pts',(14.3155504892333,316.292496809279,-442.949308560708));
#1122=CARTESIAN_POINT('Ctrl Pts',(7.24969876346678,310.4283151474,-437.884425083869));
#1123=CARTESIAN_POINT('Ctrl Pts',(1.46295031172907,300.947283412554,-429.611503743003));
#1124=CARTESIAN_POINT('Ctrl Pts',(3.32177952191298E-16,294.381132612149,
-423.846848147253));
#1125=CARTESIAN_POINT('Ctrl Pts',(0.,290.,-420.));
#1126=CARTESIAN_POINT('Ctrl Pts',(30.,320.,-445.));
#1127=CARTESIAN_POINT('Ctrl Pts',(27.7560052474359,320.,-445.));
#1128=CARTESIAN_POINT('Ctrl Pts',(23.2706817634411,319.491857593398,-444.576547994499));
#1129=CARTESIAN_POINT('Ctrl Pts',(14.739154089749,316.515373600759,-442.096144667299));
#1130=CARTESIAN_POINT('Ctrl Pts',(7.5494302756663,310.777016685748,-437.314180571456));
#1131=CARTESIAN_POINT('Ctrl Pts',(1.54314252143814,301.211805390924,-429.343171159103));
#1132=CARTESIAN_POINT('Ctrl Pts',(3.32177952191298E-16,294.487989505128,
-423.739991254274));
#1133=CARTESIAN_POINT('Ctrl Pts',(0.,290.,-420.));
#1134=CARTESIAN_POINT('',(30.,315.,-450.));
#1135=CARTESIAN_POINT('',(-4.44089209850063E-15,290.,-420.));
#1136=CARTESIAN_POINT('Origin',(30.,290.,-420.));
#1137=CARTESIAN_POINT('',(30.,320.,-445.));
#1138=CARTESIAN_POINT('Origin',(30.,290.,-420.));
#1139=CARTESIAN_POINT('Origin',(30.,315.,-445.));
#1140=CARTESIAN_POINT('Ctrl Pts',(100.,230.,-445.));
#1141=CARTESIAN_POINT('Ctrl Pts',(100.,227.756005247436,-445.));
#1142=CARTESIAN_POINT('Ctrl Pts',(99.4918617940872,223.270674596636,-444.576551495073));
#1143=CARTESIAN_POINT('Ctrl Pts',(96.5153810755509,214.739141147002,-442.096150896292));
#1144=CARTESIAN_POINT('Ctrl Pts',(90.7770255972504,207.54941312594,-437.314187997709));
#1145=CARTESIAN_POINT('Ctrl Pts',(81.2118142999704,201.543121194858,-429.343178583309));
#1146=CARTESIAN_POINT('Ctrl Pts',(74.4879895051283,200.,-423.739991254274));
#1147=CARTESIAN_POINT('Ctrl Pts',(70.,200.,-420.));
#1148=CARTESIAN_POINT('Ctrl Pts',(100.,230.,-445.747998250855));
#1149=CARTESIAN_POINT('Ctrl Pts',(100.,227.699966053506,-445.747998250855));
#1150=CARTESIAN_POINT('Ctrl Pts',(99.4660352325075,223.1034930441,-445.295301768144));
#1151=CARTESIAN_POINT('Ctrl Pts',(96.3678796216736,214.457646909553,-442.665209692739));
#1152=CARTESIAN_POINT('Ctrl Pts',(90.5454335418695,207.3497778504,-437.694544886742));
#1153=CARTESIAN_POINT('Ctrl Pts',(81.0363227418374,201.489567738955,-429.522242207086));
#1154=CARTESIAN_POINT('Ctrl Pts',(74.4167515764755,200.,-423.811229182926));
#1155=CARTESIAN_POINT('Ctrl Pts',(70.,200.,-420.));
#1156=CARTESIAN_POINT('Ctrl Pts',(99.6575568146636,230.,-447.240636253229));
#1157=CARTESIAN_POINT('Ctrl Pts',(99.6575568146636,227.613789315781,-447.240636253229));
#1158=CARTESIAN_POINT('Ctrl Pts',(99.0928056693072,222.846329033922,-446.729909149239));
#1159=CARTESIAN_POINT('Ctrl Pts',(95.8615928519148,214.033215331147,-443.801724282634));
#1160=CARTESIAN_POINT('Ctrl Pts',(90.0012317014154,207.058320086584,-438.454807471824));
#1161=CARTESIAN_POINT('Ctrl Pts',(80.6831470191522,201.413423693845,-429.880114747074));
#1162=CARTESIAN_POINT('Ctrl Pts',(74.2742757191698,200.,-423.953705040232));
#1163=CARTESIAN_POINT('Ctrl Pts',(70.,200.,-420.));
#1164=CARTESIAN_POINT('Ctrl Pts',(97.9848391650786,230.,-449.343369601087));
#1165=CARTESIAN_POINT('Ctrl Pts',(97.9848391650786,227.581765785603,-449.343369601087));
#1166=CARTESIAN_POINT('Ctrl Pts',(97.4452406739689,222.750663881226,-448.772788735642));
#1167=CARTESIAN_POINT('Ctrl Pts',(94.3703612978217,213.877806903135,-445.523870940702));
#1168=CARTESIAN_POINT('Ctrl Pts',(88.8356077596317,206.954340972783,-439.697971944972));
#1169=CARTESIAN_POINT('Ctrl Pts',(80.0597431674044,201.386829692656,-430.505735438128));
#1170=CARTESIAN_POINT('Ctrl Pts',(74.0249429688849,200.,-424.203037790517));
#1171=CARTESIAN_POINT('Ctrl Pts',(70.,200.,-420.));
#1172=CARTESIAN_POINT('Ctrl Pts',(96.1219973762821,230.,-450.));
#1173=CARTESIAN_POINT('Ctrl Pts',(96.1219973762821,227.671521071554,-450.));
#1174=CARTESIAN_POINT('Ctrl Pts',(95.6547309135816,223.018809067052,-449.453489579287));
#1175=CARTESIAN_POINT('Ctrl Pts',(92.9493144690796,214.315545266459,-446.2925068776));
#1176=CARTESIAN_POINT('Ctrl Pts',(87.8844324802138,207.24968895612,-440.428328486459));
#1177=CARTESIAN_POINT('Ctrl Pts',(79.611511606219,201.462936278559,-430.947297706538));
#1178=CARTESIAN_POINT('Ctrl Pts',(73.8468481472528,200.,-424.381132612149));
#1179=CARTESIAN_POINT('Ctrl Pts',(70.,200.,-420.));
#1180=CARTESIAN_POINT('Ctrl Pts',(95.,230.,-450.));
#1181=CARTESIAN_POINT('Ctrl Pts',(95.,227.756005247436,-450.));
#1182=CARTESIAN_POINT('Ctrl Pts',(94.5765514950727,223.270674596636,-449.491861794087));
#1183=CARTESIAN_POINT('Ctrl Pts',(92.0961508962924,214.739141147002,-446.515381075551));
#1184=CARTESIAN_POINT('Ctrl Pts',(87.3141879977086,207.54941312594,-440.77702559725));
#1185=CARTESIAN_POINT('Ctrl Pts',(79.3431785833087,201.543121194858,-431.21181429997));
#1186=CARTESIAN_POINT('Ctrl Pts',(73.7399912542736,200.,-424.487989505128));
#1187=CARTESIAN_POINT('Ctrl Pts',(70.,200.,-420.));
#1188=CARTESIAN_POINT('',(100.,230.,-445.));
#1189=CARTESIAN_POINT('',(70.,200.,-420.));
#1190=CARTESIAN_POINT('Origin',(70.,230.,-420.));
#1191=CARTESIAN_POINT('',(95.,230.,-450.));
#1192=CARTESIAN_POINT('Origin',(70.,230.,-420.));
#1193=CARTESIAN_POINT('Origin',(95.,230.,-445.));
#1194=CARTESIAN_POINT('Origin',(95.,315.,-440.));
#1195=CARTESIAN_POINT('',(95.,320.,-445.));
#1196=CARTESIAN_POINT('Origin',(95.,315.,-445.));
#1197=CARTESIAN_POINT('',(95.,320.,-440.));
#1198=CARTESIAN_POINT('Origin',(100.,260.,-440.));
#1199=CARTESIAN_POINT('Origin',(70.,230.,-440.));
#1200=CARTESIAN_POINT('Ctrl Pts',(99.7880607233955,233.559696383023,-443.559696383023));
#1201=CARTESIAN_POINT('Ctrl Pts',(99.9339291139496,232.339048325459,-444.044612690504));
#1202=CARTESIAN_POINT('Ctrl Pts',(100.,231.138375216026,-444.535260264151));
#1203=CARTESIAN_POINT('Ctrl Pts',(100.,230.,-445.));
#1204=CARTESIAN_POINT('',(70.,200.,-440.));
#1205=CARTESIAN_POINT('Origin',(50.,200.,-440.));
#1206=CARTESIAN_POINT('',(30.,200.,-420.));
#1207=CARTESIAN_POINT('',(30.,200.,-440.));
#1208=CARTESIAN_POINT('',(50.,200.,-420.));
#1209=CARTESIAN_POINT('Origin',(30.,230.,-440.));
#1210=CARTESIAN_POINT('',(0.,230.,-420.));
#1211=CARTESIAN_POINT('',(0.,230.,-440.));
#1212=CARTESIAN_POINT('Origin',(30.,230.,-420.));
#1213=CARTESIAN_POINT('Origin',(50.,230.,-420.));
#1214=CARTESIAN_POINT('',(30.,230.,-450.));
#1215=CARTESIAN_POINT('Origin',(30.,230.,-420.));
#1216=CARTESIAN_POINT('',(50.,230.,-450.));
#1217=CARTESIAN_POINT('Origin',(95.,260.,-445.));
#1218=CARTESIAN_POINT('',(95.,315.,-450.));
#1219=CARTESIAN_POINT('',(95.,260.,-450.));
#1220=CARTESIAN_POINT('Origin',(95.,315.,-445.));
#1221=CARTESIAN_POINT('Origin',(95.,315.,-445.));
#1222=CARTESIAN_POINT('Origin',(95.,315.,-445.));
#1223=CARTESIAN_POINT('Origin',(50.,320.,-440.));
#1224=CARTESIAN_POINT('',(30.,320.,-440.));
#1225=CARTESIAN_POINT('',(50.,320.,-445.));
#1226=CARTESIAN_POINT('Origin',(0.,260.,-440.));
#1227=CARTESIAN_POINT('',(0.,290.,-440.));
#1228=CARTESIAN_POINT('',(0.,260.,-420.));
#1229=CARTESIAN_POINT('Origin',(30.,230.,-420.));
#1230=CARTESIAN_POINT('Origin',(30.,230.,-420.));
#1231=CARTESIAN_POINT('Origin',(50.,260.,-450.));
#1232=CARTESIAN_POINT('',(30.,260.,-450.));
#1233=CARTESIAN_POINT('',(50.,315.,-450.));
#1234=CARTESIAN_POINT('Origin',(50.,315.,-445.));
#1235=CARTESIAN_POINT('Origin',(30.,290.,-440.));
#1236=CARTESIAN_POINT('Origin',(30.,260.,-420.));
#1237=UNCERTAINTY_MEASURE_WITH_UNIT(LENGTH_MEASURE(0.01),#1241,
'DISTANCE_ACCURACY_VALUE',
'Maximum model space distance between geometric entities at asserted c
onnectivities');
#1238=UNCERTAINTY_MEASURE_WITH_UNIT(LENGTH_MEASURE(0.01),#1241,
'DISTANCE_ACCURACY_VALUE',
'Maximum model space distance between geometric entities at asserted c
onnectivities');
#1239=(
GEOMETRIC_REPRESENTATION_CONTEXT(3)
GLOBAL_UNCERTAINTY_ASSIGNED_CONTEXT((#1237))
GLOBAL_UNIT_ASSIGNED_CONTEXT((#1241,#1243,#1244))
REPRESENTATION_CONTEXT('','3D')
);
#1240=(
GEOMETRIC_REPRESENTATION_CONTEXT(3)
GLOBAL_UNCERTAINTY_ASSIGNED_CONTEXT((#1238))
GLOBAL_UNIT_ASSIGNED_CONTEXT((#1241,#1243,#1244))
REPRESENTATION_CONTEXT('','3D')
);
#1241=(
LENGTH_UNIT()
NAMED_UNIT(*)
SI_UNIT(.MILLI.,.METRE.)
);
#1242=(
LENGTH_UNIT()
NAMED_UNIT(*)
SI_UNIT($,.METRE.)
);
#1243=(
NAMED_UNIT(*)
PLANE_ANGLE_UNIT()
SI_UNIT($,.RADIAN.)
);
#1244=(
NAMED_UNIT(*)
SI_UNIT($,.STERADIAN.)
SOLID_ANGLE_UNIT()
);
#1245=SHAPE_DEFINITION_REPRESENTATION(#1246,#1247);
#1246=PRODUCT_DEFINITION_SHAPE('',$,#1249);
#1247=SHAPE_REPRESENTATION('',(#675),#1239);
#1248=PRODUCT_DEFINITION_CONTEXT('part definition',#1253,'design');
#1249=PRODUCT_DEFINITION('Untitled','Untitled',#1250,#1248);
#1250=PRODUCT_DEFINITION_FORMATION('',$,#1255);
#1251=PRODUCT_RELATED_PRODUCT_CATEGORY('Untitled','Untitled',(#1255));
#1252=APPLICATION_PROTOCOL_DEFINITION('international standard',
'automotive_design',2009,#1253);
#1253=APPLICATION_CONTEXT(
'Core Data for Automotive Mechanical Design Process');
#1254=PRODUCT_CONTEXT('part definition',#1253,'mechanical');
#1255=PRODUCT('Untitled','Untitled',$,(#1254));
#1256=PRESENTATION_STYLE_ASSIGNMENT((#1258));
#1257=PRESENTATION_STYLE_ASSIGNMENT((#1259));
#1258=SURFACE_STYLE_USAGE(.BOTH.,#1260);
#1259=SURFACE_STYLE_USAGE(.BOTH.,#1261);
#1260=SURFACE_SIDE_STYLE('',(#1262));
#1261=SURFACE_SIDE_STYLE('',(#1263));
#1262=SURFACE_STYLE_FILL_AREA(#1264);
#1263=SURFACE_STYLE_FILL_AREA(#1265);
#1264=FILL_AREA_STYLE('Steel - Satin',(#1266));
#1265=FILL_AREA_STYLE('Paint - Metallic (Blue)',(#1267));
#1266=FILL_AREA_STYLE_COLOUR('Steel - Satin',#1268);
#1267=FILL_AREA_STYLE_COLOUR('Paint - Metallic (Blue)',#1269);
#1268=COLOUR_RGB('Steel - Satin',0.627450980392157,0.627450980392157,0.627450980392157);
#1269=COLOUR_RGB('Paint - Metallic (Blue)',0.188235294117647,0.231372549019608,
0.588235294117647);
ENDSEC;
END-ISO-10303-21;
