ISO-10303-21;
HEADER;
/* Generated by software containing ST-Developer
 * from STEP Tools, Inc. (www.steptools.com) 
 */

FILE_DESCRIPTION(
/* description */ (''),
/* implementation_level */ '2;1');

FILE_NAME(
/* name */ '41112_5e0d863e_a89e6908-05af-11ec-85a0-0adcfe058e47.step',
/* time_stamp */ '2026-02-10T10:26:35Z',
/* author */ (''),
/* organization */ (''),
/* preprocessor_version */ 'ST-DEVELOPER v20.1',
/* originating_system */ 'Autodesk Translation Framework v14.24.0.0',
/* authorisation */ '');

FILE_SCHEMA (('AUTOMOTIVE_DESIGN { 1 0 10303 214 3 1 1 }'));
ENDSEC;

DATA;
#10=MECHANICAL_DESIGN_GEOMETRIC_PRESENTATION_REPRESENTATION('',(#13),#623);
#11=SHAPE_REPRESENTATION_RELATIONSHIP('SRR','None',#630,#12);
#12=ADVANCED_BREP_SHAPE_REPRESENTATION('',(#14),#622);
#13=STYLED_ITEM('',(#640),#14);
#14=MANIFOLD_SOLID_BREP('Body1',#354);
#15=B_SPLINE_CURVE_WITH_KNOTS('',3,(#581,#582,#583,#584,#585,#586,#587,
#588),.UNSPECIFIED.,.F.,.F.,(4,2,2,4),(-2.6057878314102,-2.20234658600768,
-2.00062596330641,-1.79890534060515),.UNSPECIFIED.);
#16=B_SPLINE_CURVE_WITH_KNOTS('',3,(#590,#591,#592,#593,#594,#595,#596,
#597),.UNSPECIFIED.,.F.,.F.,(4,2,2,4),(-0.80688249080504,-0.60516186810378,
-0.40344124540252,0.),.UNSPECIFIED.);
#17=FACE_BOUND('',#53,.T.);
#18=FACE_BOUND('',#55,.T.);
#19=FACE_BOUND('',#61,.T.);
#20=FACE_BOUND('',#69,.T.);
#21=PLANE('',#374);
#22=PLANE('',#375);
#23=PLANE('',#377);
#24=PLANE('',#379);
#25=PLANE('',#388);
#26=PLANE('',#394);
#27=PLANE('',#395);
#28=PLANE('',#398);
#29=PLANE('',#401);
#30=PLANE('',#402);
#31=FACE_OUTER_BOUND('',#49,.T.);
#32=FACE_OUTER_BOUND('',#50,.T.);
#33=FACE_OUTER_BOUND('',#51,.T.);
#34=FACE_OUTER_BOUND('',#52,.T.);
#35=FACE_OUTER_BOUND('',#54,.T.);
#36=FACE_OUTER_BOUND('',#56,.T.);
#37=FACE_OUTER_BOUND('',#57,.T.);
#38=FACE_OUTER_BOUND('',#58,.T.);
#39=FACE_OUTER_BOUND('',#59,.T.);
#40=FACE_OUTER_BOUND('',#60,.T.);
#41=FACE_OUTER_BOUND('',#62,.T.);
#42=FACE_OUTER_BOUND('',#63,.T.);
#43=FACE_OUTER_BOUND('',#64,.T.);
#44=FACE_OUTER_BOUND('',#65,.T.);
#45=FACE_OUTER_BOUND('',#66,.T.);
#46=FACE_OUTER_BOUND('',#67,.T.);
#47=FACE_OUTER_BOUND('',#68,.T.);
#48=FACE_OUTER_BOUND('',#70,.T.);
#49=EDGE_LOOP('',(#230,#231,#232,#233));
#50=EDGE_LOOP('',(#234,#235,#236,#237));
#51=EDGE_LOOP('',(#238,#239,#240,#241));
#52=EDGE_LOOP('',(#242,#243,#244,#245));
#53=EDGE_LOOP('',(#246));
#54=EDGE_LOOP('',(#247,#248,#249,#250));
#55=EDGE_LOOP('',(#251));
#56=EDGE_LOOP('',(#252,#253,#254,#255,#256,#257,#258,#259));
#57=EDGE_LOOP('',(#260,#261,#262,#263));
#58=EDGE_LOOP('',(#264,#265,#266,#267));
#59=EDGE_LOOP('',(#268,#269,#270,#271));
#60=EDGE_LOOP('',(#272,#273,#274,#275,#276,#277,#278,#279));
#61=EDGE_LOOP('',(#280));
#62=EDGE_LOOP('',(#281,#282,#283,#284,#285,#286,#287));
#63=EDGE_LOOP('',(#288,#289,#290,#291,#292,#293,#294,#295));
#64=EDGE_LOOP('',(#296,#297,#298,#299));
#65=EDGE_LOOP('',(#300,#301,#302,#303,#304));
#66=EDGE_LOOP('',(#305,#306,#307,#308));
#67=EDGE_LOOP('',(#309,#310,#311,#312));
#68=EDGE_LOOP('',(#313,#314,#315,#316,#317,#318,#319,#320));
#69=EDGE_LOOP('',(#321));
#70=EDGE_LOOP('',(#322,#323,#324,#325,#326,#327));
#71=ELLIPSE('',#370,0.300182863289647,0.299999999999999);
#72=ELLIPSE('',#372,0.300182863289647,0.299999999999999);
#73=ELLIPSE('',#381,0.750457158224113,0.749999999999999);
#74=ELLIPSE('',#383,0.300182863289645,0.299999999999993);
#75=ELLIPSE('',#384,0.300182863289645,0.299999999999993);
#76=ELLIPSE('',#386,0.300182863289669,0.300000000000023);
#77=ELLIPSE('',#387,0.300182863289669,0.300000000000023);
#78=ELLIPSE('',#389,0.90054858986901,0.900000000000163);
#79=ELLIPSE('',#391,0.900548589868924,0.899999999999954);
#80=ELLIPSE('',#392,0.899988496023009,0.899976991829595);
#81=ELLIPSE('',#393,0.900149986540723,0.90007499009121);
#82=ELLIPSE('',#400,0.750457158224107,0.749999999999999);
#83=LINE('',#510,#113);
#84=LINE('',#516,#114);
#85=LINE('',#521,#115);
#86=LINE('',#523,#116);
#87=LINE('',#525,#117);
#88=LINE('',#526,#118);
#89=LINE('',#529,#119);
#90=LINE('',#531,#120);
#91=LINE('',#535,#121);
#92=LINE('',#538,#122);
#93=LINE('',#541,#123);
#94=LINE('',#543,#124);
#95=LINE('',#545,#125);
#96=LINE('',#547,#126);
#97=LINE('',#548,#127);
#98=LINE('',#551,#128);
#99=LINE('',#557,#129);
#100=LINE('',#563,#130);
#101=LINE('',#567,#131);
#102=LINE('',#571,#132);
#103=LINE('',#572,#133);
#104=LINE('',#575,#134);
#105=LINE('',#601,#135);
#106=LINE('',#602,#136);
#107=LINE('',#605,#137);
#108=LINE('',#606,#138);
#109=LINE('',#609,#139);
#110=LINE('',#613,#140);
#111=LINE('',#614,#141);
#112=LINE('',#618,#142);
#113=VECTOR('',#409,0.3);
#114=VECTOR('',#416,0.3);
#115=VECTOR('',#421,1.);
#116=VECTOR('',#422,1.);
#117=VECTOR('',#423,1.);
#118=VECTOR('',#424,1.);
#119=VECTOR('',#427,1.);
#120=VECTOR('',#428,1.);
#121=VECTOR('',#433,1.);
#122=VECTOR('',#436,1.);
#123=VECTOR('',#439,1.);
#124=VECTOR('',#440,1.);
#125=VECTOR('',#441,1.);
#126=VECTOR('',#442,1.);
#127=VECTOR('',#443,1.);
#128=VECTOR('',#446,1.);
#129=VECTOR('',#453,1.);
#130=VECTOR('',#460,1.);
#131=VECTOR('',#465,1.);
#132=VECTOR('',#468,1.);
#133=VECTOR('',#469,1.);
#134=VECTOR('',#472,1.);
#135=VECTOR('',#481,1.);
#136=VECTOR('',#482,1.);
#137=VECTOR('',#485,1.);
#138=VECTOR('',#486,1.);
#139=VECTOR('',#489,1.);
#140=VECTOR('',#494,1.);
#141=VECTOR('',#495,1.);
#142=VECTOR('',#502,1.);
#143=CIRCLE('',#369,0.3);
#144=CIRCLE('',#373,0.3);
#145=CIRCLE('',#376,0.749999999999999);
#146=CIRCLE('',#378,0.749999999999999);
#147=CIRCLE('',#397,0.3);
#148=VERTEX_POINT('',#507);
#149=VERTEX_POINT('',#509);
#150=VERTEX_POINT('',#513);
#151=VERTEX_POINT('',#515);
#152=VERTEX_POINT('',#519);
#153=VERTEX_POINT('',#520);
#154=VERTEX_POINT('',#522);
#155=VERTEX_POINT('',#524);
#156=VERTEX_POINT('',#528);
#157=VERTEX_POINT('',#530);
#158=VERTEX_POINT('',#534);
#159=VERTEX_POINT('',#536);
#160=VERTEX_POINT('',#540);
#161=VERTEX_POINT('',#542);
#162=VERTEX_POINT('',#544);
#163=VERTEX_POINT('',#546);
#164=VERTEX_POINT('',#550);
#165=VERTEX_POINT('',#554);
#166=VERTEX_POINT('',#556);
#167=VERTEX_POINT('',#560);
#168=VERTEX_POINT('',#562);
#169=VERTEX_POINT('',#566);
#170=VERTEX_POINT('',#568);
#171=VERTEX_POINT('',#570);
#172=VERTEX_POINT('',#574);
#173=VERTEX_POINT('',#576);
#174=VERTEX_POINT('',#578);
#175=VERTEX_POINT('',#580);
#176=VERTEX_POINT('',#589);
#177=VERTEX_POINT('',#600);
#178=VERTEX_POINT('',#604);
#179=VERTEX_POINT('',#608);
#180=VERTEX_POINT('',#612);
#181=EDGE_CURVE('',#148,#148,#143,.T.);
#182=EDGE_CURVE('',#148,#149,#83,.T.);
#183=EDGE_CURVE('',#149,#149,#71,.T.);
#184=EDGE_CURVE('',#150,#150,#72,.T.);
#185=EDGE_CURVE('',#150,#151,#84,.T.);
#186=EDGE_CURVE('',#151,#151,#144,.T.);
#187=EDGE_CURVE('',#152,#153,#85,.T.);
#188=EDGE_CURVE('',#152,#154,#86,.T.);
#189=EDGE_CURVE('',#155,#154,#87,.T.);
#190=EDGE_CURVE('',#153,#155,#88,.T.);
#191=EDGE_CURVE('',#153,#156,#89,.T.);
#192=EDGE_CURVE('',#157,#155,#90,.T.);
#193=EDGE_CURVE('',#156,#157,#145,.T.);
#194=EDGE_CURVE('',#158,#152,#91,.T.);
#195=EDGE_CURVE('',#159,#158,#146,.T.);
#196=EDGE_CURVE('',#154,#159,#92,.T.);
#197=EDGE_CURVE('',#160,#156,#93,.T.);
#198=EDGE_CURVE('',#161,#160,#94,.T.);
#199=EDGE_CURVE('',#161,#162,#95,.T.);
#200=EDGE_CURVE('',#163,#162,#96,.T.);
#201=EDGE_CURVE('',#158,#163,#97,.T.);
#202=EDGE_CURVE('',#164,#157,#98,.T.);
#203=EDGE_CURVE('',#160,#164,#73,.T.);
#204=EDGE_CURVE('',#165,#161,#74,.T.);
#205=EDGE_CURVE('',#165,#166,#99,.T.);
#206=EDGE_CURVE('',#162,#166,#75,.T.);
#207=EDGE_CURVE('',#167,#165,#76,.T.);
#208=EDGE_CURVE('',#168,#167,#100,.T.);
#209=EDGE_CURVE('',#166,#168,#77,.T.);
#210=EDGE_CURVE('',#164,#169,#101,.T.);
#211=EDGE_CURVE('',#169,#170,#78,.T.);
#212=EDGE_CURVE('',#170,#171,#102,.T.);
#213=EDGE_CURVE('',#167,#171,#103,.T.);
#214=EDGE_CURVE('',#169,#172,#104,.T.);
#215=EDGE_CURVE('',#173,#172,#79,.T.);
#216=EDGE_CURVE('',#174,#173,#80,.T.);
#217=EDGE_CURVE('',#175,#174,#15,.T.);
#218=EDGE_CURVE('',#176,#175,#16,.T.);
#219=EDGE_CURVE('',#170,#176,#81,.T.);
#220=EDGE_CURVE('',#159,#177,#105,.T.);
#221=EDGE_CURVE('',#172,#177,#106,.T.);
#222=EDGE_CURVE('',#176,#178,#107,.T.);
#223=EDGE_CURVE('',#171,#178,#108,.T.);
#224=EDGE_CURVE('',#174,#179,#109,.T.);
#225=EDGE_CURVE('',#178,#179,#147,.T.);
#226=EDGE_CURVE('',#173,#180,#110,.T.);
#227=EDGE_CURVE('',#179,#180,#111,.T.);
#228=EDGE_CURVE('',#177,#163,#82,.T.);
#229=EDGE_CURVE('',#180,#168,#112,.T.);
#230=ORIENTED_EDGE('',*,*,#181,.F.);
#231=ORIENTED_EDGE('',*,*,#182,.T.);
#232=ORIENTED_EDGE('',*,*,#183,.F.);
#233=ORIENTED_EDGE('',*,*,#182,.F.);
#234=ORIENTED_EDGE('',*,*,#184,.F.);
#235=ORIENTED_EDGE('',*,*,#185,.T.);
#236=ORIENTED_EDGE('',*,*,#186,.F.);
#237=ORIENTED_EDGE('',*,*,#185,.F.);
#238=ORIENTED_EDGE('',*,*,#187,.F.);
#239=ORIENTED_EDGE('',*,*,#188,.T.);
#240=ORIENTED_EDGE('',*,*,#189,.F.);
#241=ORIENTED_EDGE('',*,*,#190,.F.);
#242=ORIENTED_EDGE('',*,*,#191,.F.);
#243=ORIENTED_EDGE('',*,*,#190,.T.);
#244=ORIENTED_EDGE('',*,*,#192,.F.);
#245=ORIENTED_EDGE('',*,*,#193,.F.);
#246=ORIENTED_EDGE('',*,*,#186,.T.);
#247=ORIENTED_EDGE('',*,*,#194,.F.);
#248=ORIENTED_EDGE('',*,*,#195,.F.);
#249=ORIENTED_EDGE('',*,*,#196,.F.);
#250=ORIENTED_EDGE('',*,*,#188,.F.);
#251=ORIENTED_EDGE('',*,*,#181,.T.);
#252=ORIENTED_EDGE('',*,*,#194,.T.);
#253=ORIENTED_EDGE('',*,*,#187,.T.);
#254=ORIENTED_EDGE('',*,*,#191,.T.);
#255=ORIENTED_EDGE('',*,*,#197,.F.);
#256=ORIENTED_EDGE('',*,*,#198,.F.);
#257=ORIENTED_EDGE('',*,*,#199,.T.);
#258=ORIENTED_EDGE('',*,*,#200,.F.);
#259=ORIENTED_EDGE('',*,*,#201,.F.);
#260=ORIENTED_EDGE('',*,*,#193,.T.);
#261=ORIENTED_EDGE('',*,*,#202,.F.);
#262=ORIENTED_EDGE('',*,*,#203,.F.);
#263=ORIENTED_EDGE('',*,*,#197,.T.);
#264=ORIENTED_EDGE('',*,*,#204,.F.);
#265=ORIENTED_EDGE('',*,*,#205,.T.);
#266=ORIENTED_EDGE('',*,*,#206,.F.);
#267=ORIENTED_EDGE('',*,*,#199,.F.);
#268=ORIENTED_EDGE('',*,*,#207,.F.);
#269=ORIENTED_EDGE('',*,*,#208,.F.);
#270=ORIENTED_EDGE('',*,*,#209,.F.);
#271=ORIENTED_EDGE('',*,*,#205,.F.);
#272=ORIENTED_EDGE('',*,*,#207,.T.);
#273=ORIENTED_EDGE('',*,*,#204,.T.);
#274=ORIENTED_EDGE('',*,*,#198,.T.);
#275=ORIENTED_EDGE('',*,*,#203,.T.);
#276=ORIENTED_EDGE('',*,*,#210,.T.);
#277=ORIENTED_EDGE('',*,*,#211,.T.);
#278=ORIENTED_EDGE('',*,*,#212,.T.);
#279=ORIENTED_EDGE('',*,*,#213,.F.);
#280=ORIENTED_EDGE('',*,*,#184,.T.);
#281=ORIENTED_EDGE('',*,*,#211,.F.);
#282=ORIENTED_EDGE('',*,*,#214,.T.);
#283=ORIENTED_EDGE('',*,*,#215,.F.);
#284=ORIENTED_EDGE('',*,*,#216,.F.);
#285=ORIENTED_EDGE('',*,*,#217,.F.);
#286=ORIENTED_EDGE('',*,*,#218,.F.);
#287=ORIENTED_EDGE('',*,*,#219,.F.);
#288=ORIENTED_EDGE('',*,*,#196,.T.);
#289=ORIENTED_EDGE('',*,*,#220,.T.);
#290=ORIENTED_EDGE('',*,*,#221,.F.);
#291=ORIENTED_EDGE('',*,*,#214,.F.);
#292=ORIENTED_EDGE('',*,*,#210,.F.);
#293=ORIENTED_EDGE('',*,*,#202,.T.);
#294=ORIENTED_EDGE('',*,*,#192,.T.);
#295=ORIENTED_EDGE('',*,*,#189,.T.);
#296=ORIENTED_EDGE('',*,*,#219,.T.);
#297=ORIENTED_EDGE('',*,*,#222,.T.);
#298=ORIENTED_EDGE('',*,*,#223,.F.);
#299=ORIENTED_EDGE('',*,*,#212,.F.);
#300=ORIENTED_EDGE('',*,*,#218,.T.);
#301=ORIENTED_EDGE('',*,*,#217,.T.);
#302=ORIENTED_EDGE('',*,*,#224,.T.);
#303=ORIENTED_EDGE('',*,*,#225,.F.);
#304=ORIENTED_EDGE('',*,*,#222,.F.);
#305=ORIENTED_EDGE('',*,*,#216,.T.);
#306=ORIENTED_EDGE('',*,*,#226,.T.);
#307=ORIENTED_EDGE('',*,*,#227,.F.);
#308=ORIENTED_EDGE('',*,*,#224,.F.);
#309=ORIENTED_EDGE('',*,*,#195,.T.);
#310=ORIENTED_EDGE('',*,*,#201,.T.);
#311=ORIENTED_EDGE('',*,*,#228,.F.);
#312=ORIENTED_EDGE('',*,*,#220,.F.);
#313=ORIENTED_EDGE('',*,*,#209,.T.);
#314=ORIENTED_EDGE('',*,*,#229,.F.);
#315=ORIENTED_EDGE('',*,*,#226,.F.);
#316=ORIENTED_EDGE('',*,*,#215,.T.);
#317=ORIENTED_EDGE('',*,*,#221,.T.);
#318=ORIENTED_EDGE('',*,*,#228,.T.);
#319=ORIENTED_EDGE('',*,*,#200,.T.);
#320=ORIENTED_EDGE('',*,*,#206,.T.);
#321=ORIENTED_EDGE('',*,*,#183,.T.);
#322=ORIENTED_EDGE('',*,*,#208,.T.);
#323=ORIENTED_EDGE('',*,*,#213,.T.);
#324=ORIENTED_EDGE('',*,*,#223,.T.);
#325=ORIENTED_EDGE('',*,*,#225,.T.);
#326=ORIENTED_EDGE('',*,*,#227,.T.);
#327=ORIENTED_EDGE('',*,*,#229,.T.);
#328=CYLINDRICAL_SURFACE('',#368,0.3);
#329=CYLINDRICAL_SURFACE('',#371,0.3);
#330=CYLINDRICAL_SURFACE('',#380,0.749999999999997);
#331=CYLINDRICAL_SURFACE('',#382,0.299999999999991);
#332=CYLINDRICAL_SURFACE('',#385,0.300000000000023);
#333=CYLINDRICAL_SURFACE('',#390,0.900000000000002);
#334=CYLINDRICAL_SURFACE('',#396,0.299999999999999);
#335=CYLINDRICAL_SURFACE('',#399,0.749999999999997);
#336=ADVANCED_FACE('',(#31),#328,.F.);
#337=ADVANCED_FACE('',(#32),#329,.F.);
#338=ADVANCED_FACE('',(#33),#21,.T.);
#339=ADVANCED_FACE('',(#34,#17),#22,.T.);
#340=ADVANCED_FACE('',(#35,#18),#23,.T.);
#341=ADVANCED_FACE('',(#36),#24,.T.);
#342=ADVANCED_FACE('',(#37),#330,.T.);
#343=ADVANCED_FACE('',(#38),#331,.F.);
#344=ADVANCED_FACE('',(#39),#332,.T.);
#345=ADVANCED_FACE('',(#40,#19),#25,.T.);
#346=ADVANCED_FACE('',(#41),#333,.T.);
#347=ADVANCED_FACE('',(#42),#26,.T.);
#348=ADVANCED_FACE('',(#43),#27,.T.);
#349=ADVANCED_FACE('',(#44),#334,.T.);
#350=ADVANCED_FACE('',(#45),#28,.T.);
#351=ADVANCED_FACE('',(#46),#335,.T.);
#352=ADVANCED_FACE('',(#47,#20),#29,.T.);
#353=ADVANCED_FACE('',(#48),#30,.T.);
#354=CLOSED_SHELL('',(#336,#337,#338,#339,#340,#341,#342,#343,#344,#345,
#346,#347,#348,#349,#350,#351,#352,#353));
#355=DERIVED_UNIT_ELEMENT(#357,1.);
#356=DERIVED_UNIT_ELEMENT(#625,-3.);
#357=(
MASS_UNIT()
NAMED_UNIT(*)
SI_UNIT(.KILO.,.GRAM.)
);
#358=DERIVED_UNIT((#355,#356));
#359=MEASURE_REPRESENTATION_ITEM('density measure',
POSITIVE_RATIO_MEASURE(7850.),#358);
#360=PROPERTY_DEFINITION_REPRESENTATION(#365,#362);
#361=PROPERTY_DEFINITION_REPRESENTATION(#366,#363);
#362=REPRESENTATION('material name',(#364),#622);
#363=REPRESENTATION('density',(#359),#622);
#364=DESCRIPTIVE_REPRESENTATION_ITEM('Steel','Steel');
#365=PROPERTY_DEFINITION('material property','material name',#632);
#366=PROPERTY_DEFINITION('material property','density of part',#632);
#367=AXIS2_PLACEMENT_3D('',#505,#403,#404);
#368=AXIS2_PLACEMENT_3D('',#506,#405,#406);
#369=AXIS2_PLACEMENT_3D('',#508,#407,#408);
#370=AXIS2_PLACEMENT_3D('',#511,#410,#411);
#371=AXIS2_PLACEMENT_3D('',#512,#412,#413);
#372=AXIS2_PLACEMENT_3D('',#514,#414,#415);
#373=AXIS2_PLACEMENT_3D('',#517,#417,#418);
#374=AXIS2_PLACEMENT_3D('',#518,#419,#420);
#375=AXIS2_PLACEMENT_3D('',#527,#425,#426);
#376=AXIS2_PLACEMENT_3D('',#532,#429,#430);
#377=AXIS2_PLACEMENT_3D('',#533,#431,#432);
#378=AXIS2_PLACEMENT_3D('',#537,#434,#435);
#379=AXIS2_PLACEMENT_3D('',#539,#437,#438);
#380=AXIS2_PLACEMENT_3D('',#549,#444,#445);
#381=AXIS2_PLACEMENT_3D('',#552,#447,#448);
#382=AXIS2_PLACEMENT_3D('',#553,#449,#450);
#383=AXIS2_PLACEMENT_3D('',#555,#451,#452);
#384=AXIS2_PLACEMENT_3D('',#558,#454,#455);
#385=AXIS2_PLACEMENT_3D('',#559,#456,#457);
#386=AXIS2_PLACEMENT_3D('',#561,#458,#459);
#387=AXIS2_PLACEMENT_3D('',#564,#461,#462);
#388=AXIS2_PLACEMENT_3D('',#565,#463,#464);
#389=AXIS2_PLACEMENT_3D('',#569,#466,#467);
#390=AXIS2_PLACEMENT_3D('',#573,#470,#471);
#391=AXIS2_PLACEMENT_3D('',#577,#473,#474);
#392=AXIS2_PLACEMENT_3D('',#579,#475,#476);
#393=AXIS2_PLACEMENT_3D('',#598,#477,#478);
#394=AXIS2_PLACEMENT_3D('',#599,#479,#480);
#395=AXIS2_PLACEMENT_3D('',#603,#483,#484);
#396=AXIS2_PLACEMENT_3D('',#607,#487,#488);
#397=AXIS2_PLACEMENT_3D('',#610,#490,#491);
#398=AXIS2_PLACEMENT_3D('',#611,#492,#493);
#399=AXIS2_PLACEMENT_3D('',#615,#496,#497);
#400=AXIS2_PLACEMENT_3D('',#616,#498,#499);
#401=AXIS2_PLACEMENT_3D('',#617,#500,#501);
#402=AXIS2_PLACEMENT_3D('',#619,#503,#504);
#403=DIRECTION('axis',(0.,0.,1.));
#404=DIRECTION('refdir',(1.,0.,0.));
#405=DIRECTION('center_axis',(0.,1.,0.));
#406=DIRECTION('ref_axis',(-1.,0.,2.22044604925031E-15));
#407=DIRECTION('center_axis',(0.,1.,0.));
#408=DIRECTION('ref_axis',(-0.813826036051069,0.,-0.581108581114927));
#409=DIRECTION('',(0.,1.,0.));
#410=DIRECTION('center_axis',(-0.0348994967025,-0.999390827019096,-1.52232290491157E-16));
#411=DIRECTION('ref_axis',(0.999390827019096,-0.0348994967025,1.32508914863772E-12));
#412=DIRECTION('center_axis',(0.,1.,0.));
#413=DIRECTION('ref_axis',(-1.,0.,2.22044604925031E-15));
#414=DIRECTION('center_axis',(-0.0348994967025017,0.999390827019096,8.55650460346846E-16));
#415=DIRECTION('ref_axis',(0.999390827019096,0.0348994967025017,-5.14005429359252E-12));
#416=DIRECTION('',(0.,1.,0.));
#417=DIRECTION('center_axis',(0.,-1.,0.));
#418=DIRECTION('ref_axis',(-0.813826036051069,0.,0.581108581114927));
#419=DIRECTION('center_axis',(-1.,0.,0.));
#420=DIRECTION('ref_axis',(0.,0.,1.));
#421=DIRECTION('',(0.,-1.,0.));
#422=DIRECTION('',(0.,0.,-1.));
#423=DIRECTION('',(0.,1.,0.));
#424=DIRECTION('',(0.,0.,-1.));
#425=DIRECTION('center_axis',(0.,1.,0.));
#426=DIRECTION('ref_axis',(0.,0.,1.));
#427=DIRECTION('',(-0.999390827019096,0.,0.034899496702492));
#428=DIRECTION('',(0.99912775331275,0.,0.0417580239022));
#429=DIRECTION('center_axis',(0.,-1.,0.));
#430=DIRECTION('ref_axis',(0.0417580239022009,0.,-0.99912775331275));
#431=DIRECTION('center_axis',(0.,-1.,0.));
#432=DIRECTION('ref_axis',(0.,0.,-1.));
#433=DIRECTION('',(0.999390827019096,0.,-0.034899496702492));
#434=DIRECTION('center_axis',(0.,1.,0.));
#435=DIRECTION('ref_axis',(0.0348994967024925,0.,0.999390827019096));
#436=DIRECTION('',(-0.99912775331275,0.,-0.0417580239022001));
#437=DIRECTION('center_axis',(0.0348994967025011,0.,0.999390827019096));
#438=DIRECTION('ref_axis',(0.999390827019096,0.,-0.0348994967025011));
#439=DIRECTION('',(0.,1.,0.));
#440=DIRECTION('',(-0.998782765958718,-0.0348782627423741,0.0348782627423747));
#441=DIRECTION('',(0.,1.,0.));
#442=DIRECTION('',(0.998782765958718,-0.0348782627423741,-0.0348782627423747));
#443=DIRECTION('',(0.,1.,0.));
#444=DIRECTION('center_axis',(0.,1.,0.));
#445=DIRECTION('ref_axis',(-0.999994111407272,0.,-0.00343178536348417));
#446=DIRECTION('',(0.,1.,0.));
#447=DIRECTION('center_axis',(0.0348994967025002,-0.999390827019096,1.82863648071352E-16));
#448=DIRECTION('ref_axis',(0.999390827019096,0.0348994967025002,-5.22293460763584E-12));
#449=DIRECTION('center_axis',(0.,1.,0.));
#450=DIRECTION('ref_axis',(0.326095577811683,0.,-0.945336804600172));
#451=DIRECTION('center_axis',(-0.0348994967025019,0.999390827019096,1.51210443350791E-16));
#452=DIRECTION('ref_axis',(0.999390827019096,0.0348994967025019,1.10289562375729E-11));
#453=DIRECTION('',(0.,1.,0.));
#454=DIRECTION('center_axis',(-0.0348994967025019,-0.999390827019096,1.53773332221143E-16));
#455=DIRECTION('ref_axis',(0.999390827019096,-0.0348994967025019,1.24664207907481E-11));
#456=DIRECTION('center_axis',(0.,1.,0.));
#457=DIRECTION('ref_axis',(-0.895806416477622,0.,-0.444444444444433));
#458=DIRECTION('center_axis',(0.0348994967025005,-0.999390827019096,0.));
#459=DIRECTION('ref_axis',(-0.999390827019096,-0.0348994967025005,3.07899211124705E-14));
#460=DIRECTION('',(0.,-1.,0.));
#461=DIRECTION('center_axis',(0.0348994967025005,0.999390827019096,0.));
#462=DIRECTION('ref_axis',(-0.999390827019096,0.0348994967025005,3.07899211124705E-14));
#463=DIRECTION('center_axis',(0.0348994967025005,-0.999390827019096,0.));
#464=DIRECTION('ref_axis',(0.,0.,-1.));
#465=DIRECTION('',(0.998520172021297,0.0348690927600155,0.0417326303586748));
#466=DIRECTION('center_axis',(0.0348994967025003,-0.999390827019096,-1.05697666443445E-15));
#467=DIRECTION('ref_axis',(0.999390827019096,0.0348994967025003,2.42435747945529E-11));
#468=DIRECTION('',(0.,0.,1.));
#469=DIRECTION('',(0.999390827019096,0.0348994967024996,0.));
#470=DIRECTION('center_axis',(0.,1.,0.));
#471=DIRECTION('ref_axis',(1.,0.,-1.23358113847239E-15));
#472=DIRECTION('',(0.,1.,0.));
#473=DIRECTION('center_axis',(0.0348994967025,0.999390827019096,-1.79440224427259E-15));
#474=DIRECTION('ref_axis',(0.999390827019096,-0.0348994967025,7.22463226456582E-12));
#475=DIRECTION('center_axis',(-5.38395292804335E-12,-1.,5.9722009021566E-12));
#476=DIRECTION('ref_axis',(0.74362182083151,-1.06085535304118E-14,0.668600469326211));
#477=DIRECTION('center_axis',(5.38395292948244E-12,1.,-5.97220090375395E-12));
#478=DIRECTION('ref_axis',(-0.66944486847307,8.04077922907726E-12,0.742861742234094));
#479=DIRECTION('center_axis',(0.0417580239022,0.,-0.99912775331275));
#480=DIRECTION('ref_axis',(-0.99912775331275,0.,-0.0417580239022));
#481=DIRECTION('',(0.,1.,0.));
#482=DIRECTION('',(-0.998520172021297,0.0348690927600155,-0.0417326303586748));
#483=DIRECTION('center_axis',(0.,1.,0.));
#484=DIRECTION('ref_axis',(0.,0.,1.));
#485=DIRECTION('',(0.,0.,1.));
#486=DIRECTION('',(-1.,0.,0.));
#487=DIRECTION('center_axis',(0.,0.,1.));
#488=DIRECTION('ref_axis',(0.,-1.,0.));
#489=DIRECTION('',(0.,0.,1.));
#490=DIRECTION('center_axis',(0.,0.,1.));
#491=DIRECTION('ref_axis',(-2.96059473233375E-15,1.,0.));
#492=DIRECTION('center_axis',(0.,-1.,0.));
#493=DIRECTION('ref_axis',(0.,0.,-1.));
#494=DIRECTION('',(0.,0.,1.));
#495=DIRECTION('',(1.,0.,0.));
#496=DIRECTION('center_axis',(0.,1.,0.));
#497=DIRECTION('ref_axis',(-0.999994111407272,0.,-0.00343178536348416));
#498=DIRECTION('center_axis',(0.0348994967025003,0.999390827019096,1.8300278723671E-16));
#499=DIRECTION('ref_axis',(0.999390827019096,-0.0348994967025003,-4.15159555558564E-12));
#500=DIRECTION('center_axis',(0.0348994967025005,0.999390827019096,0.));
#501=DIRECTION('ref_axis',(0.,0.,1.));
#502=DIRECTION('',(-0.999390827019096,0.0348994967024986,0.));
#503=DIRECTION('center_axis',(0.,0.,1.));
#504=DIRECTION('ref_axis',(1.,0.,0.));
#505=CARTESIAN_POINT('',(0.,0.,0.));
#506=CARTESIAN_POINT('Origin',(-6.82499999999999,0.576520971985403,0.749999999999999));
#507=CARTESIAN_POINT('',(-6.52499999999999,0.349999999999999,0.749999999999999));
#508=CARTESIAN_POINT('Origin',(-6.82499999999999,0.349999999999999,0.750000000000002));
#509=CARTESIAN_POINT('',(-6.52499999999999,0.782089482275758,0.749999999999999));
#510=CARTESIAN_POINT('',(-6.52499999999999,0.576520971985403,0.749999999999998));
#511=CARTESIAN_POINT('Origin',(-6.82499999999999,0.792565713123282,0.749999999999999));
#512=CARTESIAN_POINT('Origin',(-6.82499999999999,-0.576520971985404,0.749999999999999));
#513=CARTESIAN_POINT('',(-6.52499999999999,-0.782089482275758,0.749999999999999));
#514=CARTESIAN_POINT('Origin',(-6.82499999999999,-0.792565713123282,0.75));
#515=CARTESIAN_POINT('',(-6.52499999999999,-0.350000000000001,0.749999999999999));
#516=CARTESIAN_POINT('',(-6.52499999999999,-0.576520971985404,0.749999999999998));
#517=CARTESIAN_POINT('Origin',(-6.82499999999999,-0.350000000000001,0.749999999999998));
#518=CARTESIAN_POINT('Origin',(-6.07499999999999,-1.0547118733939E-15,1.47426658110531));
#519=CARTESIAN_POINT('',(-6.07499999999999,0.349999999999999,1.47426658110531));
#520=CARTESIAN_POINT('',(-6.07499999999999,-0.350000000000001,1.47426658110531));
#521=CARTESIAN_POINT('',(-6.07499999999999,0.349999999999999,1.47426658110531));
#522=CARTESIAN_POINT('',(-6.07499999999999,0.349999999999999,0.0306911031242403));
#523=CARTESIAN_POINT('',(-6.07499999999999,0.349999999999999,1.47426658110531));
#524=CARTESIAN_POINT('',(-6.07499999999999,-0.350000000000001,0.0306911031242403));
#525=CARTESIAN_POINT('',(-6.07499999999999,-0.350000000000001,0.0306911031242405));
#526=CARTESIAN_POINT('',(-6.07499999999999,-0.350000000000001,1.47426658110531));
#527=CARTESIAN_POINT('Origin',(-6.88626454573165,-0.350000000000001,1.51510438208141));
#528=CARTESIAN_POINT('',(-6.79882537747312,-0.350000000000001,1.49954312026432));
#529=CARTESIAN_POINT('',(-6.07499999999999,-0.350000000000001,1.47426658110531));
#530=CARTESIAN_POINT('',(-6.79368148207334,-0.350000000000001,0.000654185015437347));
#531=CARTESIAN_POINT('',(-6.79368148207334,-0.350000000000001,0.000654185015437285));
#532=CARTESIAN_POINT('Origin',(-6.82499999999999,-0.350000000000001,0.749999999999999));
#533=CARTESIAN_POINT('Origin',(-6.88626454573165,0.349999999999999,1.51510438208141));
#534=CARTESIAN_POINT('',(-6.79882537747312,0.349999999999999,1.49954312026432));
#535=CARTESIAN_POINT('',(-6.79882537747312,0.349999999999999,1.49954312026432));
#536=CARTESIAN_POINT('',(-6.79368148207334,0.349999999999999,0.000654185015437347));
#537=CARTESIAN_POINT('Origin',(-6.82499999999999,0.349999999999999,0.749999999999999));
#538=CARTESIAN_POINT('',(-6.07499999999999,0.349999999999999,0.0306911031242404));
#539=CARTESIAN_POINT('Origin',(-0.208808771688795,-0.791651675163488,1.26941466942694));
#540=CARTESIAN_POINT('',(-6.79882537747312,-0.791651675163488,1.49954312026432));
#541=CARTESIAN_POINT('',(-6.79882537747312,-0.791651675163488,1.49954312026432));
#542=CARTESIAN_POINT('',(6.38120783409553,-0.331394773488727,1.03928621858955));
#543=CARTESIAN_POINT('',(6.38120783409553,-0.331394773488726,1.03928621858955));
#544=CARTESIAN_POINT('',(6.38120783409553,0.331394773488726,1.03928621858955));
#545=CARTESIAN_POINT('',(6.38120783409553,-0.331394773488727,1.03928621858955));
#546=CARTESIAN_POINT('',(-6.79882537747312,0.791651675163488,1.49954312026432));
#547=CARTESIAN_POINT('',(-6.79882537747312,0.791651675163488,1.49954312026432));
#548=CARTESIAN_POINT('',(-6.79882537747312,0.349999999999999,1.49954312026432));
#549=CARTESIAN_POINT('Origin',(-6.82499999999999,-0.586399476157823,0.749999999999997));
#550=CARTESIAN_POINT('',(-6.79368148207334,-0.791472046377943,0.000654185015437347));
#551=CARTESIAN_POINT('',(-6.79368148207334,-0.791472046377943,0.000654185015437347));
#552=CARTESIAN_POINT('Origin',(-6.82499999999999,-0.792565713123283,0.749999999999999));
#553=CARTESIAN_POINT('Origin',(6.67500000000002,0.,1.09999999999999));
#554=CARTESIAN_POINT('',(6.94374192494329,-0.311750650170982,1.23333333333333));
#555=CARTESIAN_POINT('Origin',(6.67500000000001,-0.321135324984695,1.09999999999999));
#556=CARTESIAN_POINT('',(6.94374192494329,0.311750650170982,1.23333333333333));
#557=CARTESIAN_POINT('',(6.94374192494329,-0.311750650170982,1.23333333333333));
#558=CARTESIAN_POINT('Origin',(6.67500000000001,0.321135324984695,1.09999999999999));
#559=CARTESIAN_POINT('Origin',(7.2124838498866,0.,1.36666666666667));
#560=CARTESIAN_POINT('',(6.94374192494329,-0.311750650170982,1.5));
#561=CARTESIAN_POINT('Origin',(7.2124838498866,-0.302365975357269,1.36666666666667));
#562=CARTESIAN_POINT('',(6.94374192494329,0.311750650170982,1.5));
#563=CARTESIAN_POINT('',(6.94374192494329,0.311750650170982,1.5));
#564=CARTESIAN_POINT('Origin',(7.2124838498866,0.302365975357269,1.36666666666667));
#565=CARTESIAN_POINT('Origin',(-0.2086462859924,-0.561517550200558,-0.0179652108012256));
#566=CARTESIAN_POINT('',(5.97500000000001,-0.345579863628918,0.53431457505076));
#567=CARTESIAN_POINT('',(-6.79368148207334,-0.791472046377943,0.000654185015437351));
#568=CARTESIAN_POINT('',(7.28023651947851,-0.299999999999999,0.433900341172919));
#569=CARTESIAN_POINT('Origin',(6.67500000000003,-0.321135324984695,1.10000000000016));
#570=CARTESIAN_POINT('',(7.28023651947851,-0.299999999999999,1.5));
#571=CARTESIAN_POINT('',(7.28023651947851,-0.299999999999999,0.433900341172919));
#572=CARTESIAN_POINT('',(6.94374192494329,-0.311750650170982,1.5));
#573=CARTESIAN_POINT('Origin',(6.67500000000001,0.,1.1));
#574=CARTESIAN_POINT('',(5.97500000000001,0.345579863628918,0.53431457505076));
#575=CARTESIAN_POINT('',(5.97500000000001,-0.345579863628918,0.53431457505076));
#576=CARTESIAN_POINT('',(7.28023651947846,0.300000000000001,0.433900341172875));
#577=CARTESIAN_POINT('Origin',(6.67500000000002,0.321135324984696,1.09999999999995));
#578=CARTESIAN_POINT('',(7.27500000000001,0.300000000000001,0.429179606750063));
#579=CARTESIAN_POINT('Origin',(6.67501538327343,0.300000000007237,1.09998289062233));
#580=CARTESIAN_POINT('',(7.57500000000001,9.3390620838529E-16,1.1));
#581=CARTESIAN_POINT('Ctrl Pts',(7.57500000000001,4.44089209850063E-16,
1.1));
#582=CARTESIAN_POINT('Ctrl Pts',(7.57500000000001,0.0672402075670872,0.983536544182328));
#583=CARTESIAN_POINT('Ctrl Pts',(7.5513136739541,0.139661720386199,0.858902562233318));
#584=CARTESIAN_POINT('Ctrl Pts',(7.47584015967058,0.226110073914193,0.684464357588884));
#585=CARTESIAN_POINT('Ctrl Pts',(7.44427817186479,0.251207604257996,0.628405008405875));
#586=CARTESIAN_POINT('Ctrl Pts',(7.36886566901281,0.28800971650256,0.523162780670592));
#587=CARTESIAN_POINT('Ctrl Pts',(7.32511789164708,0.299999999999999,0.474006411794785));
#588=CARTESIAN_POINT('Ctrl Pts',(7.27500000000001,0.299999999999999,0.429179606750061));
#589=CARTESIAN_POINT('',(7.27500000000001,-0.299999999999999,0.429179606750063));
#590=CARTESIAN_POINT('Ctrl Pts',(7.27500000000001,-0.299999999999999,0.429179606750061));
#591=CARTESIAN_POINT('Ctrl Pts',(7.32511789164708,-0.299999999999999,0.474006411794786));
#592=CARTESIAN_POINT('Ctrl Pts',(7.36886566901281,-0.288009716502559,0.523162780670592));
#593=CARTESIAN_POINT('Ctrl Pts',(7.44427817186479,-0.251207604257995,0.628405008405875));
#594=CARTESIAN_POINT('Ctrl Pts',(7.47584015967058,-0.226110073914192,0.684464357588884));
#595=CARTESIAN_POINT('Ctrl Pts',(7.5513136739541,-0.139661720386199,0.858902562233318));
#596=CARTESIAN_POINT('Ctrl Pts',(7.57500000000001,-0.0672402075670863,0.983536544182328));
#597=CARTESIAN_POINT('Ctrl Pts',(7.57500000000001,4.44089209850063E-16,
1.1));
#598=CARTESIAN_POINT('Origin',(6.67489959227997,-0.299999999992761,1.10011141926295));
#599=CARTESIAN_POINT('Origin',(-0.409340741036663,-0.791472046377943,0.267484380033099));
#600=CARTESIAN_POINT('',(-6.79368148207334,0.791472046377943,0.000654185015437347));
#601=CARTESIAN_POINT('',(-6.79368148207334,0.349999999999999,0.000654185015437347));
#602=CARTESIAN_POINT('',(5.97500000000001,0.345579863628918,0.53431457505076));
#603=CARTESIAN_POINT('Origin',(7.27761825973926,-0.299999999999999,0.429179606750063));
#604=CARTESIAN_POINT('',(7.27500000000001,-0.299999999999999,1.5));
#605=CARTESIAN_POINT('',(7.27500000000001,-0.299999999999999,0.429179606750063));
#606=CARTESIAN_POINT('',(7.28023651947851,-0.299999999999999,1.5));
#607=CARTESIAN_POINT('Origin',(7.27500000000001,4.44089209850063E-16,0.964589803375032));
#608=CARTESIAN_POINT('',(7.27500000000001,0.300000000000001,1.5));
#609=CARTESIAN_POINT('',(7.27500000000001,0.300000000000001,0.429179606750063));
#610=CARTESIAN_POINT('Origin',(7.27500000000001,9.43689570931383E-16,1.5));
#611=CARTESIAN_POINT('Origin',(7.27761825973923,0.300000000000001,0.429179606750063));
#612=CARTESIAN_POINT('',(7.28023651947846,0.300000000000001,1.5));
#613=CARTESIAN_POINT('',(7.28023651947846,0.300000000000001,0.433900341172875));
#614=CARTESIAN_POINT('',(7.27500000000001,0.300000000000001,1.5));
#615=CARTESIAN_POINT('Origin',(-6.82499999999999,0.586413470052182,0.749999999999997));
#616=CARTESIAN_POINT('Origin',(-6.825,0.792565713123283,0.749999999999999));
#617=CARTESIAN_POINT('Origin',(-0.208646285992425,0.561517550200559,-0.0179652108012257));
#618=CARTESIAN_POINT('',(7.28023651947846,0.300000000000001,1.5));
#619=CARTESIAN_POINT('Origin',(7.25937096247165,-0.311750650170982,1.5));
#620=UNCERTAINTY_MEASURE_WITH_UNIT(LENGTH_MEASURE(0.001),#624,
'DISTANCE_ACCURACY_VALUE',
'Maximum model space distance between geometric entities at asserted c
onnectivities');
#621=UNCERTAINTY_MEASURE_WITH_UNIT(LENGTH_MEASURE(0.001),#624,
'DISTANCE_ACCURACY_VALUE',
'Maximum model space distance between geometric entities at asserted c
onnectivities');
#622=(
GEOMETRIC_REPRESENTATION_CONTEXT(3)
GLOBAL_UNCERTAINTY_ASSIGNED_CONTEXT((#620))
GLOBAL_UNIT_ASSIGNED_CONTEXT((#624,#626,#627))
REPRESENTATION_CONTEXT('','3D')
);
#623=(
GEOMETRIC_REPRESENTATION_CONTEXT(3)
GLOBAL_UNCERTAINTY_ASSIGNED_CONTEXT((#621))
GLOBAL_UNIT_ASSIGNED_CONTEXT((#624,#626,#627))
REPRESENTATION_CONTEXT('','3D')
);
#624=(
LENGTH_UNIT()
NAMED_UNIT(*)
SI_UNIT(.CENTI.,.METRE.)
);
#625=(
LENGTH_UNIT()
NAMED_UNIT(*)
SI_UNIT($,.METRE.)
);
#626=(
NAMED_UNIT(*)
PLANE_ANGLE_UNIT()
SI_UNIT($,.RADIAN.)
);
#627=(
NAMED_UNIT(*)
SI_UNIT($,.STERADIAN.)
SOLID_ANGLE_UNIT()
);
#628=SHAPE_DEFINITION_REPRESENTATION(#629,#630);
#629=PRODUCT_DEFINITION_SHAPE('',$,#632);
#630=SHAPE_REPRESENTATION('',(#367),#622);
#631=PRODUCT_DEFINITION_CONTEXT('part definition',#636,'design');
#632=PRODUCT_DEFINITION('temp_body','Untitled',#633,#631);
#633=PRODUCT_DEFINITION_FORMATION('',$,#638);
#634=PRODUCT_RELATED_PRODUCT_CATEGORY('Untitled','Untitled',(#638));
#635=APPLICATION_PROTOCOL_DEFINITION('international standard',
'automotive_design',2009,#636);
#636=APPLICATION_CONTEXT(
'Core Data for Automotive Mechanical Design Process');
#637=PRODUCT_CONTEXT('part definition',#636,'mechanical');
#638=PRODUCT('temp_body','Untitled',$,(#637));
#639=PRESENTATION_STYLE_ASSIGNMENT((#641));
#640=PRESENTATION_STYLE_ASSIGNMENT((#642));
#641=SURFACE_STYLE_USAGE(.BOTH.,#643);
#642=SURFACE_STYLE_USAGE(.BOTH.,#644);
#643=SURFACE_SIDE_STYLE('',(#645));
#644=SURFACE_SIDE_STYLE('',(#646));
#645=SURFACE_STYLE_FILL_AREA(#647);
#646=SURFACE_STYLE_FILL_AREA(#648);
#647=FILL_AREA_STYLE('Steel - Satin',(#649));
#648=FILL_AREA_STYLE('Opaque(160,160,160)',(#650));
#649=FILL_AREA_STYLE_COLOUR('Steel - Satin',#651);
#650=FILL_AREA_STYLE_COLOUR('Opaque(160,160,160)',#652);
#651=COLOUR_RGB('Steel - Satin',0.627450980392157,0.627450980392157,0.627450980392157);
#652=COLOUR_RGB('Opaque(160,160,160)',0.627450980392157,0.627450980392157,
0.627450980392157);
ENDSEC;
END-ISO-10303-21;
