ISO-10303-21;
HEADER;
/* Generated by software containing ST-Developer
 * from STEP Tools, Inc. (www.steptools.com) 
 */

FILE_DESCRIPTION(
/* description */ (''),
/* implementation_level */ '2;1');

FILE_NAME(
/* name */ '21787_fusion-360-151130-5860-3f3eef07-vice-b_v1.step',
/* time_stamp */ '2025-11-19T09:46:05Z',
/* author */ (''),
/* organization */ (''),
/* preprocessor_version */ 'ST-DEVELOPER v20.1',
/* originating_system */ 'Autodesk Translation Framework v14.17.0.0',
/* authorisation */ '');

FILE_SCHEMA (('AUTOMOTIVE_DESIGN { 1 0 10303 214 3 1 1 }'));
ENDSEC;

DATA;
#10=MECHANICAL_DESIGN_GEOMETRIC_PRESENTATION_REPRESENTATION('',(#13),#2191);
#11=SHAPE_REPRESENTATION_RELATIONSHIP('SRR','None',#2198,#12);
#12=ADVANCED_BREP_SHAPE_REPRESENTATION('',(#14),#2190);
#13=STYLED_ITEM('',(#2207),#14);
#14=MANIFOLD_SOLID_BREP('Body1',#1254);
#15=ELLIPSE('',#1298,8.48528137423857,6.);
#16=ELLIPSE('',#1299,8.48528137423857,6.);
#17=ELLIPSE('',#1321,8.48528137423857,6.);
#18=ELLIPSE('',#1322,8.48528137423858,6.);
#19=B_SPLINE_SURFACE_WITH_KNOTS('',3,3,((#1822,#1823,#1824,#1825,#1826),
(#1827,#1828,#1829,#1830,#1831),(#1832,#1833,#1834,#1835,#1836),(#1837,
#1838,#1839,#1840,#1841),(#1842,#1843,#1844,#1845,#1846)),.UNSPECIFIED.,
 .F.,.F.,.F.,(4,1,4),(4,1,4),(0.,0.571428571428571,1.),(-3.14159265358979,
-0.44879895051283,3.14159265358979),.UNSPECIFIED.);
#20=B_SPLINE_SURFACE_WITH_KNOTS('',3,3,((#1858,#1859,#1860,#1861,#1862),
(#1863,#1864,#1865,#1866,#1867),(#1868,#1869,#1870,#1871,#1872),(#1873,
#1874,#1875,#1876,#1877),(#1878,#1879,#1880,#1881,#1882)),.UNSPECIFIED.,
 .F.,.F.,.F.,(4,1,4),(4,1,4),(0.,0.571428571428571,1.),(-3.14159265358979,
0.448798950512821,3.14159265358978),.UNSPECIFIED.);
#21=TOROIDAL_SURFACE('',#1289,16.,4.);
#22=TOROIDAL_SURFACE('',#1294,16.,4.);
#23=FACE_BOUND('',#150,.T.);
#24=FACE_BOUND('',#172,.T.);
#25=FACE_BOUND('',#174,.T.);
#26=FACE_BOUND('',#177,.T.);
#27=FACE_BOUND('',#184,.T.);
#28=FACE_BOUND('',#186,.T.);
#29=FACE_BOUND('',#202,.T.);
#30=FACE_BOUND('',#204,.T.);
#31=FACE_BOUND('',#209,.T.);
#32=FACE_BOUND('',#210,.T.);
#33=FACE_BOUND('',#213,.T.);
#34=FACE_BOUND('',#214,.T.);
#35=FACE_BOUND('',#215,.T.);
#36=PLANE('',#1287);
#37=PLANE('',#1300);
#38=PLANE('',#1301);
#39=PLANE('',#1302);
#40=PLANE('',#1306);
#41=PLANE('',#1310);
#42=PLANE('',#1311);
#43=PLANE('',#1315);
#44=PLANE('',#1319);
#45=PLANE('',#1325);
#46=PLANE('',#1326);
#47=PLANE('',#1337);
#48=PLANE('',#1338);
#49=PLANE('',#1340);
#50=PLANE('',#1342);
#51=PLANE('',#1343);
#52=PLANE('',#1345);
#53=PLANE('',#1346);
#54=PLANE('',#1347);
#55=PLANE('',#1348);
#56=PLANE('',#1350);
#57=PLANE('',#1351);
#58=PLANE('',#1355);
#59=PLANE('',#1356);
#60=PLANE('',#1361);
#61=PLANE('',#1368);
#62=PLANE('',#1369);
#63=PLANE('',#1372);
#64=PLANE('',#1374);
#65=PLANE('',#1376);
#66=PLANE('',#1383);
#67=PLANE('',#1388);
#68=PLANE('',#1391);
#69=PLANE('',#1392);
#70=PLANE('',#1393);
#71=B_SPLINE_CURVE_WITH_KNOTS('',3,(#1799,#1800,#1801,#1802,#1803),
 .UNSPECIFIED.,.F.,.F.,(4,1,4),(-3.14159265358979,0.448798950512821,3.14159265358978),
 .UNSPECIFIED.);
#72=B_SPLINE_CURVE_WITH_KNOTS('',3,(#1807,#1808,#1809,#1810,#1811),
 .UNSPECIFIED.,.F.,.F.,(4,1,4),(-3.14159265358979,-0.44879895051283,3.14159265358979),
 .UNSPECIFIED.);
#73=B_SPLINE_CURVE_WITH_KNOTS('',3,(#1849,#1850,#1851,#1852,#1853),
 .UNSPECIFIED.,.F.,.F.,(4,1,4),(-3.14159265358979,0.44879895051283,3.14159265358979),
 .UNSPECIFIED.);
#74=B_SPLINE_CURVE_WITH_KNOTS('',3,(#1883,#1884,#1885,#1886,#1887),
 .UNSPECIFIED.,.F.,.F.,(4,1,4),(-3.14159265358978,-0.448798950512821,3.14159265358979),
 .UNSPECIFIED.);
#75=CONICAL_SURFACE('',#1280,10.5,0.785398163397447);
#76=FACE_OUTER_BOUND('',#143,.T.);
#77=FACE_OUTER_BOUND('',#144,.T.);
#78=FACE_OUTER_BOUND('',#145,.T.);
#79=FACE_OUTER_BOUND('',#146,.T.);
#80=FACE_OUTER_BOUND('',#147,.T.);
#81=FACE_OUTER_BOUND('',#148,.T.);
#82=FACE_OUTER_BOUND('',#149,.T.);
#83=FACE_OUTER_BOUND('',#151,.T.);
#84=FACE_OUTER_BOUND('',#152,.T.);
#85=FACE_OUTER_BOUND('',#153,.T.);
#86=FACE_OUTER_BOUND('',#154,.T.);
#87=FACE_OUTER_BOUND('',#155,.T.);
#88=FACE_OUTER_BOUND('',#156,.T.);
#89=FACE_OUTER_BOUND('',#157,.T.);
#90=FACE_OUTER_BOUND('',#158,.T.);
#91=FACE_OUTER_BOUND('',#159,.T.);
#92=FACE_OUTER_BOUND('',#160,.T.);
#93=FACE_OUTER_BOUND('',#161,.T.);
#94=FACE_OUTER_BOUND('',#162,.T.);
#95=FACE_OUTER_BOUND('',#163,.T.);
#96=FACE_OUTER_BOUND('',#164,.T.);
#97=FACE_OUTER_BOUND('',#165,.T.);
#98=FACE_OUTER_BOUND('',#166,.T.);
#99=FACE_OUTER_BOUND('',#167,.T.);
#100=FACE_OUTER_BOUND('',#168,.T.);
#101=FACE_OUTER_BOUND('',#169,.T.);
#102=FACE_OUTER_BOUND('',#170,.T.);
#103=FACE_OUTER_BOUND('',#171,.T.);
#104=FACE_OUTER_BOUND('',#173,.T.);
#105=FACE_OUTER_BOUND('',#175,.T.);
#106=FACE_OUTER_BOUND('',#176,.T.);
#107=FACE_OUTER_BOUND('',#178,.T.);
#108=FACE_OUTER_BOUND('',#179,.T.);
#109=FACE_OUTER_BOUND('',#180,.T.);
#110=FACE_OUTER_BOUND('',#181,.T.);
#111=FACE_OUTER_BOUND('',#182,.T.);
#112=FACE_OUTER_BOUND('',#183,.T.);
#113=FACE_OUTER_BOUND('',#185,.T.);
#114=FACE_OUTER_BOUND('',#187,.T.);
#115=FACE_OUTER_BOUND('',#188,.T.);
#116=FACE_OUTER_BOUND('',#189,.T.);
#117=FACE_OUTER_BOUND('',#190,.T.);
#118=FACE_OUTER_BOUND('',#191,.T.);
#119=FACE_OUTER_BOUND('',#192,.T.);
#120=FACE_OUTER_BOUND('',#193,.T.);
#121=FACE_OUTER_BOUND('',#194,.T.);
#122=FACE_OUTER_BOUND('',#195,.T.);
#123=FACE_OUTER_BOUND('',#196,.T.);
#124=FACE_OUTER_BOUND('',#197,.T.);
#125=FACE_OUTER_BOUND('',#198,.T.);
#126=FACE_OUTER_BOUND('',#199,.T.);
#127=FACE_OUTER_BOUND('',#200,.T.);
#128=FACE_OUTER_BOUND('',#201,.T.);
#129=FACE_OUTER_BOUND('',#203,.T.);
#130=FACE_OUTER_BOUND('',#205,.T.);
#131=FACE_OUTER_BOUND('',#206,.T.);
#132=FACE_OUTER_BOUND('',#207,.T.);
#133=FACE_OUTER_BOUND('',#208,.T.);
#134=FACE_OUTER_BOUND('',#211,.T.);
#135=FACE_OUTER_BOUND('',#212,.T.);
#136=FACE_OUTER_BOUND('',#216,.T.);
#137=FACE_OUTER_BOUND('',#217,.T.);
#138=FACE_OUTER_BOUND('',#218,.T.);
#139=FACE_OUTER_BOUND('',#219,.T.);
#140=FACE_OUTER_BOUND('',#220,.T.);
#141=FACE_OUTER_BOUND('',#221,.T.);
#142=FACE_OUTER_BOUND('',#222,.T.);
#143=EDGE_LOOP('',(#802,#803,#804,#805));
#144=EDGE_LOOP('',(#806,#807,#808,#809));
#145=EDGE_LOOP('',(#810,#811,#812,#813));
#146=EDGE_LOOP('',(#814,#815,#816,#817));
#147=EDGE_LOOP('',(#818,#819,#820,#821));
#148=EDGE_LOOP('',(#822,#823,#824,#825,#826,#827,#828,#829));
#149=EDGE_LOOP('',(#830));
#150=EDGE_LOOP('',(#831));
#151=EDGE_LOOP('',(#832,#833,#834,#835,#836));
#152=EDGE_LOOP('',(#837,#838,#839,#840));
#153=EDGE_LOOP('',(#841,#842,#843,#844));
#154=EDGE_LOOP('',(#845,#846,#847,#848));
#155=EDGE_LOOP('',(#849,#850,#851,#852,#853,#854));
#156=EDGE_LOOP('',(#855,#856,#857,#858));
#157=EDGE_LOOP('',(#859,#860,#861,#862));
#158=EDGE_LOOP('',(#863,#864,#865,#866));
#159=EDGE_LOOP('',(#867,#868,#869,#870));
#160=EDGE_LOOP('',(#871,#872,#873,#874));
#161=EDGE_LOOP('',(#875,#876,#877,#878));
#162=EDGE_LOOP('',(#879,#880,#881,#882));
#163=EDGE_LOOP('',(#883,#884,#885,#886));
#164=EDGE_LOOP('',(#887,#888,#889,#890));
#165=EDGE_LOOP('',(#891,#892,#893,#894));
#166=EDGE_LOOP('',(#895,#896,#897,#898));
#167=EDGE_LOOP('',(#899,#900,#901,#902));
#168=EDGE_LOOP('',(#903,#904,#905,#906,#907,#908));
#169=EDGE_LOOP('',(#909,#910,#911,#912));
#170=EDGE_LOOP('',(#913,#914,#915,#916));
#171=EDGE_LOOP('',(#917,#918,#919,#920));
#172=EDGE_LOOP('',(#921));
#173=EDGE_LOOP('',(#922,#923,#924,#925,#926,#927,#928,#929,#930,#931,#932,
#933,#934,#935,#936,#937,#938,#939,#940,#941,#942,#943));
#174=EDGE_LOOP('',(#944,#945,#946,#947));
#175=EDGE_LOOP('',(#948,#949,#950,#951));
#176=EDGE_LOOP('',(#952,#953,#954,#955));
#177=EDGE_LOOP('',(#956));
#178=EDGE_LOOP('',(#957,#958,#959,#960,#961,#962));
#179=EDGE_LOOP('',(#963,#964,#965,#966,#967));
#180=EDGE_LOOP('',(#968,#969,#970,#971));
#181=EDGE_LOOP('',(#972,#973,#974,#975,#976,#977));
#182=EDGE_LOOP('',(#978,#979,#980,#981));
#183=EDGE_LOOP('',(#982,#983,#984,#985));
#184=EDGE_LOOP('',(#986));
#185=EDGE_LOOP('',(#987,#988,#989,#990));
#186=EDGE_LOOP('',(#991));
#187=EDGE_LOOP('',(#992,#993,#994,#995,#996));
#188=EDGE_LOOP('',(#997,#998,#999,#1000));
#189=EDGE_LOOP('',(#1001,#1002,#1003,#1004));
#190=EDGE_LOOP('',(#1005,#1006,#1007,#1008));
#191=EDGE_LOOP('',(#1009,#1010,#1011,#1012));
#192=EDGE_LOOP('',(#1013,#1014,#1015,#1016));
#193=EDGE_LOOP('',(#1017,#1018,#1019,#1020));
#194=EDGE_LOOP('',(#1021,#1022,#1023,#1024));
#195=EDGE_LOOP('',(#1025,#1026,#1027,#1028));
#196=EDGE_LOOP('',(#1029,#1030,#1031,#1032,#1033,#1034,#1035,#1036));
#197=EDGE_LOOP('',(#1037,#1038,#1039,#1040));
#198=EDGE_LOOP('',(#1041,#1042,#1043,#1044,#1045,#1046,#1047,#1048));
#199=EDGE_LOOP('',(#1049,#1050,#1051,#1052,#1053,#1054));
#200=EDGE_LOOP('',(#1055,#1056,#1057,#1058,#1059,#1060));
#201=EDGE_LOOP('',(#1061,#1062,#1063,#1064,#1065,#1066,#1067,#1068,#1069,
#1070,#1071,#1072,#1073,#1074,#1075,#1076,#1077,#1078));
#202=EDGE_LOOP('',(#1079,#1080,#1081,#1082));
#203=EDGE_LOOP('',(#1083,#1084,#1085,#1086));
#204=EDGE_LOOP('',(#1087));
#205=EDGE_LOOP('',(#1088,#1089,#1090,#1091));
#206=EDGE_LOOP('',(#1092,#1093,#1094,#1095));
#207=EDGE_LOOP('',(#1096,#1097,#1098,#1099));
#208=EDGE_LOOP('',(#1100,#1101,#1102,#1103,#1104,#1105,#1106,#1107,#1108,
#1109,#1110,#1111));
#209=EDGE_LOOP('',(#1112));
#210=EDGE_LOOP('',(#1113));
#211=EDGE_LOOP('',(#1114,#1115,#1116,#1117));
#212=EDGE_LOOP('',(#1118,#1119,#1120,#1121,#1122,#1123,#1124,#1125));
#213=EDGE_LOOP('',(#1126));
#214=EDGE_LOOP('',(#1127));
#215=EDGE_LOOP('',(#1128,#1129,#1130,#1131));
#216=EDGE_LOOP('',(#1132,#1133,#1134,#1135));
#217=EDGE_LOOP('',(#1136,#1137,#1138,#1139));
#218=EDGE_LOOP('',(#1140,#1141,#1142,#1143));
#219=EDGE_LOOP('',(#1144,#1145,#1146,#1147));
#220=EDGE_LOOP('',(#1148,#1149,#1150,#1151));
#221=EDGE_LOOP('',(#1152,#1153,#1154,#1155));
#222=EDGE_LOOP('',(#1156,#1157,#1158,#1159));
#223=LINE('',#1767,#337);
#224=LINE('',#1773,#338);
#225=LINE('',#1779,#339);
#226=LINE('',#1785,#340);
#227=LINE('',#1791,#341);
#228=LINE('',#1795,#342);
#229=LINE('',#1890,#343);
#230=LINE('',#1894,#344);
#231=LINE('',#1897,#345);
#232=LINE('',#1900,#346);
#233=LINE('',#1901,#347);
#234=LINE('',#1904,#348);
#235=LINE('',#1905,#349);
#236=LINE('',#1909,#350);
#237=LINE('',#1911,#351);
#238=LINE('',#1913,#352);
#239=LINE('',#1914,#353);
#240=LINE('',#1919,#354);
#241=LINE('',#1923,#355);
#242=LINE('',#1925,#356);
#243=LINE('',#1926,#357);
#244=LINE('',#1934,#358);
#245=LINE('',#1936,#359);
#246=LINE('',#1938,#360);
#247=LINE('',#1939,#361);
#248=LINE('',#1944,#362);
#249=LINE('',#1948,#363);
#250=LINE('',#1950,#364);
#251=LINE('',#1951,#365);
#252=LINE('',#1960,#366);
#253=LINE('',#1963,#367);
#254=LINE('',#1965,#368);
#255=LINE('',#1968,#369);
#256=LINE('',#1970,#370);
#257=LINE('',#1971,#371);
#258=LINE('',#1974,#372);
#259=LINE('',#1978,#373);
#260=LINE('',#1984,#374);
#261=LINE('',#1988,#375);
#262=LINE('',#1990,#376);
#263=LINE('',#1992,#377);
#264=LINE('',#1996,#378);
#265=LINE('',#1998,#379);
#266=LINE('',#2000,#380);
#267=LINE('',#2002,#381);
#268=LINE('',#2004,#382);
#269=LINE('',#2008,#383);
#270=LINE('',#2014,#384);
#271=LINE('',#2019,#385);
#272=LINE('',#2021,#386);
#273=LINE('',#2023,#387);
#274=LINE('',#2024,#388);
#275=LINE('',#2028,#389);
#276=LINE('',#2030,#390);
#277=LINE('',#2032,#391);
#278=LINE('',#2036,#392);
#279=LINE('',#2037,#393);
#280=LINE('',#2041,#394);
#281=LINE('',#2042,#395);
#282=LINE('',#2044,#396);
#283=LINE('',#2048,#397);
#284=LINE('',#2050,#398);
#285=LINE('',#2051,#399);
#286=LINE('',#2054,#400);
#287=LINE('',#2056,#401);
#288=LINE('',#2060,#402);
#289=LINE('',#2061,#403);
#290=LINE('',#2063,#404);
#291=LINE('',#2064,#405);
#292=LINE('',#2067,#406);
#293=LINE('',#2068,#407);
#294=LINE('',#2071,#408);
#295=LINE('',#2072,#409);
#296=LINE('',#2075,#410);
#297=LINE('',#2078,#411);
#298=LINE('',#2079,#412);
#299=LINE('',#2082,#413);
#300=LINE('',#2084,#414);
#301=LINE('',#2085,#415);
#302=LINE('',#2088,#416);
#303=LINE('',#2091,#417);
#304=LINE('',#2093,#418);
#305=LINE('',#2094,#419);
#306=LINE('',#2097,#420);
#307=LINE('',#2098,#421);
#308=LINE('',#2100,#422);
#309=LINE('',#2105,#423);
#310=LINE('',#2106,#424);
#311=LINE('',#2111,#425);
#312=LINE('',#2112,#426);
#313=LINE('',#2116,#427);
#314=LINE('',#2122,#428);
#315=LINE('',#2125,#429);
#316=LINE('',#2126,#430);
#317=LINE('',#2129,#431);
#318=LINE('',#2133,#432);
#319=LINE('',#2136,#433);
#320=LINE('',#2137,#434);
#321=LINE('',#2140,#435);
#322=LINE('',#2141,#436);
#323=LINE('',#2144,#437);
#324=LINE('',#2145,#438);
#325=LINE('',#2150,#439);
#326=LINE('',#2154,#440);
#327=LINE('',#2158,#441);
#328=LINE('',#2162,#442);
#329=LINE('',#2166,#443);
#330=LINE('',#2170,#444);
#331=LINE('',#2174,#445);
#332=LINE('',#2177,#446);
#333=LINE('',#2178,#447);
#334=LINE('',#2180,#448);
#335=LINE('',#2182,#449);
#336=LINE('',#2184,#450);
#337=VECTOR('',#1400,7.5);
#338=VECTOR('',#1407,7.5);
#339=VECTOR('',#1414,3.00000000000001);
#340=VECTOR('',#1421,3.00000000000001);
#341=VECTOR('',#1428,10.5);
#342=VECTOR('',#1433,12.);
#343=VECTOR('',#1462,10.);
#344=VECTOR('',#1465,10.);
#345=VECTOR('',#1468,10.);
#346=VECTOR('',#1471,10.);
#347=VECTOR('',#1472,10.);
#348=VECTOR('',#1475,10.);
#349=VECTOR('',#1476,10.);
#350=VECTOR('',#1479,10.);
#351=VECTOR('',#1480,10.);
#352=VECTOR('',#1481,10.);
#353=VECTOR('',#1482,10.);
#354=VECTOR('',#1487,10.);
#355=VECTOR('',#1492,10.);
#356=VECTOR('',#1493,10.);
#357=VECTOR('',#1494,10.);
#358=VECTOR('',#1505,10.);
#359=VECTOR('',#1506,10.);
#360=VECTOR('',#1507,10.);
#361=VECTOR('',#1508,10.);
#362=VECTOR('',#1513,10.);
#363=VECTOR('',#1518,10.);
#364=VECTOR('',#1519,10.);
#365=VECTOR('',#1520,10.);
#366=VECTOR('',#1533,10.);
#367=VECTOR('',#1538,10.);
#368=VECTOR('',#1541,10.);
#369=VECTOR('',#1544,10.);
#370=VECTOR('',#1545,10.);
#371=VECTOR('',#1546,10.);
#372=VECTOR('',#1549,10.);
#373=VECTOR('',#1552,10.);
#374=VECTOR('',#1557,10.);
#375=VECTOR('',#1560,10.);
#376=VECTOR('',#1561,10.);
#377=VECTOR('',#1562,10.);
#378=VECTOR('',#1565,10.);
#379=VECTOR('',#1566,10.);
#380=VECTOR('',#1567,10.);
#381=VECTOR('',#1568,10.);
#382=VECTOR('',#1569,10.);
#383=VECTOR('',#1572,10.);
#384=VECTOR('',#1579,7.5);
#385=VECTOR('',#1584,10.);
#386=VECTOR('',#1585,10.);
#387=VECTOR('',#1586,10.);
#388=VECTOR('',#1587,10.);
#389=VECTOR('',#1590,10.);
#390=VECTOR('',#1591,10.);
#391=VECTOR('',#1592,10.);
#392=VECTOR('',#1595,10.);
#393=VECTOR('',#1596,10.);
#394=VECTOR('',#1599,10.);
#395=VECTOR('',#1600,10.);
#396=VECTOR('',#1601,10.);
#397=VECTOR('',#1606,10.);
#398=VECTOR('',#1607,10.);
#399=VECTOR('',#1608,10.);
#400=VECTOR('',#1611,10.);
#401=VECTOR('',#1612,10.);
#402=VECTOR('',#1615,10.);
#403=VECTOR('',#1616,10.);
#404=VECTOR('',#1619,10.);
#405=VECTOR('',#1620,10.);
#406=VECTOR('',#1623,10.);
#407=VECTOR('',#1624,10.);
#408=VECTOR('',#1627,10.);
#409=VECTOR('',#1628,10.);
#410=VECTOR('',#1631,10.);
#411=VECTOR('',#1636,10.);
#412=VECTOR('',#1637,10.);
#413=VECTOR('',#1640,10.);
#414=VECTOR('',#1641,10.);
#415=VECTOR('',#1642,10.);
#416=VECTOR('',#1645,10.);
#417=VECTOR('',#1648,10.);
#418=VECTOR('',#1651,10.);
#419=VECTOR('',#1652,10.);
#420=VECTOR('',#1655,10.);
#421=VECTOR('',#1656,10.);
#422=VECTOR('',#1659,10.);
#423=VECTOR('',#1664,10.);
#424=VECTOR('',#1665,10.);
#425=VECTOR('',#1672,10.);
#426=VECTOR('',#1673,10.);
#427=VECTOR('',#1678,10.);
#428=VECTOR('',#1687,10.);
#429=VECTOR('',#1690,10.);
#430=VECTOR('',#1691,10.);
#431=VECTOR('',#1694,10.);
#432=VECTOR('',#1697,10.);
#433=VECTOR('',#1700,10.);
#434=VECTOR('',#1701,10.);
#435=VECTOR('',#1706,10.);
#436=VECTOR('',#1707,10.);
#437=VECTOR('',#1712,10.);
#438=VECTOR('',#1713,10.);
#439=VECTOR('',#1718,10.);
#440=VECTOR('',#1721,10.);
#441=VECTOR('',#1724,10.);
#442=VECTOR('',#1729,10.);
#443=VECTOR('',#1734,10.);
#444=VECTOR('',#1737,10.);
#445=VECTOR('',#1740,10.);
#446=VECTOR('',#1745,10.);
#447=VECTOR('',#1746,10.);
#448=VECTOR('',#1749,10.);
#449=VECTOR('',#1752,10.);
#450=VECTOR('',#1755,10.);
#451=CIRCLE('',#1269,7.5);
#452=CIRCLE('',#1270,7.5);
#453=CIRCLE('',#1272,7.5);
#454=CIRCLE('',#1273,7.5);
#455=CIRCLE('',#1275,3.00000000000001);
#456=CIRCLE('',#1276,3.00000000000001);
#457=CIRCLE('',#1278,3.00000000000001);
#458=CIRCLE('',#1279,3.00000000000001);
#459=CIRCLE('',#1281,9.);
#460=CIRCLE('',#1282,12.);
#461=CIRCLE('',#1284,12.);
#462=CIRCLE('',#1285,12.);
#463=CIRCLE('',#1286,12.);
#464=CIRCLE('',#1288,7.0175);
#465=CIRCLE('',#1290,3.99999999999999);
#466=CIRCLE('',#1291,4.);
#467=CIRCLE('',#1292,16.);
#468=CIRCLE('',#1293,4.);
#469=CIRCLE('',#1295,4.);
#470=CIRCLE('',#1296,16.);
#471=CIRCLE('',#1304,9.);
#472=CIRCLE('',#1305,9.);
#473=CIRCLE('',#1308,9.);
#474=CIRCLE('',#1309,9.);
#475=CIRCLE('',#1313,9.);
#476=CIRCLE('',#1314,9.);
#477=CIRCLE('',#1317,9.);
#478=CIRCLE('',#1318,9.);
#479=CIRCLE('',#1327,9.00000249445428);
#480=CIRCLE('',#1328,27.);
#481=CIRCLE('',#1329,15.0000000000001);
#482=CIRCLE('',#1330,9.00000000000002);
#483=CIRCLE('',#1331,9.);
#484=CIRCLE('',#1332,4.);
#485=CIRCLE('',#1333,51.);
#486=CIRCLE('',#1334,8.99999999999999);
#487=CIRCLE('',#1336,7.0175);
#488=CIRCLE('',#1339,9.00000000000002);
#489=CIRCLE('',#1341,27.);
#490=CIRCLE('',#1344,9.00000000000002);
#491=CIRCLE('',#1349,27.);
#492=CIRCLE('',#1353,9.00000000000002);
#493=CIRCLE('',#1358,51.);
#494=CIRCLE('',#1360,8.99999999999999);
#495=CIRCLE('',#1363,15.0000000000001);
#496=CIRCLE('',#1365,27.);
#497=CIRCLE('',#1367,9.00000249445428);
#498=CIRCLE('',#1370,4.);
#499=CIRCLE('',#1371,9.);
#500=CIRCLE('',#1377,9.);
#501=CIRCLE('',#1378,9.);
#502=CIRCLE('',#1379,9.);
#503=CIRCLE('',#1380,9.);
#504=CIRCLE('',#1382,9.);
#505=CIRCLE('',#1384,9.);
#506=CIRCLE('',#1385,9.);
#507=CIRCLE('',#1386,9.);
#508=VERTEX_POINT('',#1764);
#509=VERTEX_POINT('',#1766);
#510=VERTEX_POINT('',#1770);
#511=VERTEX_POINT('',#1772);
#512=VERTEX_POINT('',#1776);
#513=VERTEX_POINT('',#1778);
#514=VERTEX_POINT('',#1782);
#515=VERTEX_POINT('',#1784);
#516=VERTEX_POINT('',#1788);
#517=VERTEX_POINT('',#1790);
#518=VERTEX_POINT('',#1794);
#519=VERTEX_POINT('',#1796);
#520=VERTEX_POINT('',#1798);
#521=VERTEX_POINT('',#1804);
#522=VERTEX_POINT('',#1806);
#523=VERTEX_POINT('',#1814);
#524=VERTEX_POINT('',#1817);
#525=VERTEX_POINT('',#1819);
#526=VERTEX_POINT('',#1847);
#527=VERTEX_POINT('',#1855);
#528=VERTEX_POINT('',#1889);
#529=VERTEX_POINT('',#1891);
#530=VERTEX_POINT('',#1893);
#531=VERTEX_POINT('',#1895);
#532=VERTEX_POINT('',#1899);
#533=VERTEX_POINT('',#1903);
#534=VERTEX_POINT('',#1907);
#535=VERTEX_POINT('',#1908);
#536=VERTEX_POINT('',#1910);
#537=VERTEX_POINT('',#1912);
#538=VERTEX_POINT('',#1916);
#539=VERTEX_POINT('',#1918);
#540=VERTEX_POINT('',#1922);
#541=VERTEX_POINT('',#1924);
#542=VERTEX_POINT('',#1932);
#543=VERTEX_POINT('',#1933);
#544=VERTEX_POINT('',#1935);
#545=VERTEX_POINT('',#1937);
#546=VERTEX_POINT('',#1941);
#547=VERTEX_POINT('',#1943);
#548=VERTEX_POINT('',#1947);
#549=VERTEX_POINT('',#1949);
#550=VERTEX_POINT('',#1957);
#551=VERTEX_POINT('',#1959);
#552=VERTEX_POINT('',#1967);
#553=VERTEX_POINT('',#1969);
#554=VERTEX_POINT('',#1973);
#555=VERTEX_POINT('',#1975);
#556=VERTEX_POINT('',#1977);
#557=VERTEX_POINT('',#1979);
#558=VERTEX_POINT('',#1981);
#559=VERTEX_POINT('',#1983);
#560=VERTEX_POINT('',#1985);
#561=VERTEX_POINT('',#1987);
#562=VERTEX_POINT('',#1989);
#563=VERTEX_POINT('',#1991);
#564=VERTEX_POINT('',#1993);
#565=VERTEX_POINT('',#1995);
#566=VERTEX_POINT('',#1997);
#567=VERTEX_POINT('',#1999);
#568=VERTEX_POINT('',#2001);
#569=VERTEX_POINT('',#2003);
#570=VERTEX_POINT('',#2005);
#571=VERTEX_POINT('',#2007);
#572=VERTEX_POINT('',#2009);
#573=VERTEX_POINT('',#2013);
#574=VERTEX_POINT('',#2017);
#575=VERTEX_POINT('',#2018);
#576=VERTEX_POINT('',#2020);
#577=VERTEX_POINT('',#2022);
#578=VERTEX_POINT('',#2026);
#579=VERTEX_POINT('',#2027);
#580=VERTEX_POINT('',#2029);
#581=VERTEX_POINT('',#2031);
#582=VERTEX_POINT('',#2033);
#583=VERTEX_POINT('',#2035);
#584=VERTEX_POINT('',#2039);
#585=VERTEX_POINT('',#2040);
#586=VERTEX_POINT('',#2043);
#587=VERTEX_POINT('',#2047);
#588=VERTEX_POINT('',#2049);
#589=VERTEX_POINT('',#2053);
#590=VERTEX_POINT('',#2055);
#591=VERTEX_POINT('',#2057);
#592=VERTEX_POINT('',#2059);
#593=VERTEX_POINT('',#2066);
#594=VERTEX_POINT('',#2070);
#595=VERTEX_POINT('',#2074);
#596=VERTEX_POINT('',#2081);
#597=VERTEX_POINT('',#2083);
#598=VERTEX_POINT('',#2087);
#599=VERTEX_POINT('',#2089);
#600=VERTEX_POINT('',#2096);
#601=VERTEX_POINT('',#2102);
#602=VERTEX_POINT('',#2103);
#603=VERTEX_POINT('',#2110);
#604=VERTEX_POINT('',#2114);
#605=VERTEX_POINT('',#2120);
#606=VERTEX_POINT('',#2124);
#607=VERTEX_POINT('',#2128);
#608=VERTEX_POINT('',#2130);
#609=VERTEX_POINT('',#2132);
#610=VERTEX_POINT('',#2134);
#611=VERTEX_POINT('',#2147);
#612=VERTEX_POINT('',#2149);
#613=VERTEX_POINT('',#2151);
#614=VERTEX_POINT('',#2153);
#615=VERTEX_POINT('',#2155);
#616=VERTEX_POINT('',#2157);
#617=VERTEX_POINT('',#2161);
#618=VERTEX_POINT('',#2165);
#619=VERTEX_POINT('',#2167);
#620=VERTEX_POINT('',#2169);
#621=VERTEX_POINT('',#2171);
#622=VERTEX_POINT('',#2173);
#623=EDGE_CURVE('',#508,#508,#451,.T.);
#624=EDGE_CURVE('',#508,#509,#223,.T.);
#625=EDGE_CURVE('',#509,#509,#452,.T.);
#626=EDGE_CURVE('',#510,#510,#453,.T.);
#627=EDGE_CURVE('',#510,#511,#224,.T.);
#628=EDGE_CURVE('',#511,#511,#454,.T.);
#629=EDGE_CURVE('',#512,#512,#455,.T.);
#630=EDGE_CURVE('',#512,#513,#225,.T.);
#631=EDGE_CURVE('',#513,#513,#456,.T.);
#632=EDGE_CURVE('',#514,#514,#457,.T.);
#633=EDGE_CURVE('',#514,#515,#226,.T.);
#634=EDGE_CURVE('',#515,#515,#458,.T.);
#635=EDGE_CURVE('',#516,#516,#459,.T.);
#636=EDGE_CURVE('',#516,#517,#227,.T.);
#637=EDGE_CURVE('',#517,#517,#460,.T.);
#638=EDGE_CURVE('',#517,#518,#228,.T.);
#639=EDGE_CURVE('',#519,#518,#461,.T.);
#640=EDGE_CURVE('',#520,#519,#71,.T.);
#641=EDGE_CURVE('',#521,#520,#462,.T.);
#642=EDGE_CURVE('',#522,#521,#72,.T.);
#643=EDGE_CURVE('',#518,#522,#463,.T.);
#644=EDGE_CURVE('',#523,#523,#464,.T.);
#645=EDGE_CURVE('',#524,#519,#465,.T.);
#646=EDGE_CURVE('',#522,#525,#466,.T.);
#647=EDGE_CURVE('',#525,#524,#467,.T.);
#648=EDGE_CURVE('',#521,#526,#468,.T.);
#649=EDGE_CURVE('',#526,#525,#73,.T.);
#650=EDGE_CURVE('',#520,#527,#469,.T.);
#651=EDGE_CURVE('',#527,#526,#470,.T.);
#652=EDGE_CURVE('',#524,#527,#74,.T.);
#653=EDGE_CURVE('',#524,#528,#229,.T.);
#654=EDGE_CURVE('',#528,#529,#15,.T.);
#655=EDGE_CURVE('',#529,#530,#230,.T.);
#656=EDGE_CURVE('',#531,#530,#16,.T.);
#657=EDGE_CURVE('',#531,#527,#231,.T.);
#658=EDGE_CURVE('',#532,#525,#232,.T.);
#659=EDGE_CURVE('',#528,#532,#233,.T.);
#660=EDGE_CURVE('',#533,#531,#234,.T.);
#661=EDGE_CURVE('',#526,#533,#235,.T.);
#662=EDGE_CURVE('',#534,#535,#236,.T.);
#663=EDGE_CURVE('',#534,#536,#237,.T.);
#664=EDGE_CURVE('',#536,#537,#238,.T.);
#665=EDGE_CURVE('',#535,#537,#239,.T.);
#666=EDGE_CURVE('',#538,#534,#471,.T.);
#667=EDGE_CURVE('',#538,#539,#240,.T.);
#668=EDGE_CURVE('',#539,#536,#472,.T.);
#669=EDGE_CURVE('',#540,#538,#241,.T.);
#670=EDGE_CURVE('',#540,#541,#242,.T.);
#671=EDGE_CURVE('',#541,#539,#243,.T.);
#672=EDGE_CURVE('',#535,#540,#473,.T.);
#673=EDGE_CURVE('',#537,#541,#474,.T.);
#674=EDGE_CURVE('',#542,#543,#244,.T.);
#675=EDGE_CURVE('',#542,#544,#245,.T.);
#676=EDGE_CURVE('',#544,#545,#246,.T.);
#677=EDGE_CURVE('',#543,#545,#247,.T.);
#678=EDGE_CURVE('',#546,#542,#475,.T.);
#679=EDGE_CURVE('',#546,#547,#248,.T.);
#680=EDGE_CURVE('',#547,#544,#476,.T.);
#681=EDGE_CURVE('',#548,#546,#249,.T.);
#682=EDGE_CURVE('',#548,#549,#250,.T.);
#683=EDGE_CURVE('',#549,#547,#251,.T.);
#684=EDGE_CURVE('',#543,#548,#477,.T.);
#685=EDGE_CURVE('',#545,#549,#478,.T.);
#686=EDGE_CURVE('',#533,#550,#17,.T.);
#687=EDGE_CURVE('',#550,#551,#252,.T.);
#688=EDGE_CURVE('',#532,#551,#18,.T.);
#689=EDGE_CURVE('',#530,#550,#253,.T.);
#690=EDGE_CURVE('',#551,#529,#254,.T.);
#691=EDGE_CURVE('',#552,#551,#255,.T.);
#692=EDGE_CURVE('',#552,#553,#256,.T.);
#693=EDGE_CURVE('',#529,#553,#257,.T.);
#694=EDGE_CURVE('',#554,#550,#258,.T.);
#695=EDGE_CURVE('',#554,#555,#479,.T.);
#696=EDGE_CURVE('',#556,#555,#259,.T.);
#697=EDGE_CURVE('',#557,#556,#480,.T.);
#698=EDGE_CURVE('',#558,#557,#481,.T.);
#699=EDGE_CURVE('',#558,#559,#260,.T.);
#700=EDGE_CURVE('',#560,#559,#482,.T.);
#701=EDGE_CURVE('',#561,#560,#261,.T.);
#702=EDGE_CURVE('',#562,#561,#262,.T.);
#703=EDGE_CURVE('',#563,#562,#263,.T.);
#704=EDGE_CURVE('',#564,#563,#483,.T.);
#705=EDGE_CURVE('',#565,#564,#264,.T.);
#706=EDGE_CURVE('',#566,#565,#265,.T.);
#707=EDGE_CURVE('',#566,#567,#266,.T.);
#708=EDGE_CURVE('',#568,#567,#267,.T.);
#709=EDGE_CURVE('',#569,#568,#268,.T.);
#710=EDGE_CURVE('',#570,#569,#484,.T.);
#711=EDGE_CURVE('',#570,#571,#269,.T.);
#712=EDGE_CURVE('',#571,#572,#485,.T.);
#713=EDGE_CURVE('',#572,#552,#486,.T.);
#714=EDGE_CURVE('',#523,#573,#270,.T.);
#715=EDGE_CURVE('',#573,#573,#487,.F.);
#716=EDGE_CURVE('',#574,#575,#271,.T.);
#717=EDGE_CURVE('',#575,#576,#272,.T.);
#718=EDGE_CURVE('',#576,#577,#273,.T.);
#719=EDGE_CURVE('',#577,#574,#274,.T.);
#720=EDGE_CURVE('',#578,#579,#275,.T.);
#721=EDGE_CURVE('',#580,#578,#276,.T.);
#722=EDGE_CURVE('',#581,#580,#277,.T.);
#723=EDGE_CURVE('',#582,#581,#488,.T.);
#724=EDGE_CURVE('',#583,#582,#278,.T.);
#725=EDGE_CURVE('',#583,#579,#279,.T.);
#726=EDGE_CURVE('',#584,#585,#280,.T.);
#727=EDGE_CURVE('',#575,#584,#281,.T.);
#728=EDGE_CURVE('',#574,#586,#282,.T.);
#729=EDGE_CURVE('',#585,#586,#489,.T.);
#730=EDGE_CURVE('',#579,#587,#283,.T.);
#731=EDGE_CURVE('',#588,#583,#284,.T.);
#732=EDGE_CURVE('',#588,#587,#285,.T.);
#733=EDGE_CURVE('',#587,#589,#286,.T.);
#734=EDGE_CURVE('',#590,#588,#287,.T.);
#735=EDGE_CURVE('',#591,#590,#490,.T.);
#736=EDGE_CURVE('',#592,#591,#288,.T.);
#737=EDGE_CURVE('',#592,#589,#289,.T.);
#738=EDGE_CURVE('',#589,#578,#290,.T.);
#739=EDGE_CURVE('',#580,#592,#291,.T.);
#740=EDGE_CURVE('',#584,#593,#292,.T.);
#741=EDGE_CURVE('',#576,#593,#293,.T.);
#742=EDGE_CURVE('',#586,#594,#294,.T.);
#743=EDGE_CURVE('',#577,#594,#295,.T.);
#744=EDGE_CURVE('',#595,#593,#296,.T.);
#745=EDGE_CURVE('',#594,#595,#491,.T.);
#746=EDGE_CURVE('',#556,#585,#297,.T.);
#747=EDGE_CURVE('',#555,#584,#298,.T.);
#748=EDGE_CURVE('',#593,#596,#299,.T.);
#749=EDGE_CURVE('',#597,#596,#300,.T.);
#750=EDGE_CURVE('',#595,#597,#301,.T.);
#751=EDGE_CURVE('',#590,#598,#302,.T.);
#752=EDGE_CURVE('',#599,#598,#492,.T.);
#753=EDGE_CURVE('',#591,#599,#303,.T.);
#754=EDGE_CURVE('',#560,#581,#304,.T.);
#755=EDGE_CURVE('',#559,#582,#305,.T.);
#756=EDGE_CURVE('',#600,#599,#306,.T.);
#757=EDGE_CURVE('',#592,#600,#307,.T.);
#758=EDGE_CURVE('',#561,#580,#308,.T.);
#759=EDGE_CURVE('',#601,#602,#493,.T.);
#760=EDGE_CURVE('',#572,#601,#309,.T.);
#761=EDGE_CURVE('',#602,#571,#310,.T.);
#762=EDGE_CURVE('',#553,#601,#494,.T.);
#763=EDGE_CURVE('',#558,#603,#311,.T.);
#764=EDGE_CURVE('',#598,#603,#312,.T.);
#765=EDGE_CURVE('',#603,#604,#495,.T.);
#766=EDGE_CURVE('',#557,#604,#313,.T.);
#767=EDGE_CURVE('',#604,#597,#496,.T.);
#768=EDGE_CURVE('',#596,#605,#497,.T.);
#769=EDGE_CURVE('',#554,#605,#314,.T.);
#770=EDGE_CURVE('',#606,#600,#315,.T.);
#771=EDGE_CURVE('',#562,#606,#316,.T.);
#772=EDGE_CURVE('',#607,#602,#317,.T.);
#773=EDGE_CURVE('',#608,#607,#498,.T.);
#774=EDGE_CURVE('',#609,#608,#318,.T.);
#775=EDGE_CURVE('',#610,#609,#499,.T.);
#776=EDGE_CURVE('',#610,#606,#319,.T.);
#777=EDGE_CURVE('',#605,#530,#320,.T.);
#778=EDGE_CURVE('',#607,#570,#321,.T.);
#779=EDGE_CURVE('',#569,#608,#322,.T.);
#780=EDGE_CURVE('',#609,#564,#323,.T.);
#781=EDGE_CURVE('',#563,#610,#324,.T.);
#782=EDGE_CURVE('',#611,#568,#500,.T.);
#783=EDGE_CURVE('',#611,#612,#325,.T.);
#784=EDGE_CURVE('',#613,#612,#501,.T.);
#785=EDGE_CURVE('',#613,#614,#326,.T.);
#786=EDGE_CURVE('',#615,#614,#502,.T.);
#787=EDGE_CURVE('',#615,#616,#327,.T.);
#788=EDGE_CURVE('',#565,#616,#503,.T.);
#789=EDGE_CURVE('',#616,#617,#328,.T.);
#790=EDGE_CURVE('',#617,#566,#504,.T.);
#791=EDGE_CURVE('',#618,#617,#329,.T.);
#792=EDGE_CURVE('',#619,#618,#505,.T.);
#793=EDGE_CURVE('',#620,#619,#330,.T.);
#794=EDGE_CURVE('',#621,#620,#506,.T.);
#795=EDGE_CURVE('',#622,#621,#331,.T.);
#796=EDGE_CURVE('',#567,#622,#507,.T.);
#797=EDGE_CURVE('',#614,#619,#332,.T.);
#798=EDGE_CURVE('',#618,#615,#333,.T.);
#799=EDGE_CURVE('',#620,#613,#334,.T.);
#800=EDGE_CURVE('',#612,#621,#335,.T.);
#801=EDGE_CURVE('',#622,#611,#336,.T.);
#802=ORIENTED_EDGE('',*,*,#623,.F.);
#803=ORIENTED_EDGE('',*,*,#624,.T.);
#804=ORIENTED_EDGE('',*,*,#625,.F.);
#805=ORIENTED_EDGE('',*,*,#624,.F.);
#806=ORIENTED_EDGE('',*,*,#626,.F.);
#807=ORIENTED_EDGE('',*,*,#627,.T.);
#808=ORIENTED_EDGE('',*,*,#628,.F.);
#809=ORIENTED_EDGE('',*,*,#627,.F.);
#810=ORIENTED_EDGE('',*,*,#629,.F.);
#811=ORIENTED_EDGE('',*,*,#630,.T.);
#812=ORIENTED_EDGE('',*,*,#631,.F.);
#813=ORIENTED_EDGE('',*,*,#630,.F.);
#814=ORIENTED_EDGE('',*,*,#632,.F.);
#815=ORIENTED_EDGE('',*,*,#633,.T.);
#816=ORIENTED_EDGE('',*,*,#634,.F.);
#817=ORIENTED_EDGE('',*,*,#633,.F.);
#818=ORIENTED_EDGE('',*,*,#635,.T.);
#819=ORIENTED_EDGE('',*,*,#636,.T.);
#820=ORIENTED_EDGE('',*,*,#637,.T.);
#821=ORIENTED_EDGE('',*,*,#636,.F.);
#822=ORIENTED_EDGE('',*,*,#637,.F.);
#823=ORIENTED_EDGE('',*,*,#638,.T.);
#824=ORIENTED_EDGE('',*,*,#639,.F.);
#825=ORIENTED_EDGE('',*,*,#640,.F.);
#826=ORIENTED_EDGE('',*,*,#641,.F.);
#827=ORIENTED_EDGE('',*,*,#642,.F.);
#828=ORIENTED_EDGE('',*,*,#643,.F.);
#829=ORIENTED_EDGE('',*,*,#638,.F.);
#830=ORIENTED_EDGE('',*,*,#635,.F.);
#831=ORIENTED_EDGE('',*,*,#644,.T.);
#832=ORIENTED_EDGE('',*,*,#645,.T.);
#833=ORIENTED_EDGE('',*,*,#639,.T.);
#834=ORIENTED_EDGE('',*,*,#643,.T.);
#835=ORIENTED_EDGE('',*,*,#646,.T.);
#836=ORIENTED_EDGE('',*,*,#647,.T.);
#837=ORIENTED_EDGE('',*,*,#648,.T.);
#838=ORIENTED_EDGE('',*,*,#649,.T.);
#839=ORIENTED_EDGE('',*,*,#646,.F.);
#840=ORIENTED_EDGE('',*,*,#642,.T.);
#841=ORIENTED_EDGE('',*,*,#648,.F.);
#842=ORIENTED_EDGE('',*,*,#641,.T.);
#843=ORIENTED_EDGE('',*,*,#650,.T.);
#844=ORIENTED_EDGE('',*,*,#651,.T.);
#845=ORIENTED_EDGE('',*,*,#645,.F.);
#846=ORIENTED_EDGE('',*,*,#652,.T.);
#847=ORIENTED_EDGE('',*,*,#650,.F.);
#848=ORIENTED_EDGE('',*,*,#640,.T.);
#849=ORIENTED_EDGE('',*,*,#652,.F.);
#850=ORIENTED_EDGE('',*,*,#653,.T.);
#851=ORIENTED_EDGE('',*,*,#654,.T.);
#852=ORIENTED_EDGE('',*,*,#655,.T.);
#853=ORIENTED_EDGE('',*,*,#656,.F.);
#854=ORIENTED_EDGE('',*,*,#657,.T.);
#855=ORIENTED_EDGE('',*,*,#647,.F.);
#856=ORIENTED_EDGE('',*,*,#658,.F.);
#857=ORIENTED_EDGE('',*,*,#659,.F.);
#858=ORIENTED_EDGE('',*,*,#653,.F.);
#859=ORIENTED_EDGE('',*,*,#651,.F.);
#860=ORIENTED_EDGE('',*,*,#657,.F.);
#861=ORIENTED_EDGE('',*,*,#660,.F.);
#862=ORIENTED_EDGE('',*,*,#661,.F.);
#863=ORIENTED_EDGE('',*,*,#662,.F.);
#864=ORIENTED_EDGE('',*,*,#663,.T.);
#865=ORIENTED_EDGE('',*,*,#664,.T.);
#866=ORIENTED_EDGE('',*,*,#665,.F.);
#867=ORIENTED_EDGE('',*,*,#666,.F.);
#868=ORIENTED_EDGE('',*,*,#667,.T.);
#869=ORIENTED_EDGE('',*,*,#668,.T.);
#870=ORIENTED_EDGE('',*,*,#663,.F.);
#871=ORIENTED_EDGE('',*,*,#669,.F.);
#872=ORIENTED_EDGE('',*,*,#670,.T.);
#873=ORIENTED_EDGE('',*,*,#671,.T.);
#874=ORIENTED_EDGE('',*,*,#667,.F.);
#875=ORIENTED_EDGE('',*,*,#672,.F.);
#876=ORIENTED_EDGE('',*,*,#665,.T.);
#877=ORIENTED_EDGE('',*,*,#673,.T.);
#878=ORIENTED_EDGE('',*,*,#670,.F.);
#879=ORIENTED_EDGE('',*,*,#673,.F.);
#880=ORIENTED_EDGE('',*,*,#664,.F.);
#881=ORIENTED_EDGE('',*,*,#668,.F.);
#882=ORIENTED_EDGE('',*,*,#671,.F.);
#883=ORIENTED_EDGE('',*,*,#674,.F.);
#884=ORIENTED_EDGE('',*,*,#675,.T.);
#885=ORIENTED_EDGE('',*,*,#676,.T.);
#886=ORIENTED_EDGE('',*,*,#677,.F.);
#887=ORIENTED_EDGE('',*,*,#678,.F.);
#888=ORIENTED_EDGE('',*,*,#679,.T.);
#889=ORIENTED_EDGE('',*,*,#680,.T.);
#890=ORIENTED_EDGE('',*,*,#675,.F.);
#891=ORIENTED_EDGE('',*,*,#681,.F.);
#892=ORIENTED_EDGE('',*,*,#682,.T.);
#893=ORIENTED_EDGE('',*,*,#683,.T.);
#894=ORIENTED_EDGE('',*,*,#679,.F.);
#895=ORIENTED_EDGE('',*,*,#684,.F.);
#896=ORIENTED_EDGE('',*,*,#677,.T.);
#897=ORIENTED_EDGE('',*,*,#685,.T.);
#898=ORIENTED_EDGE('',*,*,#682,.F.);
#899=ORIENTED_EDGE('',*,*,#685,.F.);
#900=ORIENTED_EDGE('',*,*,#676,.F.);
#901=ORIENTED_EDGE('',*,*,#680,.F.);
#902=ORIENTED_EDGE('',*,*,#683,.F.);
#903=ORIENTED_EDGE('',*,*,#649,.F.);
#904=ORIENTED_EDGE('',*,*,#661,.T.);
#905=ORIENTED_EDGE('',*,*,#686,.T.);
#906=ORIENTED_EDGE('',*,*,#687,.T.);
#907=ORIENTED_EDGE('',*,*,#688,.F.);
#908=ORIENTED_EDGE('',*,*,#658,.T.);
#909=ORIENTED_EDGE('',*,*,#660,.T.);
#910=ORIENTED_EDGE('',*,*,#656,.T.);
#911=ORIENTED_EDGE('',*,*,#689,.T.);
#912=ORIENTED_EDGE('',*,*,#686,.F.);
#913=ORIENTED_EDGE('',*,*,#690,.T.);
#914=ORIENTED_EDGE('',*,*,#654,.F.);
#915=ORIENTED_EDGE('',*,*,#659,.T.);
#916=ORIENTED_EDGE('',*,*,#688,.T.);
#917=ORIENTED_EDGE('',*,*,#690,.F.);
#918=ORIENTED_EDGE('',*,*,#691,.F.);
#919=ORIENTED_EDGE('',*,*,#692,.T.);
#920=ORIENTED_EDGE('',*,*,#693,.F.);
#921=ORIENTED_EDGE('',*,*,#631,.T.);
#922=ORIENTED_EDGE('',*,*,#687,.F.);
#923=ORIENTED_EDGE('',*,*,#694,.F.);
#924=ORIENTED_EDGE('',*,*,#695,.T.);
#925=ORIENTED_EDGE('',*,*,#696,.F.);
#926=ORIENTED_EDGE('',*,*,#697,.F.);
#927=ORIENTED_EDGE('',*,*,#698,.F.);
#928=ORIENTED_EDGE('',*,*,#699,.T.);
#929=ORIENTED_EDGE('',*,*,#700,.F.);
#930=ORIENTED_EDGE('',*,*,#701,.F.);
#931=ORIENTED_EDGE('',*,*,#702,.F.);
#932=ORIENTED_EDGE('',*,*,#703,.F.);
#933=ORIENTED_EDGE('',*,*,#704,.F.);
#934=ORIENTED_EDGE('',*,*,#705,.F.);
#935=ORIENTED_EDGE('',*,*,#706,.F.);
#936=ORIENTED_EDGE('',*,*,#707,.T.);
#937=ORIENTED_EDGE('',*,*,#708,.F.);
#938=ORIENTED_EDGE('',*,*,#709,.F.);
#939=ORIENTED_EDGE('',*,*,#710,.F.);
#940=ORIENTED_EDGE('',*,*,#711,.T.);
#941=ORIENTED_EDGE('',*,*,#712,.T.);
#942=ORIENTED_EDGE('',*,*,#713,.T.);
#943=ORIENTED_EDGE('',*,*,#691,.T.);
#944=ORIENTED_EDGE('',*,*,#674,.T.);
#945=ORIENTED_EDGE('',*,*,#684,.T.);
#946=ORIENTED_EDGE('',*,*,#681,.T.);
#947=ORIENTED_EDGE('',*,*,#678,.T.);
#948=ORIENTED_EDGE('',*,*,#644,.F.);
#949=ORIENTED_EDGE('',*,*,#714,.T.);
#950=ORIENTED_EDGE('',*,*,#715,.F.);
#951=ORIENTED_EDGE('',*,*,#714,.F.);
#952=ORIENTED_EDGE('',*,*,#716,.T.);
#953=ORIENTED_EDGE('',*,*,#717,.T.);
#954=ORIENTED_EDGE('',*,*,#718,.T.);
#955=ORIENTED_EDGE('',*,*,#719,.T.);
#956=ORIENTED_EDGE('',*,*,#715,.T.);
#957=ORIENTED_EDGE('',*,*,#720,.F.);
#958=ORIENTED_EDGE('',*,*,#721,.F.);
#959=ORIENTED_EDGE('',*,*,#722,.F.);
#960=ORIENTED_EDGE('',*,*,#723,.F.);
#961=ORIENTED_EDGE('',*,*,#724,.F.);
#962=ORIENTED_EDGE('',*,*,#725,.T.);
#963=ORIENTED_EDGE('',*,*,#726,.F.);
#964=ORIENTED_EDGE('',*,*,#727,.F.);
#965=ORIENTED_EDGE('',*,*,#716,.F.);
#966=ORIENTED_EDGE('',*,*,#728,.T.);
#967=ORIENTED_EDGE('',*,*,#729,.F.);
#968=ORIENTED_EDGE('',*,*,#730,.F.);
#969=ORIENTED_EDGE('',*,*,#725,.F.);
#970=ORIENTED_EDGE('',*,*,#731,.F.);
#971=ORIENTED_EDGE('',*,*,#732,.T.);
#972=ORIENTED_EDGE('',*,*,#733,.F.);
#973=ORIENTED_EDGE('',*,*,#732,.F.);
#974=ORIENTED_EDGE('',*,*,#734,.F.);
#975=ORIENTED_EDGE('',*,*,#735,.F.);
#976=ORIENTED_EDGE('',*,*,#736,.F.);
#977=ORIENTED_EDGE('',*,*,#737,.T.);
#978=ORIENTED_EDGE('',*,*,#738,.F.);
#979=ORIENTED_EDGE('',*,*,#737,.F.);
#980=ORIENTED_EDGE('',*,*,#739,.F.);
#981=ORIENTED_EDGE('',*,*,#721,.T.);
#982=ORIENTED_EDGE('',*,*,#740,.T.);
#983=ORIENTED_EDGE('',*,*,#741,.F.);
#984=ORIENTED_EDGE('',*,*,#717,.F.);
#985=ORIENTED_EDGE('',*,*,#727,.T.);
#986=ORIENTED_EDGE('',*,*,#634,.T.);
#987=ORIENTED_EDGE('',*,*,#742,.F.);
#988=ORIENTED_EDGE('',*,*,#728,.F.);
#989=ORIENTED_EDGE('',*,*,#719,.F.);
#990=ORIENTED_EDGE('',*,*,#743,.T.);
#991=ORIENTED_EDGE('',*,*,#629,.T.);
#992=ORIENTED_EDGE('',*,*,#744,.F.);
#993=ORIENTED_EDGE('',*,*,#745,.F.);
#994=ORIENTED_EDGE('',*,*,#743,.F.);
#995=ORIENTED_EDGE('',*,*,#718,.F.);
#996=ORIENTED_EDGE('',*,*,#741,.T.);
#997=ORIENTED_EDGE('',*,*,#726,.T.);
#998=ORIENTED_EDGE('',*,*,#746,.F.);
#999=ORIENTED_EDGE('',*,*,#696,.T.);
#1000=ORIENTED_EDGE('',*,*,#747,.T.);
#1001=ORIENTED_EDGE('',*,*,#744,.T.);
#1002=ORIENTED_EDGE('',*,*,#748,.T.);
#1003=ORIENTED_EDGE('',*,*,#749,.F.);
#1004=ORIENTED_EDGE('',*,*,#750,.F.);
#1005=ORIENTED_EDGE('',*,*,#735,.T.);
#1006=ORIENTED_EDGE('',*,*,#751,.T.);
#1007=ORIENTED_EDGE('',*,*,#752,.F.);
#1008=ORIENTED_EDGE('',*,*,#753,.F.);
#1009=ORIENTED_EDGE('',*,*,#723,.T.);
#1010=ORIENTED_EDGE('',*,*,#754,.F.);
#1011=ORIENTED_EDGE('',*,*,#700,.T.);
#1012=ORIENTED_EDGE('',*,*,#755,.T.);
#1013=ORIENTED_EDGE('',*,*,#736,.T.);
#1014=ORIENTED_EDGE('',*,*,#753,.T.);
#1015=ORIENTED_EDGE('',*,*,#756,.F.);
#1016=ORIENTED_EDGE('',*,*,#757,.F.);
#1017=ORIENTED_EDGE('',*,*,#722,.T.);
#1018=ORIENTED_EDGE('',*,*,#758,.F.);
#1019=ORIENTED_EDGE('',*,*,#701,.T.);
#1020=ORIENTED_EDGE('',*,*,#754,.T.);
#1021=ORIENTED_EDGE('',*,*,#759,.F.);
#1022=ORIENTED_EDGE('',*,*,#760,.F.);
#1023=ORIENTED_EDGE('',*,*,#712,.F.);
#1024=ORIENTED_EDGE('',*,*,#761,.F.);
#1025=ORIENTED_EDGE('',*,*,#762,.F.);
#1026=ORIENTED_EDGE('',*,*,#692,.F.);
#1027=ORIENTED_EDGE('',*,*,#713,.F.);
#1028=ORIENTED_EDGE('',*,*,#760,.T.);
#1029=ORIENTED_EDGE('',*,*,#724,.T.);
#1030=ORIENTED_EDGE('',*,*,#755,.F.);
#1031=ORIENTED_EDGE('',*,*,#699,.F.);
#1032=ORIENTED_EDGE('',*,*,#763,.T.);
#1033=ORIENTED_EDGE('',*,*,#764,.F.);
#1034=ORIENTED_EDGE('',*,*,#751,.F.);
#1035=ORIENTED_EDGE('',*,*,#734,.T.);
#1036=ORIENTED_EDGE('',*,*,#731,.T.);
#1037=ORIENTED_EDGE('',*,*,#765,.F.);
#1038=ORIENTED_EDGE('',*,*,#763,.F.);
#1039=ORIENTED_EDGE('',*,*,#698,.T.);
#1040=ORIENTED_EDGE('',*,*,#766,.T.);
#1041=ORIENTED_EDGE('',*,*,#745,.T.);
#1042=ORIENTED_EDGE('',*,*,#750,.T.);
#1043=ORIENTED_EDGE('',*,*,#767,.F.);
#1044=ORIENTED_EDGE('',*,*,#766,.F.);
#1045=ORIENTED_EDGE('',*,*,#697,.T.);
#1046=ORIENTED_EDGE('',*,*,#746,.T.);
#1047=ORIENTED_EDGE('',*,*,#729,.T.);
#1048=ORIENTED_EDGE('',*,*,#742,.T.);
#1049=ORIENTED_EDGE('',*,*,#768,.F.);
#1050=ORIENTED_EDGE('',*,*,#748,.F.);
#1051=ORIENTED_EDGE('',*,*,#740,.F.);
#1052=ORIENTED_EDGE('',*,*,#747,.F.);
#1053=ORIENTED_EDGE('',*,*,#695,.F.);
#1054=ORIENTED_EDGE('',*,*,#769,.T.);
#1055=ORIENTED_EDGE('',*,*,#770,.F.);
#1056=ORIENTED_EDGE('',*,*,#771,.F.);
#1057=ORIENTED_EDGE('',*,*,#702,.T.);
#1058=ORIENTED_EDGE('',*,*,#758,.T.);
#1059=ORIENTED_EDGE('',*,*,#739,.T.);
#1060=ORIENTED_EDGE('',*,*,#757,.T.);
#1061=ORIENTED_EDGE('',*,*,#655,.F.);
#1062=ORIENTED_EDGE('',*,*,#693,.T.);
#1063=ORIENTED_EDGE('',*,*,#762,.T.);
#1064=ORIENTED_EDGE('',*,*,#759,.T.);
#1065=ORIENTED_EDGE('',*,*,#772,.F.);
#1066=ORIENTED_EDGE('',*,*,#773,.F.);
#1067=ORIENTED_EDGE('',*,*,#774,.F.);
#1068=ORIENTED_EDGE('',*,*,#775,.F.);
#1069=ORIENTED_EDGE('',*,*,#776,.T.);
#1070=ORIENTED_EDGE('',*,*,#770,.T.);
#1071=ORIENTED_EDGE('',*,*,#756,.T.);
#1072=ORIENTED_EDGE('',*,*,#752,.T.);
#1073=ORIENTED_EDGE('',*,*,#764,.T.);
#1074=ORIENTED_EDGE('',*,*,#765,.T.);
#1075=ORIENTED_EDGE('',*,*,#767,.T.);
#1076=ORIENTED_EDGE('',*,*,#749,.T.);
#1077=ORIENTED_EDGE('',*,*,#768,.T.);
#1078=ORIENTED_EDGE('',*,*,#777,.T.);
#1079=ORIENTED_EDGE('',*,*,#662,.T.);
#1080=ORIENTED_EDGE('',*,*,#672,.T.);
#1081=ORIENTED_EDGE('',*,*,#669,.T.);
#1082=ORIENTED_EDGE('',*,*,#666,.T.);
#1083=ORIENTED_EDGE('',*,*,#689,.F.);
#1084=ORIENTED_EDGE('',*,*,#777,.F.);
#1085=ORIENTED_EDGE('',*,*,#769,.F.);
#1086=ORIENTED_EDGE('',*,*,#694,.T.);
#1087=ORIENTED_EDGE('',*,*,#632,.T.);
#1088=ORIENTED_EDGE('',*,*,#773,.T.);
#1089=ORIENTED_EDGE('',*,*,#778,.T.);
#1090=ORIENTED_EDGE('',*,*,#710,.T.);
#1091=ORIENTED_EDGE('',*,*,#779,.T.);
#1092=ORIENTED_EDGE('',*,*,#761,.T.);
#1093=ORIENTED_EDGE('',*,*,#711,.F.);
#1094=ORIENTED_EDGE('',*,*,#778,.F.);
#1095=ORIENTED_EDGE('',*,*,#772,.T.);
#1096=ORIENTED_EDGE('',*,*,#775,.T.);
#1097=ORIENTED_EDGE('',*,*,#780,.T.);
#1098=ORIENTED_EDGE('',*,*,#704,.T.);
#1099=ORIENTED_EDGE('',*,*,#781,.T.);
#1100=ORIENTED_EDGE('',*,*,#779,.F.);
#1101=ORIENTED_EDGE('',*,*,#709,.T.);
#1102=ORIENTED_EDGE('',*,*,#782,.F.);
#1103=ORIENTED_EDGE('',*,*,#783,.T.);
#1104=ORIENTED_EDGE('',*,*,#784,.F.);
#1105=ORIENTED_EDGE('',*,*,#785,.T.);
#1106=ORIENTED_EDGE('',*,*,#786,.F.);
#1107=ORIENTED_EDGE('',*,*,#787,.T.);
#1108=ORIENTED_EDGE('',*,*,#788,.F.);
#1109=ORIENTED_EDGE('',*,*,#705,.T.);
#1110=ORIENTED_EDGE('',*,*,#780,.F.);
#1111=ORIENTED_EDGE('',*,*,#774,.T.);
#1112=ORIENTED_EDGE('',*,*,#623,.T.);
#1113=ORIENTED_EDGE('',*,*,#626,.T.);
#1114=ORIENTED_EDGE('',*,*,#788,.T.);
#1115=ORIENTED_EDGE('',*,*,#789,.T.);
#1116=ORIENTED_EDGE('',*,*,#790,.T.);
#1117=ORIENTED_EDGE('',*,*,#706,.T.);
#1118=ORIENTED_EDGE('',*,*,#790,.F.);
#1119=ORIENTED_EDGE('',*,*,#791,.F.);
#1120=ORIENTED_EDGE('',*,*,#792,.F.);
#1121=ORIENTED_EDGE('',*,*,#793,.F.);
#1122=ORIENTED_EDGE('',*,*,#794,.F.);
#1123=ORIENTED_EDGE('',*,*,#795,.F.);
#1124=ORIENTED_EDGE('',*,*,#796,.F.);
#1125=ORIENTED_EDGE('',*,*,#707,.F.);
#1126=ORIENTED_EDGE('',*,*,#625,.T.);
#1127=ORIENTED_EDGE('',*,*,#628,.T.);
#1128=ORIENTED_EDGE('',*,*,#720,.T.);
#1129=ORIENTED_EDGE('',*,*,#730,.T.);
#1130=ORIENTED_EDGE('',*,*,#733,.T.);
#1131=ORIENTED_EDGE('',*,*,#738,.T.);
#1132=ORIENTED_EDGE('',*,*,#786,.T.);
#1133=ORIENTED_EDGE('',*,*,#797,.T.);
#1134=ORIENTED_EDGE('',*,*,#792,.T.);
#1135=ORIENTED_EDGE('',*,*,#798,.T.);
#1136=ORIENTED_EDGE('',*,*,#797,.F.);
#1137=ORIENTED_EDGE('',*,*,#785,.F.);
#1138=ORIENTED_EDGE('',*,*,#799,.F.);
#1139=ORIENTED_EDGE('',*,*,#793,.T.);
#1140=ORIENTED_EDGE('',*,*,#784,.T.);
#1141=ORIENTED_EDGE('',*,*,#800,.T.);
#1142=ORIENTED_EDGE('',*,*,#794,.T.);
#1143=ORIENTED_EDGE('',*,*,#799,.T.);
#1144=ORIENTED_EDGE('',*,*,#782,.T.);
#1145=ORIENTED_EDGE('',*,*,#708,.T.);
#1146=ORIENTED_EDGE('',*,*,#796,.T.);
#1147=ORIENTED_EDGE('',*,*,#801,.T.);
#1148=ORIENTED_EDGE('',*,*,#771,.T.);
#1149=ORIENTED_EDGE('',*,*,#776,.F.);
#1150=ORIENTED_EDGE('',*,*,#781,.F.);
#1151=ORIENTED_EDGE('',*,*,#703,.T.);
#1152=ORIENTED_EDGE('',*,*,#800,.F.);
#1153=ORIENTED_EDGE('',*,*,#783,.F.);
#1154=ORIENTED_EDGE('',*,*,#801,.F.);
#1155=ORIENTED_EDGE('',*,*,#795,.T.);
#1156=ORIENTED_EDGE('',*,*,#789,.F.);
#1157=ORIENTED_EDGE('',*,*,#787,.F.);
#1158=ORIENTED_EDGE('',*,*,#798,.F.);
#1159=ORIENTED_EDGE('',*,*,#791,.T.);
#1160=CYLINDRICAL_SURFACE('',#1268,7.5);
#1161=CYLINDRICAL_SURFACE('',#1271,7.5);
#1162=CYLINDRICAL_SURFACE('',#1274,3.00000000000001);
#1163=CYLINDRICAL_SURFACE('',#1277,3.00000000000001);
#1164=CYLINDRICAL_SURFACE('',#1283,12.);
#1165=CYLINDRICAL_SURFACE('',#1297,6.);
#1166=CYLINDRICAL_SURFACE('',#1303,9.);
#1167=CYLINDRICAL_SURFACE('',#1307,9.);
#1168=CYLINDRICAL_SURFACE('',#1312,9.);
#1169=CYLINDRICAL_SURFACE('',#1316,9.00000000000001);
#1170=CYLINDRICAL_SURFACE('',#1320,6.);
#1171=CYLINDRICAL_SURFACE('',#1323,6.);
#1172=CYLINDRICAL_SURFACE('',#1324,6.);
#1173=CYLINDRICAL_SURFACE('',#1335,7.0175);
#1174=CYLINDRICAL_SURFACE('',#1352,9.00000000000002);
#1175=CYLINDRICAL_SURFACE('',#1354,9.00000000000002);
#1176=CYLINDRICAL_SURFACE('',#1357,51.);
#1177=CYLINDRICAL_SURFACE('',#1359,8.99999999999999);
#1178=CYLINDRICAL_SURFACE('',#1362,15.0000000000001);
#1179=CYLINDRICAL_SURFACE('',#1364,27.);
#1180=CYLINDRICAL_SURFACE('',#1366,9.00000249445428);
#1181=CYLINDRICAL_SURFACE('',#1373,4.);
#1182=CYLINDRICAL_SURFACE('',#1375,9.);
#1183=CYLINDRICAL_SURFACE('',#1381,9.);
#1184=CYLINDRICAL_SURFACE('',#1387,9.);
#1185=CYLINDRICAL_SURFACE('',#1389,9.);
#1186=CYLINDRICAL_SURFACE('',#1390,9.);
#1187=ADVANCED_FACE('',(#76),#1160,.F.);
#1188=ADVANCED_FACE('',(#77),#1161,.F.);
#1189=ADVANCED_FACE('',(#78),#1162,.F.);
#1190=ADVANCED_FACE('',(#79),#1163,.F.);
#1191=ADVANCED_FACE('',(#80),#75,.T.);
#1192=ADVANCED_FACE('',(#81),#1164,.T.);
#1193=ADVANCED_FACE('',(#82,#23),#36,.T.);
#1194=ADVANCED_FACE('',(#83),#21,.F.);
#1195=ADVANCED_FACE('',(#84),#19,.T.);
#1196=ADVANCED_FACE('',(#85),#22,.F.);
#1197=ADVANCED_FACE('',(#86),#20,.T.);
#1198=ADVANCED_FACE('',(#87),#1165,.T.);
#1199=ADVANCED_FACE('',(#88),#37,.T.);
#1200=ADVANCED_FACE('',(#89),#38,.T.);
#1201=ADVANCED_FACE('',(#90),#39,.F.);
#1202=ADVANCED_FACE('',(#91),#1166,.F.);
#1203=ADVANCED_FACE('',(#92),#40,.F.);
#1204=ADVANCED_FACE('',(#93),#1167,.F.);
#1205=ADVANCED_FACE('',(#94),#41,.T.);
#1206=ADVANCED_FACE('',(#95),#42,.F.);
#1207=ADVANCED_FACE('',(#96),#1168,.F.);
#1208=ADVANCED_FACE('',(#97),#43,.F.);
#1209=ADVANCED_FACE('',(#98),#1169,.F.);
#1210=ADVANCED_FACE('',(#99),#44,.T.);
#1211=ADVANCED_FACE('',(#100),#1170,.T.);
#1212=ADVANCED_FACE('',(#101),#1171,.T.);
#1213=ADVANCED_FACE('',(#102),#1172,.T.);
#1214=ADVANCED_FACE('',(#103,#24),#45,.F.);
#1215=ADVANCED_FACE('',(#104,#25),#46,.T.);
#1216=ADVANCED_FACE('',(#105),#1173,.F.);
#1217=ADVANCED_FACE('',(#106,#26),#47,.F.);
#1218=ADVANCED_FACE('',(#107),#48,.F.);
#1219=ADVANCED_FACE('',(#108),#49,.F.);
#1220=ADVANCED_FACE('',(#109),#50,.F.);
#1221=ADVANCED_FACE('',(#110),#51,.F.);
#1222=ADVANCED_FACE('',(#111),#52,.F.);
#1223=ADVANCED_FACE('',(#112,#27),#53,.F.);
#1224=ADVANCED_FACE('',(#113,#28),#54,.F.);
#1225=ADVANCED_FACE('',(#114),#55,.F.);
#1226=ADVANCED_FACE('',(#115),#56,.F.);
#1227=ADVANCED_FACE('',(#116),#57,.F.);
#1228=ADVANCED_FACE('',(#117),#1174,.F.);
#1229=ADVANCED_FACE('',(#118),#1175,.F.);
#1230=ADVANCED_FACE('',(#119),#58,.F.);
#1231=ADVANCED_FACE('',(#120),#59,.F.);
#1232=ADVANCED_FACE('',(#121),#1176,.T.);
#1233=ADVANCED_FACE('',(#122),#1177,.F.);
#1234=ADVANCED_FACE('',(#123),#60,.F.);
#1235=ADVANCED_FACE('',(#124),#1178,.F.);
#1236=ADVANCED_FACE('',(#125),#1179,.F.);
#1237=ADVANCED_FACE('',(#126),#1180,.T.);
#1238=ADVANCED_FACE('',(#127),#61,.F.);
#1239=ADVANCED_FACE('',(#128,#29),#62,.T.);
#1240=ADVANCED_FACE('',(#129,#30),#63,.T.);
#1241=ADVANCED_FACE('',(#130),#1181,.F.);
#1242=ADVANCED_FACE('',(#131),#64,.T.);
#1243=ADVANCED_FACE('',(#132),#1182,.F.);
#1244=ADVANCED_FACE('',(#133,#31,#32),#65,.T.);
#1245=ADVANCED_FACE('',(#134),#1183,.T.);
#1246=ADVANCED_FACE('',(#135,#33,#34,#35),#66,.F.);
#1247=ADVANCED_FACE('',(#136),#1184,.T.);
#1248=ADVANCED_FACE('',(#137),#67,.T.);
#1249=ADVANCED_FACE('',(#138),#1185,.T.);
#1250=ADVANCED_FACE('',(#139),#1186,.T.);
#1251=ADVANCED_FACE('',(#140),#68,.T.);
#1252=ADVANCED_FACE('',(#141),#69,.T.);
#1253=ADVANCED_FACE('',(#142),#70,.T.);
#1254=CLOSED_SHELL('',(#1187,#1188,#1189,#1190,#1191,#1192,#1193,#1194,
#1195,#1196,#1197,#1198,#1199,#1200,#1201,#1202,#1203,#1204,#1205,#1206,
#1207,#1208,#1209,#1210,#1211,#1212,#1213,#1214,#1215,#1216,#1217,#1218,
#1219,#1220,#1221,#1222,#1223,#1224,#1225,#1226,#1227,#1228,#1229,#1230,
#1231,#1232,#1233,#1234,#1235,#1236,#1237,#1238,#1239,#1240,#1241,#1242,
#1243,#1244,#1245,#1246,#1247,#1248,#1249,#1250,#1251,#1252,#1253));
#1255=DERIVED_UNIT_ELEMENT(#1257,1.);
#1256=DERIVED_UNIT_ELEMENT(#2193,-3.);
#1257=(
MASS_UNIT()
NAMED_UNIT(*)
SI_UNIT(.KILO.,.GRAM.)
);
#1258=DERIVED_UNIT((#1255,#1256));
#1259=MEASURE_REPRESENTATION_ITEM('density measure',
POSITIVE_RATIO_MEASURE(7850.),#1258);
#1260=PROPERTY_DEFINITION_REPRESENTATION(#1265,#1262);
#1261=PROPERTY_DEFINITION_REPRESENTATION(#1266,#1263);
#1262=REPRESENTATION('material name',(#1264),#2190);
#1263=REPRESENTATION('density',(#1259),#2190);
#1264=DESCRIPTIVE_REPRESENTATION_ITEM('Steel','Steel');
#1265=PROPERTY_DEFINITION('material property','material name',#2200);
#1266=PROPERTY_DEFINITION('material property','density of part',#2200);
#1267=AXIS2_PLACEMENT_3D('',#1762,#1394,#1395);
#1268=AXIS2_PLACEMENT_3D('',#1763,#1396,#1397);
#1269=AXIS2_PLACEMENT_3D('',#1765,#1398,#1399);
#1270=AXIS2_PLACEMENT_3D('',#1768,#1401,#1402);
#1271=AXIS2_PLACEMENT_3D('',#1769,#1403,#1404);
#1272=AXIS2_PLACEMENT_3D('',#1771,#1405,#1406);
#1273=AXIS2_PLACEMENT_3D('',#1774,#1408,#1409);
#1274=AXIS2_PLACEMENT_3D('',#1775,#1410,#1411);
#1275=AXIS2_PLACEMENT_3D('',#1777,#1412,#1413);
#1276=AXIS2_PLACEMENT_3D('',#1780,#1415,#1416);
#1277=AXIS2_PLACEMENT_3D('',#1781,#1417,#1418);
#1278=AXIS2_PLACEMENT_3D('',#1783,#1419,#1420);
#1279=AXIS2_PLACEMENT_3D('',#1786,#1422,#1423);
#1280=AXIS2_PLACEMENT_3D('',#1787,#1424,#1425);
#1281=AXIS2_PLACEMENT_3D('',#1789,#1426,#1427);
#1282=AXIS2_PLACEMENT_3D('',#1792,#1429,#1430);
#1283=AXIS2_PLACEMENT_3D('',#1793,#1431,#1432);
#1284=AXIS2_PLACEMENT_3D('',#1797,#1434,#1435);
#1285=AXIS2_PLACEMENT_3D('',#1805,#1436,#1437);
#1286=AXIS2_PLACEMENT_3D('',#1812,#1438,#1439);
#1287=AXIS2_PLACEMENT_3D('',#1813,#1440,#1441);
#1288=AXIS2_PLACEMENT_3D('',#1815,#1442,#1443);
#1289=AXIS2_PLACEMENT_3D('',#1816,#1444,#1445);
#1290=AXIS2_PLACEMENT_3D('',#1818,#1446,#1447);
#1291=AXIS2_PLACEMENT_3D('',#1820,#1448,#1449);
#1292=AXIS2_PLACEMENT_3D('',#1821,#1450,#1451);
#1293=AXIS2_PLACEMENT_3D('',#1848,#1452,#1453);
#1294=AXIS2_PLACEMENT_3D('',#1854,#1454,#1455);
#1295=AXIS2_PLACEMENT_3D('',#1856,#1456,#1457);
#1296=AXIS2_PLACEMENT_3D('',#1857,#1458,#1459);
#1297=AXIS2_PLACEMENT_3D('',#1888,#1460,#1461);
#1298=AXIS2_PLACEMENT_3D('',#1892,#1463,#1464);
#1299=AXIS2_PLACEMENT_3D('',#1896,#1466,#1467);
#1300=AXIS2_PLACEMENT_3D('',#1898,#1469,#1470);
#1301=AXIS2_PLACEMENT_3D('',#1902,#1473,#1474);
#1302=AXIS2_PLACEMENT_3D('',#1906,#1477,#1478);
#1303=AXIS2_PLACEMENT_3D('',#1915,#1483,#1484);
#1304=AXIS2_PLACEMENT_3D('',#1917,#1485,#1486);
#1305=AXIS2_PLACEMENT_3D('',#1920,#1488,#1489);
#1306=AXIS2_PLACEMENT_3D('',#1921,#1490,#1491);
#1307=AXIS2_PLACEMENT_3D('',#1927,#1495,#1496);
#1308=AXIS2_PLACEMENT_3D('',#1928,#1497,#1498);
#1309=AXIS2_PLACEMENT_3D('',#1929,#1499,#1500);
#1310=AXIS2_PLACEMENT_3D('',#1930,#1501,#1502);
#1311=AXIS2_PLACEMENT_3D('',#1931,#1503,#1504);
#1312=AXIS2_PLACEMENT_3D('',#1940,#1509,#1510);
#1313=AXIS2_PLACEMENT_3D('',#1942,#1511,#1512);
#1314=AXIS2_PLACEMENT_3D('',#1945,#1514,#1515);
#1315=AXIS2_PLACEMENT_3D('',#1946,#1516,#1517);
#1316=AXIS2_PLACEMENT_3D('',#1952,#1521,#1522);
#1317=AXIS2_PLACEMENT_3D('',#1953,#1523,#1524);
#1318=AXIS2_PLACEMENT_3D('',#1954,#1525,#1526);
#1319=AXIS2_PLACEMENT_3D('',#1955,#1527,#1528);
#1320=AXIS2_PLACEMENT_3D('',#1956,#1529,#1530);
#1321=AXIS2_PLACEMENT_3D('',#1958,#1531,#1532);
#1322=AXIS2_PLACEMENT_3D('',#1961,#1534,#1535);
#1323=AXIS2_PLACEMENT_3D('',#1962,#1536,#1537);
#1324=AXIS2_PLACEMENT_3D('',#1964,#1539,#1540);
#1325=AXIS2_PLACEMENT_3D('',#1966,#1542,#1543);
#1326=AXIS2_PLACEMENT_3D('',#1972,#1547,#1548);
#1327=AXIS2_PLACEMENT_3D('',#1976,#1550,#1551);
#1328=AXIS2_PLACEMENT_3D('',#1980,#1553,#1554);
#1329=AXIS2_PLACEMENT_3D('',#1982,#1555,#1556);
#1330=AXIS2_PLACEMENT_3D('',#1986,#1558,#1559);
#1331=AXIS2_PLACEMENT_3D('',#1994,#1563,#1564);
#1332=AXIS2_PLACEMENT_3D('',#2006,#1570,#1571);
#1333=AXIS2_PLACEMENT_3D('',#2010,#1573,#1574);
#1334=AXIS2_PLACEMENT_3D('',#2011,#1575,#1576);
#1335=AXIS2_PLACEMENT_3D('',#2012,#1577,#1578);
#1336=AXIS2_PLACEMENT_3D('',#2015,#1580,#1581);
#1337=AXIS2_PLACEMENT_3D('',#2016,#1582,#1583);
#1338=AXIS2_PLACEMENT_3D('',#2025,#1588,#1589);
#1339=AXIS2_PLACEMENT_3D('',#2034,#1593,#1594);
#1340=AXIS2_PLACEMENT_3D('',#2038,#1597,#1598);
#1341=AXIS2_PLACEMENT_3D('',#2045,#1602,#1603);
#1342=AXIS2_PLACEMENT_3D('',#2046,#1604,#1605);
#1343=AXIS2_PLACEMENT_3D('',#2052,#1609,#1610);
#1344=AXIS2_PLACEMENT_3D('',#2058,#1613,#1614);
#1345=AXIS2_PLACEMENT_3D('',#2062,#1617,#1618);
#1346=AXIS2_PLACEMENT_3D('',#2065,#1621,#1622);
#1347=AXIS2_PLACEMENT_3D('',#2069,#1625,#1626);
#1348=AXIS2_PLACEMENT_3D('',#2073,#1629,#1630);
#1349=AXIS2_PLACEMENT_3D('',#2076,#1632,#1633);
#1350=AXIS2_PLACEMENT_3D('',#2077,#1634,#1635);
#1351=AXIS2_PLACEMENT_3D('',#2080,#1638,#1639);
#1352=AXIS2_PLACEMENT_3D('',#2086,#1643,#1644);
#1353=AXIS2_PLACEMENT_3D('',#2090,#1646,#1647);
#1354=AXIS2_PLACEMENT_3D('',#2092,#1649,#1650);
#1355=AXIS2_PLACEMENT_3D('',#2095,#1653,#1654);
#1356=AXIS2_PLACEMENT_3D('',#2099,#1657,#1658);
#1357=AXIS2_PLACEMENT_3D('',#2101,#1660,#1661);
#1358=AXIS2_PLACEMENT_3D('',#2104,#1662,#1663);
#1359=AXIS2_PLACEMENT_3D('',#2107,#1666,#1667);
#1360=AXIS2_PLACEMENT_3D('',#2108,#1668,#1669);
#1361=AXIS2_PLACEMENT_3D('',#2109,#1670,#1671);
#1362=AXIS2_PLACEMENT_3D('',#2113,#1674,#1675);
#1363=AXIS2_PLACEMENT_3D('',#2115,#1676,#1677);
#1364=AXIS2_PLACEMENT_3D('',#2117,#1679,#1680);
#1365=AXIS2_PLACEMENT_3D('',#2118,#1681,#1682);
#1366=AXIS2_PLACEMENT_3D('',#2119,#1683,#1684);
#1367=AXIS2_PLACEMENT_3D('',#2121,#1685,#1686);
#1368=AXIS2_PLACEMENT_3D('',#2123,#1688,#1689);
#1369=AXIS2_PLACEMENT_3D('',#2127,#1692,#1693);
#1370=AXIS2_PLACEMENT_3D('',#2131,#1695,#1696);
#1371=AXIS2_PLACEMENT_3D('',#2135,#1698,#1699);
#1372=AXIS2_PLACEMENT_3D('',#2138,#1702,#1703);
#1373=AXIS2_PLACEMENT_3D('',#2139,#1704,#1705);
#1374=AXIS2_PLACEMENT_3D('',#2142,#1708,#1709);
#1375=AXIS2_PLACEMENT_3D('',#2143,#1710,#1711);
#1376=AXIS2_PLACEMENT_3D('',#2146,#1714,#1715);
#1377=AXIS2_PLACEMENT_3D('',#2148,#1716,#1717);
#1378=AXIS2_PLACEMENT_3D('',#2152,#1719,#1720);
#1379=AXIS2_PLACEMENT_3D('',#2156,#1722,#1723);
#1380=AXIS2_PLACEMENT_3D('',#2159,#1725,#1726);
#1381=AXIS2_PLACEMENT_3D('',#2160,#1727,#1728);
#1382=AXIS2_PLACEMENT_3D('',#2163,#1730,#1731);
#1383=AXIS2_PLACEMENT_3D('',#2164,#1732,#1733);
#1384=AXIS2_PLACEMENT_3D('',#2168,#1735,#1736);
#1385=AXIS2_PLACEMENT_3D('',#2172,#1738,#1739);
#1386=AXIS2_PLACEMENT_3D('',#2175,#1741,#1742);
#1387=AXIS2_PLACEMENT_3D('',#2176,#1743,#1744);
#1388=AXIS2_PLACEMENT_3D('',#2179,#1747,#1748);
#1389=AXIS2_PLACEMENT_3D('',#2181,#1750,#1751);
#1390=AXIS2_PLACEMENT_3D('',#2183,#1753,#1754);
#1391=AXIS2_PLACEMENT_3D('',#2185,#1756,#1757);
#1392=AXIS2_PLACEMENT_3D('',#2186,#1758,#1759);
#1393=AXIS2_PLACEMENT_3D('',#2187,#1760,#1761);
#1394=DIRECTION('axis',(0.,0.,1.));
#1395=DIRECTION('refdir',(1.,0.,0.));
#1396=DIRECTION('center_axis',(0.,-1.,0.));
#1397=DIRECTION('ref_axis',(-1.,0.,0.));
#1398=DIRECTION('center_axis',(0.,-1.,0.));
#1399=DIRECTION('ref_axis',(-1.,0.,0.));
#1400=DIRECTION('',(0.,-1.,0.));
#1401=DIRECTION('center_axis',(0.,1.,0.));
#1402=DIRECTION('ref_axis',(-1.,0.,0.));
#1403=DIRECTION('center_axis',(0.,-1.,0.));
#1404=DIRECTION('ref_axis',(-1.,0.,0.));
#1405=DIRECTION('center_axis',(0.,-1.,0.));
#1406=DIRECTION('ref_axis',(-1.,0.,0.));
#1407=DIRECTION('',(0.,-1.,0.));
#1408=DIRECTION('center_axis',(0.,1.,0.));
#1409=DIRECTION('ref_axis',(-1.,0.,0.));
#1410=DIRECTION('center_axis',(1.,0.,1.1842378929335E-16));
#1411=DIRECTION('ref_axis',(-1.1842378929335E-16,0.,1.));
#1412=DIRECTION('center_axis',(1.,0.,0.));
#1413=DIRECTION('ref_axis',(-1.1842378929335E-16,0.,1.));
#1414=DIRECTION('',(1.,0.,1.1842378929335E-16));
#1415=DIRECTION('center_axis',(-1.,0.,0.));
#1416=DIRECTION('ref_axis',(-1.1842378929335E-16,0.,1.));
#1417=DIRECTION('center_axis',(1.,0.,1.1842378929335E-16));
#1418=DIRECTION('ref_axis',(-1.1842378929335E-16,0.,1.));
#1419=DIRECTION('center_axis',(1.,0.,1.05735526154777E-16));
#1420=DIRECTION('ref_axis',(-1.1842378929335E-16,0.,1.));
#1421=DIRECTION('',(1.,0.,1.1842378929335E-16));
#1422=DIRECTION('center_axis',(-1.,0.,0.));
#1423=DIRECTION('ref_axis',(-1.1842378929335E-16,0.,1.));
#1424=DIRECTION('center_axis',(0.,-1.,0.));
#1425=DIRECTION('ref_axis',(-1.,0.,0.));
#1426=DIRECTION('center_axis',(0.,-1.,0.));
#1427=DIRECTION('ref_axis',(-1.,0.,0.));
#1428=DIRECTION('',(0.707106781186546,-0.707106781186549,-8.65956056235492E-17));
#1429=DIRECTION('center_axis',(0.,1.,0.));
#1430=DIRECTION('ref_axis',(-1.,0.,0.));
#1431=DIRECTION('center_axis',(0.,1.,0.));
#1432=DIRECTION('ref_axis',(-1.,0.,0.));
#1433=DIRECTION('',(0.,-1.,0.));
#1434=DIRECTION('center_axis',(0.,-1.,0.));
#1435=DIRECTION('ref_axis',(-1.,0.,0.));
#1436=DIRECTION('center_axis',(0.,-1.,0.));
#1437=DIRECTION('ref_axis',(-1.,0.,0.));
#1438=DIRECTION('center_axis',(0.,-1.,0.));
#1439=DIRECTION('ref_axis',(-1.,0.,0.));
#1440=DIRECTION('center_axis',(0.,1.,0.));
#1441=DIRECTION('ref_axis',(-1.,0.,0.));
#1442=DIRECTION('center_axis',(0.,-1.,0.));
#1443=DIRECTION('ref_axis',(-1.,0.,0.));
#1444=DIRECTION('center_axis',(0.,-1.,0.));
#1445=DIRECTION('ref_axis',(0.,0.,-1.));
#1446=DIRECTION('center_axis',(-0.9375,0.,-0.347985272676877));
#1447=DIRECTION('ref_axis',(0.,-1.,0.));
#1448=DIRECTION('center_axis',(-0.9375,1.93170630978166E-16,0.347985272676876));
#1449=DIRECTION('ref_axis',(-0.347985272676876,0.,-0.9375));
#1450=DIRECTION('center_axis',(0.,1.,0.));
#1451=DIRECTION('ref_axis',(-1.,0.,0.));
#1452=DIRECTION('center_axis',(-0.937499999999999,-4.06675102685527E-15,
-0.347985272676878));
#1453=DIRECTION('ref_axis',(0.347985272676878,0.,-0.937499999999999));
#1454=DIRECTION('center_axis',(0.,-1.,0.));
#1455=DIRECTION('ref_axis',(0.,0.,-1.));
#1456=DIRECTION('center_axis',(0.937499999999999,0.,-0.347985272676879));
#1457=DIRECTION('ref_axis',(0.347985272676879,0.,0.937499999999999));
#1458=DIRECTION('center_axis',(0.,1.,0.));
#1459=DIRECTION('ref_axis',(-1.,0.,0.));
#1460=DIRECTION('center_axis',(-1.,0.,0.));
#1461=DIRECTION('ref_axis',(0.,0.707106781186546,-0.707106781186549));
#1462=DIRECTION('',(1.,0.,0.));
#1463=DIRECTION('center_axis',(-0.707106781186548,5.23364152894593E-16,
-0.707106781186547));
#1464=DIRECTION('ref_axis',(0.707106781186547,5.23364152894594E-16,-0.707106781186548));
#1465=DIRECTION('',(-1.,0.,0.));
#1466=DIRECTION('center_axis',(-0.707106781186548,0.,0.707106781186547));
#1467=DIRECTION('ref_axis',(-0.707106781186547,0.,-0.707106781186548));
#1468=DIRECTION('',(1.,0.,0.));
#1469=DIRECTION('center_axis',(0.,1.,0.));
#1470=DIRECTION('ref_axis',(0.,0.,1.));
#1471=DIRECTION('',(-1.,0.,0.));
#1472=DIRECTION('',(0.,0.,1.));
#1473=DIRECTION('center_axis',(0.,1.,0.));
#1474=DIRECTION('ref_axis',(0.,0.,1.));
#1475=DIRECTION('',(1.05735526154777E-16,0.,-1.));
#1476=DIRECTION('',(-1.,0.,0.));
#1477=DIRECTION('center_axis',(1.,-3.48460406212145E-9,0.));
#1478=DIRECTION('ref_axis',(3.48460406212145E-9,1.,0.));
#1479=DIRECTION('',(3.48460406212145E-9,1.,0.));
#1480=DIRECTION('',(0.,0.,1.));
#1481=DIRECTION('',(3.48460406212145E-9,1.,0.));
#1482=DIRECTION('',(0.,0.,1.));
#1483=DIRECTION('center_axis',(0.,0.,1.));
#1484=DIRECTION('ref_axis',(7.62063496069049E-5,-0.999999997096296,0.));
#1485=DIRECTION('center_axis',(0.,0.,1.));
#1486=DIRECTION('ref_axis',(0.999999988385185,0.000152412698778291,0.));
#1487=DIRECTION('',(0.,0.,1.));
#1488=DIRECTION('center_axis',(0.,0.,1.));
#1489=DIRECTION('ref_axis',(0.999999988385185,0.000152412698778291,0.));
#1490=DIRECTION('center_axis',(-1.,0.,0.));
#1491=DIRECTION('ref_axis',(0.,-1.,0.));
#1492=DIRECTION('',(0.,-1.,0.));
#1493=DIRECTION('',(0.,0.,1.));
#1494=DIRECTION('',(0.,-1.,0.));
#1495=DIRECTION('center_axis',(0.,0.,1.));
#1496=DIRECTION('ref_axis',(-1.,0.,0.));
#1497=DIRECTION('center_axis',(0.,0.,1.));
#1498=DIRECTION('ref_axis',(-1.,0.,0.));
#1499=DIRECTION('center_axis',(0.,0.,1.));
#1500=DIRECTION('ref_axis',(-1.,0.,0.));
#1501=DIRECTION('center_axis',(0.,0.,-1.));
#1502=DIRECTION('ref_axis',(-1.,0.,0.));
#1503=DIRECTION('center_axis',(1.,-3.48460406212168E-9,0.));
#1504=DIRECTION('ref_axis',(-3.48460406212168E-9,-1.,0.));
#1505=DIRECTION('',(-3.48460406212168E-9,-1.,0.));
#1506=DIRECTION('',(0.,0.,-1.));
#1507=DIRECTION('',(-3.48460406212168E-9,-1.,0.));
#1508=DIRECTION('',(0.,0.,-1.));
#1509=DIRECTION('center_axis',(0.,0.,-1.));
#1510=DIRECTION('ref_axis',(1.,0.,0.));
#1511=DIRECTION('center_axis',(0.,0.,-1.));
#1512=DIRECTION('ref_axis',(1.,0.,0.));
#1513=DIRECTION('',(0.,0.,-1.));
#1514=DIRECTION('center_axis',(0.,0.,-1.));
#1515=DIRECTION('ref_axis',(1.,0.,0.));
#1516=DIRECTION('center_axis',(-1.,0.,0.));
#1517=DIRECTION('ref_axis',(0.,1.,0.));
#1518=DIRECTION('',(0.,1.,0.));
#1519=DIRECTION('',(0.,0.,-1.));
#1520=DIRECTION('',(0.,1.,0.));
#1521=DIRECTION('center_axis',(0.,0.,-1.));
#1522=DIRECTION('ref_axis',(7.62063496075331E-5,-0.999999997096296,0.));
#1523=DIRECTION('center_axis',(0.,0.,-1.));
#1524=DIRECTION('ref_axis',(-1.,6.41462192005646E-15,0.));
#1525=DIRECTION('center_axis',(0.,0.,-1.));
#1526=DIRECTION('ref_axis',(-1.,6.41462192005646E-15,0.));
#1527=DIRECTION('center_axis',(0.,0.,1.));
#1528=DIRECTION('ref_axis',(1.,0.,0.));
#1529=DIRECTION('center_axis',(1.,0.,0.));
#1530=DIRECTION('ref_axis',(0.,0.707106781186546,0.707106781186549));
#1531=DIRECTION('center_axis',(0.707106781186548,0.,0.707106781186548));
#1532=DIRECTION('ref_axis',(-0.707106781186547,0.,0.707106781186547));
#1533=DIRECTION('',(1.,0.,0.));
#1534=DIRECTION('center_axis',(0.707106781186548,0.,-0.707106781186547));
#1535=DIRECTION('ref_axis',(0.707106781186547,0.,0.707106781186548));
#1536=DIRECTION('center_axis',(-1.05735526154777E-16,0.,1.));
#1537=DIRECTION('ref_axis',(-0.707106781186548,0.707106781186547,0.));
#1538=DIRECTION('',(-1.05735526154777E-16,0.,1.));
#1539=DIRECTION('center_axis',(0.,0.,-1.));
#1540=DIRECTION('ref_axis',(0.707106781186548,0.707106781186548,0.));
#1541=DIRECTION('',(0.,0.,-1.));
#1542=DIRECTION('center_axis',(-1.,0.,0.));
#1543=DIRECTION('ref_axis',(0.,1.,0.));
#1544=DIRECTION('',(0.,1.,0.));
#1545=DIRECTION('',(0.,0.,-1.));
#1546=DIRECTION('',(0.,-1.,0.));
#1547=DIRECTION('center_axis',(0.,0.,1.));
#1548=DIRECTION('ref_axis',(1.,0.,0.));
#1549=DIRECTION('',(0.,1.,0.));
#1550=DIRECTION('center_axis',(0.,0.,1.));
#1551=DIRECTION('ref_axis',(-0.99999972283845,0.000744528725761298,0.));
#1552=DIRECTION('',(-1.,0.,0.));
#1553=DIRECTION('center_axis',(0.,0.,1.));
#1554=DIRECTION('ref_axis',(1.,6.5790994051861E-16,0.));
#1555=DIRECTION('center_axis',(0.,0.,1.));
#1556=DIRECTION('ref_axis',(0.615975016677057,-0.787765687771243,0.));
#1557=DIRECTION('',(-0.787755920665839,-0.615987507548584,0.));
#1558=DIRECTION('center_axis',(0.,0.,1.));
#1559=DIRECTION('ref_axis',(-0.58088560163692,-0.81398520736615,0.));
#1560=DIRECTION('',(0.813985207366148,-0.580885601636922,0.));
#1561=DIRECTION('',(1.,0.,0.));
#1562=DIRECTION('',(0.,1.,0.));
#1563=DIRECTION('center_axis',(0.,0.,1.));
#1564=DIRECTION('ref_axis',(0.707106781186547,-0.707106781186548,0.));
#1565=DIRECTION('',(1.,0.,0.));
#1566=DIRECTION('',(0.,1.,0.));
#1567=DIRECTION('',(1.,0.,0.));
#1568=DIRECTION('',(0.,-1.,0.));
#1569=DIRECTION('',(1.,0.,0.));
#1570=DIRECTION('center_axis',(0.,0.,1.));
#1571=DIRECTION('ref_axis',(-0.707106781186549,-0.707106781186546,0.));
#1572=DIRECTION('',(0.,1.,0.));
#1573=DIRECTION('center_axis',(0.,0.,1.));
#1574=DIRECTION('ref_axis',(0.970588235294118,0.240745669760954,0.));
#1575=DIRECTION('center_axis',(0.,0.,-1.));
#1576=DIRECTION('ref_axis',(-1.,1.97372982155584E-15,0.));
#1577=DIRECTION('center_axis',(0.,-1.,0.));
#1578=DIRECTION('ref_axis',(-1.,0.,0.));
#1579=DIRECTION('',(0.,-1.,0.));
#1580=DIRECTION('center_axis',(0.,-1.,0.));
#1581=DIRECTION('ref_axis',(-1.,0.,0.));
#1582=DIRECTION('center_axis',(0.,1.,0.));
#1583=DIRECTION('ref_axis',(-1.,0.,0.));
#1584=DIRECTION('',(-1.,0.,0.));
#1585=DIRECTION('',(0.,0.,-1.));
#1586=DIRECTION('',(1.,0.,0.));
#1587=DIRECTION('',(0.,0.,1.));
#1588=DIRECTION('center_axis',(0.,0.,1.));
#1589=DIRECTION('ref_axis',(-1.,0.,0.));
#1590=DIRECTION('',(1.,0.,0.));
#1591=DIRECTION('',(0.,-1.,0.));
#1592=DIRECTION('',(-0.813985207366148,0.580885601636922,0.));
#1593=DIRECTION('center_axis',(0.,0.,-1.));
#1594=DIRECTION('ref_axis',(-0.58088560163692,-0.81398520736615,0.));
#1595=DIRECTION('',(-0.787755920665839,-0.615987507548584,0.));
#1596=DIRECTION('',(0.,-1.,0.));
#1597=DIRECTION('center_axis',(0.,0.,1.));
#1598=DIRECTION('ref_axis',(-1.,0.,0.));
#1599=DIRECTION('',(1.,0.,0.));
#1600=DIRECTION('',(0.,-1.,0.));
#1601=DIRECTION('',(0.,-1.,0.));
#1602=DIRECTION('center_axis',(0.,0.,-1.));
#1603=DIRECTION('ref_axis',(1.,6.5790994051861E-16,0.));
#1604=DIRECTION('center_axis',(1.,0.,0.));
#1605=DIRECTION('ref_axis',(0.,0.,1.));
#1606=DIRECTION('',(0.,0.,-1.));
#1607=DIRECTION('',(0.,0.,1.));
#1608=DIRECTION('',(0.,-1.,0.));
#1609=DIRECTION('center_axis',(0.,0.,-1.));
#1610=DIRECTION('ref_axis',(1.,0.,0.));
#1611=DIRECTION('',(-1.,0.,0.));
#1612=DIRECTION('',(0.787755920665839,0.615987507548584,0.));
#1613=DIRECTION('center_axis',(0.,0.,1.));
#1614=DIRECTION('ref_axis',(-0.58088560163692,-0.81398520736615,0.));
#1615=DIRECTION('',(0.813985207366148,-0.580885601636922,0.));
#1616=DIRECTION('',(0.,-1.,0.));
#1617=DIRECTION('center_axis',(-1.,0.,0.));
#1618=DIRECTION('ref_axis',(0.,0.,-1.));
#1619=DIRECTION('',(0.,0.,1.));
#1620=DIRECTION('',(0.,0.,-1.));
#1621=DIRECTION('center_axis',(-1.,0.,0.));
#1622=DIRECTION('ref_axis',(0.,0.,-1.));
#1623=DIRECTION('',(0.,0.,-1.));
#1624=DIRECTION('',(0.,-1.,0.));
#1625=DIRECTION('center_axis',(1.,0.,0.));
#1626=DIRECTION('ref_axis',(0.,0.,1.));
#1627=DIRECTION('',(0.,0.,-1.));
#1628=DIRECTION('',(0.,-1.,0.));
#1629=DIRECTION('center_axis',(0.,0.,-1.));
#1630=DIRECTION('ref_axis',(1.,0.,0.));
#1631=DIRECTION('',(-1.,0.,0.));
#1632=DIRECTION('center_axis',(0.,0.,1.));
#1633=DIRECTION('ref_axis',(1.,6.5790994051861E-16,0.));
#1634=DIRECTION('center_axis',(0.,1.,0.));
#1635=DIRECTION('ref_axis',(1.,0.,0.));
#1636=DIRECTION('',(0.,0.,-1.));
#1637=DIRECTION('',(0.,0.,-1.));
#1638=DIRECTION('center_axis',(0.,1.,0.));
#1639=DIRECTION('ref_axis',(1.,0.,0.));
#1640=DIRECTION('',(0.,0.,-1.));
#1641=DIRECTION('',(-1.,0.,0.));
#1642=DIRECTION('',(0.,0.,-1.));
#1643=DIRECTION('center_axis',(0.,0.,-1.));
#1644=DIRECTION('ref_axis',(-0.58088560163692,-0.81398520736615,0.));
#1645=DIRECTION('',(0.,0.,-1.));
#1646=DIRECTION('center_axis',(0.,0.,1.));
#1647=DIRECTION('ref_axis',(-0.58088560163692,-0.81398520736615,0.));
#1648=DIRECTION('',(0.,0.,-1.));
#1649=DIRECTION('center_axis',(0.,0.,-1.));
#1650=DIRECTION('ref_axis',(-0.58088560163692,-0.81398520736615,0.));
#1651=DIRECTION('',(0.,0.,-1.));
#1652=DIRECTION('',(0.,0.,-1.));
#1653=DIRECTION('center_axis',(-0.580885601636922,-0.813985207366148,0.));
#1654=DIRECTION('ref_axis',(-0.813985207366148,0.580885601636922,0.));
#1655=DIRECTION('',(0.813985207366148,-0.580885601636922,0.));
#1656=DIRECTION('',(0.,0.,-1.));
#1657=DIRECTION('center_axis',(-0.580885601636922,-0.813985207366148,0.));
#1658=DIRECTION('ref_axis',(-0.813985207366148,0.580885601636922,0.));
#1659=DIRECTION('',(0.,0.,-1.));
#1660=DIRECTION('center_axis',(0.,0.,-1.));
#1661=DIRECTION('ref_axis',(0.970588235294118,0.240745669760954,0.));
#1662=DIRECTION('center_axis',(0.,0.,-1.));
#1663=DIRECTION('ref_axis',(0.970588235294118,0.240745669760954,0.));
#1664=DIRECTION('',(0.,0.,-1.));
#1665=DIRECTION('',(0.,0.,1.));
#1666=DIRECTION('center_axis',(0.,0.,-1.));
#1667=DIRECTION('ref_axis',(-1.,1.97372982155584E-15,0.));
#1668=DIRECTION('center_axis',(0.,0.,1.));
#1669=DIRECTION('ref_axis',(-1.,1.97372982155584E-15,0.));
#1670=DIRECTION('center_axis',(0.615987507548584,-0.787755920665839,0.));
#1671=DIRECTION('ref_axis',(-0.787755920665839,-0.615987507548584,0.));
#1672=DIRECTION('',(0.,0.,-1.));
#1673=DIRECTION('',(0.787755920665839,0.615987507548584,0.));
#1674=DIRECTION('center_axis',(0.,0.,-1.));
#1675=DIRECTION('ref_axis',(0.615975016677057,-0.787765687771243,0.));
#1676=DIRECTION('center_axis',(0.,0.,1.));
#1677=DIRECTION('ref_axis',(0.615975016677057,-0.787765687771243,0.));
#1678=DIRECTION('',(0.,0.,-1.));
#1679=DIRECTION('center_axis',(0.,0.,-1.));
#1680=DIRECTION('ref_axis',(1.,6.5790994051861E-16,0.));
#1681=DIRECTION('center_axis',(0.,0.,1.));
#1682=DIRECTION('ref_axis',(1.,6.5790994051861E-16,0.));
#1683=DIRECTION('center_axis',(0.,0.,-1.));
#1684=DIRECTION('ref_axis',(-0.99999972283845,0.000744528725761298,0.));
#1685=DIRECTION('center_axis',(0.,0.,-1.));
#1686=DIRECTION('ref_axis',(-0.99999972283845,0.000744528725761298,0.));
#1687=DIRECTION('',(0.,0.,-1.));
#1688=DIRECTION('center_axis',(0.,-1.,0.));
#1689=DIRECTION('ref_axis',(-1.,0.,0.));
#1690=DIRECTION('',(1.,0.,0.));
#1691=DIRECTION('',(0.,0.,-1.));
#1692=DIRECTION('center_axis',(0.,0.,-1.));
#1693=DIRECTION('ref_axis',(-1.,0.,0.));
#1694=DIRECTION('',(0.,1.,0.));
#1695=DIRECTION('center_axis',(0.,0.,-1.));
#1696=DIRECTION('ref_axis',(-0.707106781186549,-0.707106781186546,0.));
#1697=DIRECTION('',(1.,0.,0.));
#1698=DIRECTION('center_axis',(0.,0.,-1.));
#1699=DIRECTION('ref_axis',(0.707106781186547,-0.707106781186548,0.));
#1700=DIRECTION('',(0.,1.,0.));
#1701=DIRECTION('',(0.,1.,0.));
#1702=DIRECTION('center_axis',(-1.,0.,-1.05735526154777E-16));
#1703=DIRECTION('ref_axis',(-1.05735526154777E-16,0.,1.));
#1704=DIRECTION('center_axis',(0.,0.,1.));
#1705=DIRECTION('ref_axis',(-0.707106781186549,-0.707106781186546,0.));
#1706=DIRECTION('',(0.,0.,1.));
#1707=DIRECTION('',(0.,0.,-1.));
#1708=DIRECTION('center_axis',(1.,0.,0.));
#1709=DIRECTION('ref_axis',(0.,0.,-1.));
#1710=DIRECTION('center_axis',(1.05735526154777E-16,0.,-1.));
#1711=DIRECTION('ref_axis',(0.707106781186547,-0.707106781186548,0.));
#1712=DIRECTION('',(-1.05735526154777E-16,0.,1.));
#1713=DIRECTION('',(1.05735526154777E-16,0.,-1.));
#1714=DIRECTION('center_axis',(0.,1.,0.));
#1715=DIRECTION('ref_axis',(0.,0.,1.));
#1716=DIRECTION('center_axis',(0.,-1.,0.));
#1717=DIRECTION('ref_axis',(0.707106781186548,0.,0.707106781186547));
#1718=DIRECTION('',(0.,0.,-1.));
#1719=DIRECTION('center_axis',(0.,-1.,0.));
#1720=DIRECTION('ref_axis',(0.707106781186547,0.,-0.707106781186548));
#1721=DIRECTION('',(-1.,0.,0.));
#1722=DIRECTION('center_axis',(0.,-1.,0.));
#1723=DIRECTION('ref_axis',(-0.707106781186548,0.,-0.707106781186548));
#1724=DIRECTION('',(0.,0.,1.));
#1725=DIRECTION('center_axis',(0.,-1.,0.));
#1726=DIRECTION('ref_axis',(-0.707106781186548,0.,0.707106781186547));
#1727=DIRECTION('center_axis',(0.,1.,0.));
#1728=DIRECTION('ref_axis',(-0.707106781186548,0.,0.707106781186547));
#1729=DIRECTION('',(0.,-1.,0.));
#1730=DIRECTION('center_axis',(0.,1.,0.));
#1731=DIRECTION('ref_axis',(-0.707106781186548,0.,0.707106781186547));
#1732=DIRECTION('center_axis',(0.,1.,0.));
#1733=DIRECTION('ref_axis',(1.,0.,0.));
#1734=DIRECTION('',(0.,0.,1.));
#1735=DIRECTION('center_axis',(0.,1.,0.));
#1736=DIRECTION('ref_axis',(-0.707106781186548,0.,-0.707106781186548));
#1737=DIRECTION('',(-1.,0.,0.));
#1738=DIRECTION('center_axis',(0.,1.,0.));
#1739=DIRECTION('ref_axis',(0.707106781186547,0.,-0.707106781186548));
#1740=DIRECTION('',(0.,0.,-1.));
#1741=DIRECTION('center_axis',(0.,1.,0.));
#1742=DIRECTION('ref_axis',(0.707106781186548,0.,0.707106781186547));
#1743=DIRECTION('center_axis',(0.,1.,0.));
#1744=DIRECTION('ref_axis',(-0.707106781186548,0.,-0.707106781186548));
#1745=DIRECTION('',(0.,-1.,0.));
#1746=DIRECTION('',(0.,1.,0.));
#1747=DIRECTION('center_axis',(0.,0.,-1.));
#1748=DIRECTION('ref_axis',(-1.,0.,0.));
#1749=DIRECTION('',(0.,1.,0.));
#1750=DIRECTION('center_axis',(0.,1.,0.));
#1751=DIRECTION('ref_axis',(0.707106781186547,0.,-0.707106781186548));
#1752=DIRECTION('',(0.,-1.,0.));
#1753=DIRECTION('center_axis',(0.,1.,0.));
#1754=DIRECTION('ref_axis',(0.707106781186548,0.,0.707106781186547));
#1755=DIRECTION('',(0.,1.,0.));
#1756=DIRECTION('center_axis',(-1.,0.,-1.05735526154777E-16));
#1757=DIRECTION('ref_axis',(-1.05735526154777E-16,0.,1.));
#1758=DIRECTION('center_axis',(1.,0.,0.));
#1759=DIRECTION('ref_axis',(0.,0.,-1.));
#1760=DIRECTION('center_axis',(-1.,0.,0.));
#1761=DIRECTION('ref_axis',(0.,0.,1.));
#1762=CARTESIAN_POINT('',(0.,0.,0.));
#1763=CARTESIAN_POINT('Origin',(153.,15.,-30.));
#1764=CARTESIAN_POINT('',(160.5,15.,-30.));
#1765=CARTESIAN_POINT('Origin',(153.,15.,-30.));
#1766=CARTESIAN_POINT('',(160.5,0.,-30.));
#1767=CARTESIAN_POINT('',(160.5,15.,-30.));
#1768=CARTESIAN_POINT('Origin',(153.,0.,-30.));
#1769=CARTESIAN_POINT('Origin',(15.,15.,-30.));
#1770=CARTESIAN_POINT('',(22.5,15.,-30.));
#1771=CARTESIAN_POINT('Origin',(15.,15.,-30.));
#1772=CARTESIAN_POINT('',(22.5,0.,-30.));
#1773=CARTESIAN_POINT('',(22.5,15.,-30.));
#1774=CARTESIAN_POINT('Origin',(15.,0.,-30.));
#1775=CARTESIAN_POINT('Origin',(37.5,137.,-21.));
#1776=CARTESIAN_POINT('',(88.5,137.,-24.));
#1777=CARTESIAN_POINT('Origin',(88.5,137.,-21.));
#1778=CARTESIAN_POINT('',(97.5,137.,-24.));
#1779=CARTESIAN_POINT('',(37.5,137.,-24.));
#1780=CARTESIAN_POINT('Origin',(97.5,137.,-21.));
#1781=CARTESIAN_POINT('Origin',(37.5,137.,-21.));
#1782=CARTESIAN_POINT('',(37.5,137.,-24.));
#1783=CARTESIAN_POINT('Origin',(37.5,137.,-21.));
#1784=CARTESIAN_POINT('',(46.5,137.,-24.));
#1785=CARTESIAN_POINT('',(37.5,137.,-24.));
#1786=CARTESIAN_POINT('Origin',(46.5,137.,-21.));
#1787=CARTESIAN_POINT('Origin',(67.5,178.5,-21.));
#1788=CARTESIAN_POINT('',(76.5,180.,-21.));
#1789=CARTESIAN_POINT('Origin',(67.5,180.,-21.));
#1790=CARTESIAN_POINT('',(79.5,177.,-21.));
#1791=CARTESIAN_POINT('',(78.,178.5,-21.));
#1792=CARTESIAN_POINT('Origin',(67.5,177.,-21.));
#1793=CARTESIAN_POINT('Origin',(67.5,162.,-21.));
#1794=CARTESIAN_POINT('',(79.5,166.,-21.));
#1795=CARTESIAN_POINT('',(79.5,162.,-21.));
#1796=CARTESIAN_POINT('',(71.6758232721226,166.,-32.25));
#1797=CARTESIAN_POINT('Origin',(67.5,166.,-21.));
#1798=CARTESIAN_POINT('',(63.3241767278775,166.,-32.25));
#1799=CARTESIAN_POINT('Ctrl Pts',(63.3241767278775,166.,-32.25));
#1800=CARTESIAN_POINT('Ctrl Pts',(64.8474488335879,166.,-32.8154146763378));
#1801=CARTESIAN_POINT('Ctrl Pts',(67.7157967394266,165.899211308587,-33.25534915528));
#1802=CARTESIAN_POINT('Ctrl Pts',(70.53336919284,166.,-32.6740610072533));
#1803=CARTESIAN_POINT('Ctrl Pts',(71.6758232721226,166.,-32.25));
#1804=CARTESIAN_POINT('',(63.3241767278775,166.,-9.75));
#1805=CARTESIAN_POINT('Origin',(67.5,166.,-21.));
#1806=CARTESIAN_POINT('',(71.6758232721225,166.,-9.75));
#1807=CARTESIAN_POINT('Ctrl Pts',(71.6758232721225,166.,-9.75000000000002));
#1808=CARTESIAN_POINT('Ctrl Pts',(70.5333691928399,166.,-9.32593899274672));
#1809=CARTESIAN_POINT('Ctrl Pts',(67.7158065818805,165.89910922078,-8.74463409927541));
#1810=CARTESIAN_POINT('Ctrl Pts',(64.847448833588,166.,-9.18458532366213));
#1811=CARTESIAN_POINT('Ctrl Pts',(63.3241767278775,166.,-9.74999999999999));
#1812=CARTESIAN_POINT('Origin',(67.5,166.,-21.));
#1813=CARTESIAN_POINT('Origin',(67.5,180.,-21.));
#1814=CARTESIAN_POINT('',(74.5175,180.,-21.));
#1815=CARTESIAN_POINT('Origin',(67.5,180.,-21.));
#1816=CARTESIAN_POINT('Origin',(67.5,166.,-21.));
#1817=CARTESIAN_POINT('',(73.06776436283,162.,-36.));
#1818=CARTESIAN_POINT('Origin',(73.06776436283,166.,-36.));
#1819=CARTESIAN_POINT('',(73.06776436283,162.,-6.));
#1820=CARTESIAN_POINT('Origin',(73.06776436283,166.,-6.));
#1821=CARTESIAN_POINT('Origin',(67.5,162.,-21.));
#1822=CARTESIAN_POINT('Ctrl Pts',(73.06776436283,162.,-6.));
#1823=CARTESIAN_POINT('Ctrl Pts',(71.5444922571199,162.,-5.66075119419736));
#1824=CARTESIAN_POINT('Ctrl Pts',(67.7877421091742,161.939465532468,-5.1957072794203));
#1825=CARTESIAN_POINT('Ctrl Pts',(63.9632651114503,162.,-5.54766825892981));
#1826=CARTESIAN_POINT('Ctrl Pts',(61.93223563717,162.,-6.));
#1827=CARTESIAN_POINT('Ctrl Pts',(72.6512965623732,162.,-7.12199737628207));
#1828=CARTESIAN_POINT('Ctrl Pts',(71.2567583802807,162.065215568054,-6.78725269653674));
#1829=CARTESIAN_POINT('Ctrl Pts',(67.771183292453,162.089242628018,-6.29785434258121));
#1830=CARTESIAN_POINT('Ctrl Pts',(64.208087680417,162.086954090738,-6.67567113662158));
#1831=CARTESIAN_POINT('Ctrl Pts',(62.3487034376268,162.,-7.12199737628206));
#1832=CARTESIAN_POINT('Ctrl Pts',(71.93033871894,163.004665184787,-9.06431514455799));
#1833=CARTESIAN_POINT('Ctrl Pts',(70.7554085419265,163.10580252885,-8.68325178233286));
#1834=CARTESIAN_POINT('Ctrl Pts',(67.741504474073,163.168789203584,-8.10442905742682));
#1835=CARTESIAN_POINT('Ctrl Pts',(64.6362348504117,163.139514976871,-8.55623066159102));
#1836=CARTESIAN_POINT('Ctrl Pts',(63.06966128106,163.004665184787,-9.06431514455796));
#1837=CARTESIAN_POINT('Ctrl Pts',(71.6758232721225,165.102402098974,-9.75000000000002));
#1838=CARTESIAN_POINT('Ctrl Pts',(70.5503200254499,165.132252189674,-9.33166768975672));
#1839=CARTESIAN_POINT('Ctrl Pts',(67.7215568672627,165.080798734321,-8.73741118089569));
#1840=CARTESIAN_POINT('Ctrl Pts',(64.8248477234413,165.142202219908,-9.19222358634213));
#1841=CARTESIAN_POINT('Ctrl Pts',(63.3241767278775,165.102402098974,-9.74999999999999));
#1842=CARTESIAN_POINT('Ctrl Pts',(71.6758232721225,166.,-9.75000000000002));
#1843=CARTESIAN_POINT('Ctrl Pts',(70.5333691928399,166.,-9.32593899274672));
#1844=CARTESIAN_POINT('Ctrl Pts',(67.7158065818805,165.89910922078,-8.74463409927541));
#1845=CARTESIAN_POINT('Ctrl Pts',(64.847448833588,166.,-9.18458532366213));
#1846=CARTESIAN_POINT('Ctrl Pts',(63.3241767278775,166.,-9.74999999999999));
#1847=CARTESIAN_POINT('',(61.93223563717,162.,-6.));
#1848=CARTESIAN_POINT('Origin',(61.93223563717,166.,-6.));
#1849=CARTESIAN_POINT('Ctrl Pts',(61.93223563717,162.,-6.));
#1850=CARTESIAN_POINT('Ctrl Pts',(63.9632651114503,162.,-5.54766825892981));
#1851=CARTESIAN_POINT('Ctrl Pts',(67.7877421091742,161.939465532468,-5.1957072794203));
#1852=CARTESIAN_POINT('Ctrl Pts',(71.5444922571199,162.,-5.66075119419736));
#1853=CARTESIAN_POINT('Ctrl Pts',(73.06776436283,162.,-6.));
#1854=CARTESIAN_POINT('Origin',(67.5,166.,-21.));
#1855=CARTESIAN_POINT('',(61.93223563717,162.,-36.));
#1856=CARTESIAN_POINT('Origin',(61.93223563717,166.,-36.));
#1857=CARTESIAN_POINT('Origin',(67.5,162.,-21.));
#1858=CARTESIAN_POINT('Ctrl Pts',(61.93223563717,162.,-36.));
#1859=CARTESIAN_POINT('Ctrl Pts',(63.9632651114502,162.,-36.4523317410702));
#1860=CARTESIAN_POINT('Ctrl Pts',(67.7877289859025,161.939526785152,-36.804279324224));
#1861=CARTESIAN_POINT('Ctrl Pts',(71.5444922571199,162.,-36.3392488058027));
#1862=CARTESIAN_POINT('Ctrl Pts',(73.06776436283,162.,-36.));
#1863=CARTESIAN_POINT('Ctrl Pts',(62.3487034376268,162.,-34.8780026237179));
#1864=CARTESIAN_POINT('Ctrl Pts',(64.208087680417,162.086954090738,-35.3243288633784));
#1865=CARTESIAN_POINT('Ctrl Pts',(67.77117978046,162.089439843887,-35.7021055005564));
#1866=CARTESIAN_POINT('Ctrl Pts',(71.2567583802807,162.065215568054,-35.2127473034633));
#1867=CARTESIAN_POINT('Ctrl Pts',(72.6512965623732,162.,-34.8780026237179));
#1868=CARTESIAN_POINT('Ctrl Pts',(63.0696537682659,163.0046938555,-32.935705095507));
#1869=CARTESIAN_POINT('Ctrl Pts',(64.6362273376175,163.139543647584,-33.4437895784739));
#1870=CARTESIAN_POINT('Ctrl Pts',(67.741490684177,163.168853663723,-33.8955043278728));
#1871=CARTESIAN_POINT('Ctrl Pts',(70.7554160547207,163.105831199563,-33.3167684577321));
#1872=CARTESIAN_POINT('Ctrl Pts',(71.9303462317342,163.0046938555,-32.935705095507));
#1873=CARTESIAN_POINT('Ctrl Pts',(63.3241767278775,165.102402098974,-32.25));
#1874=CARTESIAN_POINT('Ctrl Pts',(64.8248477234413,165.142202219908,-32.8077764136578));
#1875=CARTESIAN_POINT('Ctrl Pts',(67.7215509257669,165.080853446042,-33.2625809056389));
#1876=CARTESIAN_POINT('Ctrl Pts',(70.55032002545,165.132252189674,-32.6683323102433));
#1877=CARTESIAN_POINT('Ctrl Pts',(71.6758232721226,165.102402098974,-32.25));
#1878=CARTESIAN_POINT('Ctrl Pts',(63.3241767278775,166.,-32.25));
#1879=CARTESIAN_POINT('Ctrl Pts',(64.8474488335879,166.,-32.8154146763378));
#1880=CARTESIAN_POINT('Ctrl Pts',(67.7157967394266,165.899211308587,-33.25534915528));
#1881=CARTESIAN_POINT('Ctrl Pts',(70.53336919284,166.,-32.6740610072533));
#1882=CARTESIAN_POINT('Ctrl Pts',(71.6758232721226,166.,-32.25));
#1883=CARTESIAN_POINT('Ctrl Pts',(73.06776436283,162.,-36.));
#1884=CARTESIAN_POINT('Ctrl Pts',(71.5444922571199,162.,-36.3392488058027));
#1885=CARTESIAN_POINT('Ctrl Pts',(67.7877289859025,161.939526785152,-36.804279324224));
#1886=CARTESIAN_POINT('Ctrl Pts',(63.9632651114502,162.,-36.4523317410702));
#1887=CARTESIAN_POINT('Ctrl Pts',(61.93223563717,162.,-36.));
#1888=CARTESIAN_POINT('Origin',(99.,156.,-36.));
#1889=CARTESIAN_POINT('',(91.5,162.,-36.));
#1890=CARTESIAN_POINT('',(99.,162.,-36.));
#1891=CARTESIAN_POINT('',(97.5,156.,-42.));
#1892=CARTESIAN_POINT('Origin',(91.5,156.,-36.));
#1893=CARTESIAN_POINT('',(37.5,156.,-42.));
#1894=CARTESIAN_POINT('',(99.,156.,-42.));
#1895=CARTESIAN_POINT('',(43.5,162.,-36.));
#1896=CARTESIAN_POINT('Origin',(43.5,156.,-36.));
#1897=CARTESIAN_POINT('',(99.,162.,-36.));
#1898=CARTESIAN_POINT('Origin',(67.5,162.,-21.));
#1899=CARTESIAN_POINT('',(91.5,162.,-6.));
#1900=CARTESIAN_POINT('',(33.75,162.,-6.));
#1901=CARTESIAN_POINT('',(91.5,162.,-10.5));
#1902=CARTESIAN_POINT('Origin',(67.5,162.,-21.));
#1903=CARTESIAN_POINT('',(43.5,162.,-6.));
#1904=CARTESIAN_POINT('',(43.5,162.,-31.5));
#1905=CARTESIAN_POINT('',(33.75,162.,-6.));
#1906=CARTESIAN_POINT('Origin',(121.999999895467,40.001371714289,-42.));
#1907=CARTESIAN_POINT('',(121.999999895467,40.001371714289,-42.));
#1908=CARTESIAN_POINT('',(122.,70.,-42.));
#1909=CARTESIAN_POINT('',(121.999999851907,27.5006858719541,-42.));
#1910=CARTESIAN_POINT('',(121.999999895467,40.001371714289,-32.));
#1911=CARTESIAN_POINT('',(121.999999895467,40.001371714289,-42.));
#1912=CARTESIAN_POINT('',(122.,70.,-32.));
#1913=CARTESIAN_POINT('',(122.,70.,-32.));
#1914=CARTESIAN_POINT('',(122.,70.,-42.));
#1915=CARTESIAN_POINT('Origin',(113.,40.,-42.));
#1916=CARTESIAN_POINT('',(104.,40.0000000000001,-42.));
#1917=CARTESIAN_POINT('Origin',(113.,40.,-42.));
#1918=CARTESIAN_POINT('',(104.,40.0000000000001,-32.));
#1919=CARTESIAN_POINT('',(104.,40.0000000000001,-42.));
#1920=CARTESIAN_POINT('Origin',(113.,40.,-32.));
#1921=CARTESIAN_POINT('Origin',(104.,70.,-42.));
#1922=CARTESIAN_POINT('',(104.,70.,-42.));
#1923=CARTESIAN_POINT('',(104.,42.5,-42.));
#1924=CARTESIAN_POINT('',(104.,70.,-32.));
#1925=CARTESIAN_POINT('',(104.,70.,-42.));
#1926=CARTESIAN_POINT('',(104.,70.,-32.));
#1927=CARTESIAN_POINT('Origin',(113.,70.,-42.));
#1928=CARTESIAN_POINT('Origin',(113.,70.,-42.));
#1929=CARTESIAN_POINT('Origin',(113.,70.,-32.));
#1930=CARTESIAN_POINT('Origin',(113.,55.,-32.));
#1931=CARTESIAN_POINT('Origin',(122.,70.,0.));
#1932=CARTESIAN_POINT('',(122.,70.,0.));
#1933=CARTESIAN_POINT('',(121.999999895467,40.001371714289,0.));
#1934=CARTESIAN_POINT('',(121.999999878039,34.9999997874392,0.));
#1935=CARTESIAN_POINT('',(122.,70.,-10.));
#1936=CARTESIAN_POINT('',(122.,70.,0.));
#1937=CARTESIAN_POINT('',(121.999999895467,40.001371714289,-10.));
#1938=CARTESIAN_POINT('',(121.999999895467,40.0013717142909,-10.));
#1939=CARTESIAN_POINT('',(121.999999895467,40.001371714289,0.));
#1940=CARTESIAN_POINT('Origin',(113.,70.,0.));
#1941=CARTESIAN_POINT('',(104.,70.,0.));
#1942=CARTESIAN_POINT('Origin',(113.,70.,0.));
#1943=CARTESIAN_POINT('',(104.,70.,-10.));
#1944=CARTESIAN_POINT('',(104.,70.,0.));
#1945=CARTESIAN_POINT('Origin',(113.,70.,-10.));
#1946=CARTESIAN_POINT('Origin',(104.,40.0000000000001,0.));
#1947=CARTESIAN_POINT('',(104.,40.0000000000001,0.));
#1948=CARTESIAN_POINT('',(104.,20.,0.));
#1949=CARTESIAN_POINT('',(104.,40.0000000000001,-10.));
#1950=CARTESIAN_POINT('',(104.,40.0000000000001,0.));
#1951=CARTESIAN_POINT('',(104.,70.,-10.));
#1952=CARTESIAN_POINT('Origin',(113.,40.,0.));
#1953=CARTESIAN_POINT('Origin',(113.,40.,0.));
#1954=CARTESIAN_POINT('Origin',(113.,40.,-10.));
#1955=CARTESIAN_POINT('Origin',(113.,55.,-10.));
#1956=CARTESIAN_POINT('Origin',(33.75,156.,-6.));
#1957=CARTESIAN_POINT('',(37.5,156.,0.));
#1958=CARTESIAN_POINT('Origin',(43.5,156.,-6.));
#1959=CARTESIAN_POINT('',(97.5,156.,0.));
#1960=CARTESIAN_POINT('',(33.75,156.,0.));
#1961=CARTESIAN_POINT('Origin',(91.5,156.,-6.));
#1962=CARTESIAN_POINT('Origin',(43.5,156.,-31.5));
#1963=CARTESIAN_POINT('',(37.5,156.,-31.5));
#1964=CARTESIAN_POINT('Origin',(91.5,156.,-10.5));
#1965=CARTESIAN_POINT('',(97.5,156.,-10.5));
#1966=CARTESIAN_POINT('Origin',(97.5,111.311600970695,0.));
#1967=CARTESIAN_POINT('',(97.5,111.311600970695,0.));
#1968=CARTESIAN_POINT('',(97.5,55.6558004853475,0.));
#1969=CARTESIAN_POINT('',(97.5,111.311600970695,-42.));
#1970=CARTESIAN_POINT('',(97.5,111.311600970695,0.));
#1971=CARTESIAN_POINT('',(97.5,63.1558004853475,-42.));
#1972=CARTESIAN_POINT('Origin',(0.,0.,0.));
#1973=CARTESIAN_POINT('',(37.4999983370302,92.9961338085216,0.));
#1974=CARTESIAN_POINT('',(37.5,15.,0.));
#1975=CARTESIAN_POINT('',(46.4999999999997,84.,0.));
#1976=CARTESIAN_POINT('Origin',(46.4999999999996,93.0000024944543,0.));
#1977=CARTESIAN_POINT('',(69.,84.,0.));
#1978=CARTESIAN_POINT('',(69.,84.,0.));
#1979=CARTESIAN_POINT('',(96.,57.,0.));
#1980=CARTESIAN_POINT('Origin',(69.,57.,0.));
#1981=CARTESIAN_POINT('',(90.2396252501558,45.1835146834313,0.));
#1982=CARTESIAN_POINT('Origin',(80.9999999999999,57.,0.));
#1983=CARTESIAN_POINT('',(74.546394116851,32.9121574297562,0.));
#1984=CARTESIAN_POINT('',(90.2399999731881,45.1838076989462,0.));
#1985=CARTESIAN_POINT('',(63.7720295852677,32.6741331337047,0.));
#1986=CARTESIAN_POINT('Origin',(69.,40.,0.));
#1987=CARTESIAN_POINT('',(46.5,45.,0.));
#1988=CARTESIAN_POINT('',(46.5,45.,0.));
#1989=CARTESIAN_POINT('',(37.5,45.,0.));
#1990=CARTESIAN_POINT('',(37.5,45.,0.));
#1991=CARTESIAN_POINT('',(37.5,24.,0.));
#1992=CARTESIAN_POINT('',(37.5,15.,0.));
#1993=CARTESIAN_POINT('',(28.5,15.,0.));
#1994=CARTESIAN_POINT('Origin',(28.5,24.,4.44089209850063E-15));
#1995=CARTESIAN_POINT('',(9.,15.,0.));
#1996=CARTESIAN_POINT('',(0.,15.,0.));
#1997=CARTESIAN_POINT('',(9.,0.,0.));
#1998=CARTESIAN_POINT('',(9.,0.,0.));
#1999=CARTESIAN_POINT('',(159.,0.,0.));
#2000=CARTESIAN_POINT('',(0.,0.,0.));
#2001=CARTESIAN_POINT('',(159.,15.,0.));
#2002=CARTESIAN_POINT('',(159.,0.,0.));
#2003=CARTESIAN_POINT('',(134.5,15.,0.));
#2004=CARTESIAN_POINT('',(0.,15.,0.));
#2005=CARTESIAN_POINT('',(130.5,19.,0.));
#2006=CARTESIAN_POINT('Origin',(134.5,19.,0.));
#2007=CARTESIAN_POINT('',(130.5,69.2780291578087,0.));
#2008=CARTESIAN_POINT('',(130.5,15.,0.));
#2009=CARTESIAN_POINT('',(102.675,103.164860825091,0.));
#2010=CARTESIAN_POINT('Origin',(81.,57.0000000000001,0.));
#2011=CARTESIAN_POINT('Origin',(106.5,111.311600970695,0.));
#2012=CARTESIAN_POINT('Origin',(67.5,162.,-21.));
#2013=CARTESIAN_POINT('',(74.5175,153.,-21.));
#2014=CARTESIAN_POINT('',(74.5175,162.,-21.));
#2015=CARTESIAN_POINT('Origin',(67.5,153.,-21.));
#2016=CARTESIAN_POINT('Origin',(67.5,153.,-21.));
#2017=CARTESIAN_POINT('',(88.5,153.,-12.0000001788139));
#2018=CARTESIAN_POINT('',(46.5,153.,-12.0000001788139));
#2019=CARTESIAN_POINT('',(86.25,153.,-12.0000001788139));
#2020=CARTESIAN_POINT('',(46.5,153.,-30.));
#2021=CARTESIAN_POINT('',(46.5,153.,-16.500000089407));
#2022=CARTESIAN_POINT('',(88.5,153.,-30.));
#2023=CARTESIAN_POINT('',(65.25,153.,-30.));
#2024=CARTESIAN_POINT('',(88.5,153.,-25.5));
#2025=CARTESIAN_POINT('Origin',(88.5,153.,-12.0000001788139));
#2026=CARTESIAN_POINT('',(46.5,0.,-12.0000001788139));
#2027=CARTESIAN_POINT('',(88.5,0.,-12.0000001788139));
#2028=CARTESIAN_POINT('',(86.25,0.,-12.0000001788139));
#2029=CARTESIAN_POINT('',(46.5,45.,-12.0000001788139));
#2030=CARTESIAN_POINT('',(46.5,153.,-12.0000001788139));
#2031=CARTESIAN_POINT('',(63.7720295852677,32.6741331337047,-12.0000001788139));
#2032=CARTESIAN_POINT('',(43.5170815738233,47.1287049800699,-12.0000001788139));
#2033=CARTESIAN_POINT('',(74.546394116851,32.9121574297562,-12.0000001788139));
#2034=CARTESIAN_POINT('Origin',(69.,40.,-12.0000001788139));
#2035=CARTESIAN_POINT('',(88.5,43.8232108205211,-12.0000001788139));
#2036=CARTESIAN_POINT('',(115.858711339776,65.216416464327,-12.0000001788139));
#2037=CARTESIAN_POINT('',(88.5,153.,-12.0000001788139));
#2038=CARTESIAN_POINT('Origin',(88.5,153.,-12.0000001788139));
#2039=CARTESIAN_POINT('',(46.5,84.,-12.0000001788139));
#2040=CARTESIAN_POINT('',(69.,84.,-12.0000001788139));
#2041=CARTESIAN_POINT('',(67.4999999999998,84.,-12.0000001788139));
#2042=CARTESIAN_POINT('',(46.5,153.,-12.0000001788139));
#2043=CARTESIAN_POINT('',(88.5,75.6748493969831,-12.0000001788139));
#2044=CARTESIAN_POINT('',(88.5,153.,-12.0000001788139));
#2045=CARTESIAN_POINT('Origin',(69.,57.,-12.0000001788139));
#2046=CARTESIAN_POINT('Origin',(88.5,153.,-30.));
#2047=CARTESIAN_POINT('',(88.5,0.,-30.));
#2048=CARTESIAN_POINT('',(88.5,0.,-30.));
#2049=CARTESIAN_POINT('',(88.5,43.8232108205211,-30.));
#2050=CARTESIAN_POINT('',(88.5,43.8232108205212,-15.));
#2051=CARTESIAN_POINT('',(88.5,153.,-30.));
#2052=CARTESIAN_POINT('Origin',(46.5,153.,-30.));
#2053=CARTESIAN_POINT('',(46.5,0.,-30.));
#2054=CARTESIAN_POINT('',(65.25,0.,-30.));
#2055=CARTESIAN_POINT('',(74.546394116851,32.9121574297562,-30.));
#2056=CARTESIAN_POINT('',(102.82696413835,55.0262125356476,-30.));
#2057=CARTESIAN_POINT('',(63.7720295852677,32.6741331337047,-30.));
#2058=CARTESIAN_POINT('Origin',(69.,40.,-30.));
#2059=CARTESIAN_POINT('',(46.5,45.,-30.));
#2060=CARTESIAN_POINT('',(29.6030712997941,57.0581830050631,-30.));
#2061=CARTESIAN_POINT('',(46.5,153.,-30.));
#2062=CARTESIAN_POINT('Origin',(46.5,153.,-12.0000001788139));
#2063=CARTESIAN_POINT('',(46.5,0.,-21.000000089407));
#2064=CARTESIAN_POINT('',(46.5,45.,0.));
#2065=CARTESIAN_POINT('Origin',(46.5,153.,-12.0000001788139));
#2066=CARTESIAN_POINT('',(46.5,84.,-30.));
#2067=CARTESIAN_POINT('',(46.4999999999997,84.,0.));
#2068=CARTESIAN_POINT('',(46.5,153.,-30.));
#2069=CARTESIAN_POINT('Origin',(88.5,153.,-30.));
#2070=CARTESIAN_POINT('',(88.5,75.6748493969831,-30.));
#2071=CARTESIAN_POINT('',(88.5,75.6748493969831,0.));
#2072=CARTESIAN_POINT('',(88.5,153.,-30.));
#2073=CARTESIAN_POINT('Origin',(46.5,153.,-30.));
#2074=CARTESIAN_POINT('',(69.,84.,-30.));
#2075=CARTESIAN_POINT('',(46.4999999999998,84.,-30.));
#2076=CARTESIAN_POINT('Origin',(69.,57.,-30.));
#2077=CARTESIAN_POINT('Origin',(46.4999999999997,84.,0.));
#2078=CARTESIAN_POINT('',(69.,84.,0.));
#2079=CARTESIAN_POINT('',(46.4999999999997,84.,0.));
#2080=CARTESIAN_POINT('Origin',(46.4999999999997,84.,0.));
#2081=CARTESIAN_POINT('',(46.4999999999997,84.,-42.));
#2082=CARTESIAN_POINT('',(46.4999999999997,84.,0.));
#2083=CARTESIAN_POINT('',(69.,84.,-42.));
#2084=CARTESIAN_POINT('',(88.4999999999998,84.,-42.));
#2085=CARTESIAN_POINT('',(69.,84.,0.));
#2086=CARTESIAN_POINT('Origin',(69.,40.,0.));
#2087=CARTESIAN_POINT('',(74.546394116851,32.9121574297562,-42.));
#2088=CARTESIAN_POINT('',(74.546394116851,32.9121574297562,0.));
#2089=CARTESIAN_POINT('',(63.7720295852677,32.6741331337047,-42.));
#2090=CARTESIAN_POINT('Origin',(69.,40.,-42.));
#2091=CARTESIAN_POINT('',(63.7720295852677,32.6741331337047,0.));
#2092=CARTESIAN_POINT('Origin',(69.,40.,0.));
#2093=CARTESIAN_POINT('',(63.7720295852677,32.6741331337047,0.));
#2094=CARTESIAN_POINT('',(74.546394116851,32.9121574297562,0.));
#2095=CARTESIAN_POINT('Origin',(63.7720295852677,32.6741331337047,0.));
#2096=CARTESIAN_POINT('',(46.5,45.,-42.));
#2097=CARTESIAN_POINT('',(90.0565196442587,13.9166892840295,-42.));
#2098=CARTESIAN_POINT('',(46.5,45.,0.));
#2099=CARTESIAN_POINT('Origin',(63.7720295852677,32.6741331337047,0.));
#2100=CARTESIAN_POINT('',(46.5,45.,0.));
#2101=CARTESIAN_POINT('Origin',(81.,57.0000000000001,0.));
#2102=CARTESIAN_POINT('',(102.675,103.164860825091,-42.));
#2103=CARTESIAN_POINT('',(130.5,69.2780291578087,-42.));
#2104=CARTESIAN_POINT('Origin',(81.,57.0000000000001,-42.));
#2105=CARTESIAN_POINT('',(102.675,103.164860825091,0.));
#2106=CARTESIAN_POINT('',(130.5,69.2780291578087,0.));
#2107=CARTESIAN_POINT('Origin',(106.5,111.311600970695,0.));
#2108=CARTESIAN_POINT('Origin',(106.5,111.311600970695,-42.));
#2109=CARTESIAN_POINT('Origin',(90.2396252501558,45.1835146834313,0.));
#2110=CARTESIAN_POINT('',(90.2396252501558,45.1835146834313,-42.));
#2111=CARTESIAN_POINT('',(90.2396252501558,45.1835146834313,0.));
#2112=CARTESIAN_POINT('',(95.4083599183982,49.2252183405482,-42.));
#2113=CARTESIAN_POINT('Origin',(80.9999999999999,57.,0.));
#2114=CARTESIAN_POINT('',(96.,57.,-42.));
#2115=CARTESIAN_POINT('Origin',(80.9999999999999,57.,-42.));
#2116=CARTESIAN_POINT('',(96.,57.,0.));
#2117=CARTESIAN_POINT('Origin',(69.,57.,0.));
#2118=CARTESIAN_POINT('Origin',(69.,57.,-42.));
#2119=CARTESIAN_POINT('Origin',(46.4999999999996,93.0000024944543,0.));
#2120=CARTESIAN_POINT('',(37.5,92.9961338085216,-42.));
#2121=CARTESIAN_POINT('Origin',(46.4999999999996,93.0000024944543,-42.));
#2122=CARTESIAN_POINT('',(37.4999983370302,92.9961338085216,0.));
#2123=CARTESIAN_POINT('Origin',(46.5,45.,0.));
#2124=CARTESIAN_POINT('',(37.5,45.,-42.));
#2125=CARTESIAN_POINT('',(88.5,45.,-42.));
#2126=CARTESIAN_POINT('',(37.5,45.,0.));
#2127=CARTESIAN_POINT('Origin',(130.5,15.,-42.));
#2128=CARTESIAN_POINT('',(130.5,19.,-42.));
#2129=CARTESIAN_POINT('',(130.5,15.,-42.));
#2130=CARTESIAN_POINT('',(134.5,15.,-42.));
#2131=CARTESIAN_POINT('Origin',(134.5,19.,-42.));
#2132=CARTESIAN_POINT('',(28.5,15.,-42.));
#2133=CARTESIAN_POINT('',(107.25,15.,-42.));
#2134=CARTESIAN_POINT('',(37.5,24.,-42.));
#2135=CARTESIAN_POINT('Origin',(28.5,24.,-42.));
#2136=CARTESIAN_POINT('',(37.5,15.,-42.));
#2137=CARTESIAN_POINT('',(37.5,15.,-42.));
#2138=CARTESIAN_POINT('Origin',(37.5,15.,-42.));
#2139=CARTESIAN_POINT('Origin',(134.5,19.,-15.));
#2140=CARTESIAN_POINT('',(130.5,19.,-15.));
#2141=CARTESIAN_POINT('',(134.5,15.,-15.));
#2142=CARTESIAN_POINT('Origin',(130.5,15.,0.));
#2143=CARTESIAN_POINT('Origin',(28.5,24.,-36.));
#2144=CARTESIAN_POINT('',(28.5,15.,-36.));
#2145=CARTESIAN_POINT('',(37.5,24.,-36.));
#2146=CARTESIAN_POINT('Origin',(84.,15.,-30.));
#2147=CARTESIAN_POINT('',(168.,15.,-9.));
#2148=CARTESIAN_POINT('Origin',(159.,15.,-9.));
#2149=CARTESIAN_POINT('',(168.,15.,-51.));
#2150=CARTESIAN_POINT('',(168.,15.,0.));
#2151=CARTESIAN_POINT('',(159.,15.,-60.));
#2152=CARTESIAN_POINT('Origin',(159.,15.,-51.));
#2153=CARTESIAN_POINT('',(9.,15.,-60.));
#2154=CARTESIAN_POINT('',(168.,15.,-60.));
#2155=CARTESIAN_POINT('',(0.,15.,-51.));
#2156=CARTESIAN_POINT('Origin',(9.,15.,-51.));
#2157=CARTESIAN_POINT('',(0.,15.,-9.));
#2158=CARTESIAN_POINT('',(0.,15.,-60.));
#2159=CARTESIAN_POINT('Origin',(9.,15.,-9.));
#2160=CARTESIAN_POINT('Origin',(9.,0.,-9.));
#2161=CARTESIAN_POINT('',(0.,0.,-9.));
#2162=CARTESIAN_POINT('',(0.,0.,-9.));
#2163=CARTESIAN_POINT('Origin',(9.,0.,-9.));
#2164=CARTESIAN_POINT('Origin',(84.,0.,-30.));
#2165=CARTESIAN_POINT('',(0.,0.,-51.));
#2166=CARTESIAN_POINT('',(0.,0.,-60.));
#2167=CARTESIAN_POINT('',(9.,0.,-60.));
#2168=CARTESIAN_POINT('Origin',(9.,0.,-51.));
#2169=CARTESIAN_POINT('',(159.,0.,-60.));
#2170=CARTESIAN_POINT('',(168.,0.,-60.));
#2171=CARTESIAN_POINT('',(168.,0.,-51.));
#2172=CARTESIAN_POINT('Origin',(159.,0.,-51.));
#2173=CARTESIAN_POINT('',(168.,0.,-9.));
#2174=CARTESIAN_POINT('',(168.,0.,0.));
#2175=CARTESIAN_POINT('Origin',(159.,0.,-9.));
#2176=CARTESIAN_POINT('Origin',(9.,0.,-51.));
#2177=CARTESIAN_POINT('',(9.,0.,-60.));
#2178=CARTESIAN_POINT('',(0.,0.,-51.));
#2179=CARTESIAN_POINT('Origin',(168.,0.,-60.));
#2180=CARTESIAN_POINT('',(159.,0.,-60.));
#2181=CARTESIAN_POINT('Origin',(159.,0.,-51.));
#2182=CARTESIAN_POINT('',(168.,0.,-51.));
#2183=CARTESIAN_POINT('Origin',(159.,0.,-9.));
#2184=CARTESIAN_POINT('',(168.,0.,-9.));
#2185=CARTESIAN_POINT('Origin',(37.5,15.,-42.));
#2186=CARTESIAN_POINT('Origin',(168.,0.,0.));
#2187=CARTESIAN_POINT('Origin',(0.,0.,-60.));
#2188=UNCERTAINTY_MEASURE_WITH_UNIT(LENGTH_MEASURE(0.01),#2192,
'DISTANCE_ACCURACY_VALUE',
'Maximum model space distance between geometric entities at asserted c
onnectivities');
#2189=UNCERTAINTY_MEASURE_WITH_UNIT(LENGTH_MEASURE(0.01),#2192,
'DISTANCE_ACCURACY_VALUE',
'Maximum model space distance between geometric entities at asserted c
onnectivities');
#2190=(
GEOMETRIC_REPRESENTATION_CONTEXT(3)
GLOBAL_UNCERTAINTY_ASSIGNED_CONTEXT((#2188))
GLOBAL_UNIT_ASSIGNED_CONTEXT((#2192,#2194,#2195))
REPRESENTATION_CONTEXT('','3D')
);
#2191=(
GEOMETRIC_REPRESENTATION_CONTEXT(3)
GLOBAL_UNCERTAINTY_ASSIGNED_CONTEXT((#2189))
GLOBAL_UNIT_ASSIGNED_CONTEXT((#2192,#2194,#2195))
REPRESENTATION_CONTEXT('','3D')
);
#2192=(
LENGTH_UNIT()
NAMED_UNIT(*)
SI_UNIT(.MILLI.,.METRE.)
);
#2193=(
LENGTH_UNIT()
NAMED_UNIT(*)
SI_UNIT($,.METRE.)
);
#2194=(
NAMED_UNIT(*)
PLANE_ANGLE_UNIT()
SI_UNIT($,.RADIAN.)
);
#2195=(
NAMED_UNIT(*)
SI_UNIT($,.STERADIAN.)
SOLID_ANGLE_UNIT()
);
#2196=SHAPE_DEFINITION_REPRESENTATION(#2197,#2198);
#2197=PRODUCT_DEFINITION_SHAPE('',$,#2200);
#2198=SHAPE_REPRESENTATION('',(#1267),#2190);
#2199=PRODUCT_DEFINITION_CONTEXT('part definition',#2204,'design');
#2200=PRODUCT_DEFINITION('Untitled','Untitled',#2201,#2199);
#2201=PRODUCT_DEFINITION_FORMATION('',$,#2206);
#2202=PRODUCT_RELATED_PRODUCT_CATEGORY('Untitled','Untitled',(#2206));
#2203=APPLICATION_PROTOCOL_DEFINITION('international standard',
'automotive_design',2009,#2204);
#2204=APPLICATION_CONTEXT(
'Core Data for Automotive Mechanical Design Process');
#2205=PRODUCT_CONTEXT('part definition',#2204,'mechanical');
#2206=PRODUCT('Untitled','Untitled',$,(#2205));
#2207=PRESENTATION_STYLE_ASSIGNMENT((#2208));
#2208=SURFACE_STYLE_USAGE(.BOTH.,#2209);
#2209=SURFACE_SIDE_STYLE('',(#2210));
#2210=SURFACE_STYLE_FILL_AREA(#2211);
#2211=FILL_AREA_STYLE('Steel - Satin',(#2212));
#2212=FILL_AREA_STYLE_COLOUR('Steel - Satin',#2213);
#2213=COLOUR_RGB('Steel - Satin',0.627450980392157,0.627450980392157,0.627450980392157);
ENDSEC;
END-ISO-10303-21;
