ISO-10303-21;
HEADER;
FILE_DESCRIPTION(('Open CASCADE Model'),'2;1');
FILE_NAME('Open CASCADE Shape Model','2026-08-19T19:32:56',('Author'),(
    'Open CASCADE'),'Open CASCADE STEP processor 7.9','Open CASCADE 7.9'
  ,'Unknown');
FILE_SCHEMA(('AUTOMOTIVE_DESIGN { 1 0 10303 214 1 1 1 1 }'));
ENDSEC;
DATA;
#1 = APPLICATION_PROTOCOL_DEFINITION('international standard',
  'automotive_design',2000,#2);
#2 = APPLICATION_CONTEXT(
  'core data for automotive mechanical design processes');
#3 = SHAPE_DEFINITION_REPRESENTATION(#4,#10);
#4 = PRODUCT_DEFINITION_SHAPE('','',#5);
#5 = PRODUCT_DEFINITION('design','',#6,#9);
#6 = PRODUCT_DEFINITION_FORMATION('','',#7);
#7 = PRODUCT('Open CASCADE STEP translator 7.9 1',
  'Open CASCADE STEP translator 7.9 1','',(#8));
#8 = PRODUCT_CONTEXT('',#2,'mechanical');
#9 = PRODUCT_DEFINITION_CONTEXT('part definition',#2,'design');
#10 = ADVANCED_BREP_SHAPE_REPRESENTATION('',(#11,#15),#1212);
#11 = AXIS2_PLACEMENT_3D('',#12,#13,#14);
#12 = CARTESIAN_POINT('',(0.,0.,0.));
#13 = DIRECTION('',(0.,0.,1.));
#14 = DIRECTION('',(1.,0.,-0.));
#15 = MANIFOLD_SOLID_BREP('',#16);
#16 = CLOSED_SHELL('',(#17,#147,#487,#563,#655,#659,#708,#944,#971,#1025
    ,#1154,#1205));
#17 = ADVANCED_FACE('',(#18),#33,.T.);
#18 = FACE_BOUND('',#19,.T.);
#19 = EDGE_LOOP('',(#20,#60,#88,#121));
#20 = ORIENTED_EDGE('',*,*,#21,.T.);
#21 = EDGE_CURVE('',#22,#24,#26,.T.);
#22 = VERTEX_POINT('',#23);
#23 = CARTESIAN_POINT('',(-25.00000037252,11.,5.999999970198));
#24 = VERTEX_POINT('',#25);
#25 = CARTESIAN_POINT('',(-8.386752646693,23.,5.999999970198));
#26 = SURFACE_CURVE('',#27,(#32,#44),.PCURVE_S1.);
#27 = CIRCLE('',#28,17.5);
#28 = AXIS2_PLACEMENT_3D('',#29,#30,#31);
#29 = CARTESIAN_POINT('',(-8.386752646693,5.5,5.999999970198));
#30 = DIRECTION('',(0.,8.570213720248E-17,-1.));
#31 = DIRECTION('',(-0.949328441476,0.314285714286,2.693495740649E-17));
#32 = PCURVE('',#33,#38);
#33 = CYLINDRICAL_SURFACE('',#34,17.5);
#34 = AXIS2_PLACEMENT_3D('',#35,#36,#37);
#35 = CARTESIAN_POINT('',(-8.386752646693,5.5,1.999999970198));
#36 = DIRECTION('',(0.,9.95799250103E-17,-1.));
#37 = DIRECTION('',(-0.949328441476,0.314285714286,3.129654786038E-17));
#38 = DEFINITIONAL_REPRESENTATION('',(#39),#43);
#39 = LINE('',#40,#41);
#40 = CARTESIAN_POINT('',(0.,-4.));
#41 = VECTOR('',#42,1.);
#42 = DIRECTION('',(1.,7.09922446343E-16));
#43 = ( GEOMETRIC_REPRESENTATION_CONTEXT(2) 
PARAMETRIC_REPRESENTATION_CONTEXT() REPRESENTATION_CONTEXT('2D SPACE',''
  ) );
#44 = PCURVE('',#45,#50);
#45 = PLANE('',#46);
#46 = AXIS2_PLACEMENT_3D('',#47,#48,#49);
#47 = CARTESIAN_POINT('',(0.,19.,5.999999970198));
#48 = DIRECTION('',(0.,-8.570213720248E-17,1.));
#49 = DIRECTION('',(1.,0.,0.));
#50 = DEFINITIONAL_REPRESENTATION('',(#51),#59);
#51 = ( BOUNDED_CURVE() B_SPLINE_CURVE(2,(#52,#53,#54,#55,#56,#57,#58),
.UNSPECIFIED.,.T.,.F.) B_SPLINE_CURVE_WITH_KNOTS((1,2,2,2,2,1),(
    -2.094395102393,0.,2.094395102393,4.188790204786,6.28318530718,
8.377580409573),.UNSPECIFIED.) CURVE() GEOMETRIC_REPRESENTATION_ITEM() 
RATIONAL_B_SPLINE_CURVE((1.,0.5,1.,0.5,1.,0.5,1.)) REPRESENTATION_ITEM(
  '') );
#52 = CARTESIAN_POINT('',(-25.00000037252,-8.));
#53 = CARTESIAN_POINT('',(-15.4737209309,20.774989139876));
#54 = CARTESIAN_POINT('',(4.68301093704,-1.862505430062));
#55 = CARTESIAN_POINT('',(24.839742804979,-24.5));
#56 = CARTESIAN_POINT('',(-4.843268504589,-30.63749456993));
#57 = CARTESIAN_POINT('',(-34.52627981415,-36.77498913987));
#58 = CARTESIAN_POINT('',(-25.00000037252,-8.));
#59 = ( GEOMETRIC_REPRESENTATION_CONTEXT(2) 
PARAMETRIC_REPRESENTATION_CONTEXT() REPRESENTATION_CONTEXT('2D SPACE',''
  ) );
#60 = ORIENTED_EDGE('',*,*,#61,.T.);
#61 = EDGE_CURVE('',#24,#62,#64,.T.);
#62 = VERTEX_POINT('',#63);
#63 = CARTESIAN_POINT('',(-8.386752646693,23.,1.999999970198));
#64 = SURFACE_CURVE('',#65,(#69,#76),.PCURVE_S1.);
#65 = LINE('',#66,#67);
#66 = CARTESIAN_POINT('',(-8.386752646693,23.,1.999999970198));
#67 = VECTOR('',#68,1.);
#68 = DIRECTION('',(0.,9.95799250103E-17,-1.));
#69 = PCURVE('',#33,#70);
#70 = DEFINITIONAL_REPRESENTATION('',(#71),#75);
#71 = LINE('',#72,#73);
#72 = CARTESIAN_POINT('',(1.251092178132,1.7763568394E-15));
#73 = VECTOR('',#74,1.);
#74 = DIRECTION('',(0.,1.));
#75 = ( GEOMETRIC_REPRESENTATION_CONTEXT(2) 
PARAMETRIC_REPRESENTATION_CONTEXT() REPRESENTATION_CONTEXT('2D SPACE',''
  ) );
#76 = PCURVE('',#77,#82);
#77 = PLANE('',#78);
#78 = AXIS2_PLACEMENT_3D('',#79,#80,#81);
#79 = CARTESIAN_POINT('',(-12.50000018626,23.,3.999999960264));
#80 = DIRECTION('',(0.,-1.,-9.95799250103E-17));
#81 = DIRECTION('',(-1.,-0.,0.));
#82 = DEFINITIONAL_REPRESENTATION('',(#83),#87);
#83 = LINE('',#84,#85);
#84 = CARTESIAN_POINT('',(-4.113247539572,1.999999990066));
#85 = VECTOR('',#86,1.);
#86 = DIRECTION('',(-0.,1.));
#87 = ( GEOMETRIC_REPRESENTATION_CONTEXT(2) 
PARAMETRIC_REPRESENTATION_CONTEXT() REPRESENTATION_CONTEXT('2D SPACE',''
  ) );
#88 = ORIENTED_EDGE('',*,*,#89,.T.);
#89 = EDGE_CURVE('',#62,#90,#92,.T.);
#90 = VERTEX_POINT('',#91);
#91 = CARTESIAN_POINT('',(-25.00000037252,11.,1.999999970198));
#92 = SURFACE_CURVE('',#93,(#98,#105),.PCURVE_S1.);
#93 = CIRCLE('',#94,17.5);
#94 = AXIS2_PLACEMENT_3D('',#95,#96,#97);
#95 = CARTESIAN_POINT('',(-8.386752646693,5.5,1.999999970198));
#96 = DIRECTION('',(0.,-8.570213720248E-17,1.));
#97 = DIRECTION('',(-0.949328441476,0.314285714286,2.693495740649E-17));
#98 = PCURVE('',#33,#99);
#99 = DEFINITIONAL_REPRESENTATION('',(#100),#104);
#100 = LINE('',#101,#102);
#101 = CARTESIAN_POINT('',(6.28318530718,2.22044604925E-16));
#102 = VECTOR('',#103,1.);
#103 = DIRECTION('',(-1.,0.));
#104 = ( GEOMETRIC_REPRESENTATION_CONTEXT(2) 
PARAMETRIC_REPRESENTATION_CONTEXT() REPRESENTATION_CONTEXT('2D SPACE',''
  ) );
#105 = PCURVE('',#106,#111);
#106 = PLANE('',#107);
#107 = AXIS2_PLACEMENT_3D('',#108,#109,#110);
#108 = CARTESIAN_POINT('',(79.999999627471,19.,1.999999970198));
#109 = DIRECTION('',(0.,8.570213720248E-17,-1.));
#110 = DIRECTION('',(-1.,0.,0.));
#111 = DEFINITIONAL_REPRESENTATION('',(#112),#120);
#112 = ( BOUNDED_CURVE() B_SPLINE_CURVE(2,(#113,#114,#115,#116,#117,#118
,#119),.UNSPECIFIED.,.T.,.F.) B_SPLINE_CURVE_WITH_KNOTS((1,2,2,2,2,1),(
    -2.094395102393,0.,2.094395102393,4.188790204786,6.28318530718,
8.377580409573),.UNSPECIFIED.) CURVE() GEOMETRIC_REPRESENTATION_ITEM() 
RATIONAL_B_SPLINE_CURVE((1.,0.5,1.,0.5,1.,0.5,1.)) REPRESENTATION_ITEM(
  '') );
#113 = CARTESIAN_POINT('',(105.,-8.));
#114 = CARTESIAN_POINT('',(114.52627944162,-36.77498913987));
#115 = CARTESIAN_POINT('',(84.84326813206,-30.63749456993));
#116 = CARTESIAN_POINT('',(55.160256822492,-24.5));
#117 = CARTESIAN_POINT('',(75.316988690431,-1.862505430062));
#118 = CARTESIAN_POINT('',(95.473720558371,20.774989139876));
#119 = CARTESIAN_POINT('',(105.,-8.));
#120 = ( GEOMETRIC_REPRESENTATION_CONTEXT(2) 
PARAMETRIC_REPRESENTATION_CONTEXT() REPRESENTATION_CONTEXT('2D SPACE',''
  ) );
#121 = ORIENTED_EDGE('',*,*,#122,.F.);
#122 = EDGE_CURVE('',#22,#90,#123,.T.);
#123 = SURFACE_CURVE('',#124,(#128,#135),.PCURVE_S1.);
#124 = LINE('',#125,#126);
#125 = CARTESIAN_POINT('',(-25.00000037252,11.,1.999999970198));
#126 = VECTOR('',#127,1.);
#127 = DIRECTION('',(0.,9.95799250103E-17,-1.));
#128 = PCURVE('',#33,#129);
#129 = DEFINITIONAL_REPRESENTATION('',(#130),#134);
#130 = LINE('',#131,#132);
#131 = CARTESIAN_POINT('',(0.,0.));
#132 = VECTOR('',#133,1.);
#133 = DIRECTION('',(0.,1.));
#134 = ( GEOMETRIC_REPRESENTATION_CONTEXT(2) 
PARAMETRIC_REPRESENTATION_CONTEXT() REPRESENTATION_CONTEXT('2D SPACE',''
  ) );
#135 = PCURVE('',#136,#141);
#136 = PLANE('',#137);
#137 = AXIS2_PLACEMENT_3D('',#138,#139,#140);
#138 = CARTESIAN_POINT('',(0.,11.,3.999999940395));
#139 = DIRECTION('',(0.,-1.,-8.570213720248E-17));
#140 = DIRECTION('',(0.,8.570213720248E-17,-1.));
#141 = DEFINITIONAL_REPRESENTATION('',(#142),#146);
#142 = LINE('',#143,#144);
#143 = CARTESIAN_POINT('',(1.999999970198,-25.00000037252));
#144 = VECTOR('',#145,1.);
#145 = DIRECTION('',(1.,0.));
#146 = ( GEOMETRIC_REPRESENTATION_CONTEXT(2) 
PARAMETRIC_REPRESENTATION_CONTEXT() REPRESENTATION_CONTEXT('2D SPACE',''
  ) );
#147 = ADVANCED_FACE('',(#148),#106,.T.);
#148 = FACE_BOUND('',#149,.T.);
#149 = EDGE_LOOP('',(#150,#151,#174,#313,#410,#438,#466));
#150 = ORIENTED_EDGE('',*,*,#89,.F.);
#151 = ORIENTED_EDGE('',*,*,#152,.F.);
#152 = EDGE_CURVE('',#153,#62,#155,.T.);
#153 = VERTEX_POINT('',#154);
#154 = CARTESIAN_POINT('',(-6.60272050457,23.,1.999999970198));
#155 = SURFACE_CURVE('',#156,(#160,#167),.PCURVE_S1.);
#156 = LINE('',#157,#158);
#157 = CARTESIAN_POINT('',(79.999999627471,23.,1.999999970198));
#158 = VECTOR('',#159,1.);
#159 = DIRECTION('',(-1.,0.,0.));
#160 = PCURVE('',#106,#161);
#161 = DEFINITIONAL_REPRESENTATION('',(#162),#166);
#162 = LINE('',#163,#164);
#163 = CARTESIAN_POINT('',(0.,4.));
#164 = VECTOR('',#165,1.);
#165 = DIRECTION('',(1.,0.));
#166 = ( GEOMETRIC_REPRESENTATION_CONTEXT(2) 
PARAMETRIC_REPRESENTATION_CONTEXT() REPRESENTATION_CONTEXT('2D SPACE',''
  ) );
#167 = PCURVE('',#77,#168);
#168 = DEFINITIONAL_REPRESENTATION('',(#169),#173);
#169 = LINE('',#170,#171);
#170 = CARTESIAN_POINT('',(-92.49999981373,1.999999990066));
#171 = VECTOR('',#172,1.);
#172 = DIRECTION('',(1.,0.));
#173 = ( GEOMETRIC_REPRESENTATION_CONTEXT(2) 
PARAMETRIC_REPRESENTATION_CONTEXT() REPRESENTATION_CONTEXT('2D SPACE',''
  ) );
#174 = ORIENTED_EDGE('',*,*,#175,.F.);
#175 = EDGE_CURVE('',#176,#153,#178,.T.);
#176 = VERTEX_POINT('',#177);
#177 = CARTESIAN_POINT('',(-1.993399869704E-04,19.,1.999999970198));
#178 = SURFACE_CURVE('',#179,(#196,#216),.PCURVE_S1.);
#179 = B_SPLINE_CURVE_WITH_KNOTS('',3,(#180,#181,#182,#183,#184,#185,
    #186,#187,#188,#189,#190,#191,#192,#193,#194,#195),.UNSPECIFIED.,.F.
  ,.F.,(4,2,2,2,2,2,2,4),(1.790801908198,1.964818974928,2.138855975421,
    2.225285273565,2.31171457171,2.406354856116,2.500995140522,
    2.591213604045),.UNSPECIFIED.);
#180 = CARTESIAN_POINT('',(-1.993399869706E-04,19.,1.999999970198));
#181 = CARTESIAN_POINT('',(-0.580269914661,19.,1.999999970198));
#182 = CARTESIAN_POINT('',(-1.220072249475,18.990339307398,
    1.999999970198));
#183 = CARTESIAN_POINT('',(-2.474439531157,19.114631353163,
    1.999999970198));
#184 = CARTESIAN_POINT('',(-3.087988672138,19.258616745824,
    1.999999970198));
#185 = CARTESIAN_POINT('',(-3.890061816291,19.591011644076,
    1.999999970198));
#186 = CARTESIAN_POINT('',(-4.171878439113,19.734404710602,
    1.999999970198));
#187 = CARTESIAN_POINT('',(-4.702316257817,20.072860382179,
    1.999999970198));
#188 = CARTESIAN_POINT('',(-4.950893785242,20.26799142087,1.999999970198
    ));
#189 = CARTESIAN_POINT('',(-5.39232807512,20.67960630047,1.999999970198)
  );
#190 = CARTESIAN_POINT('',(-5.622305343421,20.937948255308,
    1.999999970198));
#191 = CARTESIAN_POINT('',(-6.019449164785,21.498984629393,
    1.999999970198));
#192 = CARTESIAN_POINT('',(-6.186589926075,21.801697305557,
    1.999999970198));
#193 = CARTESIAN_POINT('',(-6.4315743958,22.367099734014,1.999999970198)
  );
#194 = CARTESIAN_POINT('',(-6.534374741473,22.679553687755,
    1.999999970198));
#195 = CARTESIAN_POINT('',(-6.60272050457,23.,1.999999970198));
#196 = PCURVE('',#106,#197);
#197 = DEFINITIONAL_REPRESENTATION('',(#198),#215);
#198 = B_SPLINE_CURVE_WITH_KNOTS('',3,(#199,#200,#201,#202,#203,#204,
    #205,#206,#207,#208,#209,#210,#211,#212,#213,#214),.UNSPECIFIED.,.F.
  ,.F.,(4,2,2,2,2,2,2,4),(1.790801908198,1.964818974928,2.138855975421,
    2.225285273565,2.31171457171,2.406354856116,2.500995140522,
    2.591213604045),.UNSPECIFIED.);
#199 = CARTESIAN_POINT('',(80.000198967458,0.));
#200 = CARTESIAN_POINT('',(80.580269542132,-1.989519660128E-13));
#201 = CARTESIAN_POINT('',(81.220071876946,-9.660692602299E-03));
#202 = CARTESIAN_POINT('',(82.474439158628,0.114631353163));
#203 = CARTESIAN_POINT('',(83.087988299609,0.258616745824));
#204 = CARTESIAN_POINT('',(83.890061443762,0.591011644076));
#205 = CARTESIAN_POINT('',(84.171878066584,0.734404710602));
#206 = CARTESIAN_POINT('',(84.702315885288,1.072860382179));
#207 = CARTESIAN_POINT('',(84.950893412713,1.26799142087));
#208 = CARTESIAN_POINT('',(85.392327702591,1.67960630047));
#209 = CARTESIAN_POINT('',(85.622304970892,1.937948255308));
#210 = CARTESIAN_POINT('',(86.019448792256,2.498984629393));
#211 = CARTESIAN_POINT('',(86.186589553546,2.801697305557));
#212 = CARTESIAN_POINT('',(86.431574023271,3.367099734014));
#213 = CARTESIAN_POINT('',(86.534374368944,3.679553687755));
#214 = CARTESIAN_POINT('',(86.602720132041,4.));
#215 = ( GEOMETRIC_REPRESENTATION_CONTEXT(2) 
PARAMETRIC_REPRESENTATION_CONTEXT() REPRESENTATION_CONTEXT('2D SPACE',''
  ) );
#216 = PCURVE('',#217,#263);
#217 = ( BOUNDED_SURFACE() B_SPLINE_SURFACE(2,2,(
    (#218,#219,#220,#221,#222,#223,#224,#225,#226)
    ,(#227,#228,#229,#230,#231,#232,#233,#234,#235)
    ,(#236,#237,#238,#239,#240,#241,#242,#243,#244)
    ,(#245,#246,#247,#248,#249,#250,#251,#252,#253)
    ,(#254,#255,#256,#257,#258,#259,#260,#261,#262
)),.UNSPECIFIED.,.F.,.T.,.F.) B_SPLINE_SURFACE_WITH_KNOTS((3,2,3),(1,2,2
    ,2,2,2,1),(-1.394118950144E-16,0.785398166378,1.570796332755),(
    -4.712388980385,-3.14159265359,-1.570796326795,0.,1.570796326795,
    3.14159265359,4.712388980385),.UNSPECIFIED.) 
GEOMETRIC_REPRESENTATION_ITEM() RATIONAL_B_SPLINE_SURFACE((
    (1.,0.707106781187,1.,0.707106781187,1.,0.707106781187,1.
      ,0.707106781187,1.)
    ,(0.923879531941,0.653281482035,0.923879531941,0.653281482035
      ,0.923879531941,0.653281482035,0.923879531941,0.653281482035
      ,0.923879531941)
    ,(1.,0.707106781187,1.,0.707106781187,1.,0.707106781187,1.
      ,0.707106781187,1.)
    ,(0.923879531941,0.653281482035,0.923879531941,0.653281482035
      ,0.923879531941,0.653281482035,0.923879531941,0.653281482035
      ,0.923879531941)
    ,(1.,0.707106781187,1.,0.707106781187,1.,0.707106781187,1.
,0.707106781187,1.))) REPRESENTATION_ITEM('') SURFACE() );
#218 = CARTESIAN_POINT('',(0.,24.,10.999999940395));
#219 = CARTESIAN_POINT('',(-7.,24.,10.999999940395));
#220 = CARTESIAN_POINT('',(-7.,24.,3.999999940395));
#221 = CARTESIAN_POINT('',(-7.,24.,-3.000000059605));
#222 = CARTESIAN_POINT('',(0.,24.,-3.000000059605));
#223 = CARTESIAN_POINT('',(7.,24.,-3.000000059605));
#224 = CARTESIAN_POINT('',(7.,24.,3.999999940395));
#225 = CARTESIAN_POINT('',(7.,24.,10.999999940395));
#226 = CARTESIAN_POINT('',(0.,24.,10.999999940395));
#227 = CARTESIAN_POINT('',(0.,21.928932179406,10.999999940395));
#228 = CARTESIAN_POINT('',(-7.,21.928932179406,10.999999940395));
#229 = CARTESIAN_POINT('',(-7.,21.928932179406,3.999999940395));
#230 = CARTESIAN_POINT('',(-7.,21.928932179406,-3.000000059605));
#231 = CARTESIAN_POINT('',(0.,21.928932179406,-3.000000059605));
#232 = CARTESIAN_POINT('',(7.,21.928932179406,-3.000000059605));
#233 = CARTESIAN_POINT('',(7.,21.928932179406,3.999999940395));
#234 = CARTESIAN_POINT('',(7.,21.928932179406,10.999999940395));
#235 = CARTESIAN_POINT('',(0.,21.928932179406,10.999999940395));
#236 = CARTESIAN_POINT('',(0.,20.46446608353,9.535533835791));
#237 = CARTESIAN_POINT('',(-5.535533895396,20.46446608353,9.535533835791
    ));
#238 = CARTESIAN_POINT('',(-5.535533895396,20.46446608353,3.999999940395
    ));
#239 = CARTESIAN_POINT('',(-5.535533895396,20.46446608353,
    -1.535533955001));
#240 = CARTESIAN_POINT('',(0.,20.46446608353,-1.535533955001));
#241 = CARTESIAN_POINT('',(5.535533895396,20.46446608353,-1.535533955001
    ));
#242 = CARTESIAN_POINT('',(5.535533895396,20.46446608353,3.999999940395)
  );
#243 = CARTESIAN_POINT('',(5.535533895396,20.46446608353,9.535533835791)
  );
#244 = CARTESIAN_POINT('',(0.,20.46446608353,9.535533835791));
#245 = CARTESIAN_POINT('',(0.,18.999999987655,8.071067731187));
#246 = CARTESIAN_POINT('',(-4.071067790792,18.999999987655,
    8.071067731187));
#247 = CARTESIAN_POINT('',(-4.071067790792,18.999999987655,
    3.999999940395));
#248 = CARTESIAN_POINT('',(-4.071067790792,18.999999987655,
    -7.106785039669E-02));
#249 = CARTESIAN_POINT('',(0.,18.999999987655,-7.106785039669E-02));
#250 = CARTESIAN_POINT('',(4.071067790792,18.999999987655,
    -7.106785039669E-02));
#251 = CARTESIAN_POINT('',(4.071067790792,18.999999987655,3.999999940395
    ));
#252 = CARTESIAN_POINT('',(4.071067790792,18.999999987655,8.071067731187
    ));
#253 = CARTESIAN_POINT('',(0.,18.999999987655,8.071067731187));
#254 = CARTESIAN_POINT('',(0.,19.,5.999999910593));
#255 = CARTESIAN_POINT('',(-1.999999970198,19.,5.999999910593));
#256 = CARTESIAN_POINT('',(-1.999999970198,19.,3.999999940395));
#257 = CARTESIAN_POINT('',(-1.999999970198,19.,1.999999970198));
#258 = CARTESIAN_POINT('',(0.,19.,1.999999970198));
#259 = CARTESIAN_POINT('',(1.999999970198,19.,1.999999970198));
#260 = CARTESIAN_POINT('',(1.999999970198,19.,3.999999940395));
#261 = CARTESIAN_POINT('',(1.999999970198,19.,5.999999910593));
#262 = CARTESIAN_POINT('',(0.,19.,5.999999910593));
#263 = DEFINITIONAL_REPRESENTATION('',(#264),#312);
#264 = B_SPLINE_CURVE_WITH_KNOTS('',3,(#265,#266,#267,#268,#269,#270,
    #271,#272,#273,#274,#275,#276,#277,#278,#279,#280,#281,#282,#283,
    #284,#285,#286,#287,#288,#289,#290,#291,#292,#293,#294,#295,#296,
    #297,#298,#299,#300,#301,#302,#303,#304,#305,#306,#307,#308,#309,
    #310,#311),.UNSPECIFIED.,.F.,.F.,(4,1,1,1,1,1,1,1,1,1,1,1,1,1,1,1,1,
    1,1,1,1,1,1,1,1,1,1,1,1,1,1,1,1,1,1,1,1,1,1,1,1,1,1,1,4),(
    1.790801908198,1.808993083104,1.827184258009,1.845375432915,
    1.86356660782,1.881757782726,1.899948957632,1.918140132537,
    1.936331307443,1.954522482349,1.972713657254,1.99090483216,
    2.009096007065,2.027287181971,2.045478356877,2.063669531782,
    2.081860706688,2.100051881593,2.118243056499,2.136434231405,
    2.15462540631,2.172816581216,2.191007756122,2.209198931027,
    2.227390105933,2.245581280838,2.263772455744,2.28196363065,
    2.300154805555,2.318345980461,2.336537155367,2.354728330272,
    2.372919505178,2.391110680083,2.409301854989,2.427493029895,
    2.4456842048,2.463875379706,2.482066554611,2.500257729517,
    2.518448904423,2.536640079328,2.554831254234,2.57302242914,
    2.591213604045),.QUASI_UNIFORM_KNOTS.);
#265 = CARTESIAN_POINT('',(1.570796332755,-1.107032445772E-04));
#266 = CARTESIAN_POINT('',(1.570806258176,-3.380443607064E-02));
#267 = CARTESIAN_POINT('',(1.569651783337,-0.100579580048));
#268 = CARTESIAN_POINT('',(1.564389946768,-0.19764582668));
#269 = CARTESIAN_POINT('',(1.555539664111,-0.290244541003));
#270 = CARTESIAN_POINT('',(1.543221724352,-0.377395115367));
#271 = CARTESIAN_POINT('',(1.527650439557,-0.458443576074));
#272 = CARTESIAN_POINT('',(1.509119721657,-0.53308134159));
#273 = CARTESIAN_POINT('',(1.487965565552,-0.601286923607));
#274 = CARTESIAN_POINT('',(1.464538162113,-0.663257935922));
#275 = CARTESIAN_POINT('',(1.43917809146,-0.71933822394));
#276 = CARTESIAN_POINT('',(1.412203226203,-0.769957376322));
#277 = CARTESIAN_POINT('',(1.383883902472,-0.815568606557));
#278 = CARTESIAN_POINT('',(1.354472733692,-0.856656960165));
#279 = CARTESIAN_POINT('',(1.324193059353,-0.89367995436));
#280 = CARTESIAN_POINT('',(1.293240673979,-0.927061945233));
#281 = CARTESIAN_POINT('',(1.261787176849,-0.957186967575));
#282 = CARTESIAN_POINT('',(1.229976779138,-0.984401501569));
#283 = CARTESIAN_POINT('',(1.197948767964,-1.009003322));
#284 = CARTESIAN_POINT('',(1.165763529464,-1.031290726111));
#285 = CARTESIAN_POINT('',(1.133687613247,-1.051392190364));
#286 = CARTESIAN_POINT('',(1.101137744011,-1.069917649715));
#287 = CARTESIAN_POINT('',(1.06679895515,-1.087670257469));
#288 = CARTESIAN_POINT('',(1.03134047277,-1.104299214337));
#289 = CARTESIAN_POINT('',(0.994926892012,-1.119799955988));
#290 = CARTESIAN_POINT('',(0.957852793714,-1.134114026518));
#291 = CARTESIAN_POINT('',(0.920369464399,-1.147231055595));
#292 = CARTESIAN_POINT('',(0.882750633716,-1.159195707157));
#293 = CARTESIAN_POINT('',(0.845323105065,-1.170039313205));
#294 = CARTESIAN_POINT('',(0.808277502991,-1.179833052979));
#295 = CARTESIAN_POINT('',(0.772369949603,-1.188491805782));
#296 = CARTESIAN_POINT('',(0.735418321802,-1.196746779168));
#297 = CARTESIAN_POINT('',(0.6976322479,-1.204549576209));
#298 = CARTESIAN_POINT('',(0.659270362137,-1.211859350221));
#299 = CARTESIAN_POINT('',(0.620562985409,-1.218644019418));
#300 = CARTESIAN_POINT('',(0.581728555797,-1.224875350113));
#301 = CARTESIAN_POINT('',(0.542968642973,-1.230536390852));
#302 = CARTESIAN_POINT('',(0.504486122922,-1.235653372768));
#303 = CARTESIAN_POINT('',(0.466526649504,-1.240241409304));
#304 = CARTESIAN_POINT('',(0.429215391755,-1.244325468547));
#305 = CARTESIAN_POINT('',(0.393151951779,-1.247882867513));
#306 = CARTESIAN_POINT('',(0.357180593037,-1.251052583133));
#307 = CARTESIAN_POINT('',(0.319719555815,-1.253979465897));
#308 = CARTESIAN_POINT('',(0.281489488352,-1.256593482533));
#309 = CARTESIAN_POINT('',(0.242591287136,-1.258882985167));
#310 = CARTESIAN_POINT('',(0.216382989551,-1.260174864864));
#311 = CARTESIAN_POINT('',(0.203244829326,-1.260758401788));
#312 = ( GEOMETRIC_REPRESENTATION_CONTEXT(2) 
PARAMETRIC_REPRESENTATION_CONTEXT() REPRESENTATION_CONTEXT('2D SPACE',''
  ) );
#313 = ORIENTED_EDGE('',*,*,#314,.F.);
#314 = EDGE_CURVE('',#315,#176,#317,.T.);
#315 = VERTEX_POINT('',#316);
#316 = CARTESIAN_POINT('',(6.60272050457,23.,1.999999970198));
#317 = SURFACE_CURVE('',#318,(#337,#359),.PCURVE_S1.);
#318 = B_SPLINE_CURVE_WITH_KNOTS('',3,(#319,#320,#321,#322,#323,#324,
    #325,#326,#327,#328,#329,#330,#331,#332,#333,#334,#335,#336),
  .UNSPECIFIED.,.F.,.F.,(4,2,2,2,2,2,2,2,4),(0.990350344824,
    1.080568808347,1.175209092753,1.269849377159,1.356278675304,
    1.442707973448,1.616744973941,1.790781974434,1.790801908198),
  .UNSPECIFIED.);
#319 = CARTESIAN_POINT('',(6.60272050457,23.,1.999999970198));
#320 = CARTESIAN_POINT('',(6.534374741473,22.679553687755,1.999999970198
    ));
#321 = CARTESIAN_POINT('',(6.4315743958,22.367099734014,1.999999970198)
  );
#322 = CARTESIAN_POINT('',(6.186589926075,21.801697305557,1.999999970198
    ));
#323 = CARTESIAN_POINT('',(6.019449164785,21.498984629393,1.999999970198
    ));
#324 = CARTESIAN_POINT('',(5.622305343421,20.937948255308,1.999999970198
    ));
#325 = CARTESIAN_POINT('',(5.39232807512,20.67960630047,1.999999970198)
  );
#326 = CARTESIAN_POINT('',(4.950893785242,20.26799142087,1.999999970198)
  );
#327 = CARTESIAN_POINT('',(4.702316257817,20.072860382179,1.999999970198
    ));
#328 = CARTESIAN_POINT('',(4.171878439113,19.734404710602,1.999999970198
    ));
#329 = CARTESIAN_POINT('',(3.890061816291,19.591011644076,1.999999970198
    ));
#330 = CARTESIAN_POINT('',(3.087988672138,19.258616745824,1.999999970198
    ));
#331 = CARTESIAN_POINT('',(2.474439531157,19.114631353163,1.999999970198
    ));
#332 = CARTESIAN_POINT('',(1.220000409313,18.99033218894,1.999999970198)
  );
#333 = CARTESIAN_POINT('',(0.580123334977,19.,1.999999970198));
#334 = CARTESIAN_POINT('',(-6.644587846008E-05,19.,1.999999970198));
#335 = CARTESIAN_POINT('',(-1.328925408192E-04,19.,1.999999970198));
#336 = CARTESIAN_POINT('',(-1.993399869704E-04,19.,1.999999970198));
#337 = PCURVE('',#106,#338);
#338 = DEFINITIONAL_REPRESENTATION('',(#339),#358);
#339 = B_SPLINE_CURVE_WITH_KNOTS('',3,(#340,#341,#342,#343,#344,#345,
    #346,#347,#348,#349,#350,#351,#352,#353,#354,#355,#356,#357),
  .UNSPECIFIED.,.F.,.F.,(4,2,2,2,2,2,2,2,4),(0.990350344824,
    1.080568808347,1.175209092753,1.269849377159,1.356278675304,
    1.442707973448,1.616744973941,1.790781974434,1.790801908198),
  .UNSPECIFIED.);
#340 = CARTESIAN_POINT('',(73.397279122901,4.));
#341 = CARTESIAN_POINT('',(73.465624885998,3.679553687755));
#342 = CARTESIAN_POINT('',(73.568425231671,3.367099734014));
#343 = CARTESIAN_POINT('',(73.813409701396,2.801697305557));
#344 = CARTESIAN_POINT('',(73.980550462686,2.498984629393));
#345 = CARTESIAN_POINT('',(74.37769428405,1.937948255308));
#346 = CARTESIAN_POINT('',(74.607671552351,1.67960630047));
#347 = CARTESIAN_POINT('',(75.049105842229,1.26799142087));
#348 = CARTESIAN_POINT('',(75.297683369654,1.072860382179));
#349 = CARTESIAN_POINT('',(75.828121188358,0.734404710602));
#350 = CARTESIAN_POINT('',(76.10993781118,0.591011644076));
#351 = CARTESIAN_POINT('',(76.912010955333,0.258616745824));
#352 = CARTESIAN_POINT('',(77.525560096314,0.114631353163));
#353 = CARTESIAN_POINT('',(78.779999218158,-9.667811060201E-03));
#354 = CARTESIAN_POINT('',(79.419876292494,0.));
#355 = CARTESIAN_POINT('',(80.000066073349,0.));
#356 = CARTESIAN_POINT('',(80.000132520012,0.));
#357 = CARTESIAN_POINT('',(80.000198967458,0.));
#358 = ( GEOMETRIC_REPRESENTATION_CONTEXT(2) 
PARAMETRIC_REPRESENTATION_CONTEXT() REPRESENTATION_CONTEXT('2D SPACE',''
  ) );
#359 = PCURVE('',#217,#360);
#360 = DEFINITIONAL_REPRESENTATION('',(#361),#409);
#361 = B_SPLINE_CURVE_WITH_KNOTS('',3,(#362,#363,#364,#365,#366,#367,
    #368,#369,#370,#371,#372,#373,#374,#375,#376,#377,#378,#379,#380,
    #381,#382,#383,#384,#385,#386,#387,#388,#389,#390,#391,#392,#393,
    #394,#395,#396,#397,#398,#399,#400,#401,#402,#403,#404,#405,#406,
    #407,#408),.UNSPECIFIED.,.F.,.F.,(4,1,1,1,1,1,1,1,1,1,1,1,1,1,1,1,1,
    1,1,1,1,1,1,1,1,1,1,1,1,1,1,1,1,1,1,1,1,1,1,1,1,1,1,1,4),(
    0.990350344824,1.00854242581,1.026734506795,1.044926587781,
    1.063118668767,1.081310749753,1.099502830738,1.117694911724,
    1.13588699271,1.154079073696,1.172271154682,1.190463235667,
    1.208655316653,1.226847397639,1.245039478625,1.26323155961,
    1.281423640596,1.299615721582,1.317807802568,1.335999883554,
    1.354191964539,1.372384045525,1.390576126511,1.408768207497,
    1.426960288482,1.445152369468,1.463344450454,1.48153653144,
    1.499728612426,1.517920693411,1.536112774397,1.554304855383,
    1.572496936369,1.590689017354,1.60888109834,1.627073179326,
    1.645265260312,1.663457341298,1.681649422283,1.699841503269,
    1.718033584255,1.736225665241,1.754417746226,1.772609827212,
    1.790801908198),.QUASI_UNIFORM_KNOTS.);
#362 = CARTESIAN_POINT('',(0.203244829326,1.260758401788));
#363 = CARTESIAN_POINT('',(0.216383643826,1.260174835797));
#364 = CARTESIAN_POINT('',(0.242593242677,1.258882885616));
#365 = CARTESIAN_POINT('',(0.281493348474,1.256593242936));
#366 = CARTESIAN_POINT('',(0.319725214592,1.25397905796));
#367 = CARTESIAN_POINT('',(0.357188001944,1.251051973076));
#368 = CARTESIAN_POINT('',(0.393160680132,1.247882059315));
#369 = CARTESIAN_POINT('',(0.429226417723,1.244324329464));
#370 = CARTESIAN_POINT('',(0.466539753801,1.240239908484));
#371 = CARTESIAN_POINT('',(0.504501364678,1.235651448478));
#372 = CARTESIAN_POINT('',(0.542985965982,1.230533985882));
#373 = CARTESIAN_POINT('',(0.581747896409,1.224872399078));
#374 = CARTESIAN_POINT('',(0.620584247331,1.218640460142));
#375 = CARTESIAN_POINT('',(0.659293427883,1.211855142537));
#376 = CARTESIAN_POINT('',(0.697656917638,1.204544693018));
#377 = CARTESIAN_POINT('',(0.735444494084,1.196741162237));
#378 = CARTESIAN_POINT('',(0.772396950399,1.188485563354));
#379 = CARTESIAN_POINT('',(0.808306584518,1.179825730287));
#380 = CARTESIAN_POINT('',(0.845354675117,1.17003059669));
#381 = CARTESIAN_POINT('',(0.882784317317,1.159185506963));
#382 = CARTESIAN_POINT('',(0.920405049361,1.147219213063));
#383 = CARTESIAN_POINT('',(0.957889981146,1.13410038669));
#384 = CARTESIAN_POINT('',(0.994965378117,1.119784377727));
#385 = CARTESIAN_POINT('',(1.031379928056,1.104281611435));
#386 = CARTESIAN_POINT('',(1.066838958479,1.087650595387));
#387 = CARTESIAN_POINT('',(1.101177983396,1.069895835822));
#388 = CARTESIAN_POINT('',(1.133727175058,1.051368607226));
#389 = CARTESIAN_POINT('',(1.165805343989,1.031263252094));
#390 = CARTESIAN_POINT('',(1.197991919644,1.008971915119));
#391 = CARTESIAN_POINT('',(1.23002133946,0.984365468325));
#392 = CARTESIAN_POINT('',(1.26183290246,0.957145680919));
#393 = CARTESIAN_POINT('',(1.293287347649,0.92701463769));
#394 = CARTESIAN_POINT('',(1.324240389891,0.893625759625));
#395 = CARTESIAN_POINT('',(1.354520372536,0.856594889772));
#396 = CARTESIAN_POINT('',(1.383931430295,0.815497552111));
#397 = CARTESIAN_POINT('',(1.412250139893,0.769876105096));
#398 = CARTESIAN_POINT('',(1.439223820113,0.719245431044));
#399 = CARTESIAN_POINT('',(1.464582034288,0.663152304002));
#400 = CARTESIAN_POINT('',(1.488006792899,0.601167151099));
#401 = CARTESIAN_POINT('',(1.509157434381,0.532946287517));
#402 = CARTESIAN_POINT('',(1.527683716423,0.458292407716));
#403 = CARTESIAN_POINT('',(1.543249647242,0.377227492726));
#404 = CARTESIAN_POINT('',(1.555561388323,0.290060798954));
#405 = CARTESIAN_POINT('',(1.56440478302,0.197447104869));
#406 = CARTESIAN_POINT('',(1.569659272254,0.100367878155));
#407 = CARTESIAN_POINT('',(1.570808741423,3.358588139137E-02));
#408 = CARTESIAN_POINT('',(1.570796332755,-1.107032445771E-04));
#409 = ( GEOMETRIC_REPRESENTATION_CONTEXT(2) 
PARAMETRIC_REPRESENTATION_CONTEXT() REPRESENTATION_CONTEXT('2D SPACE',''
  ) );
#410 = ORIENTED_EDGE('',*,*,#411,.F.);
#411 = EDGE_CURVE('',#412,#315,#414,.T.);
#412 = VERTEX_POINT('',#413);
#413 = CARTESIAN_POINT('',(79.999999627471,23.,1.999999970198));
#414 = SURFACE_CURVE('',#415,(#419,#426),.PCURVE_S1.);
#415 = LINE('',#416,#417);
#416 = CARTESIAN_POINT('',(79.999999627471,23.,1.999999970198));
#417 = VECTOR('',#418,1.);
#418 = DIRECTION('',(-1.,0.,0.));
#419 = PCURVE('',#106,#420);
#420 = DEFINITIONAL_REPRESENTATION('',(#421),#425);
#421 = LINE('',#422,#423);
#422 = CARTESIAN_POINT('',(0.,4.));
#423 = VECTOR('',#424,1.);
#424 = DIRECTION('',(1.,0.));
#425 = ( GEOMETRIC_REPRESENTATION_CONTEXT(2) 
PARAMETRIC_REPRESENTATION_CONTEXT() REPRESENTATION_CONTEXT('2D SPACE',''
  ) );
#426 = PCURVE('',#427,#432);
#427 = PLANE('',#428);
#428 = AXIS2_PLACEMENT_3D('',#429,#430,#431);
#429 = CARTESIAN_POINT('',(39.999900143742,23.,3.999999955297));
#430 = DIRECTION('',(0.,-1.,-9.95799250103E-17));
#431 = DIRECTION('',(-1.,-0.,0.));
#432 = DEFINITIONAL_REPRESENTATION('',(#433),#437);
#433 = LINE('',#434,#435);
#434 = CARTESIAN_POINT('',(-40.00009948372,1.999999985099));
#435 = VECTOR('',#436,1.);
#436 = DIRECTION('',(1.,0.));
#437 = ( GEOMETRIC_REPRESENTATION_CONTEXT(2) 
PARAMETRIC_REPRESENTATION_CONTEXT() REPRESENTATION_CONTEXT('2D SPACE',''
  ) );
#438 = ORIENTED_EDGE('',*,*,#439,.F.);
#439 = EDGE_CURVE('',#440,#412,#442,.T.);
#440 = VERTEX_POINT('',#441);
#441 = CARTESIAN_POINT('',(79.999999627471,11.,1.999999970198));
#442 = SURFACE_CURVE('',#443,(#447,#454),.PCURVE_S1.);
#443 = LINE('',#444,#445);
#444 = CARTESIAN_POINT('',(79.999999627471,19.,1.999999970198));
#445 = VECTOR('',#446,1.);
#446 = DIRECTION('',(0.,1.,8.570213720248E-17));
#447 = PCURVE('',#106,#448);
#448 = DEFINITIONAL_REPRESENTATION('',(#449),#453);
#449 = LINE('',#450,#451);
#450 = CARTESIAN_POINT('',(0.,0.));
#451 = VECTOR('',#452,1.);
#452 = DIRECTION('',(0.,1.));
#453 = ( GEOMETRIC_REPRESENTATION_CONTEXT(2) 
PARAMETRIC_REPRESENTATION_CONTEXT() REPRESENTATION_CONTEXT('2D SPACE',''
  ) );
#454 = PCURVE('',#455,#460);
#455 = PLANE('',#456);
#456 = AXIS2_PLACEMENT_3D('',#457,#458,#459);
#457 = CARTESIAN_POINT('',(79.999999627471,19.,5.999999970198));
#458 = DIRECTION('',(1.,0.,0.));
#459 = DIRECTION('',(0.,9.95799250103E-17,-1.));
#460 = DEFINITIONAL_REPRESENTATION('',(#461),#465);
#461 = LINE('',#462,#463);
#462 = CARTESIAN_POINT('',(4.,-3.983197000412E-16));
#463 = VECTOR('',#464,1.);
#464 = DIRECTION('',(1.387778780781E-17,1.));
#465 = ( GEOMETRIC_REPRESENTATION_CONTEXT(2) 
PARAMETRIC_REPRESENTATION_CONTEXT() REPRESENTATION_CONTEXT('2D SPACE',''
  ) );
#466 = ORIENTED_EDGE('',*,*,#467,.F.);
#467 = EDGE_CURVE('',#90,#440,#468,.T.);
#468 = SURFACE_CURVE('',#469,(#473,#480),.PCURVE_S1.);
#469 = LINE('',#470,#471);
#470 = CARTESIAN_POINT('',(79.999999627471,11.,1.999999970198));
#471 = VECTOR('',#472,1.);
#472 = DIRECTION('',(1.,0.,0.));
#473 = PCURVE('',#106,#474);
#474 = DEFINITIONAL_REPRESENTATION('',(#475),#479);
#475 = LINE('',#476,#477);
#476 = CARTESIAN_POINT('',(-0.,-8.));
#477 = VECTOR('',#478,1.);
#478 = DIRECTION('',(-1.,0.));
#479 = ( GEOMETRIC_REPRESENTATION_CONTEXT(2) 
PARAMETRIC_REPRESENTATION_CONTEXT() REPRESENTATION_CONTEXT('2D SPACE',''
  ) );
#480 = PCURVE('',#136,#481);
#481 = DEFINITIONAL_REPRESENTATION('',(#482),#486);
#482 = LINE('',#483,#484);
#483 = CARTESIAN_POINT('',(1.999999970198,79.999999627471));
#484 = VECTOR('',#485,1.);
#485 = DIRECTION('',(0.,1.));
#486 = ( GEOMETRIC_REPRESENTATION_CONTEXT(2) 
PARAMETRIC_REPRESENTATION_CONTEXT() REPRESENTATION_CONTEXT('2D SPACE',''
  ) );
#487 = ADVANCED_FACE('',(#488),#77,.F.);
#488 = FACE_BOUND('',#489,.T.);
#489 = EDGE_LOOP('',(#490,#491,#514,#562));
#490 = ORIENTED_EDGE('',*,*,#61,.F.);
#491 = ORIENTED_EDGE('',*,*,#492,.T.);
#492 = EDGE_CURVE('',#24,#493,#495,.T.);
#493 = VERTEX_POINT('',#494);
#494 = CARTESIAN_POINT('',(-6.602720486516,23.,5.999999970198));
#495 = SURFACE_CURVE('',#496,(#500,#507),.PCURVE_S1.);
#496 = LINE('',#497,#498);
#497 = CARTESIAN_POINT('',(-25.00000037252,23.,5.999999970198));
#498 = VECTOR('',#499,1.);
#499 = DIRECTION('',(1.,0.,0.));
#500 = PCURVE('',#77,#501);
#501 = DEFINITIONAL_REPRESENTATION('',(#502),#506);
#502 = LINE('',#503,#504);
#503 = CARTESIAN_POINT('',(12.500000186265,-2.000000009934));
#504 = VECTOR('',#505,1.);
#505 = DIRECTION('',(-1.,0.));
#506 = ( GEOMETRIC_REPRESENTATION_CONTEXT(2) 
PARAMETRIC_REPRESENTATION_CONTEXT() REPRESENTATION_CONTEXT('2D SPACE',''
  ) );
#507 = PCURVE('',#45,#508);
#508 = DEFINITIONAL_REPRESENTATION('',(#509),#513);
#509 = LINE('',#510,#511);
#510 = CARTESIAN_POINT('',(-25.00000037252,4.));
#511 = VECTOR('',#512,1.);
#512 = DIRECTION('',(1.,0.));
#513 = ( GEOMETRIC_REPRESENTATION_CONTEXT(2) 
PARAMETRIC_REPRESENTATION_CONTEXT() REPRESENTATION_CONTEXT('2D SPACE',''
  ) );
#514 = ORIENTED_EDGE('',*,*,#515,.F.);
#515 = EDGE_CURVE('',#153,#493,#516,.T.);
#516 = SURFACE_CURVE('',#517,(#522,#533),.PCURVE_S1.);
#517 = CIRCLE('',#518,6.898979485566);
#518 = AXIS2_PLACEMENT_3D('',#519,#520,#521);
#519 = CARTESIAN_POINT('',(0.,23.,3.999999940395));
#520 = DIRECTION('',(0.,1.,9.95799250103E-17));
#521 = DIRECTION('',(0.,9.95799250103E-17,-1.));
#522 = PCURVE('',#77,#523);
#523 = DEFINITIONAL_REPRESENTATION('',(#524),#532);
#524 = ( BOUNDED_CURVE() B_SPLINE_CURVE(2,(#525,#526,#527,#528,#529,#530
,#531),.UNSPECIFIED.,.T.,.F.) B_SPLINE_CURVE_WITH_KNOTS((1,2,2,2,2,1),(
    -2.094395102393,0.,2.094395102393,4.188790204786,6.28318530718,
8.377580409573),.UNSPECIFIED.) CURVE() GEOMETRIC_REPRESENTATION_ITEM() 
RATIONAL_B_SPLINE_CURVE((1.,0.5,1.,0.5,1.,0.5,1.)) REPRESENTATION_ITEM(
  '') );
#525 = CARTESIAN_POINT('',(-12.50000018626,6.898979505435));
#526 = CARTESIAN_POINT('',(-0.550617196888,6.898979505435));
#527 = CARTESIAN_POINT('',(-6.525308691576,-3.449489722915));
#528 = CARTESIAN_POINT('',(-12.50000018626,-13.79795895126));
#529 = CARTESIAN_POINT('',(-18.47469168095,-3.449489722915));
#530 = CARTESIAN_POINT('',(-24.44938317564,6.898979505435));
#531 = CARTESIAN_POINT('',(-12.50000018626,6.898979505435));
#532 = ( GEOMETRIC_REPRESENTATION_CONTEXT(2) 
PARAMETRIC_REPRESENTATION_CONTEXT() REPRESENTATION_CONTEXT('2D SPACE',''
  ) );
#533 = PCURVE('',#217,#534);
#534 = DEFINITIONAL_REPRESENTATION('',(#535),#561);
#535 = B_SPLINE_CURVE_WITH_KNOTS('',3,(#536,#537,#538,#539,#540,#541,
    #542,#543,#544,#545,#546,#547,#548,#549,#550,#551,#552,#553,#554,
    #555,#556,#557,#558,#559,#560),.UNSPECIFIED.,.F.,.F.,(4,1,1,1,1,1,1,
    1,1,1,1,1,1,1,1,1,1,1,1,1,1,1,4),(1.276676125695,1.303414326205,
    1.330152526716,1.356890727226,1.383628927736,1.410367128247,
    1.437105328757,1.463843529267,1.490581729778,1.517319930288,
    1.544058130798,1.570796331309,1.597534531819,1.624272732329,
    1.65101093284,1.67774913335,1.70448733386,1.73122553437,
    1.757963734881,1.784701935391,1.811440135901,1.838178336412,
    1.864916536922),.QUASI_UNIFORM_KNOTS.);
#536 = CARTESIAN_POINT('',(0.203244829326,-1.260758401788));
#537 = CARTESIAN_POINT('',(0.203244829326,-1.269739310054));
#538 = CARTESIAN_POINT('',(0.203244829326,-1.287761231398));
#539 = CARTESIAN_POINT('',(0.203244829326,-1.314986355879));
#540 = CARTESIAN_POINT('',(0.203244829326,-1.342415528844));
#541 = CARTESIAN_POINT('',(0.203244829326,-1.370060983328));
#542 = CARTESIAN_POINT('',(0.203244829326,-1.397935323307));
#543 = CARTESIAN_POINT('',(0.203244829326,-1.426051339294));
#544 = CARTESIAN_POINT('',(0.203244829326,-1.454422949795));
#545 = CARTESIAN_POINT('',(0.203244829326,-1.483061775793));
#546 = CARTESIAN_POINT('',(0.203244829326,-1.511990066105));
#547 = CARTESIAN_POINT('',(0.203244829326,-1.54119259576));
#548 = CARTESIAN_POINT('',(0.203244829326,-1.57079633184));
#549 = CARTESIAN_POINT('',(0.203244829326,-1.60040006773));
#550 = CARTESIAN_POINT('',(0.203244829326,-1.629602597303));
#551 = CARTESIAN_POINT('',(0.203244829326,-1.658530887512));
#552 = CARTESIAN_POINT('',(0.203244829326,-1.687169713418));
#553 = CARTESIAN_POINT('',(0.203244829326,-1.715541323831));
#554 = CARTESIAN_POINT('',(0.203244829326,-1.743657339733));
#555 = CARTESIAN_POINT('',(0.203244829326,-1.771531679633));
#556 = CARTESIAN_POINT('',(0.203244829326,-1.799177134043));
#557 = CARTESIAN_POINT('',(0.203244829326,-1.826606306936));
#558 = CARTESIAN_POINT('',(0.203244829326,-1.85383143135));
#559 = CARTESIAN_POINT('',(0.203244829326,-1.871853352653));
#560 = CARTESIAN_POINT('',(0.203244829326,-1.880834260898));
#561 = ( GEOMETRIC_REPRESENTATION_CONTEXT(2) 
PARAMETRIC_REPRESENTATION_CONTEXT() REPRESENTATION_CONTEXT('2D SPACE',''
  ) );
#562 = ORIENTED_EDGE('',*,*,#152,.T.);
#563 = ADVANCED_FACE('',(#564),#578,.F.);
#564 = FACE_BOUND('',#565,.F.);
#565 = EDGE_LOOP('',(#566,#596,#623,#624));
#566 = ORIENTED_EDGE('',*,*,#567,.T.);
#567 = EDGE_CURVE('',#568,#570,#572,.T.);
#568 = VERTEX_POINT('',#569);
#569 = CARTESIAN_POINT('',(-6.123233995737E-16,34.,8.999999940395));
#570 = VERTEX_POINT('',#571);
#571 = CARTESIAN_POINT('',(-6.123233995737E-16,25.,8.999999940395));
#572 = SEAM_CURVE('',#573,(#577,#589),.PCURVE_S1.);
#573 = LINE('',#574,#575);
#574 = CARTESIAN_POINT('',(-6.123233995737E-16,29.5,8.999999940395));
#575 = VECTOR('',#576,1.);
#576 = DIRECTION('',(0.,-1.,-9.95799250103E-17));
#577 = PCURVE('',#578,#583);
#578 = CYLINDRICAL_SURFACE('',#579,5.);
#579 = AXIS2_PLACEMENT_3D('',#580,#581,#582);
#580 = CARTESIAN_POINT('',(0.,29.5,3.999999940395));
#581 = DIRECTION('',(0.,-1.,-9.95799250103E-17));
#582 = DIRECTION('',(0.,9.95799250103E-17,-1.));
#583 = DEFINITIONAL_REPRESENTATION('',(#584),#588);
#584 = LINE('',#585,#586);
#585 = CARTESIAN_POINT('',(9.424777960769,0.));
#586 = VECTOR('',#587,1.);
#587 = DIRECTION('',(0.,1.));
#588 = ( GEOMETRIC_REPRESENTATION_CONTEXT(2) 
PARAMETRIC_REPRESENTATION_CONTEXT() REPRESENTATION_CONTEXT('2D SPACE',''
  ) );
#589 = PCURVE('',#578,#590);
#590 = DEFINITIONAL_REPRESENTATION('',(#591),#595);
#591 = LINE('',#592,#593);
#592 = CARTESIAN_POINT('',(3.14159265359,0.));
#593 = VECTOR('',#594,1.);
#594 = DIRECTION('',(0.,1.));
#595 = ( GEOMETRIC_REPRESENTATION_CONTEXT(2) 
PARAMETRIC_REPRESENTATION_CONTEXT() REPRESENTATION_CONTEXT('2D SPACE',''
  ) );
#596 = ORIENTED_EDGE('',*,*,#597,.F.);
#597 = EDGE_CURVE('',#570,#570,#598,.T.);
#598 = SURFACE_CURVE('',#599,(#604,#611),.PCURVE_S1.);
#599 = CIRCLE('',#600,5.);
#600 = AXIS2_PLACEMENT_3D('',#601,#602,#603);
#601 = CARTESIAN_POINT('',(0.,25.,3.999999940395));
#602 = DIRECTION('',(0.,-1.,-9.95799250103E-17));
#603 = DIRECTION('',(0.,9.95799250103E-17,-1.));
#604 = PCURVE('',#578,#605);
#605 = DEFINITIONAL_REPRESENTATION('',(#606),#610);
#606 = LINE('',#607,#608);
#607 = CARTESIAN_POINT('',(0.,4.5));
#608 = VECTOR('',#609,1.);
#609 = DIRECTION('',(1.,0.));
#610 = ( GEOMETRIC_REPRESENTATION_CONTEXT(2) 
PARAMETRIC_REPRESENTATION_CONTEXT() REPRESENTATION_CONTEXT('2D SPACE',''
  ) );
#611 = PCURVE('',#612,#617);
#612 = PLANE('',#613);
#613 = AXIS2_PLACEMENT_3D('',#614,#615,#616);
#614 = CARTESIAN_POINT('',(0.,25.,3.999999940395));
#615 = DIRECTION('',(0.,-1.,-9.95799250103E-17));
#616 = DIRECTION('',(0.,9.95799250103E-17,-1.));
#617 = DEFINITIONAL_REPRESENTATION('',(#618),#622);
#618 = CIRCLE('',#619,5.);
#619 = AXIS2_PLACEMENT_2D('',#620,#621);
#620 = CARTESIAN_POINT('',(0.,0.));
#621 = DIRECTION('',(1.,0.));
#622 = ( GEOMETRIC_REPRESENTATION_CONTEXT(2) 
PARAMETRIC_REPRESENTATION_CONTEXT() REPRESENTATION_CONTEXT('2D SPACE',''
  ) );
#623 = ORIENTED_EDGE('',*,*,#567,.F.);
#624 = ORIENTED_EDGE('',*,*,#625,.T.);
#625 = EDGE_CURVE('',#568,#568,#626,.T.);
#626 = SURFACE_CURVE('',#627,(#632,#639),.PCURVE_S1.);
#627 = CIRCLE('',#628,5.);
#628 = AXIS2_PLACEMENT_3D('',#629,#630,#631);
#629 = CARTESIAN_POINT('',(0.,34.,3.999999940395));
#630 = DIRECTION('',(0.,-1.,-9.95799250103E-17));
#631 = DIRECTION('',(0.,9.95799250103E-17,-1.));
#632 = PCURVE('',#578,#633);
#633 = DEFINITIONAL_REPRESENTATION('',(#634),#638);
#634 = LINE('',#635,#636);
#635 = CARTESIAN_POINT('',(0.,-4.5));
#636 = VECTOR('',#637,1.);
#637 = DIRECTION('',(1.,0.));
#638 = ( GEOMETRIC_REPRESENTATION_CONTEXT(2) 
PARAMETRIC_REPRESENTATION_CONTEXT() REPRESENTATION_CONTEXT('2D SPACE',''
  ) );
#639 = PCURVE('',#640,#645);
#640 = PLANE('',#641);
#641 = AXIS2_PLACEMENT_3D('',#642,#643,#644);
#642 = CARTESIAN_POINT('',(0.,34.,3.999999940395));
#643 = DIRECTION('',(0.,1.,9.95799250103E-17));
#644 = DIRECTION('',(-1.,0.,0.));
#645 = DEFINITIONAL_REPRESENTATION('',(#646),#654);
#646 = ( BOUNDED_CURVE() B_SPLINE_CURVE(2,(#647,#648,#649,#650,#651,#652
,#653),.UNSPECIFIED.,.T.,.F.) B_SPLINE_CURVE_WITH_KNOTS((1,2,2,2,2,1),(
    -2.094395102393,0.,2.094395102393,4.188790204786,6.28318530718,
8.377580409573),.UNSPECIFIED.) CURVE() GEOMETRIC_REPRESENTATION_ITEM() 
RATIONAL_B_SPLINE_CURVE((1.,0.5,1.,0.5,1.,0.5,1.)) REPRESENTATION_ITEM(
  '') );
#647 = CARTESIAN_POINT('',(0.,-5.));
#648 = CARTESIAN_POINT('',(-8.660254037844,-5.));
#649 = CARTESIAN_POINT('',(-4.330127018922,2.5));
#650 = CARTESIAN_POINT('',(-1.224646799147E-15,10.));
#651 = CARTESIAN_POINT('',(4.330127018922,2.5));
#652 = CARTESIAN_POINT('',(8.660254037844,-5.));
#653 = CARTESIAN_POINT('',(0.,-5.));
#654 = ( GEOMETRIC_REPRESENTATION_CONTEXT(2) 
PARAMETRIC_REPRESENTATION_CONTEXT() REPRESENTATION_CONTEXT('2D SPACE',''
  ) );
#655 = ADVANCED_FACE('',(#656),#612,.F.);
#656 = FACE_BOUND('',#657,.T.);
#657 = EDGE_LOOP('',(#658));
#658 = ORIENTED_EDGE('',*,*,#597,.F.);
#659 = ADVANCED_FACE('',(#660),#136,.T.);
#660 = FACE_BOUND('',#661,.T.);
#661 = EDGE_LOOP('',(#662,#685,#686,#687));
#662 = ORIENTED_EDGE('',*,*,#663,.T.);
#663 = EDGE_CURVE('',#664,#22,#666,.T.);
#664 = VERTEX_POINT('',#665);
#665 = CARTESIAN_POINT('',(79.999999627471,11.,5.999999970198));
#666 = SURFACE_CURVE('',#667,(#671,#678),.PCURVE_S1.);
#667 = LINE('',#668,#669);
#668 = CARTESIAN_POINT('',(-25.00000037252,11.,5.999999970198));
#669 = VECTOR('',#670,1.);
#670 = DIRECTION('',(-1.,0.,0.));
#671 = PCURVE('',#136,#672);
#672 = DEFINITIONAL_REPRESENTATION('',(#673),#677);
#673 = LINE('',#674,#675);
#674 = CARTESIAN_POINT('',(-2.000000029802,-25.00000037252));
#675 = VECTOR('',#676,1.);
#676 = DIRECTION('',(0.,-1.));
#677 = ( GEOMETRIC_REPRESENTATION_CONTEXT(2) 
PARAMETRIC_REPRESENTATION_CONTEXT() REPRESENTATION_CONTEXT('2D SPACE',''
  ) );
#678 = PCURVE('',#45,#679);
#679 = DEFINITIONAL_REPRESENTATION('',(#680),#684);
#680 = LINE('',#681,#682);
#681 = CARTESIAN_POINT('',(-25.00000037252,-8.));
#682 = VECTOR('',#683,1.);
#683 = DIRECTION('',(-1.,0.));
#684 = ( GEOMETRIC_REPRESENTATION_CONTEXT(2) 
PARAMETRIC_REPRESENTATION_CONTEXT() REPRESENTATION_CONTEXT('2D SPACE',''
  ) );
#685 = ORIENTED_EDGE('',*,*,#122,.T.);
#686 = ORIENTED_EDGE('',*,*,#467,.T.);
#687 = ORIENTED_EDGE('',*,*,#688,.T.);
#688 = EDGE_CURVE('',#440,#664,#689,.T.);
#689 = SURFACE_CURVE('',#690,(#694,#701),.PCURVE_S1.);
#690 = LINE('',#691,#692);
#691 = CARTESIAN_POINT('',(79.999999627471,11.,5.999999970198));
#692 = VECTOR('',#693,1.);
#693 = DIRECTION('',(0.,-9.95799250103E-17,1.));
#694 = PCURVE('',#136,#695);
#695 = DEFINITIONAL_REPRESENTATION('',(#696),#700);
#696 = LINE('',#697,#698);
#697 = CARTESIAN_POINT('',(-2.000000029802,79.999999627471));
#698 = VECTOR('',#699,1.);
#699 = DIRECTION('',(-1.,0.));
#700 = ( GEOMETRIC_REPRESENTATION_CONTEXT(2) 
PARAMETRIC_REPRESENTATION_CONTEXT() REPRESENTATION_CONTEXT('2D SPACE',''
  ) );
#701 = PCURVE('',#455,#702);
#702 = DEFINITIONAL_REPRESENTATION('',(#703),#707);
#703 = LINE('',#704,#705);
#704 = CARTESIAN_POINT('',(-7.966394000824E-16,-8.));
#705 = VECTOR('',#706,1.);
#706 = DIRECTION('',(-1.,0.));
#707 = ( GEOMETRIC_REPRESENTATION_CONTEXT(2) 
PARAMETRIC_REPRESENTATION_CONTEXT() REPRESENTATION_CONTEXT('2D SPACE',''
  ) );
#708 = ADVANCED_FACE('',(#709),#45,.T.);
#709 = FACE_BOUND('',#710,.T.);
#710 = EDGE_LOOP('',(#711,#712,#713,#736,#759,#852,#943));
#711 = ORIENTED_EDGE('',*,*,#21,.F.);
#712 = ORIENTED_EDGE('',*,*,#663,.F.);
#713 = ORIENTED_EDGE('',*,*,#714,.F.);
#714 = EDGE_CURVE('',#715,#664,#717,.T.);
#715 = VERTEX_POINT('',#716);
#716 = CARTESIAN_POINT('',(79.999999627471,23.,5.999999970198));
#717 = SURFACE_CURVE('',#718,(#722,#729),.PCURVE_S1.);
#718 = LINE('',#719,#720);
#719 = CARTESIAN_POINT('',(79.999999627471,19.,5.999999970198));
#720 = VECTOR('',#721,1.);
#721 = DIRECTION('',(0.,-1.,-8.570213720248E-17));
#722 = PCURVE('',#45,#723);
#723 = DEFINITIONAL_REPRESENTATION('',(#724),#728);
#724 = LINE('',#725,#726);
#725 = CARTESIAN_POINT('',(79.999999627471,0.));
#726 = VECTOR('',#727,1.);
#727 = DIRECTION('',(0.,-1.));
#728 = ( GEOMETRIC_REPRESENTATION_CONTEXT(2) 
PARAMETRIC_REPRESENTATION_CONTEXT() REPRESENTATION_CONTEXT('2D SPACE',''
  ) );
#729 = PCURVE('',#455,#730);
#730 = DEFINITIONAL_REPRESENTATION('',(#731),#735);
#731 = LINE('',#732,#733);
#732 = CARTESIAN_POINT('',(0.,0.));
#733 = VECTOR('',#734,1.);
#734 = DIRECTION('',(-1.387778780781E-17,-1.));
#735 = ( GEOMETRIC_REPRESENTATION_CONTEXT(2) 
PARAMETRIC_REPRESENTATION_CONTEXT() REPRESENTATION_CONTEXT('2D SPACE',''
  ) );
#736 = ORIENTED_EDGE('',*,*,#737,.F.);
#737 = EDGE_CURVE('',#738,#715,#740,.T.);
#738 = VERTEX_POINT('',#739);
#739 = CARTESIAN_POINT('',(6.602720486516,23.,5.999999970198));
#740 = SURFACE_CURVE('',#741,(#745,#752),.PCURVE_S1.);
#741 = LINE('',#742,#743);
#742 = CARTESIAN_POINT('',(-25.00000037252,23.,5.999999970198));
#743 = VECTOR('',#744,1.);
#744 = DIRECTION('',(1.,0.,0.));
#745 = PCURVE('',#45,#746);
#746 = DEFINITIONAL_REPRESENTATION('',(#747),#751);
#747 = LINE('',#748,#749);
#748 = CARTESIAN_POINT('',(-25.00000037252,4.));
#749 = VECTOR('',#750,1.);
#750 = DIRECTION('',(1.,0.));
#751 = ( GEOMETRIC_REPRESENTATION_CONTEXT(2) 
PARAMETRIC_REPRESENTATION_CONTEXT() REPRESENTATION_CONTEXT('2D SPACE',''
  ) );
#752 = PCURVE('',#427,#753);
#753 = DEFINITIONAL_REPRESENTATION('',(#754),#758);
#754 = LINE('',#755,#756);
#755 = CARTESIAN_POINT('',(64.999900516271,-2.000000014901));
#756 = VECTOR('',#757,1.);
#757 = DIRECTION('',(-1.,0.));
#758 = ( GEOMETRIC_REPRESENTATION_CONTEXT(2) 
PARAMETRIC_REPRESENTATION_CONTEXT() REPRESENTATION_CONTEXT('2D SPACE',''
  ) );
#759 = ORIENTED_EDGE('',*,*,#760,.F.);
#760 = EDGE_CURVE('',#761,#738,#763,.T.);
#761 = VERTEX_POINT('',#762);
#762 = CARTESIAN_POINT('',(0.,19.,5.999999970198));
#763 = SURFACE_CURVE('',#764,(#781,#801),.PCURVE_S1.);
#764 = B_SPLINE_CURVE_WITH_KNOTS('',3,(#765,#766,#767,#768,#769,#770,
    #771,#772,#773,#774,#775,#776,#777,#778,#779,#780),.UNSPECIFIED.,.F.
  ,.F.,(4,2,2,2,2,2,2,4),(1.791302591763,1.973466414892,2.155630238021,
    2.248176718593,2.340723199166,2.42806929439,2.515415389615,
    2.592260364922),.UNSPECIFIED.);
#765 = CARTESIAN_POINT('',(0.,19.,5.999999970198));
#766 = CARTESIAN_POINT('',(0.607212743763,19.,5.999999970198));
#767 = CARTESIAN_POINT('',(1.277420162282,18.989438128506,5.999999970198
    ));
#768 = CARTESIAN_POINT('',(2.586558272326,19.133229013187,5.999999970198
    ));
#769 = CARTESIAN_POINT('',(3.22438456993,19.297464739204,5.999999970198)
  );
#770 = CARTESIAN_POINT('',(4.058973738002,19.674252828893,5.999999970198
    ));
#771 = CARTESIAN_POINT('',(4.354579386645,19.839050162646,5.999999970198
    ));
#772 = CARTESIAN_POINT('',(4.904783991319,20.226497969315,5.999999970198
    ));
#773 = CARTESIAN_POINT('',(5.159338299742,20.449211841264,5.999999970198
    ));
#774 = CARTESIAN_POINT('',(5.572636004813,20.883671780029,5.999999970198
    ));
#775 = CARTESIAN_POINT('',(5.77199216477,21.133170742438,5.999999970198)
  );
#776 = CARTESIAN_POINT('',(6.115257533581,21.66770719496,5.999999970198)
  );
#777 = CARTESIAN_POINT('',(6.259145976884,21.952758019883,5.999999970198
    ));
#778 = CARTESIAN_POINT('',(6.461743979412,22.46118229684,5.999999970198)
  );
#779 = CARTESIAN_POINT('',(6.544475278601,22.726911205826,5.999999970198
    ));
#780 = CARTESIAN_POINT('',(6.602720486516,23.,5.999999970198));
#781 = PCURVE('',#45,#782);
#782 = DEFINITIONAL_REPRESENTATION('',(#783),#800);
#783 = B_SPLINE_CURVE_WITH_KNOTS('',3,(#784,#785,#786,#787,#788,#789,
    #790,#791,#792,#793,#794,#795,#796,#797,#798,#799),.UNSPECIFIED.,.F.
  ,.F.,(4,2,2,2,2,2,2,4),(1.791302591763,1.973466414892,2.155630238021,
    2.248176718593,2.340723199166,2.42806929439,2.515415389615,
    2.592260364922),.UNSPECIFIED.);
#784 = CARTESIAN_POINT('',(0.,0.));
#785 = CARTESIAN_POINT('',(0.607212743763,0.));
#786 = CARTESIAN_POINT('',(1.277420162282,-1.0561871494E-02));
#787 = CARTESIAN_POINT('',(2.586558272326,0.133229013187));
#788 = CARTESIAN_POINT('',(3.22438456993,0.297464739204));
#789 = CARTESIAN_POINT('',(4.058973738002,0.674252828893));
#790 = CARTESIAN_POINT('',(4.354579386645,0.839050162646));
#791 = CARTESIAN_POINT('',(4.904783991319,1.226497969315));
#792 = CARTESIAN_POINT('',(5.159338299742,1.449211841264));
#793 = CARTESIAN_POINT('',(5.572636004813,1.883671780029));
#794 = CARTESIAN_POINT('',(5.77199216477,2.133170742438));
#795 = CARTESIAN_POINT('',(6.115257533581,2.66770719496));
#796 = CARTESIAN_POINT('',(6.259145976884,2.952758019883));
#797 = CARTESIAN_POINT('',(6.461743979412,3.46118229684));
#798 = CARTESIAN_POINT('',(6.544475278601,3.726911205826));
#799 = CARTESIAN_POINT('',(6.602720486516,4.));
#800 = ( GEOMETRIC_REPRESENTATION_CONTEXT(2) 
PARAMETRIC_REPRESENTATION_CONTEXT() REPRESENTATION_CONTEXT('2D SPACE',''
  ) );
#801 = PCURVE('',#217,#802);
#802 = DEFINITIONAL_REPRESENTATION('',(#803),#851);
#803 = B_SPLINE_CURVE_WITH_KNOTS('',3,(#804,#805,#806,#807,#808,#809,
    #810,#811,#812,#813,#814,#815,#816,#817,#818,#819,#820,#821,#822,
    #823,#824,#825,#826,#827,#828,#829,#830,#831,#832,#833,#834,#835,
    #836,#837,#838,#839,#840,#841,#842,#843,#844,#845,#846,#847,#848,
    #849,#850),.UNSPECIFIED.,.F.,.F.,(4,1,1,1,1,1,1,1,1,1,1,1,1,1,1,1,1,
    1,1,1,1,1,1,1,1,1,1,1,1,1,1,1,1,1,1,1,1,1,1,1,1,1,1,1,4),(
    1.791302591763,1.809506177517,1.827709763271,1.845913349024,
    1.864116934778,1.882320520531,1.900524106285,1.918727692039,
    1.936931277792,1.955134863546,1.973338449299,1.991542035053,
    2.009745620807,2.02794920656,2.046152792314,2.064356378068,
    2.082559963821,2.100763549575,2.118967135328,2.137170721082,
    2.155374306836,2.173577892589,2.191781478343,2.209985064096,
    2.22818864985,2.246392235604,2.264595821357,2.282799407111,
    2.301002992864,2.319206578618,2.337410164372,2.355613750125,
    2.373817335879,2.392020921633,2.410224507386,2.42842809314,
    2.446631678893,2.464835264647,2.483038850401,2.501242436154,
    2.519446021908,2.537649607661,2.555853193415,2.574056779169,
    2.592260364922),.QUASI_UNIFORM_KNOTS.);
#804 = CARTESIAN_POINT('',(1.570796332755,3.14159265359));
#805 = CARTESIAN_POINT('',(1.570807316102,3.107875325846));
#806 = CARTESIAN_POINT('',(1.569654151286,3.041080724416));
#807 = CARTESIAN_POINT('',(1.564396494949,2.944046074014));
#808 = CARTESIAN_POINT('',(1.555558165586,2.851516832142));
#809 = CARTESIAN_POINT('',(1.543262271938,2.764452420299));
#810 = CARTESIAN_POINT('',(1.527723183855,2.683489496596));
#811 = CARTESIAN_POINT('',(1.509232685444,2.608924096025));
#812 = CARTESIAN_POINT('',(1.488123064343,2.540769881406));
#813 = CARTESIAN_POINT('',(1.464739796597,2.478825151855));
#814 = CARTESIAN_POINT('',(1.439418201783,2.422745345254));
#815 = CARTESIAN_POINT('',(1.412470916665,2.372099929006));
#816 = CARTESIAN_POINT('',(1.384168248906,2.326435302461));
#817 = CARTESIAN_POINT('',(1.354747675628,2.285278534611));
#818 = CARTESIAN_POINT('',(1.324426374664,2.248168134344));
#819 = CARTESIAN_POINT('',(1.293392508502,2.214681141565));
#820 = CARTESIAN_POINT('',(1.261809729296,2.184432995972));
#821 = CARTESIAN_POINT('',(1.229820953663,2.157080657585));
#822 = CARTESIAN_POINT('',(1.197542562734,2.132316300493));
#823 = CARTESIAN_POINT('',(1.16509696683,2.109881266635));
#824 = CARTESIAN_POINT('',(1.132499971384,2.089500675893));
#825 = CARTESIAN_POINT('',(1.100089044591,2.071111623521));
#826 = CARTESIAN_POINT('',(1.066931667381,2.053995444302));
#827 = CARTESIAN_POINT('',(1.032167965794,2.037672937926));
#828 = CARTESIAN_POINT('',(0.996324021298,2.022378971708));
#829 = CARTESIAN_POINT('',(0.959554719053,2.008119019807));
#830 = CARTESIAN_POINT('',(0.922109019333,1.994929761663));
#831 = CARTESIAN_POINT('',(0.884200771025,1.982820902747));
#832 = CARTESIAN_POINT('',(0.846052533845,1.971751710718));
#833 = CARTESIAN_POINT('',(0.807955091258,1.961681926414));
#834 = CARTESIAN_POINT('',(0.770019669359,1.952560634253));
#835 = CARTESIAN_POINT('',(0.733353329328,1.944396837969));
#836 = CARTESIAN_POINT('',(0.697417490539,1.936993551659));
#837 = CARTESIAN_POINT('',(0.659929484582,1.929855554953));
#838 = CARTESIAN_POINT('',(0.621803853197,1.923170139501));
#839 = CARTESIAN_POINT('',(0.58315563137,1.916945480753));
#840 = CARTESIAN_POINT('',(0.544294954879,1.911228845689));
#841 = CARTESIAN_POINT('',(0.505458960278,1.906049728962));
#842 = CARTESIAN_POINT('',(0.466891285103,1.901389585048));
#843 = CARTESIAN_POINT('',(0.428902495465,1.897237873837));
#844 = CARTESIAN_POINT('',(0.391591669456,1.893568601697));
#845 = CARTESIAN_POINT('',(0.355880693275,1.890427341181));
#846 = CARTESIAN_POINT('',(0.319230352217,1.887571700949));
#847 = CARTESIAN_POINT('',(0.281324820258,1.884984794489));
#848 = CARTESIAN_POINT('',(0.242605372373,1.882709824928));
#849 = CARTESIAN_POINT('',(0.21639885,1.881418466339));
#850 = CARTESIAN_POINT('',(0.203244829326,1.880834260898));
#851 = ( GEOMETRIC_REPRESENTATION_CONTEXT(2) 
PARAMETRIC_REPRESENTATION_CONTEXT() REPRESENTATION_CONTEXT('2D SPACE',''
  ) );
#852 = ORIENTED_EDGE('',*,*,#853,.F.);
#853 = EDGE_CURVE('',#493,#761,#854,.T.);
#854 = SURFACE_CURVE('',#855,(#872,#892),.PCURVE_S1.);
#855 = B_SPLINE_CURVE_WITH_KNOTS('',3,(#856,#857,#858,#859,#860,#861,
    #862,#863,#864,#865,#866,#867,#868,#869,#870,#871),.UNSPECIFIED.,.F.
  ,.F.,(4,2,2,2,2,2,2,4),(0.990344818605,1.067189793912,1.154535889137,
    1.241881984361,1.334428464933,1.426974945506,1.609138768634,
    1.791302591763),.UNSPECIFIED.);
#856 = CARTESIAN_POINT('',(-6.602720486516,23.,5.999999970198));
#857 = CARTESIAN_POINT('',(-6.544475278601,22.726911205826,
    5.999999970198));
#858 = CARTESIAN_POINT('',(-6.461743979412,22.46118229684,5.999999970198
    ));
#859 = CARTESIAN_POINT('',(-6.259145976884,21.952758019883,
    5.999999970198));
#860 = CARTESIAN_POINT('',(-6.115257533581,21.66770719496,5.999999970198
    ));
#861 = CARTESIAN_POINT('',(-5.77199216477,21.133170742438,5.999999970198
    ));
#862 = CARTESIAN_POINT('',(-5.572636004813,20.883671780029,
    5.999999970198));
#863 = CARTESIAN_POINT('',(-5.159338299742,20.449211841264,
    5.999999970198));
#864 = CARTESIAN_POINT('',(-4.904783991319,20.226497969315,
    5.999999970198));
#865 = CARTESIAN_POINT('',(-4.354579386645,19.839050162646,
    5.999999970198));
#866 = CARTESIAN_POINT('',(-4.058973738002,19.674252828893,
    5.999999970198));
#867 = CARTESIAN_POINT('',(-3.22438456993,19.297464739204,5.999999970198
    ));
#868 = CARTESIAN_POINT('',(-2.586558272326,19.133229013187,
    5.999999970198));
#869 = CARTESIAN_POINT('',(-1.277420162282,18.989438128506,
    5.999999970198));
#870 = CARTESIAN_POINT('',(-0.607212743763,19.,5.999999970198));
#871 = CARTESIAN_POINT('',(6.938893903907E-17,19.,5.999999970198));
#872 = PCURVE('',#45,#873);
#873 = DEFINITIONAL_REPRESENTATION('',(#874),#891);
#874 = B_SPLINE_CURVE_WITH_KNOTS('',3,(#875,#876,#877,#878,#879,#880,
    #881,#882,#883,#884,#885,#886,#887,#888,#889,#890),.UNSPECIFIED.,.F.
  ,.F.,(4,2,2,2,2,2,2,4),(0.990344818605,1.067189793912,1.154535889137,
    1.241881984361,1.334428464933,1.426974945506,1.609138768634,
    1.791302591763),.UNSPECIFIED.);
#875 = CARTESIAN_POINT('',(-6.602720486516,4.));
#876 = CARTESIAN_POINT('',(-6.544475278601,3.726911205826));
#877 = CARTESIAN_POINT('',(-6.461743979412,3.46118229684));
#878 = CARTESIAN_POINT('',(-6.259145976884,2.952758019883));
#879 = CARTESIAN_POINT('',(-6.115257533581,2.66770719496));
#880 = CARTESIAN_POINT('',(-5.77199216477,2.133170742438));
#881 = CARTESIAN_POINT('',(-5.572636004813,1.883671780029));
#882 = CARTESIAN_POINT('',(-5.159338299742,1.449211841264));
#883 = CARTESIAN_POINT('',(-4.904783991319,1.226497969315));
#884 = CARTESIAN_POINT('',(-4.354579386645,0.839050162646));
#885 = CARTESIAN_POINT('',(-4.058973738002,0.674252828893));
#886 = CARTESIAN_POINT('',(-3.22438456993,0.297464739204));
#887 = CARTESIAN_POINT('',(-2.586558272326,0.133229013187));
#888 = CARTESIAN_POINT('',(-1.277420162282,-1.0561871494E-02));
#889 = CARTESIAN_POINT('',(-0.607212743763,0.));
#890 = CARTESIAN_POINT('',(6.938893903907E-17,0.));
#891 = ( GEOMETRIC_REPRESENTATION_CONTEXT(2) 
PARAMETRIC_REPRESENTATION_CONTEXT() REPRESENTATION_CONTEXT('2D SPACE',''
  ) );
#892 = PCURVE('',#217,#893);
#893 = DEFINITIONAL_REPRESENTATION('',(#894),#942);
#894 = B_SPLINE_CURVE_WITH_KNOTS('',3,(#895,#896,#897,#898,#899,#900,
    #901,#902,#903,#904,#905,#906,#907,#908,#909,#910,#911,#912,#913,
    #914,#915,#916,#917,#918,#919,#920,#921,#922,#923,#924,#925,#926,
    #927,#928,#929,#930,#931,#932,#933,#934,#935,#936,#937,#938,#939,
    #940,#941),.UNSPECIFIED.,.F.,.F.,(4,1,1,1,1,1,1,1,1,1,1,1,1,1,1,1,1,
    1,1,1,1,1,1,1,1,1,1,1,1,1,1,1,1,1,1,1,1,1,1,1,1,1,1,1,4),(
    0.990344818605,1.008548404358,1.026751990112,1.044955575865,
    1.063159161619,1.081362747373,1.099566333126,1.11776991888,
    1.135973504633,1.154177090387,1.172380676141,1.190584261894,
    1.208787847648,1.226991433401,1.245195019155,1.263398604909,
    1.281602190662,1.299805776416,1.31800936217,1.336212947923,
    1.354416533677,1.37262011943,1.390823705184,1.409027290938,
    1.427230876691,1.445434462445,1.463638048198,1.481841633952,
    1.500045219706,1.518248805459,1.536452391213,1.554655976966,
    1.57285956272,1.591063148474,1.609266734227,1.627470319981,
    1.645673905734,1.663877491488,1.682081077242,1.700284662995,
    1.718488248749,1.736691834503,1.754895420256,1.77309900601,
    1.791302591763),.QUASI_UNIFORM_KNOTS.);
#895 = CARTESIAN_POINT('',(0.203244829326,-1.880834260898));
#896 = CARTESIAN_POINT('',(0.21639885,-1.881418466339));
#897 = CARTESIAN_POINT('',(0.242605372373,-1.882709824928));
#898 = CARTESIAN_POINT('',(0.281324820258,-1.884984794489));
#899 = CARTESIAN_POINT('',(0.319230352217,-1.887571700949));
#900 = CARTESIAN_POINT('',(0.355880693275,-1.890427341181));
#901 = CARTESIAN_POINT('',(0.391591669456,-1.893568601697));
#902 = CARTESIAN_POINT('',(0.428902495465,-1.897237873837));
#903 = CARTESIAN_POINT('',(0.466891285103,-1.901389585048));
#904 = CARTESIAN_POINT('',(0.505458960278,-1.906049728962));
#905 = CARTESIAN_POINT('',(0.544294954879,-1.911228845689));
#906 = CARTESIAN_POINT('',(0.58315563137,-1.916945480753));
#907 = CARTESIAN_POINT('',(0.621803853197,-1.923170139501));
#908 = CARTESIAN_POINT('',(0.659929484582,-1.929855554953));
#909 = CARTESIAN_POINT('',(0.697417490539,-1.936993551659));
#910 = CARTESIAN_POINT('',(0.733353329328,-1.944396837969));
#911 = CARTESIAN_POINT('',(0.770019669359,-1.952560634253));
#912 = CARTESIAN_POINT('',(0.807955091258,-1.961681926414));
#913 = CARTESIAN_POINT('',(0.846052533845,-1.971751710718));
#914 = CARTESIAN_POINT('',(0.884200771025,-1.982820902747));
#915 = CARTESIAN_POINT('',(0.922109019333,-1.994929761663));
#916 = CARTESIAN_POINT('',(0.959554719053,-2.008119019807));
#917 = CARTESIAN_POINT('',(0.996324021298,-2.022378971708));
#918 = CARTESIAN_POINT('',(1.032167965794,-2.037672937926));
#919 = CARTESIAN_POINT('',(1.066931667381,-2.053995444302));
#920 = CARTESIAN_POINT('',(1.100089044591,-2.071111623521));
#921 = CARTESIAN_POINT('',(1.132499971384,-2.089500675893));
#922 = CARTESIAN_POINT('',(1.16509696683,-2.109881266635));
#923 = CARTESIAN_POINT('',(1.197542562734,-2.132316300493));
#924 = CARTESIAN_POINT('',(1.229820953663,-2.157080657585));
#925 = CARTESIAN_POINT('',(1.261809729296,-2.184432995972));
#926 = CARTESIAN_POINT('',(1.293392508502,-2.214681141565));
#927 = CARTESIAN_POINT('',(1.324426374664,-2.248168134344));
#928 = CARTESIAN_POINT('',(1.354747675628,-2.285278534611));
#929 = CARTESIAN_POINT('',(1.384168248906,-2.326435302461));
#930 = CARTESIAN_POINT('',(1.412470916665,-2.372099929006));
#931 = CARTESIAN_POINT('',(1.439418201783,-2.422745345254));
#932 = CARTESIAN_POINT('',(1.464739796597,-2.478825151855));
#933 = CARTESIAN_POINT('',(1.488123064343,-2.540769881406));
#934 = CARTESIAN_POINT('',(1.509232685444,-2.608924096025));
#935 = CARTESIAN_POINT('',(1.527723183855,-2.683489496596));
#936 = CARTESIAN_POINT('',(1.543262271938,-2.764452420299));
#937 = CARTESIAN_POINT('',(1.555558165586,-2.851516832142));
#938 = CARTESIAN_POINT('',(1.564396494949,-2.944046074014));
#939 = CARTESIAN_POINT('',(1.569654151286,-3.041080724416));
#940 = CARTESIAN_POINT('',(1.570807316102,-3.107875325846));
#941 = CARTESIAN_POINT('',(1.570796332755,-3.14159265359));
#942 = ( GEOMETRIC_REPRESENTATION_CONTEXT(2) 
PARAMETRIC_REPRESENTATION_CONTEXT() REPRESENTATION_CONTEXT('2D SPACE',''
  ) );
#943 = ORIENTED_EDGE('',*,*,#492,.F.);
#944 = ADVANCED_FACE('',(#945),#455,.T.);
#945 = FACE_BOUND('',#946,.T.);
#946 = EDGE_LOOP('',(#947,#948,#969,#970));
#947 = ORIENTED_EDGE('',*,*,#439,.T.);
#948 = ORIENTED_EDGE('',*,*,#949,.F.);
#949 = EDGE_CURVE('',#715,#412,#950,.T.);
#950 = SURFACE_CURVE('',#951,(#955,#962),.PCURVE_S1.);
#951 = LINE('',#952,#953);
#952 = CARTESIAN_POINT('',(79.999999627471,23.,5.999999970198));
#953 = VECTOR('',#954,1.);
#954 = DIRECTION('',(0.,9.95799250103E-17,-1.));
#955 = PCURVE('',#455,#956);
#956 = DEFINITIONAL_REPRESENTATION('',(#957),#961);
#957 = LINE('',#958,#959);
#958 = CARTESIAN_POINT('',(3.983197000412E-16,4.));
#959 = VECTOR('',#960,1.);
#960 = DIRECTION('',(1.,0.));
#961 = ( GEOMETRIC_REPRESENTATION_CONTEXT(2) 
PARAMETRIC_REPRESENTATION_CONTEXT() REPRESENTATION_CONTEXT('2D SPACE',''
  ) );
#962 = PCURVE('',#427,#963);
#963 = DEFINITIONAL_REPRESENTATION('',(#964),#968);
#964 = LINE('',#965,#966);
#965 = CARTESIAN_POINT('',(-40.00009948372,-2.000000014901));
#966 = VECTOR('',#967,1.);
#967 = DIRECTION('',(-0.,1.));
#968 = ( GEOMETRIC_REPRESENTATION_CONTEXT(2) 
PARAMETRIC_REPRESENTATION_CONTEXT() REPRESENTATION_CONTEXT('2D SPACE',''
  ) );
#969 = ORIENTED_EDGE('',*,*,#714,.T.);
#970 = ORIENTED_EDGE('',*,*,#688,.F.);
#971 = ADVANCED_FACE('',(#972),#427,.F.);
#972 = FACE_BOUND('',#973,.T.);
#973 = EDGE_LOOP('',(#974,#1022,#1023,#1024));
#974 = ORIENTED_EDGE('',*,*,#975,.F.);
#975 = EDGE_CURVE('',#738,#315,#976,.T.);
#976 = SURFACE_CURVE('',#977,(#982,#993),.PCURVE_S1.);
#977 = CIRCLE('',#978,6.898979485566);
#978 = AXIS2_PLACEMENT_3D('',#979,#980,#981);
#979 = CARTESIAN_POINT('',(0.,23.,3.999999940395));
#980 = DIRECTION('',(0.,1.,9.95799250103E-17));
#981 = DIRECTION('',(0.,9.95799250103E-17,-1.));
#982 = PCURVE('',#427,#983);
#983 = DEFINITIONAL_REPRESENTATION('',(#984),#992);
#984 = ( BOUNDED_CURVE() B_SPLINE_CURVE(2,(#985,#986,#987,#988,#989,#990
,#991),.UNSPECIFIED.,.T.,.F.) B_SPLINE_CURVE_WITH_KNOTS((1,2,2,2,2,1),(
    -2.094395102393,0.,2.094395102393,4.188790204786,6.28318530718,
8.377580409573),.UNSPECIFIED.) CURVE() GEOMETRIC_REPRESENTATION_ITEM() 
RATIONAL_B_SPLINE_CURVE((1.,0.5,1.,0.5,1.,0.5,1.)) REPRESENTATION_ITEM(
  '') );
#985 = CARTESIAN_POINT('',(39.999900143742,6.898979500468));
#986 = CARTESIAN_POINT('',(51.949283133118,6.898979500468));
#987 = CARTESIAN_POINT('',(45.97459163843,-3.449489727882));
#988 = CARTESIAN_POINT('',(39.999900143742,-13.79795895623));
#989 = CARTESIAN_POINT('',(34.025208649054,-3.449489727882));
#990 = CARTESIAN_POINT('',(28.050517154366,6.898979500468));
#991 = CARTESIAN_POINT('',(39.999900143742,6.898979500468));
#992 = ( GEOMETRIC_REPRESENTATION_CONTEXT(2) 
PARAMETRIC_REPRESENTATION_CONTEXT() REPRESENTATION_CONTEXT('2D SPACE',''
  ) );
#993 = PCURVE('',#217,#994);
#994 = DEFINITIONAL_REPRESENTATION('',(#995),#1021);
#995 = B_SPLINE_CURVE_WITH_KNOTS('',3,(#996,#997,#998,#999,#1000,#1001,
    #1002,#1003,#1004,#1005,#1006,#1007,#1008,#1009,#1010,#1011,#1012,
    #1013,#1014,#1015,#1016,#1017,#1018,#1019,#1020),.UNSPECIFIED.,.F.,
  .F.,(4,1,1,1,1,1,1,1,1,1,1,1,1,1,1,1,1,1,1,1,1,1,4),(4.418268770257,
    4.445006970768,4.471745171278,4.498483371788,4.525221572299,
    4.551959772809,4.578697973319,4.60543617383,4.63217437434,
    4.65891257485,4.685650775361,4.712388975871,4.739127176381,
    4.765865376892,4.792603577402,4.819341777912,4.846079978423,
    4.872818178933,4.899556379443,4.926294579954,4.953032780464,
    4.979770980974,5.006509181485),.QUASI_UNIFORM_KNOTS.);
#996 = CARTESIAN_POINT('',(0.203244829326,1.880834260898));
#997 = CARTESIAN_POINT('',(0.203244829326,1.871853352653));
#998 = CARTESIAN_POINT('',(0.203244829326,1.85383143135));
#999 = CARTESIAN_POINT('',(0.203244829326,1.826606306936));
#1000 = CARTESIAN_POINT('',(0.203244829326,1.799177134043));
#1001 = CARTESIAN_POINT('',(0.203244829326,1.771531679633));
#1002 = CARTESIAN_POINT('',(0.203244829326,1.743657339733));
#1003 = CARTESIAN_POINT('',(0.203244829326,1.715541323831));
#1004 = CARTESIAN_POINT('',(0.203244829326,1.687169713418));
#1005 = CARTESIAN_POINT('',(0.203244829326,1.658530887512));
#1006 = CARTESIAN_POINT('',(0.203244829326,1.629602597303));
#1007 = CARTESIAN_POINT('',(0.203244829326,1.60040006773));
#1008 = CARTESIAN_POINT('',(0.203244829326,1.57079633184));
#1009 = CARTESIAN_POINT('',(0.203244829326,1.54119259576));
#1010 = CARTESIAN_POINT('',(0.203244829326,1.511990066105));
#1011 = CARTESIAN_POINT('',(0.203244829326,1.483061775793));
#1012 = CARTESIAN_POINT('',(0.203244829326,1.454422949795));
#1013 = CARTESIAN_POINT('',(0.203244829326,1.426051339294));
#1014 = CARTESIAN_POINT('',(0.203244829326,1.397935323307));
#1015 = CARTESIAN_POINT('',(0.203244829326,1.370060983328));
#1016 = CARTESIAN_POINT('',(0.203244829326,1.342415528844));
#1017 = CARTESIAN_POINT('',(0.203244829326,1.314986355879));
#1018 = CARTESIAN_POINT('',(0.203244829326,1.287761231398));
#1019 = CARTESIAN_POINT('',(0.203244829326,1.269739310054));
#1020 = CARTESIAN_POINT('',(0.203244829326,1.260758401788));
#1021 = ( GEOMETRIC_REPRESENTATION_CONTEXT(2) 
PARAMETRIC_REPRESENTATION_CONTEXT() REPRESENTATION_CONTEXT('2D SPACE',''
  ) );
#1022 = ORIENTED_EDGE('',*,*,#737,.T.);
#1023 = ORIENTED_EDGE('',*,*,#949,.T.);
#1024 = ORIENTED_EDGE('',*,*,#411,.T.);
#1025 = ADVANCED_FACE('',(#1026),#217,.F.);
#1026 = FACE_BOUND('',#1027,.F.);
#1027 = EDGE_LOOP('',(#1028,#1029,#1030,#1031,#1055,#1106,#1150,#1151,
    #1152,#1153));
#1028 = ORIENTED_EDGE('',*,*,#314,.F.);
#1029 = ORIENTED_EDGE('',*,*,#975,.F.);
#1030 = ORIENTED_EDGE('',*,*,#760,.F.);
#1031 = ORIENTED_EDGE('',*,*,#1032,.T.);
#1032 = EDGE_CURVE('',#761,#1033,#1035,.T.);
#1033 = VERTEX_POINT('',#1034);
#1034 = CARTESIAN_POINT('',(-8.572527594031E-16,24.,10.999999940395));
#1035 = SEAM_CURVE('',#1036,(#1041,#1048),.PCURVE_S1.);
#1036 = CIRCLE('',#1037,5.);
#1037 = AXIS2_PLACEMENT_3D('',#1038,#1039,#1040);
#1038 = CARTESIAN_POINT('',(-2.449293598295E-16,24.,5.999999940395));
#1039 = DIRECTION('',(-1.,1.219502364232E-32,-1.224646799147E-16));
#1040 = DIRECTION('',(-1.224646799147E-16,0.,1.));
#1041 = PCURVE('',#217,#1042);
#1042 = DEFINITIONAL_REPRESENTATION('',(#1043),#1047);
#1043 = LINE('',#1044,#1045);
#1044 = CARTESIAN_POINT('',(6.283185306868,3.14159265359));
#1045 = VECTOR('',#1046,1.);
#1046 = DIRECTION('',(-1.,-2.827159728146E-16));
#1047 = ( GEOMETRIC_REPRESENTATION_CONTEXT(2) 
PARAMETRIC_REPRESENTATION_CONTEXT() REPRESENTATION_CONTEXT('2D SPACE',''
  ) );
#1048 = PCURVE('',#217,#1049);
#1049 = DEFINITIONAL_REPRESENTATION('',(#1050),#1054);
#1050 = LINE('',#1051,#1052);
#1051 = CARTESIAN_POINT('',(6.283185306868,-3.14159265359));
#1052 = VECTOR('',#1053,1.);
#1053 = DIRECTION('',(-1.,-2.827159728146E-16));
#1054 = ( GEOMETRIC_REPRESENTATION_CONTEXT(2) 
PARAMETRIC_REPRESENTATION_CONTEXT() REPRESENTATION_CONTEXT('2D SPACE',''
  ) );
#1055 = ORIENTED_EDGE('',*,*,#1056,.F.);
#1056 = EDGE_CURVE('',#1057,#1033,#1059,.T.);
#1057 = VERTEX_POINT('',#1058);
#1058 = CARTESIAN_POINT('',(-7.,24.,3.999999940395));
#1059 = SURFACE_CURVE('',#1060,(#1065,#1094),.PCURVE_S1.);
#1060 = CIRCLE('',#1061,7.);
#1061 = AXIS2_PLACEMENT_3D('',#1062,#1063,#1064);
#1062 = CARTESIAN_POINT('',(0.,24.,3.999999940395));
#1063 = DIRECTION('',(0.,-1.,-9.95799250103E-17));
#1064 = DIRECTION('',(-1.,-1.219502364232E-32,1.224646799147E-16));
#1065 = PCURVE('',#217,#1066);
#1066 = DEFINITIONAL_REPRESENTATION('',(#1067),#1093);
#1067 = B_SPLINE_CURVE_WITH_KNOTS('',3,(#1068,#1069,#1070,#1071,#1072,
    #1073,#1074,#1075,#1076,#1077,#1078,#1079,#1080,#1081,#1082,#1083,
    #1084,#1085,#1086,#1087,#1088,#1089,#1090,#1091,#1092),
  .UNSPECIFIED.,.F.,.F.,(4,1,1,1,1,1,1,1,1,1,1,1,1,1,1,1,1,1,1,1,1,1,4),
  (0.,0.214199499108,0.428398998217,0.642598497325,0.856797996434,
    1.070997495542,1.28519699465,1.499396493759,1.713595992867,
    1.927795491976,2.141994991084,2.356194490192,2.570393989301,
    2.784593488409,2.998792987518,3.212992486626,3.427191985734,
    3.641391484843,3.855590983951,4.06979048306,4.283989982168,
    4.498189481276,4.712388980385),.QUASI_UNIFORM_KNOTS.);
#1068 = CARTESIAN_POINT('',(-1.394118950144E-16,-1.570796326795));
#1069 = CARTESIAN_POINT('',(-1.394118950144E-16,-1.491600902977));
#1070 = CARTESIAN_POINT('',(-1.394118950144E-16,-1.339806414379));
#1071 = CARTESIAN_POINT('',(-1.394118950144E-16,-1.126169628765));
#1072 = CARTESIAN_POINT('',(-1.394118950144E-16,-0.920488978282));
#1073 = CARTESIAN_POINT('',(-1.394118950144E-16,-0.717942038876));
#1074 = CARTESIAN_POINT('',(-1.394118950144E-16,-0.513811497476));
#1075 = CARTESIAN_POINT('',(-1.394118950144E-16,-0.303476509462));
#1076 = CARTESIAN_POINT('',(-1.394118950144E-16,-8.093848883122E-02));
#1077 = CARTESIAN_POINT('',(-1.394118950144E-16,0.158136193241));
#1078 = CARTESIAN_POINT('',(-1.394118950144E-16,0.374248904887));
#1079 = CARTESIAN_POINT('',(-1.394118950144E-16,0.582404656046));
#1080 = CARTESIAN_POINT('',(-1.394118950144E-16,0.785398163397));
#1081 = CARTESIAN_POINT('',(-1.394118950144E-16,0.988391670749));
#1082 = CARTESIAN_POINT('',(-1.394118950144E-16,1.196547421908));
#1083 = CARTESIAN_POINT('',(-1.394118950144E-16,1.412660133553));
#1084 = CARTESIAN_POINT('',(-1.394118950144E-16,1.651734815626));
#1085 = CARTESIAN_POINT('',(-1.394118950144E-16,1.874272836257));
#1086 = CARTESIAN_POINT('',(-1.394118950144E-16,2.084607824271));
#1087 = CARTESIAN_POINT('',(-1.394118950144E-16,2.288738365671));
#1088 = CARTESIAN_POINT('',(-1.394118950144E-16,2.491285305077));
#1089 = CARTESIAN_POINT('',(-1.394118950144E-16,2.696965955559));
#1090 = CARTESIAN_POINT('',(-1.394118950144E-16,2.910602741174));
#1091 = CARTESIAN_POINT('',(-1.394118950144E-16,3.062397229772));
#1092 = CARTESIAN_POINT('',(-1.394118950144E-16,3.14159265359));
#1093 = ( GEOMETRIC_REPRESENTATION_CONTEXT(2) 
PARAMETRIC_REPRESENTATION_CONTEXT() REPRESENTATION_CONTEXT('2D SPACE',''
  ) );
#1094 = PCURVE('',#1095,#1100);
#1095 = CYLINDRICAL_SURFACE('',#1096,7.);
#1096 = AXIS2_PLACEMENT_3D('',#1097,#1098,#1099);
#1097 = CARTESIAN_POINT('',(0.,26.5,3.999999940395));
#1098 = DIRECTION('',(0.,-1.,-9.95799250103E-17));
#1099 = DIRECTION('',(1.,0.,0.));
#1100 = DEFINITIONAL_REPRESENTATION('',(#1101),#1105);
#1101 = LINE('',#1102,#1103);
#1102 = CARTESIAN_POINT('',(-3.14159265359,2.5));
#1103 = VECTOR('',#1104,1.);
#1104 = DIRECTION('',(1.,0.));
#1105 = ( GEOMETRIC_REPRESENTATION_CONTEXT(2) 
PARAMETRIC_REPRESENTATION_CONTEXT() REPRESENTATION_CONTEXT('2D SPACE',''
  ) );
#1106 = ORIENTED_EDGE('',*,*,#1107,.F.);
#1107 = EDGE_CURVE('',#1033,#1057,#1108,.T.);
#1108 = SURFACE_CURVE('',#1109,(#1114,#1143),.PCURVE_S1.);
#1109 = CIRCLE('',#1110,7.);
#1110 = AXIS2_PLACEMENT_3D('',#1111,#1112,#1113);
#1111 = CARTESIAN_POINT('',(0.,24.,3.999999940395));
#1112 = DIRECTION('',(0.,-1.,-9.95799250103E-17));
#1113 = DIRECTION('',(-1.,-1.219502364232E-32,1.224646799147E-16));
#1114 = PCURVE('',#217,#1115);
#1115 = DEFINITIONAL_REPRESENTATION('',(#1116),#1142);
#1116 = B_SPLINE_CURVE_WITH_KNOTS('',3,(#1117,#1118,#1119,#1120,#1121,
    #1122,#1123,#1124,#1125,#1126,#1127,#1128,#1129,#1130,#1131,#1132,
    #1133,#1134,#1135,#1136,#1137,#1138,#1139,#1140,#1141),
  .UNSPECIFIED.,.F.,.F.,(4,1,1,1,1,1,1,1,1,1,1,1,1,1,1,1,1,1,1,1,1,1,4),
  (4.712388980385,4.783788813421,4.855188646457,4.926588479493,
    4.997988312529,5.069388145565,5.140787978601,5.212187811638,
    5.283587644674,5.35498747771,5.426387310746,5.497787143782,
    5.569186976818,5.640586809854,5.711986642891,5.783386475927,
    5.854786308963,5.926186141999,5.997585975035,6.068985808071,
    6.140385641107,6.211785474143,6.28318530718),.QUASI_UNIFORM_KNOTS.);
#1117 = CARTESIAN_POINT('',(-1.394118950144E-16,-3.14159265359));
#1118 = CARTESIAN_POINT('',(-1.394118950144E-16,-3.115159605062));
#1119 = CARTESIAN_POINT('',(-1.394118950144E-16,-3.063067440961));
#1120 = CARTESIAN_POINT('',(-1.394118950144E-16,-2.986986199037));
#1121 = CARTESIAN_POINT('',(-1.394118950144E-16,-2.912688495409));
#1122 = CARTESIAN_POINT('',(-1.394118950144E-16,-2.839931213656));
#1123 = CARTESIAN_POINT('',(-1.394118950144E-16,-2.768486547351));
#1124 = CARTESIAN_POINT('',(-1.394118950144E-16,-2.698142049645));
#1125 = CARTESIAN_POINT('',(-1.394118950144E-16,-2.628697122557));
#1126 = CARTESIAN_POINT('',(-1.394118950144E-16,-2.559960843422));
#1127 = CARTESIAN_POINT('',(-1.394118950144E-16,-2.491749732825));
#1128 = CARTESIAN_POINT('',(-1.394118950144E-16,-2.423885766815));
#1129 = CARTESIAN_POINT('',(-1.394118950144E-16,-2.356194490192));
#1130 = CARTESIAN_POINT('',(-1.394118950144E-16,-2.28850321357));
#1131 = CARTESIAN_POINT('',(-1.394118950144E-16,-2.22063924756));
#1132 = CARTESIAN_POINT('',(-1.394118950144E-16,-2.152428136962));
#1133 = CARTESIAN_POINT('',(-1.394118950144E-16,-2.083691857828));
#1134 = CARTESIAN_POINT('',(-1.394118950144E-16,-2.014246930739));
#1135 = CARTESIAN_POINT('',(-1.394118950144E-16,-1.943902433034));
#1136 = CARTESIAN_POINT('',(-1.394118950144E-16,-1.872457766729));
#1137 = CARTESIAN_POINT('',(-1.394118950144E-16,-1.799700484976));
#1138 = CARTESIAN_POINT('',(-1.394118950144E-16,-1.725402781348));
#1139 = CARTESIAN_POINT('',(-1.394118950144E-16,-1.649321539424));
#1140 = CARTESIAN_POINT('',(-1.394118950144E-16,-1.597229375323));
#1141 = CARTESIAN_POINT('',(-1.394118950144E-16,-1.570796326795));
#1142 = ( GEOMETRIC_REPRESENTATION_CONTEXT(2) 
PARAMETRIC_REPRESENTATION_CONTEXT() REPRESENTATION_CONTEXT('2D SPACE',''
  ) );
#1143 = PCURVE('',#1095,#1144);
#1144 = DEFINITIONAL_REPRESENTATION('',(#1145),#1149);
#1145 = LINE('',#1146,#1147);
#1146 = CARTESIAN_POINT('',(-3.14159265359,2.5));
#1147 = VECTOR('',#1148,1.);
#1148 = DIRECTION('',(1.,0.));
#1149 = ( GEOMETRIC_REPRESENTATION_CONTEXT(2) 
PARAMETRIC_REPRESENTATION_CONTEXT() REPRESENTATION_CONTEXT('2D SPACE',''
  ) );
#1150 = ORIENTED_EDGE('',*,*,#1032,.F.);
#1151 = ORIENTED_EDGE('',*,*,#853,.F.);
#1152 = ORIENTED_EDGE('',*,*,#515,.F.);
#1153 = ORIENTED_EDGE('',*,*,#175,.F.);
#1154 = ADVANCED_FACE('',(#1155),#1095,.T.);
#1155 = FACE_BOUND('',#1156,.T.);
#1156 = EDGE_LOOP('',(#1157,#1158,#1181,#1203,#1204));
#1157 = ORIENTED_EDGE('',*,*,#1056,.F.);
#1158 = ORIENTED_EDGE('',*,*,#1159,.T.);
#1159 = EDGE_CURVE('',#1057,#1160,#1162,.T.);
#1160 = VERTEX_POINT('',#1161);
#1161 = CARTESIAN_POINT('',(-7.,34.,3.999999940395));
#1162 = SEAM_CURVE('',#1163,(#1167,#1174),.PCURVE_S1.);
#1163 = LINE('',#1164,#1165);
#1164 = CARTESIAN_POINT('',(-7.,26.5,3.999999940395));
#1165 = VECTOR('',#1166,1.);
#1166 = DIRECTION('',(0.,1.,9.95799250103E-17));
#1167 = PCURVE('',#1095,#1168);
#1168 = DEFINITIONAL_REPRESENTATION('',(#1169),#1173);
#1169 = LINE('',#1170,#1171);
#1170 = CARTESIAN_POINT('',(-3.14159265359,0.));
#1171 = VECTOR('',#1172,1.);
#1172 = DIRECTION('',(0.,-1.));
#1173 = ( GEOMETRIC_REPRESENTATION_CONTEXT(2) 
PARAMETRIC_REPRESENTATION_CONTEXT() REPRESENTATION_CONTEXT('2D SPACE',''
  ) );
#1174 = PCURVE('',#1095,#1175);
#1175 = DEFINITIONAL_REPRESENTATION('',(#1176),#1180);
#1176 = LINE('',#1177,#1178);
#1177 = CARTESIAN_POINT('',(3.14159265359,0.));
#1178 = VECTOR('',#1179,1.);
#1179 = DIRECTION('',(0.,-1.));
#1180 = ( GEOMETRIC_REPRESENTATION_CONTEXT(2) 
PARAMETRIC_REPRESENTATION_CONTEXT() REPRESENTATION_CONTEXT('2D SPACE',''
  ) );
#1181 = ORIENTED_EDGE('',*,*,#1182,.F.);
#1182 = EDGE_CURVE('',#1160,#1160,#1183,.T.);
#1183 = SURFACE_CURVE('',#1184,(#1189,#1196),.PCURVE_S1.);
#1184 = CIRCLE('',#1185,7.);
#1185 = AXIS2_PLACEMENT_3D('',#1186,#1187,#1188);
#1186 = CARTESIAN_POINT('',(0.,34.,3.999999940395));
#1187 = DIRECTION('',(0.,1.,9.95799250103E-17));
#1188 = DIRECTION('',(1.,0.,-0.));
#1189 = PCURVE('',#1095,#1190);
#1190 = DEFINITIONAL_REPRESENTATION('',(#1191),#1195);
#1191 = LINE('',#1192,#1193);
#1192 = CARTESIAN_POINT('',(6.28318530718,-7.5));
#1193 = VECTOR('',#1194,1.);
#1194 = DIRECTION('',(-1.,0.));
#1195 = ( GEOMETRIC_REPRESENTATION_CONTEXT(2) 
PARAMETRIC_REPRESENTATION_CONTEXT() REPRESENTATION_CONTEXT('2D SPACE',''
  ) );
#1196 = PCURVE('',#640,#1197);
#1197 = DEFINITIONAL_REPRESENTATION('',(#1198),#1202);
#1198 = CIRCLE('',#1199,7.);
#1199 = AXIS2_PLACEMENT_2D('',#1200,#1201);
#1200 = CARTESIAN_POINT('',(0.,0.));
#1201 = DIRECTION('',(-1.,0.));
#1202 = ( GEOMETRIC_REPRESENTATION_CONTEXT(2) 
PARAMETRIC_REPRESENTATION_CONTEXT() REPRESENTATION_CONTEXT('2D SPACE',''
  ) );
#1203 = ORIENTED_EDGE('',*,*,#1159,.F.);
#1204 = ORIENTED_EDGE('',*,*,#1107,.F.);
#1205 = ADVANCED_FACE('',(#1206,#1209),#640,.T.);
#1206 = FACE_BOUND('',#1207,.T.);
#1207 = EDGE_LOOP('',(#1208));
#1208 = ORIENTED_EDGE('',*,*,#1182,.T.);
#1209 = FACE_BOUND('',#1210,.T.);
#1210 = EDGE_LOOP('',(#1211));
#1211 = ORIENTED_EDGE('',*,*,#625,.T.);
#1212 = ( GEOMETRIC_REPRESENTATION_CONTEXT(3) 
GLOBAL_UNCERTAINTY_ASSIGNED_CONTEXT((#1216)) 
GLOBAL_UNIT_ASSIGNED_CONTEXT((#1213,#1214,#1215)) REPRESENTATION_CONTEXT
('Context #1','3D Context with UNIT and UNCERTAINTY') );
#1213 = ( LENGTH_UNIT() NAMED_UNIT(*) SI_UNIT(.MILLI.,.METRE.) );
#1214 = ( NAMED_UNIT(*) PLANE_ANGLE_UNIT() SI_UNIT($,.RADIAN.) );
#1215 = ( NAMED_UNIT(*) SI_UNIT($,.STERADIAN.) SOLID_ANGLE_UNIT() );
#1216 = UNCERTAINTY_MEASURE_WITH_UNIT(LENGTH_MEASURE(1.E-03),#1213,
  'distance_accuracy_value','confusion accuracy');
#1217 = PRODUCT_RELATED_PRODUCT_CATEGORY('part',$,(#7));
ENDSEC;
END-ISO-10303-21;
