ISO-10303-21;
HEADER;
/* Generated by software containing ST-Developer
 * from STEP Tools, Inc. (www.steptools.com) 
 */

FILE_DESCRIPTION(
/* description */ (''),
/* implementation_level */ '2;1');

FILE_NAME(
/* name */ '41116_57534494_02c6b3b0-054e-11ec-8125-0ad8e3c9254f.step',
/* time_stamp */ '2026-02-10T10:28:11Z',
/* author */ (''),
/* organization */ (''),
/* preprocessor_version */ 'ST-DEVELOPER v20.1',
/* originating_system */ 'Autodesk Translation Framework v14.24.0.0',
/* authorisation */ '');

FILE_SCHEMA (('AUTOMOTIVE_DESIGN { 1 0 10303 214 3 1 1 }'));
ENDSEC;

DATA;
#10=MECHANICAL_DESIGN_GEOMETRIC_PRESENTATION_REPRESENTATION('',(#13),#461);
#11=SHAPE_REPRESENTATION_RELATIONSHIP('SRR','None',#468,#12);
#12=ADVANCED_BREP_SHAPE_REPRESENTATION('',(#14),#460);
#13=STYLED_ITEM('',(#478),#14);
#14=MANIFOLD_SOLID_BREP('Body1',#277);
#15=FACE_BOUND('',#56,.T.);
#16=PLANE('',#294);
#17=PLANE('',#295);
#18=PLANE('',#296);
#19=PLANE('',#297);
#20=PLANE('',#298);
#21=PLANE('',#299);
#22=PLANE('',#303);
#23=PLANE('',#304);
#24=PLANE('',#305);
#25=PLANE('',#306);
#26=PLANE('',#307);
#27=PLANE('',#308);
#28=PLANE('',#309);
#29=FACE_OUTER_BOUND('',#44,.T.);
#30=FACE_OUTER_BOUND('',#45,.T.);
#31=FACE_OUTER_BOUND('',#46,.T.);
#32=FACE_OUTER_BOUND('',#47,.T.);
#33=FACE_OUTER_BOUND('',#48,.T.);
#34=FACE_OUTER_BOUND('',#49,.T.);
#35=FACE_OUTER_BOUND('',#50,.T.);
#36=FACE_OUTER_BOUND('',#51,.T.);
#37=FACE_OUTER_BOUND('',#52,.T.);
#38=FACE_OUTER_BOUND('',#53,.T.);
#39=FACE_OUTER_BOUND('',#54,.T.);
#40=FACE_OUTER_BOUND('',#55,.T.);
#41=FACE_OUTER_BOUND('',#57,.T.);
#42=FACE_OUTER_BOUND('',#58,.T.);
#43=FACE_OUTER_BOUND('',#59,.T.);
#44=EDGE_LOOP('',(#188,#189,#190,#191));
#45=EDGE_LOOP('',(#192,#193,#194,#195));
#46=EDGE_LOOP('',(#196,#197,#198,#199));
#47=EDGE_LOOP('',(#200,#201,#202,#203,#204,#205));
#48=EDGE_LOOP('',(#206,#207,#208,#209,#210,#211));
#49=EDGE_LOOP('',(#212,#213,#214,#215));
#50=EDGE_LOOP('',(#216,#217,#218,#219));
#51=EDGE_LOOP('',(#220,#221,#222,#223));
#52=EDGE_LOOP('',(#224,#225,#226,#227));
#53=EDGE_LOOP('',(#228,#229,#230,#231));
#54=EDGE_LOOP('',(#232,#233,#234,#235,#236,#237));
#55=EDGE_LOOP('',(#238,#239,#240,#241));
#56=EDGE_LOOP('',(#242,#243,#244,#245));
#57=EDGE_LOOP('',(#246,#247,#248,#249,#250,#251));
#58=EDGE_LOOP('',(#252,#253,#254,#255));
#59=EDGE_LOOP('',(#256,#257,#258,#259));
#60=LINE('',#388,#92);
#61=LINE('',#391,#93);
#62=LINE('',#394,#94);
#63=LINE('',#396,#95);
#64=LINE('',#397,#96);
#65=LINE('',#400,#97);
#66=LINE('',#402,#98);
#67=LINE('',#403,#99);
#68=LINE('',#406,#100);
#69=LINE('',#408,#101);
#70=LINE('',#409,#102);
#71=LINE('',#412,#103);
#72=LINE('',#414,#104);
#73=LINE('',#415,#105);
#74=LINE('',#417,#106);
#75=LINE('',#419,#107);
#76=LINE('',#425,#108);
#77=LINE('',#428,#109);
#78=LINE('',#431,#110);
#79=LINE('',#433,#111);
#80=LINE('',#434,#112);
#81=LINE('',#437,#113);
#82=LINE('',#439,#114);
#83=LINE('',#440,#115);
#84=LINE('',#443,#116);
#85=LINE('',#445,#117);
#86=LINE('',#446,#118);
#87=LINE('',#449,#119);
#88=LINE('',#451,#120);
#89=LINE('',#452,#121);
#90=LINE('',#454,#122);
#91=LINE('',#455,#123);
#92=VECTOR('',#316,1.);
#93=VECTOR('',#319,1.);
#94=VECTOR('',#322,1.);
#95=VECTOR('',#323,1.);
#96=VECTOR('',#324,1.);
#97=VECTOR('',#327,1.);
#98=VECTOR('',#328,1.);
#99=VECTOR('',#329,1.);
#100=VECTOR('',#332,1.);
#101=VECTOR('',#333,1.);
#102=VECTOR('',#334,1.);
#103=VECTOR('',#337,1.);
#104=VECTOR('',#338,1.);
#105=VECTOR('',#339,1.);
#106=VECTOR('',#342,1.);
#107=VECTOR('',#345,1.);
#108=VECTOR('',#350,1.);
#109=VECTOR('',#353,1.);
#110=VECTOR('',#356,1.);
#111=VECTOR('',#357,1.);
#112=VECTOR('',#358,1.);
#113=VECTOR('',#361,1.);
#114=VECTOR('',#362,1.);
#115=VECTOR('',#363,1.);
#116=VECTOR('',#366,1.);
#117=VECTOR('',#367,1.);
#118=VECTOR('',#368,1.);
#119=VECTOR('',#371,1.);
#120=VECTOR('',#372,1.);
#121=VECTOR('',#373,1.);
#122=VECTOR('',#376,1.);
#123=VECTOR('',#377,1.);
#124=CIRCLE('',#292,0.441500000000001);
#125=CIRCLE('',#293,0.441500000000001);
#126=CIRCLE('',#301,0.4215);
#127=CIRCLE('',#302,0.4215);
#128=VERTEX_POINT('',#384);
#129=VERTEX_POINT('',#385);
#130=VERTEX_POINT('',#387);
#131=VERTEX_POINT('',#389);
#132=VERTEX_POINT('',#393);
#133=VERTEX_POINT('',#395);
#134=VERTEX_POINT('',#399);
#135=VERTEX_POINT('',#401);
#136=VERTEX_POINT('',#405);
#137=VERTEX_POINT('',#407);
#138=VERTEX_POINT('',#411);
#139=VERTEX_POINT('',#413);
#140=VERTEX_POINT('',#421);
#141=VERTEX_POINT('',#422);
#142=VERTEX_POINT('',#424);
#143=VERTEX_POINT('',#426);
#144=VERTEX_POINT('',#430);
#145=VERTEX_POINT('',#432);
#146=VERTEX_POINT('',#436);
#147=VERTEX_POINT('',#438);
#148=VERTEX_POINT('',#442);
#149=VERTEX_POINT('',#444);
#150=VERTEX_POINT('',#448);
#151=VERTEX_POINT('',#450);
#152=EDGE_CURVE('',#128,#129,#124,.T.);
#153=EDGE_CURVE('',#129,#130,#60,.T.);
#154=EDGE_CURVE('',#130,#131,#125,.T.);
#155=EDGE_CURVE('',#131,#128,#61,.T.);
#156=EDGE_CURVE('',#132,#131,#62,.T.);
#157=EDGE_CURVE('',#133,#132,#63,.T.);
#158=EDGE_CURVE('',#128,#133,#64,.T.);
#159=EDGE_CURVE('',#134,#129,#65,.T.);
#160=EDGE_CURVE('',#135,#134,#66,.T.);
#161=EDGE_CURVE('',#130,#135,#67,.T.);
#162=EDGE_CURVE('',#136,#135,#68,.T.);
#163=EDGE_CURVE('',#137,#136,#69,.T.);
#164=EDGE_CURVE('',#137,#132,#70,.T.);
#165=EDGE_CURVE('',#133,#138,#71,.T.);
#166=EDGE_CURVE('',#139,#138,#72,.T.);
#167=EDGE_CURVE('',#139,#134,#73,.T.);
#168=EDGE_CURVE('',#136,#139,#74,.T.);
#169=EDGE_CURVE('',#138,#137,#75,.T.);
#170=EDGE_CURVE('',#140,#141,#126,.T.);
#171=EDGE_CURVE('',#142,#140,#76,.T.);
#172=EDGE_CURVE('',#143,#142,#127,.T.);
#173=EDGE_CURVE('',#141,#143,#77,.T.);
#174=EDGE_CURVE('',#140,#144,#78,.T.);
#175=EDGE_CURVE('',#144,#145,#79,.T.);
#176=EDGE_CURVE('',#145,#142,#80,.T.);
#177=EDGE_CURVE('',#143,#146,#81,.T.);
#178=EDGE_CURVE('',#146,#147,#82,.T.);
#179=EDGE_CURVE('',#147,#141,#83,.T.);
#180=EDGE_CURVE('',#148,#145,#84,.T.);
#181=EDGE_CURVE('',#149,#148,#85,.T.);
#182=EDGE_CURVE('',#149,#146,#86,.T.);
#183=EDGE_CURVE('',#148,#150,#87,.T.);
#184=EDGE_CURVE('',#150,#151,#88,.T.);
#185=EDGE_CURVE('',#151,#149,#89,.T.);
#186=EDGE_CURVE('',#151,#147,#90,.T.);
#187=EDGE_CURVE('',#144,#150,#91,.T.);
#188=ORIENTED_EDGE('',*,*,#152,.T.);
#189=ORIENTED_EDGE('',*,*,#153,.T.);
#190=ORIENTED_EDGE('',*,*,#154,.T.);
#191=ORIENTED_EDGE('',*,*,#155,.T.);
#192=ORIENTED_EDGE('',*,*,#155,.F.);
#193=ORIENTED_EDGE('',*,*,#156,.F.);
#194=ORIENTED_EDGE('',*,*,#157,.F.);
#195=ORIENTED_EDGE('',*,*,#158,.F.);
#196=ORIENTED_EDGE('',*,*,#153,.F.);
#197=ORIENTED_EDGE('',*,*,#159,.F.);
#198=ORIENTED_EDGE('',*,*,#160,.F.);
#199=ORIENTED_EDGE('',*,*,#161,.F.);
#200=ORIENTED_EDGE('',*,*,#154,.F.);
#201=ORIENTED_EDGE('',*,*,#161,.T.);
#202=ORIENTED_EDGE('',*,*,#162,.F.);
#203=ORIENTED_EDGE('',*,*,#163,.F.);
#204=ORIENTED_EDGE('',*,*,#164,.T.);
#205=ORIENTED_EDGE('',*,*,#156,.T.);
#206=ORIENTED_EDGE('',*,*,#152,.F.);
#207=ORIENTED_EDGE('',*,*,#158,.T.);
#208=ORIENTED_EDGE('',*,*,#165,.T.);
#209=ORIENTED_EDGE('',*,*,#166,.F.);
#210=ORIENTED_EDGE('',*,*,#167,.T.);
#211=ORIENTED_EDGE('',*,*,#159,.T.);
#212=ORIENTED_EDGE('',*,*,#167,.F.);
#213=ORIENTED_EDGE('',*,*,#168,.F.);
#214=ORIENTED_EDGE('',*,*,#162,.T.);
#215=ORIENTED_EDGE('',*,*,#160,.T.);
#216=ORIENTED_EDGE('',*,*,#164,.F.);
#217=ORIENTED_EDGE('',*,*,#169,.F.);
#218=ORIENTED_EDGE('',*,*,#165,.F.);
#219=ORIENTED_EDGE('',*,*,#157,.T.);
#220=ORIENTED_EDGE('',*,*,#170,.F.);
#221=ORIENTED_EDGE('',*,*,#171,.F.);
#222=ORIENTED_EDGE('',*,*,#172,.F.);
#223=ORIENTED_EDGE('',*,*,#173,.F.);
#224=ORIENTED_EDGE('',*,*,#171,.T.);
#225=ORIENTED_EDGE('',*,*,#174,.T.);
#226=ORIENTED_EDGE('',*,*,#175,.T.);
#227=ORIENTED_EDGE('',*,*,#176,.T.);
#228=ORIENTED_EDGE('',*,*,#173,.T.);
#229=ORIENTED_EDGE('',*,*,#177,.T.);
#230=ORIENTED_EDGE('',*,*,#178,.T.);
#231=ORIENTED_EDGE('',*,*,#179,.T.);
#232=ORIENTED_EDGE('',*,*,#172,.T.);
#233=ORIENTED_EDGE('',*,*,#176,.F.);
#234=ORIENTED_EDGE('',*,*,#180,.F.);
#235=ORIENTED_EDGE('',*,*,#181,.F.);
#236=ORIENTED_EDGE('',*,*,#182,.T.);
#237=ORIENTED_EDGE('',*,*,#177,.F.);
#238=ORIENTED_EDGE('',*,*,#183,.T.);
#239=ORIENTED_EDGE('',*,*,#184,.T.);
#240=ORIENTED_EDGE('',*,*,#185,.T.);
#241=ORIENTED_EDGE('',*,*,#181,.T.);
#242=ORIENTED_EDGE('',*,*,#166,.T.);
#243=ORIENTED_EDGE('',*,*,#169,.T.);
#244=ORIENTED_EDGE('',*,*,#163,.T.);
#245=ORIENTED_EDGE('',*,*,#168,.T.);
#246=ORIENTED_EDGE('',*,*,#170,.T.);
#247=ORIENTED_EDGE('',*,*,#179,.F.);
#248=ORIENTED_EDGE('',*,*,#186,.F.);
#249=ORIENTED_EDGE('',*,*,#184,.F.);
#250=ORIENTED_EDGE('',*,*,#187,.F.);
#251=ORIENTED_EDGE('',*,*,#174,.F.);
#252=ORIENTED_EDGE('',*,*,#186,.T.);
#253=ORIENTED_EDGE('',*,*,#178,.F.);
#254=ORIENTED_EDGE('',*,*,#182,.F.);
#255=ORIENTED_EDGE('',*,*,#185,.F.);
#256=ORIENTED_EDGE('',*,*,#180,.T.);
#257=ORIENTED_EDGE('',*,*,#175,.F.);
#258=ORIENTED_EDGE('',*,*,#187,.T.);
#259=ORIENTED_EDGE('',*,*,#183,.F.);
#260=CYLINDRICAL_SURFACE('',#291,0.441500000000001);
#261=CYLINDRICAL_SURFACE('',#300,0.4215);
#262=ADVANCED_FACE('',(#29),#260,.T.);
#263=ADVANCED_FACE('',(#30),#16,.T.);
#264=ADVANCED_FACE('',(#31),#17,.T.);
#265=ADVANCED_FACE('',(#32),#18,.T.);
#266=ADVANCED_FACE('',(#33),#19,.T.);
#267=ADVANCED_FACE('',(#34),#20,.T.);
#268=ADVANCED_FACE('',(#35),#21,.T.);
#269=ADVANCED_FACE('',(#36),#261,.F.);
#270=ADVANCED_FACE('',(#37),#22,.T.);
#271=ADVANCED_FACE('',(#38),#23,.T.);
#272=ADVANCED_FACE('',(#39),#24,.T.);
#273=ADVANCED_FACE('',(#40,#15),#25,.T.);
#274=ADVANCED_FACE('',(#41),#26,.T.);
#275=ADVANCED_FACE('',(#42),#27,.T.);
#276=ADVANCED_FACE('',(#43),#28,.T.);
#277=CLOSED_SHELL('',(#262,#263,#264,#265,#266,#267,#268,#269,#270,#271,
#272,#273,#274,#275,#276));
#278=DERIVED_UNIT_ELEMENT(#280,1.);
#279=DERIVED_UNIT_ELEMENT(#463,-3.);
#280=(
MASS_UNIT()
NAMED_UNIT(*)
SI_UNIT(.KILO.,.GRAM.)
);
#281=DERIVED_UNIT((#278,#279));
#282=MEASURE_REPRESENTATION_ITEM('density measure',
POSITIVE_RATIO_MEASURE(7850.),#281);
#283=PROPERTY_DEFINITION_REPRESENTATION(#288,#285);
#284=PROPERTY_DEFINITION_REPRESENTATION(#289,#286);
#285=REPRESENTATION('material name',(#287),#460);
#286=REPRESENTATION('density',(#282),#460);
#287=DESCRIPTIVE_REPRESENTATION_ITEM('Steel','Steel');
#288=PROPERTY_DEFINITION('material property','material name',#470);
#289=PROPERTY_DEFINITION('material property','density of part',#470);
#290=AXIS2_PLACEMENT_3D('',#382,#310,#311);
#291=AXIS2_PLACEMENT_3D('',#383,#312,#313);
#292=AXIS2_PLACEMENT_3D('',#386,#314,#315);
#293=AXIS2_PLACEMENT_3D('',#390,#317,#318);
#294=AXIS2_PLACEMENT_3D('',#392,#320,#321);
#295=AXIS2_PLACEMENT_3D('',#398,#325,#326);
#296=AXIS2_PLACEMENT_3D('',#404,#330,#331);
#297=AXIS2_PLACEMENT_3D('',#410,#335,#336);
#298=AXIS2_PLACEMENT_3D('',#416,#340,#341);
#299=AXIS2_PLACEMENT_3D('',#418,#343,#344);
#300=AXIS2_PLACEMENT_3D('',#420,#346,#347);
#301=AXIS2_PLACEMENT_3D('',#423,#348,#349);
#302=AXIS2_PLACEMENT_3D('',#427,#351,#352);
#303=AXIS2_PLACEMENT_3D('',#429,#354,#355);
#304=AXIS2_PLACEMENT_3D('',#435,#359,#360);
#305=AXIS2_PLACEMENT_3D('',#441,#364,#365);
#306=AXIS2_PLACEMENT_3D('',#447,#369,#370);
#307=AXIS2_PLACEMENT_3D('',#453,#374,#375);
#308=AXIS2_PLACEMENT_3D('',#456,#378,#379);
#309=AXIS2_PLACEMENT_3D('',#457,#380,#381);
#310=DIRECTION('axis',(0.,0.,1.));
#311=DIRECTION('refdir',(1.,0.,0.));
#312=DIRECTION('center_axis',(-1.,3.26444987738712E-17,2.19266527057267E-17));
#313=DIRECTION('ref_axis',(-2.46519032881566E-32,0.557577967161548,-0.830124575311438));
#314=DIRECTION('center_axis',(1.,1.97311307775668E-16,4.62592926927148E-16));
#315=DIRECTION('ref_axis',(2.7399331911993E-16,0.557577967161548,-0.830124575311438));
#316=DIRECTION('',(1.,0.,0.));
#317=DIRECTION('center_axis',(-1.,0.,0.));
#318=DIRECTION('ref_axis',(0.,-0.557577967161548,-0.830124575311438));
#319=DIRECTION('',(-1.,0.,0.));
#320=DIRECTION('center_axis',(0.,0.,-1.));
#321=DIRECTION('ref_axis',(-1.,0.,0.));
#322=DIRECTION('',(0.,1.,0.));
#323=DIRECTION('',(1.,0.,0.));
#324=DIRECTION('',(0.,-1.,0.));
#325=DIRECTION('center_axis',(0.,0.,-1.));
#326=DIRECTION('ref_axis',(-1.,0.,0.));
#327=DIRECTION('',(2.87160643852406E-15,-1.,0.));
#328=DIRECTION('',(-1.,0.,0.));
#329=DIRECTION('',(0.,1.,0.));
#330=DIRECTION('center_axis',(-1.,-1.98254111540207E-16,0.));
#331=DIRECTION('ref_axis',(0.,0.,1.));
#332=DIRECTION('',(0.,0.,1.));
#333=DIRECTION('',(0.,1.,0.));
#334=DIRECTION('',(0.,0.,1.));
#335=DIRECTION('center_axis',(1.,3.71726459137887E-16,0.));
#336=DIRECTION('ref_axis',(0.,0.,-1.));
#337=DIRECTION('',(0.,0.,-1.));
#338=DIRECTION('',(3.71726459137887E-16,-1.,0.));
#339=DIRECTION('',(0.,0.,1.));
#340=DIRECTION('center_axis',(0.,-1.,0.));
#341=DIRECTION('ref_axis',(0.,0.,-1.));
#342=DIRECTION('',(-1.,0.,0.));
#343=DIRECTION('center_axis',(0.,1.,0.));
#344=DIRECTION('ref_axis',(0.,0.,1.));
#345=DIRECTION('',(1.,0.,0.));
#346=DIRECTION('center_axis',(-1.,2.57799960965731E-17,1.78562743526048E-17));
#347=DIRECTION('ref_axis',(-5.8548270309372E-32,0.569395017793594,-0.822064056939502));
#348=DIRECTION('center_axis',(1.,0.,0.));
#349=DIRECTION('ref_axis',(0.,0.569395017793595,-0.822064056939501));
#350=DIRECTION('',(-1.,0.,0.));
#351=DIRECTION('center_axis',(-1.,0.,0.));
#352=DIRECTION('ref_axis',(0.,-0.569395017793595,-0.822064056939501));
#353=DIRECTION('',(1.,0.,0.));
#354=DIRECTION('center_axis',(0.,0.,1.));
#355=DIRECTION('ref_axis',(1.,0.,0.));
#356=DIRECTION('',(0.,-1.,0.));
#357=DIRECTION('',(1.,0.,0.));
#358=DIRECTION('',(0.,1.,0.));
#359=DIRECTION('center_axis',(0.,0.,1.));
#360=DIRECTION('ref_axis',(1.,0.,0.));
#361=DIRECTION('',(0.,1.,0.));
#362=DIRECTION('',(-1.,0.,0.));
#363=DIRECTION('',(0.,-1.,0.));
#364=DIRECTION('center_axis',(1.,0.,0.));
#365=DIRECTION('ref_axis',(0.,0.,-1.));
#366=DIRECTION('',(0.,0.,1.));
#367=DIRECTION('',(0.,-1.,0.));
#368=DIRECTION('',(0.,0.,1.));
#369=DIRECTION('center_axis',(0.,0.,-1.));
#370=DIRECTION('ref_axis',(-1.,0.,0.));
#371=DIRECTION('',(-1.,0.,0.));
#372=DIRECTION('',(-1.61907524424502E-16,1.,0.));
#373=DIRECTION('',(1.,0.,0.));
#374=DIRECTION('center_axis',(-1.,-1.61907524424502E-16,0.));
#375=DIRECTION('ref_axis',(0.,0.,1.));
#376=DIRECTION('',(0.,0.,1.));
#377=DIRECTION('',(0.,0.,-1.));
#378=DIRECTION('center_axis',(0.,1.,0.));
#379=DIRECTION('ref_axis',(0.,0.,1.));
#380=DIRECTION('center_axis',(0.,-1.,0.));
#381=DIRECTION('ref_axis',(0.,0.,-1.));
#382=CARTESIAN_POINT('',(0.,0.,0.));
#383=CARTESIAN_POINT('Origin',(-4.16333634234434E-17,5.55111512312578E-17,
0.421500000000001));
#384=CARTESIAN_POINT('',(-0.0799999999999999,-0.246170672501824,0.055));
#385=CARTESIAN_POINT('',(-0.08,0.246170672501824,0.055));
#386=CARTESIAN_POINT('Origin',(-0.0800000000000002,-5.55111512312578E-17,
0.421500000000001));
#387=CARTESIAN_POINT('',(0.08,0.246170672501824,0.055));
#388=CARTESIAN_POINT('',(-0.08,0.246170672501824,0.055));
#389=CARTESIAN_POINT('',(0.08,-0.246170672501824,0.055));
#390=CARTESIAN_POINT('Origin',(0.08,1.11022302462516E-16,0.421500000000001));
#391=CARTESIAN_POINT('',(0.08,-0.246170672501823,0.055));
#392=CARTESIAN_POINT('Origin',(5.55111512312578E-17,-0.28,0.055));
#393=CARTESIAN_POINT('',(0.08,-0.28,0.055));
#394=CARTESIAN_POINT('',(0.08,-0.28,0.055));
#395=CARTESIAN_POINT('',(-0.0799999999999999,-0.28,0.055));
#396=CARTESIAN_POINT('',(-0.0799999999999999,-0.28,0.055));
#397=CARTESIAN_POINT('',(-0.0799999999999999,-0.246170672501824,0.055));
#398=CARTESIAN_POINT('Origin',(-5.55111512312578E-17,0.246170672501824,
0.055));
#399=CARTESIAN_POINT('',(-0.08,0.28,0.055));
#400=CARTESIAN_POINT('',(-0.0800000000000001,0.28,0.055));
#401=CARTESIAN_POINT('',(0.0799999999999999,0.28,0.055));
#402=CARTESIAN_POINT('',(0.0799999999999999,0.28,0.055));
#403=CARTESIAN_POINT('',(0.08,0.246170672501824,0.055));
#404=CARTESIAN_POINT('Origin',(0.08,0.,-0.110347885402456));
#405=CARTESIAN_POINT('',(0.0799999999999999,0.28,-0.075));
#406=CARTESIAN_POINT('',(0.08,0.28,-0.075));
#407=CARTESIAN_POINT('',(0.08,-0.28,-0.075));
#408=CARTESIAN_POINT('',(0.08,-0.28,-0.075));
#409=CARTESIAN_POINT('',(0.08,-0.28,-0.075));
#410=CARTESIAN_POINT('Origin',(-0.08,0.,-0.110347885402456));
#411=CARTESIAN_POINT('',(-0.0799999999999999,-0.28,-0.075));
#412=CARTESIAN_POINT('',(-0.0799999999999999,-0.28,0.055));
#413=CARTESIAN_POINT('',(-0.08,0.28,-0.075));
#414=CARTESIAN_POINT('',(-0.0800000000000001,0.28,-0.075));
#415=CARTESIAN_POINT('',(-0.08,0.28,-0.075));
#416=CARTESIAN_POINT('Origin',(0.,0.28,-0.075));
#417=CARTESIAN_POINT('',(0.0799999999999999,0.28,-0.075));
#418=CARTESIAN_POINT('Origin',(5.55111512312578E-17,-0.28,-0.075));
#419=CARTESIAN_POINT('',(-0.0799999999999999,-0.28,-0.075));
#420=CARTESIAN_POINT('Origin',(0.,8.32667268468867E-17,0.4215));
#421=CARTESIAN_POINT('',(-0.0999999999999999,-0.24,0.075));
#422=CARTESIAN_POINT('',(-0.1,0.24,0.075));
#423=CARTESIAN_POINT('Origin',(-0.1,-2.77555756156289E-17,0.4215));
#424=CARTESIAN_POINT('',(0.1,-0.24,0.075));
#425=CARTESIAN_POINT('',(0.1,-0.24,0.075));
#426=CARTESIAN_POINT('',(0.1,0.24,0.075));
#427=CARTESIAN_POINT('Origin',(0.1,1.94289029309402E-16,0.4215));
#428=CARTESIAN_POINT('',(-0.1,0.24,0.075));
#429=CARTESIAN_POINT('Origin',(4.16333634234434E-17,-0.3,0.075));
#430=CARTESIAN_POINT('',(-0.0999999999999999,-0.3,0.075));
#431=CARTESIAN_POINT('',(-0.0999999999999999,-0.24,0.075));
#432=CARTESIAN_POINT('',(0.1,-0.3,0.075));
#433=CARTESIAN_POINT('',(-0.0999999999999999,-0.3,0.075));
#434=CARTESIAN_POINT('',(0.1,-0.3,0.075));
#435=CARTESIAN_POINT('Origin',(0.,0.24,0.075));
#436=CARTESIAN_POINT('',(0.1,0.3,0.075));
#437=CARTESIAN_POINT('',(0.1,0.24,0.075));
#438=CARTESIAN_POINT('',(-0.1,0.3,0.075));
#439=CARTESIAN_POINT('',(0.1,0.3,0.075));
#440=CARTESIAN_POINT('',(-0.1,0.3,0.075));
#441=CARTESIAN_POINT('Origin',(0.1,0.,-0.0912337662337663));
#442=CARTESIAN_POINT('',(0.1,-0.3,-0.075));
#443=CARTESIAN_POINT('',(0.1,-0.3,-0.075));
#444=CARTESIAN_POINT('',(0.1,0.3,-0.075));
#445=CARTESIAN_POINT('',(0.1,0.3,-0.075));
#446=CARTESIAN_POINT('',(0.1,0.3,-0.075));
#447=CARTESIAN_POINT('Origin',(0.,-0.3,-0.075));
#448=CARTESIAN_POINT('',(-0.0999999999999999,-0.3,-0.075));
#449=CARTESIAN_POINT('',(0.1,-0.3,-0.075));
#450=CARTESIAN_POINT('',(-0.1,0.3,-0.075));
#451=CARTESIAN_POINT('',(-0.0999999999999999,-0.3,-0.075));
#452=CARTESIAN_POINT('',(-0.1,0.3,-0.075));
#453=CARTESIAN_POINT('Origin',(-0.1,0.,-0.0912337662337663));
#454=CARTESIAN_POINT('',(-0.1,0.3,-0.075));
#455=CARTESIAN_POINT('',(-0.0999999999999999,-0.3,0.075));
#456=CARTESIAN_POINT('Origin',(0.,0.3,-0.075));
#457=CARTESIAN_POINT('Origin',(4.16333634234434E-17,-0.3,-0.075));
#458=UNCERTAINTY_MEASURE_WITH_UNIT(LENGTH_MEASURE(0.001),#462,
'DISTANCE_ACCURACY_VALUE',
'Maximum model space distance between geometric entities at asserted c
onnectivities');
#459=UNCERTAINTY_MEASURE_WITH_UNIT(LENGTH_MEASURE(0.001),#462,
'DISTANCE_ACCURACY_VALUE',
'Maximum model space distance between geometric entities at asserted c
onnectivities');
#460=(
GEOMETRIC_REPRESENTATION_CONTEXT(3)
GLOBAL_UNCERTAINTY_ASSIGNED_CONTEXT((#458))
GLOBAL_UNIT_ASSIGNED_CONTEXT((#462,#464,#465))
REPRESENTATION_CONTEXT('','3D')
);
#461=(
GEOMETRIC_REPRESENTATION_CONTEXT(3)
GLOBAL_UNCERTAINTY_ASSIGNED_CONTEXT((#459))
GLOBAL_UNIT_ASSIGNED_CONTEXT((#462,#464,#465))
REPRESENTATION_CONTEXT('','3D')
);
#462=(
LENGTH_UNIT()
NAMED_UNIT(*)
SI_UNIT(.CENTI.,.METRE.)
);
#463=(
LENGTH_UNIT()
NAMED_UNIT(*)
SI_UNIT($,.METRE.)
);
#464=(
NAMED_UNIT(*)
PLANE_ANGLE_UNIT()
SI_UNIT($,.RADIAN.)
);
#465=(
NAMED_UNIT(*)
SI_UNIT($,.STERADIAN.)
SOLID_ANGLE_UNIT()
);
#466=SHAPE_DEFINITION_REPRESENTATION(#467,#468);
#467=PRODUCT_DEFINITION_SHAPE('',$,#470);
#468=SHAPE_REPRESENTATION('',(#290),#460);
#469=PRODUCT_DEFINITION_CONTEXT('part definition',#474,'design');
#470=PRODUCT_DEFINITION('temp_body','Untitled',#471,#469);
#471=PRODUCT_DEFINITION_FORMATION('',$,#476);
#472=PRODUCT_RELATED_PRODUCT_CATEGORY('Untitled','Untitled',(#476));
#473=APPLICATION_PROTOCOL_DEFINITION('international standard',
'automotive_design',2009,#474);
#474=APPLICATION_CONTEXT(
'Core Data for Automotive Mechanical Design Process');
#475=PRODUCT_CONTEXT('part definition',#474,'mechanical');
#476=PRODUCT('temp_body','Untitled',$,(#475));
#477=PRESENTATION_STYLE_ASSIGNMENT((#479));
#478=PRESENTATION_STYLE_ASSIGNMENT((#480));
#479=SURFACE_STYLE_USAGE(.BOTH.,#481);
#480=SURFACE_STYLE_USAGE(.BOTH.,#482);
#481=SURFACE_SIDE_STYLE('',(#483));
#482=SURFACE_SIDE_STYLE('',(#484));
#483=SURFACE_STYLE_FILL_AREA(#485);
#484=SURFACE_STYLE_FILL_AREA(#486);
#485=FILL_AREA_STYLE('Steel - Satin',(#487));
#486=FILL_AREA_STYLE('Opaque(160,160,160)',(#488));
#487=FILL_AREA_STYLE_COLOUR('Steel - Satin',#489);
#488=FILL_AREA_STYLE_COLOUR('Opaque(160,160,160)',#490);
#489=COLOUR_RGB('Steel - Satin',0.627450980392157,0.627450980392157,0.627450980392157);
#490=COLOUR_RGB('Opaque(160,160,160)',0.627450980392157,0.627450980392157,
0.627450980392157);
ENDSEC;
END-ISO-10303-21;
