ISO-10303-21;
HEADER;
/* Generated by software containing ST-Developer
 * from STEP Tools, Inc. (www.steptools.com) 
 */

FILE_DESCRIPTION(
/* description */ (''),
/* implementation_level */ '2;1');

FILE_NAME(
/* name */ '24171_fusion-360-151130-9608-bf8f9af9-spanne_v1.step',
/* time_stamp */ '2026-02-10T10:46:00Z',
/* author */ (''),
/* organization */ (''),
/* preprocessor_version */ 'ST-DEVELOPER v20.1',
/* originating_system */ 'Autodesk Translation Framework v14.24.0.0',
/* authorisation */ '');

FILE_SCHEMA (('AUTOMOTIVE_DESIGN { 1 0 10303 214 3 1 1 }'));
ENDSEC;

DATA;
#10=MECHANICAL_DESIGN_GEOMETRIC_PRESENTATION_REPRESENTATION('',(#17),#866);
#11=SHAPE_REPRESENTATION_RELATIONSHIP('SRR','None',#876,#12);
#12=ADVANCED_BREP_SHAPE_REPRESENTATION('',(#18),#864);
#13=ITEM_DEFINED_TRANSFORMATION($,$,#506,#561);
#14=(
REPRESENTATION_RELATIONSHIP($,$,#877,#876)
REPRESENTATION_RELATIONSHIP_WITH_TRANSFORMATION(#13)
SHAPE_REPRESENTATION_RELATIONSHIP()
);
#15=CONTEXT_DEPENDENT_SHAPE_REPRESENTATION(#14,#875);
#16=NEXT_ASSEMBLY_USAGE_OCCURRENCE('Component1:1','Component1:1',
'Component1:1',#879,#880,'Component1:1');
#17=STYLED_ITEM('',(#891),#18);
#18=MANIFOLD_SOLID_BREP('Body1',#492);
#19=FACE_BOUND('',#85,.T.);
#20=FACE_BOUND('',#86,.T.);
#21=FACE_BOUND('',#88,.T.);
#22=PLANE('',#510);
#23=PLANE('',#514);
#24=PLANE('',#517);
#25=PLANE('',#522);
#26=PLANE('',#523);
#27=PLANE('',#527);
#28=PLANE('',#537);
#29=PLANE('',#547);
#30=PLANE('',#551);
#31=PLANE('',#555);
#32=PLANE('',#559);
#33=PLANE('',#560);
#34=FACE_OUTER_BOUND('',#60,.T.);
#35=FACE_OUTER_BOUND('',#61,.T.);
#36=FACE_OUTER_BOUND('',#62,.T.);
#37=FACE_OUTER_BOUND('',#63,.T.);
#38=FACE_OUTER_BOUND('',#64,.T.);
#39=FACE_OUTER_BOUND('',#65,.T.);
#40=FACE_OUTER_BOUND('',#66,.T.);
#41=FACE_OUTER_BOUND('',#67,.T.);
#42=FACE_OUTER_BOUND('',#68,.T.);
#43=FACE_OUTER_BOUND('',#69,.T.);
#44=FACE_OUTER_BOUND('',#70,.T.);
#45=FACE_OUTER_BOUND('',#71,.T.);
#46=FACE_OUTER_BOUND('',#72,.T.);
#47=FACE_OUTER_BOUND('',#73,.T.);
#48=FACE_OUTER_BOUND('',#74,.T.);
#49=FACE_OUTER_BOUND('',#75,.T.);
#50=FACE_OUTER_BOUND('',#76,.T.);
#51=FACE_OUTER_BOUND('',#77,.T.);
#52=FACE_OUTER_BOUND('',#78,.T.);
#53=FACE_OUTER_BOUND('',#79,.T.);
#54=FACE_OUTER_BOUND('',#80,.T.);
#55=FACE_OUTER_BOUND('',#81,.T.);
#56=FACE_OUTER_BOUND('',#82,.T.);
#57=FACE_OUTER_BOUND('',#83,.T.);
#58=FACE_OUTER_BOUND('',#84,.T.);
#59=FACE_OUTER_BOUND('',#87,.T.);
#60=EDGE_LOOP('',(#314,#315,#316,#317));
#61=EDGE_LOOP('',(#318,#319,#320,#321,#322,#323,#324,#325));
#62=EDGE_LOOP('',(#326,#327,#328,#329));
#63=EDGE_LOOP('',(#330,#331,#332,#333));
#64=EDGE_LOOP('',(#334,#335,#336,#337));
#65=EDGE_LOOP('',(#338,#339,#340,#341));
#66=EDGE_LOOP('',(#342,#343,#344,#345));
#67=EDGE_LOOP('',(#346,#347,#348,#349));
#68=EDGE_LOOP('',(#350,#351,#352,#353));
#69=EDGE_LOOP('',(#354,#355,#356,#357));
#70=EDGE_LOOP('',(#358,#359,#360,#361));
#71=EDGE_LOOP('',(#362,#363,#364,#365));
#72=EDGE_LOOP('',(#366,#367,#368,#369));
#73=EDGE_LOOP('',(#370,#371,#372,#373));
#74=EDGE_LOOP('',(#374,#375,#376,#377));
#75=EDGE_LOOP('',(#378,#379,#380,#381));
#76=EDGE_LOOP('',(#382,#383,#384,#385));
#77=EDGE_LOOP('',(#386,#387,#388,#389));
#78=EDGE_LOOP('',(#390,#391,#392,#393));
#79=EDGE_LOOP('',(#394,#395,#396,#397));
#80=EDGE_LOOP('',(#398,#399,#400,#401));
#81=EDGE_LOOP('',(#402,#403,#404,#405));
#82=EDGE_LOOP('',(#406,#407,#408,#409));
#83=EDGE_LOOP('',(#410,#411,#412,#413));
#84=EDGE_LOOP('',(#414,#415,#416,#417,#418,#419,#420,#421,#422,#423,#424,
#425,#426,#427));
#85=EDGE_LOOP('',(#428,#429,#430,#431,#432,#433,#434,#435));
#86=EDGE_LOOP('',(#436));
#87=EDGE_LOOP('',(#437,#438,#439,#440,#441,#442,#443,#444,#445,#446,#447,
#448,#449,#450));
#88=EDGE_LOOP('',(#451));
#89=LINE('',#724,#130);
#90=LINE('',#727,#131);
#91=LINE('',#730,#132);
#92=LINE('',#734,#133);
#93=LINE('',#738,#134);
#94=LINE('',#741,#135);
#95=LINE('',#744,#136);
#96=LINE('',#745,#137);
#97=LINE('',#748,#138);
#98=LINE('',#751,#139);
#99=LINE('',#754,#140);
#100=LINE('',#755,#141);
#101=LINE('',#760,#142);
#102=LINE('',#763,#143);
#103=LINE('',#765,#144);
#104=LINE('',#767,#145);
#105=LINE('',#773,#146);
#106=LINE('',#776,#147);
#107=LINE('',#779,#148);
#108=LINE('',#781,#149);
#109=LINE('',#782,#150);
#110=LINE('',#787,#151);
#111=LINE('',#793,#152);
#112=LINE('',#799,#153);
#113=LINE('',#803,#154);
#114=LINE('',#805,#155);
#115=LINE('',#806,#156);
#116=LINE('',#811,#157);
#117=LINE('',#817,#158);
#118=LINE('',#824,#159);
#119=LINE('',#827,#160);
#120=LINE('',#830,#161);
#121=LINE('',#832,#162);
#122=LINE('',#833,#163);
#123=LINE('',#838,#164);
#124=LINE('',#842,#165);
#125=LINE('',#844,#166);
#126=LINE('',#845,#167);
#127=LINE('',#850,#168);
#128=LINE('',#853,#169);
#129=LINE('',#854,#170);
#130=VECTOR('',#570,10.);
#131=VECTOR('',#573,10.);
#132=VECTOR('',#576,10.);
#133=VECTOR('',#579,10.);
#134=VECTOR('',#582,10.);
#135=VECTOR('',#585,10.);
#136=VECTOR('',#588,10.);
#137=VECTOR('',#589,10.);
#138=VECTOR('',#592,10.);
#139=VECTOR('',#595,10.);
#140=VECTOR('',#598,10.);
#141=VECTOR('',#599,10.);
#142=VECTOR('',#606,10.);
#143=VECTOR('',#609,10.);
#144=VECTOR('',#612,10.);
#145=VECTOR('',#615,10.);
#146=VECTOR('',#620,10.);
#147=VECTOR('',#623,10.);
#148=VECTOR('',#626,10.);
#149=VECTOR('',#627,10.);
#150=VECTOR('',#628,10.);
#151=VECTOR('',#633,10.);
#152=VECTOR('',#640,10.);
#153=VECTOR('',#647,10.);
#154=VECTOR('',#652,10.);
#155=VECTOR('',#653,10.);
#156=VECTOR('',#654,10.);
#157=VECTOR('',#659,10.);
#158=VECTOR('',#666,10.);
#159=VECTOR('',#673,10.);
#160=VECTOR('',#676,10.);
#161=VECTOR('',#679,10.);
#162=VECTOR('',#680,10.);
#163=VECTOR('',#681,10.);
#164=VECTOR('',#686,10.);
#165=VECTOR('',#691,10.);
#166=VECTOR('',#692,10.);
#167=VECTOR('',#693,10.);
#168=VECTOR('',#698,10.);
#169=VECTOR('',#703,10.);
#170=VECTOR('',#704,10.);
#171=CIRCLE('',#508,1.);
#172=CIRCLE('',#509,1.);
#173=CIRCLE('',#511,1.);
#174=CIRCLE('',#512,1.);
#175=CIRCLE('',#513,1.);
#176=CIRCLE('',#516,1.);
#177=CIRCLE('',#519,1.);
#178=CIRCLE('',#521,1.);
#179=CIRCLE('',#525,5.);
#180=CIRCLE('',#526,5.);
#181=CIRCLE('',#529,5.);
#182=CIRCLE('',#530,5.);
#183=CIRCLE('',#532,14.9223583811762);
#184=CIRCLE('',#533,14.9223583811762);
#185=CIRCLE('',#535,5.);
#186=CIRCLE('',#536,5.);
#187=CIRCLE('',#539,5.);
#188=CIRCLE('',#540,5.);
#189=CIRCLE('',#542,25.789843432718);
#190=CIRCLE('',#543,25.789843432718);
#191=CIRCLE('',#545,5.);
#192=CIRCLE('',#546,5.);
#193=CIRCLE('',#549,5.);
#194=CIRCLE('',#550,5.);
#195=CIRCLE('',#553,10.);
#196=CIRCLE('',#554,10.);
#197=CIRCLE('',#557,25.9706442422865);
#198=CIRCLE('',#558,25.9706442422865);
#199=VERTEX_POINT('',#720);
#200=VERTEX_POINT('',#721);
#201=VERTEX_POINT('',#723);
#202=VERTEX_POINT('',#725);
#203=VERTEX_POINT('',#729);
#204=VERTEX_POINT('',#731);
#205=VERTEX_POINT('',#733);
#206=VERTEX_POINT('',#735);
#207=VERTEX_POINT('',#737);
#208=VERTEX_POINT('',#739);
#209=VERTEX_POINT('',#743);
#210=VERTEX_POINT('',#747);
#211=VERTEX_POINT('',#749);
#212=VERTEX_POINT('',#753);
#213=VERTEX_POINT('',#759);
#214=VERTEX_POINT('',#761);
#215=VERTEX_POINT('',#769);
#216=VERTEX_POINT('',#770);
#217=VERTEX_POINT('',#772);
#218=VERTEX_POINT('',#774);
#219=VERTEX_POINT('',#778);
#220=VERTEX_POINT('',#780);
#221=VERTEX_POINT('',#784);
#222=VERTEX_POINT('',#786);
#223=VERTEX_POINT('',#790);
#224=VERTEX_POINT('',#792);
#225=VERTEX_POINT('',#796);
#226=VERTEX_POINT('',#798);
#227=VERTEX_POINT('',#802);
#228=VERTEX_POINT('',#804);
#229=VERTEX_POINT('',#808);
#230=VERTEX_POINT('',#810);
#231=VERTEX_POINT('',#814);
#232=VERTEX_POINT('',#816);
#233=VERTEX_POINT('',#820);
#234=VERTEX_POINT('',#821);
#235=VERTEX_POINT('',#823);
#236=VERTEX_POINT('',#825);
#237=VERTEX_POINT('',#829);
#238=VERTEX_POINT('',#831);
#239=VERTEX_POINT('',#835);
#240=VERTEX_POINT('',#837);
#241=VERTEX_POINT('',#841);
#242=VERTEX_POINT('',#843);
#243=VERTEX_POINT('',#847);
#244=VERTEX_POINT('',#849);
#245=EDGE_CURVE('',#199,#200,#171,.T.);
#246=EDGE_CURVE('',#199,#201,#89,.T.);
#247=EDGE_CURVE('',#201,#202,#172,.T.);
#248=EDGE_CURVE('',#202,#200,#90,.T.);
#249=EDGE_CURVE('',#203,#200,#91,.T.);
#250=EDGE_CURVE('',#203,#204,#173,.T.);
#251=EDGE_CURVE('',#205,#204,#92,.T.);
#252=EDGE_CURVE('',#205,#206,#174,.T.);
#253=EDGE_CURVE('',#207,#206,#93,.T.);
#254=EDGE_CURVE('',#207,#208,#175,.T.);
#255=EDGE_CURVE('',#199,#208,#94,.T.);
#256=EDGE_CURVE('',#209,#202,#95,.T.);
#257=EDGE_CURVE('',#203,#209,#96,.T.);
#258=EDGE_CURVE('',#205,#210,#97,.T.);
#259=EDGE_CURVE('',#210,#211,#176,.T.);
#260=EDGE_CURVE('',#211,#206,#98,.T.);
#261=EDGE_CURVE('',#212,#204,#99,.T.);
#262=EDGE_CURVE('',#210,#212,#100,.T.);
#263=EDGE_CURVE('',#209,#212,#177,.T.);
#264=EDGE_CURVE('',#207,#213,#101,.T.);
#265=EDGE_CURVE('',#213,#214,#178,.T.);
#266=EDGE_CURVE('',#214,#208,#102,.T.);
#267=EDGE_CURVE('',#201,#214,#103,.T.);
#268=EDGE_CURVE('',#213,#211,#104,.T.);
#269=EDGE_CURVE('',#215,#216,#179,.T.);
#270=EDGE_CURVE('',#216,#217,#105,.T.);
#271=EDGE_CURVE('',#217,#218,#180,.T.);
#272=EDGE_CURVE('',#218,#215,#106,.T.);
#273=EDGE_CURVE('',#216,#219,#107,.T.);
#274=EDGE_CURVE('',#220,#219,#108,.T.);
#275=EDGE_CURVE('',#217,#220,#109,.T.);
#276=EDGE_CURVE('',#219,#221,#181,.T.);
#277=EDGE_CURVE('',#221,#222,#110,.T.);
#278=EDGE_CURVE('',#222,#220,#182,.T.);
#279=EDGE_CURVE('',#221,#223,#183,.T.);
#280=EDGE_CURVE('',#224,#223,#111,.T.);
#281=EDGE_CURVE('',#222,#224,#184,.T.);
#282=EDGE_CURVE('',#223,#225,#185,.T.);
#283=EDGE_CURVE('',#225,#226,#112,.T.);
#284=EDGE_CURVE('',#226,#224,#186,.T.);
#285=EDGE_CURVE('',#227,#225,#113,.T.);
#286=EDGE_CURVE('',#228,#227,#114,.T.);
#287=EDGE_CURVE('',#226,#228,#115,.T.);
#288=EDGE_CURVE('',#227,#229,#187,.T.);
#289=EDGE_CURVE('',#229,#230,#116,.T.);
#290=EDGE_CURVE('',#230,#228,#188,.T.);
#291=EDGE_CURVE('',#229,#231,#189,.T.);
#292=EDGE_CURVE('',#231,#232,#117,.T.);
#293=EDGE_CURVE('',#230,#232,#190,.T.);
#294=EDGE_CURVE('',#233,#234,#191,.T.);
#295=EDGE_CURVE('',#234,#235,#118,.T.);
#296=EDGE_CURVE('',#235,#236,#192,.T.);
#297=EDGE_CURVE('',#236,#233,#119,.T.);
#298=EDGE_CURVE('',#237,#234,#120,.T.);
#299=EDGE_CURVE('',#238,#237,#121,.T.);
#300=EDGE_CURVE('',#235,#238,#122,.T.);
#301=EDGE_CURVE('',#237,#239,#193,.T.);
#302=EDGE_CURVE('',#239,#240,#123,.T.);
#303=EDGE_CURVE('',#240,#238,#194,.T.);
#304=EDGE_CURVE('',#241,#239,#124,.T.);
#305=EDGE_CURVE('',#241,#242,#125,.T.);
#306=EDGE_CURVE('',#240,#242,#126,.T.);
#307=EDGE_CURVE('',#243,#243,#195,.T.);
#308=EDGE_CURVE('',#243,#244,#127,.T.);
#309=EDGE_CURVE('',#244,#244,#196,.T.);
#310=EDGE_CURVE('',#232,#236,#128,.T.);
#311=EDGE_CURVE('',#233,#231,#129,.T.);
#312=EDGE_CURVE('',#242,#218,#197,.T.);
#313=EDGE_CURVE('',#241,#215,#198,.T.);
#314=ORIENTED_EDGE('',*,*,#245,.F.);
#315=ORIENTED_EDGE('',*,*,#246,.T.);
#316=ORIENTED_EDGE('',*,*,#247,.T.);
#317=ORIENTED_EDGE('',*,*,#248,.T.);
#318=ORIENTED_EDGE('',*,*,#245,.T.);
#319=ORIENTED_EDGE('',*,*,#249,.F.);
#320=ORIENTED_EDGE('',*,*,#250,.T.);
#321=ORIENTED_EDGE('',*,*,#251,.F.);
#322=ORIENTED_EDGE('',*,*,#252,.T.);
#323=ORIENTED_EDGE('',*,*,#253,.F.);
#324=ORIENTED_EDGE('',*,*,#254,.T.);
#325=ORIENTED_EDGE('',*,*,#255,.F.);
#326=ORIENTED_EDGE('',*,*,#248,.F.);
#327=ORIENTED_EDGE('',*,*,#256,.F.);
#328=ORIENTED_EDGE('',*,*,#257,.F.);
#329=ORIENTED_EDGE('',*,*,#249,.T.);
#330=ORIENTED_EDGE('',*,*,#252,.F.);
#331=ORIENTED_EDGE('',*,*,#258,.T.);
#332=ORIENTED_EDGE('',*,*,#259,.T.);
#333=ORIENTED_EDGE('',*,*,#260,.T.);
#334=ORIENTED_EDGE('',*,*,#258,.F.);
#335=ORIENTED_EDGE('',*,*,#251,.T.);
#336=ORIENTED_EDGE('',*,*,#261,.F.);
#337=ORIENTED_EDGE('',*,*,#262,.F.);
#338=ORIENTED_EDGE('',*,*,#250,.F.);
#339=ORIENTED_EDGE('',*,*,#257,.T.);
#340=ORIENTED_EDGE('',*,*,#263,.T.);
#341=ORIENTED_EDGE('',*,*,#261,.T.);
#342=ORIENTED_EDGE('',*,*,#254,.F.);
#343=ORIENTED_EDGE('',*,*,#264,.T.);
#344=ORIENTED_EDGE('',*,*,#265,.T.);
#345=ORIENTED_EDGE('',*,*,#266,.T.);
#346=ORIENTED_EDGE('',*,*,#246,.F.);
#347=ORIENTED_EDGE('',*,*,#255,.T.);
#348=ORIENTED_EDGE('',*,*,#266,.F.);
#349=ORIENTED_EDGE('',*,*,#267,.F.);
#350=ORIENTED_EDGE('',*,*,#260,.F.);
#351=ORIENTED_EDGE('',*,*,#268,.F.);
#352=ORIENTED_EDGE('',*,*,#264,.F.);
#353=ORIENTED_EDGE('',*,*,#253,.T.);
#354=ORIENTED_EDGE('',*,*,#269,.T.);
#355=ORIENTED_EDGE('',*,*,#270,.T.);
#356=ORIENTED_EDGE('',*,*,#271,.T.);
#357=ORIENTED_EDGE('',*,*,#272,.T.);
#358=ORIENTED_EDGE('',*,*,#270,.F.);
#359=ORIENTED_EDGE('',*,*,#273,.T.);
#360=ORIENTED_EDGE('',*,*,#274,.F.);
#361=ORIENTED_EDGE('',*,*,#275,.F.);
#362=ORIENTED_EDGE('',*,*,#276,.T.);
#363=ORIENTED_EDGE('',*,*,#277,.T.);
#364=ORIENTED_EDGE('',*,*,#278,.T.);
#365=ORIENTED_EDGE('',*,*,#274,.T.);
#366=ORIENTED_EDGE('',*,*,#277,.F.);
#367=ORIENTED_EDGE('',*,*,#279,.T.);
#368=ORIENTED_EDGE('',*,*,#280,.F.);
#369=ORIENTED_EDGE('',*,*,#281,.F.);
#370=ORIENTED_EDGE('',*,*,#282,.T.);
#371=ORIENTED_EDGE('',*,*,#283,.T.);
#372=ORIENTED_EDGE('',*,*,#284,.T.);
#373=ORIENTED_EDGE('',*,*,#280,.T.);
#374=ORIENTED_EDGE('',*,*,#283,.F.);
#375=ORIENTED_EDGE('',*,*,#285,.F.);
#376=ORIENTED_EDGE('',*,*,#286,.F.);
#377=ORIENTED_EDGE('',*,*,#287,.F.);
#378=ORIENTED_EDGE('',*,*,#288,.T.);
#379=ORIENTED_EDGE('',*,*,#289,.T.);
#380=ORIENTED_EDGE('',*,*,#290,.T.);
#381=ORIENTED_EDGE('',*,*,#286,.T.);
#382=ORIENTED_EDGE('',*,*,#289,.F.);
#383=ORIENTED_EDGE('',*,*,#291,.T.);
#384=ORIENTED_EDGE('',*,*,#292,.T.);
#385=ORIENTED_EDGE('',*,*,#293,.F.);
#386=ORIENTED_EDGE('',*,*,#294,.T.);
#387=ORIENTED_EDGE('',*,*,#295,.T.);
#388=ORIENTED_EDGE('',*,*,#296,.T.);
#389=ORIENTED_EDGE('',*,*,#297,.T.);
#390=ORIENTED_EDGE('',*,*,#295,.F.);
#391=ORIENTED_EDGE('',*,*,#298,.F.);
#392=ORIENTED_EDGE('',*,*,#299,.F.);
#393=ORIENTED_EDGE('',*,*,#300,.F.);
#394=ORIENTED_EDGE('',*,*,#301,.T.);
#395=ORIENTED_EDGE('',*,*,#302,.T.);
#396=ORIENTED_EDGE('',*,*,#303,.T.);
#397=ORIENTED_EDGE('',*,*,#299,.T.);
#398=ORIENTED_EDGE('',*,*,#302,.F.);
#399=ORIENTED_EDGE('',*,*,#304,.F.);
#400=ORIENTED_EDGE('',*,*,#305,.T.);
#401=ORIENTED_EDGE('',*,*,#306,.F.);
#402=ORIENTED_EDGE('',*,*,#307,.F.);
#403=ORIENTED_EDGE('',*,*,#308,.T.);
#404=ORIENTED_EDGE('',*,*,#309,.F.);
#405=ORIENTED_EDGE('',*,*,#308,.F.);
#406=ORIENTED_EDGE('',*,*,#297,.F.);
#407=ORIENTED_EDGE('',*,*,#310,.F.);
#408=ORIENTED_EDGE('',*,*,#292,.F.);
#409=ORIENTED_EDGE('',*,*,#311,.F.);
#410=ORIENTED_EDGE('',*,*,#272,.F.);
#411=ORIENTED_EDGE('',*,*,#312,.F.);
#412=ORIENTED_EDGE('',*,*,#305,.F.);
#413=ORIENTED_EDGE('',*,*,#313,.T.);
#414=ORIENTED_EDGE('',*,*,#312,.T.);
#415=ORIENTED_EDGE('',*,*,#271,.F.);
#416=ORIENTED_EDGE('',*,*,#275,.T.);
#417=ORIENTED_EDGE('',*,*,#278,.F.);
#418=ORIENTED_EDGE('',*,*,#281,.T.);
#419=ORIENTED_EDGE('',*,*,#284,.F.);
#420=ORIENTED_EDGE('',*,*,#287,.T.);
#421=ORIENTED_EDGE('',*,*,#290,.F.);
#422=ORIENTED_EDGE('',*,*,#293,.T.);
#423=ORIENTED_EDGE('',*,*,#310,.T.);
#424=ORIENTED_EDGE('',*,*,#296,.F.);
#425=ORIENTED_EDGE('',*,*,#300,.T.);
#426=ORIENTED_EDGE('',*,*,#303,.F.);
#427=ORIENTED_EDGE('',*,*,#306,.T.);
#428=ORIENTED_EDGE('',*,*,#268,.T.);
#429=ORIENTED_EDGE('',*,*,#259,.F.);
#430=ORIENTED_EDGE('',*,*,#262,.T.);
#431=ORIENTED_EDGE('',*,*,#263,.F.);
#432=ORIENTED_EDGE('',*,*,#256,.T.);
#433=ORIENTED_EDGE('',*,*,#247,.F.);
#434=ORIENTED_EDGE('',*,*,#267,.T.);
#435=ORIENTED_EDGE('',*,*,#265,.F.);
#436=ORIENTED_EDGE('',*,*,#307,.T.);
#437=ORIENTED_EDGE('',*,*,#313,.F.);
#438=ORIENTED_EDGE('',*,*,#304,.T.);
#439=ORIENTED_EDGE('',*,*,#301,.F.);
#440=ORIENTED_EDGE('',*,*,#298,.T.);
#441=ORIENTED_EDGE('',*,*,#294,.F.);
#442=ORIENTED_EDGE('',*,*,#311,.T.);
#443=ORIENTED_EDGE('',*,*,#291,.F.);
#444=ORIENTED_EDGE('',*,*,#288,.F.);
#445=ORIENTED_EDGE('',*,*,#285,.T.);
#446=ORIENTED_EDGE('',*,*,#282,.F.);
#447=ORIENTED_EDGE('',*,*,#279,.F.);
#448=ORIENTED_EDGE('',*,*,#276,.F.);
#449=ORIENTED_EDGE('',*,*,#273,.F.);
#450=ORIENTED_EDGE('',*,*,#269,.F.);
#451=ORIENTED_EDGE('',*,*,#309,.T.);
#452=CYLINDRICAL_SURFACE('',#507,1.);
#453=CYLINDRICAL_SURFACE('',#515,1.);
#454=CYLINDRICAL_SURFACE('',#518,1.);
#455=CYLINDRICAL_SURFACE('',#520,1.);
#456=CYLINDRICAL_SURFACE('',#524,5.);
#457=CYLINDRICAL_SURFACE('',#528,5.);
#458=CYLINDRICAL_SURFACE('',#531,14.9223583811762);
#459=CYLINDRICAL_SURFACE('',#534,5.);
#460=CYLINDRICAL_SURFACE('',#538,5.);
#461=CYLINDRICAL_SURFACE('',#541,25.789843432718);
#462=CYLINDRICAL_SURFACE('',#544,5.);
#463=CYLINDRICAL_SURFACE('',#548,5.);
#464=CYLINDRICAL_SURFACE('',#552,10.);
#465=CYLINDRICAL_SURFACE('',#556,25.9706442422865);
#466=ADVANCED_FACE('',(#34),#452,.F.);
#467=ADVANCED_FACE('',(#35),#22,.F.);
#468=ADVANCED_FACE('',(#36),#23,.F.);
#469=ADVANCED_FACE('',(#37),#453,.F.);
#470=ADVANCED_FACE('',(#38),#24,.F.);
#471=ADVANCED_FACE('',(#39),#454,.F.);
#472=ADVANCED_FACE('',(#40),#455,.F.);
#473=ADVANCED_FACE('',(#41),#25,.F.);
#474=ADVANCED_FACE('',(#42),#26,.F.);
#475=ADVANCED_FACE('',(#43),#456,.F.);
#476=ADVANCED_FACE('',(#44),#27,.T.);
#477=ADVANCED_FACE('',(#45),#457,.F.);
#478=ADVANCED_FACE('',(#46),#458,.T.);
#479=ADVANCED_FACE('',(#47),#459,.F.);
#480=ADVANCED_FACE('',(#48),#28,.T.);
#481=ADVANCED_FACE('',(#49),#460,.F.);
#482=ADVANCED_FACE('',(#50),#461,.T.);
#483=ADVANCED_FACE('',(#51),#462,.F.);
#484=ADVANCED_FACE('',(#52),#29,.T.);
#485=ADVANCED_FACE('',(#53),#463,.F.);
#486=ADVANCED_FACE('',(#54),#30,.T.);
#487=ADVANCED_FACE('',(#55),#464,.F.);
#488=ADVANCED_FACE('',(#56),#31,.T.);
#489=ADVANCED_FACE('',(#57),#465,.T.);
#490=ADVANCED_FACE('',(#58,#19,#20),#32,.T.);
#491=ADVANCED_FACE('',(#59,#21),#33,.F.);
#492=CLOSED_SHELL('',(#466,#467,#468,#469,#470,#471,#472,#473,#474,#475,
#476,#477,#478,#479,#480,#481,#482,#483,#484,#485,#486,#487,#488,#489,#490,
#491));
#493=DERIVED_UNIT_ELEMENT(#495,1.);
#494=DERIVED_UNIT_ELEMENT(#868,-3.);
#495=(
MASS_UNIT()
NAMED_UNIT(*)
SI_UNIT(.KILO.,.GRAM.)
);
#496=DERIVED_UNIT((#493,#494));
#497=MEASURE_REPRESENTATION_ITEM('density measure',
POSITIVE_RATIO_MEASURE(7850.),#496);
#498=PROPERTY_DEFINITION_REPRESENTATION(#503,#500);
#499=PROPERTY_DEFINITION_REPRESENTATION(#504,#501);
#500=REPRESENTATION('material name',(#502),#865);
#501=REPRESENTATION('density',(#497),#865);
#502=DESCRIPTIVE_REPRESENTATION_ITEM('Steel','Steel');
#503=PROPERTY_DEFINITION('material property','material name',#880);
#504=PROPERTY_DEFINITION('material property','density of part',#880);
#505=AXIS2_PLACEMENT_3D('',#717,#562,#563);
#506=AXIS2_PLACEMENT_3D('',#718,#564,#565);
#507=AXIS2_PLACEMENT_3D('',#719,#566,#567);
#508=AXIS2_PLACEMENT_3D('',#722,#568,#569);
#509=AXIS2_PLACEMENT_3D('',#726,#571,#572);
#510=AXIS2_PLACEMENT_3D('',#728,#574,#575);
#511=AXIS2_PLACEMENT_3D('',#732,#577,#578);
#512=AXIS2_PLACEMENT_3D('',#736,#580,#581);
#513=AXIS2_PLACEMENT_3D('',#740,#583,#584);
#514=AXIS2_PLACEMENT_3D('',#742,#586,#587);
#515=AXIS2_PLACEMENT_3D('',#746,#590,#591);
#516=AXIS2_PLACEMENT_3D('',#750,#593,#594);
#517=AXIS2_PLACEMENT_3D('',#752,#596,#597);
#518=AXIS2_PLACEMENT_3D('',#756,#600,#601);
#519=AXIS2_PLACEMENT_3D('',#757,#602,#603);
#520=AXIS2_PLACEMENT_3D('',#758,#604,#605);
#521=AXIS2_PLACEMENT_3D('',#762,#607,#608);
#522=AXIS2_PLACEMENT_3D('',#764,#610,#611);
#523=AXIS2_PLACEMENT_3D('',#766,#613,#614);
#524=AXIS2_PLACEMENT_3D('',#768,#616,#617);
#525=AXIS2_PLACEMENT_3D('',#771,#618,#619);
#526=AXIS2_PLACEMENT_3D('',#775,#621,#622);
#527=AXIS2_PLACEMENT_3D('',#777,#624,#625);
#528=AXIS2_PLACEMENT_3D('',#783,#629,#630);
#529=AXIS2_PLACEMENT_3D('',#785,#631,#632);
#530=AXIS2_PLACEMENT_3D('',#788,#634,#635);
#531=AXIS2_PLACEMENT_3D('',#789,#636,#637);
#532=AXIS2_PLACEMENT_3D('',#791,#638,#639);
#533=AXIS2_PLACEMENT_3D('',#794,#641,#642);
#534=AXIS2_PLACEMENT_3D('',#795,#643,#644);
#535=AXIS2_PLACEMENT_3D('',#797,#645,#646);
#536=AXIS2_PLACEMENT_3D('',#800,#648,#649);
#537=AXIS2_PLACEMENT_3D('',#801,#650,#651);
#538=AXIS2_PLACEMENT_3D('',#807,#655,#656);
#539=AXIS2_PLACEMENT_3D('',#809,#657,#658);
#540=AXIS2_PLACEMENT_3D('',#812,#660,#661);
#541=AXIS2_PLACEMENT_3D('',#813,#662,#663);
#542=AXIS2_PLACEMENT_3D('',#815,#664,#665);
#543=AXIS2_PLACEMENT_3D('',#818,#667,#668);
#544=AXIS2_PLACEMENT_3D('',#819,#669,#670);
#545=AXIS2_PLACEMENT_3D('',#822,#671,#672);
#546=AXIS2_PLACEMENT_3D('',#826,#674,#675);
#547=AXIS2_PLACEMENT_3D('',#828,#677,#678);
#548=AXIS2_PLACEMENT_3D('',#834,#682,#683);
#549=AXIS2_PLACEMENT_3D('',#836,#684,#685);
#550=AXIS2_PLACEMENT_3D('',#839,#687,#688);
#551=AXIS2_PLACEMENT_3D('',#840,#689,#690);
#552=AXIS2_PLACEMENT_3D('',#846,#694,#695);
#553=AXIS2_PLACEMENT_3D('',#848,#696,#697);
#554=AXIS2_PLACEMENT_3D('',#851,#699,#700);
#555=AXIS2_PLACEMENT_3D('',#852,#701,#702);
#556=AXIS2_PLACEMENT_3D('',#855,#705,#706);
#557=AXIS2_PLACEMENT_3D('',#856,#707,#708);
#558=AXIS2_PLACEMENT_3D('',#857,#709,#710);
#559=AXIS2_PLACEMENT_3D('',#858,#711,#712);
#560=AXIS2_PLACEMENT_3D('',#859,#713,#714);
#561=AXIS2_PLACEMENT_3D('',#860,#715,#716);
#562=DIRECTION('axis',(0.,0.,1.));
#563=DIRECTION('refdir',(1.,0.,0.));
#564=DIRECTION('axis',(0.,0.,1.));
#565=DIRECTION('refdir',(1.,0.,0.));
#566=DIRECTION('center_axis',(0.,-1.,0.));
#567=DIRECTION('ref_axis',(-0.707106781186548,0.,0.707106781186547));
#568=DIRECTION('center_axis',(0.,1.,0.));
#569=DIRECTION('ref_axis',(-0.707106781186548,0.,0.707106781186547));
#570=DIRECTION('',(0.,1.,0.));
#571=DIRECTION('center_axis',(0.,1.,0.));
#572=DIRECTION('ref_axis',(-0.707106781186548,0.,0.707106781186547));
#573=DIRECTION('',(0.,-1.,0.));
#574=DIRECTION('center_axis',(0.,-1.,0.));
#575=DIRECTION('ref_axis',(0.,0.,-1.));
#576=DIRECTION('',(-1.,0.,0.));
#577=DIRECTION('center_axis',(0.,1.,0.));
#578=DIRECTION('ref_axis',(0.707106781186548,0.,0.707106781186547));
#579=DIRECTION('',(0.,0.,1.));
#580=DIRECTION('center_axis',(0.,1.,0.));
#581=DIRECTION('ref_axis',(0.707106781186543,0.,-0.707106781186552));
#582=DIRECTION('',(1.,0.,0.));
#583=DIRECTION('center_axis',(0.,1.,0.));
#584=DIRECTION('ref_axis',(-0.707106781186542,0.,-0.707106781186553));
#585=DIRECTION('',(0.,0.,-1.));
#586=DIRECTION('center_axis',(0.,0.,1.));
#587=DIRECTION('ref_axis',(-1.,0.,0.));
#588=DIRECTION('',(-1.,0.,0.));
#589=DIRECTION('',(0.,1.,0.));
#590=DIRECTION('center_axis',(0.,-1.,0.));
#591=DIRECTION('ref_axis',(0.707106781186543,0.,-0.707106781186552));
#592=DIRECTION('',(0.,1.,0.));
#593=DIRECTION('center_axis',(0.,1.,0.));
#594=DIRECTION('ref_axis',(0.707106781186543,0.,-0.707106781186552));
#595=DIRECTION('',(0.,-1.,0.));
#596=DIRECTION('center_axis',(1.,0.,0.));
#597=DIRECTION('ref_axis',(0.,0.,1.));
#598=DIRECTION('',(0.,-1.,0.));
#599=DIRECTION('',(0.,0.,1.));
#600=DIRECTION('center_axis',(0.,-1.,0.));
#601=DIRECTION('ref_axis',(0.707106781186548,0.,0.707106781186547));
#602=DIRECTION('center_axis',(0.,1.,0.));
#603=DIRECTION('ref_axis',(0.707106781186548,0.,0.707106781186547));
#604=DIRECTION('center_axis',(0.,-1.,0.));
#605=DIRECTION('ref_axis',(-0.707106781186542,0.,-0.707106781186553));
#606=DIRECTION('',(0.,1.,0.));
#607=DIRECTION('center_axis',(0.,1.,0.));
#608=DIRECTION('ref_axis',(-0.707106781186542,0.,-0.707106781186553));
#609=DIRECTION('',(0.,-1.,0.));
#610=DIRECTION('center_axis',(-1.,0.,0.));
#611=DIRECTION('ref_axis',(0.,0.,-1.));
#612=DIRECTION('',(0.,0.,-1.));
#613=DIRECTION('center_axis',(0.,0.,-1.));
#614=DIRECTION('ref_axis',(1.,0.,0.));
#615=DIRECTION('',(1.,0.,0.));
#616=DIRECTION('center_axis',(0.,1.,0.));
#617=DIRECTION('ref_axis',(0.833684575326488,0.,-0.55224091559997));
#618=DIRECTION('center_axis',(0.,-1.,0.));
#619=DIRECTION('ref_axis',(0.833684575326488,0.,-0.55224091559997));
#620=DIRECTION('',(0.,1.,0.));
#621=DIRECTION('center_axis',(0.,1.,0.));
#622=DIRECTION('ref_axis',(0.833684575326488,0.,-0.55224091559997));
#623=DIRECTION('',(0.,-1.,0.));
#624=DIRECTION('center_axis',(-1.,0.,2.22044604925031E-17));
#625=DIRECTION('ref_axis',(2.22044604925031E-17,0.,1.));
#626=DIRECTION('',(2.22044604925031E-17,0.,1.));
#627=DIRECTION('',(0.,-1.,0.));
#628=DIRECTION('',(2.22044604925031E-17,0.,1.));
#629=DIRECTION('center_axis',(0.,1.,0.));
#630=DIRECTION('ref_axis',(0.937448278274844,0.,0.348124583388663));
#631=DIRECTION('center_axis',(0.,-1.,0.));
#632=DIRECTION('ref_axis',(0.937448278274844,0.,0.348124583388663));
#633=DIRECTION('',(0.,1.,0.));
#634=DIRECTION('center_axis',(0.,1.,0.));
#635=DIRECTION('ref_axis',(0.937448278274844,0.,0.348124583388663));
#636=DIRECTION('center_axis',(0.,1.,0.));
#637=DIRECTION('ref_axis',(0.00358223106804946,0.,0.999993583789704));
#638=DIRECTION('center_axis',(0.,1.,0.));
#639=DIRECTION('ref_axis',(-0.676404358426698,0.,-0.736530477238632));
#640=DIRECTION('',(0.,-1.,0.));
#641=DIRECTION('center_axis',(0.,1.,0.));
#642=DIRECTION('ref_axis',(-0.676404358426698,0.,-0.736530477238632));
#643=DIRECTION('center_axis',(0.,1.,0.));
#644=DIRECTION('ref_axis',(-0.936195200711382,0.,0.351480506095253));
#645=DIRECTION('center_axis',(0.,-1.,0.));
#646=DIRECTION('ref_axis',(-0.936195200711382,0.,0.351480506095253));
#647=DIRECTION('',(0.,1.,0.));
#648=DIRECTION('center_axis',(0.,1.,0.));
#649=DIRECTION('ref_axis',(-0.936195200711382,0.,0.351480506095253));
#650=DIRECTION('center_axis',(1.,0.,0.));
#651=DIRECTION('ref_axis',(0.,0.,-1.));
#652=DIRECTION('',(0.,0.,1.));
#653=DIRECTION('',(0.,-1.,0.));
#654=DIRECTION('',(0.,0.,-1.));
#655=DIRECTION('center_axis',(0.,1.,0.));
#656=DIRECTION('ref_axis',(-0.827072954795145,0.,-0.562094589412163));
#657=DIRECTION('center_axis',(0.,-1.,0.));
#658=DIRECTION('ref_axis',(-0.827072954795145,0.,-0.562094589412163));
#659=DIRECTION('',(0.,1.,0.));
#660=DIRECTION('center_axis',(0.,1.,0.));
#661=DIRECTION('ref_axis',(-0.827072954795145,0.,-0.562094589412163));
#662=DIRECTION('center_axis',(0.,1.,0.));
#663=DIRECTION('ref_axis',(0.2455897500913,0.,0.969373857007756));
#664=DIRECTION('center_axis',(0.,1.,0.));
#665=DIRECTION('ref_axis',(0.2455897500913,0.,0.969373857007756));
#666=DIRECTION('',(0.,1.,0.));
#667=DIRECTION('center_axis',(0.,1.,0.));
#668=DIRECTION('ref_axis',(0.2455897500913,0.,0.969373857007756));
#669=DIRECTION('center_axis',(0.,1.,0.));
#670=DIRECTION('ref_axis',(0.707106781186547,0.,0.707106781186547));
#671=DIRECTION('center_axis',(0.,-1.,0.));
#672=DIRECTION('ref_axis',(0.707106781186547,0.,0.707106781186547));
#673=DIRECTION('',(0.,1.,0.));
#674=DIRECTION('center_axis',(0.,1.,0.));
#675=DIRECTION('ref_axis',(0.707106781186547,0.,0.707106781186547));
#676=DIRECTION('',(0.,-1.,0.));
#677=DIRECTION('center_axis',(0.,0.,-1.));
#678=DIRECTION('ref_axis',(-1.,0.,0.));
#679=DIRECTION('',(1.,0.,0.));
#680=DIRECTION('',(0.,-1.,0.));
#681=DIRECTION('',(-1.,0.,0.));
#682=DIRECTION('center_axis',(0.,1.,0.));
#683=DIRECTION('ref_axis',(-0.707106781186547,0.,0.707106781186547));
#684=DIRECTION('center_axis',(0.,-1.,0.));
#685=DIRECTION('ref_axis',(-0.707106781186547,0.,0.707106781186547));
#686=DIRECTION('',(0.,1.,0.));
#687=DIRECTION('center_axis',(0.,1.,0.));
#688=DIRECTION('ref_axis',(-0.707106781186547,0.,0.707106781186547));
#689=DIRECTION('center_axis',(1.,0.,0.));
#690=DIRECTION('ref_axis',(0.,0.,-1.));
#691=DIRECTION('',(0.,0.,1.));
#692=DIRECTION('',(0.,1.,0.));
#693=DIRECTION('',(0.,0.,-1.));
#694=DIRECTION('center_axis',(0.,-1.,0.));
#695=DIRECTION('ref_axis',(-1.,0.,0.));
#696=DIRECTION('center_axis',(0.,-1.,0.));
#697=DIRECTION('ref_axis',(-1.,0.,0.));
#698=DIRECTION('',(0.,-1.,0.));
#699=DIRECTION('center_axis',(0.,1.,0.));
#700=DIRECTION('ref_axis',(-1.,0.,0.));
#701=DIRECTION('center_axis',(-1.,0.,0.));
#702=DIRECTION('ref_axis',(0.,0.,1.));
#703=DIRECTION('',(0.,0.,1.));
#704=DIRECTION('',(0.,0.,-1.));
#705=DIRECTION('center_axis',(0.,1.,0.));
#706=DIRECTION('ref_axis',(-0.269029115840912,0.,-0.963132044337565));
#707=DIRECTION('center_axis',(0.,1.,0.));
#708=DIRECTION('ref_axis',(-0.269029115840912,0.,-0.963132044337565));
#709=DIRECTION('center_axis',(0.,1.,0.));
#710=DIRECTION('ref_axis',(-0.269029115840912,0.,-0.963132044337565));
#711=DIRECTION('center_axis',(0.,1.,0.));
#712=DIRECTION('ref_axis',(1.,0.,0.));
#713=DIRECTION('center_axis',(0.,1.,0.));
#714=DIRECTION('ref_axis',(1.,0.,0.));
#715=DIRECTION('',(1.5405928851611E-16,2.86270488028586E-16,0.999999999999999));
#716=DIRECTION('',(1.,1.66533453693774E-16,-1.11022302462516E-16));
#717=CARTESIAN_POINT('',(0.,0.,0.));
#718=CARTESIAN_POINT('',(0.,0.,0.));
#719=CARTESIAN_POINT('Origin',(-6.49109962059712,16.,-7.15197255422222));
#720=CARTESIAN_POINT('',(-7.49109962059713,14.,-7.15197255422222));
#721=CARTESIAN_POINT('',(-6.49109962059712,14.,-6.15197255422222));
#722=CARTESIAN_POINT('Origin',(-6.49109962059712,14.,-7.15197255422222));
#723=CARTESIAN_POINT('',(-7.49109962059713,15.,-7.15197255422222));
#724=CARTESIAN_POINT('',(-7.49109962059713,16.,-7.15197255422222));
#725=CARTESIAN_POINT('',(-6.49109962059712,15.,-6.15197255422222));
#726=CARTESIAN_POINT('Origin',(-6.49109962059712,15.,-7.15197255422222));
#727=CARTESIAN_POINT('',(-6.49109962059712,16.,-6.15197255422222));
#728=CARTESIAN_POINT('Origin',(-0.27296201250552,14.,-51.7760498883862));
#729=CARTESIAN_POINT('',(5.94517559558609,14.,-6.15197255422222));
#730=CARTESIAN_POINT('',(-7.49109962059713,14.,-6.15197255422222));
#731=CARTESIAN_POINT('',(6.94517559558609,14.,-7.15197255422222));
#732=CARTESIAN_POINT('Origin',(5.94517559558609,14.,-7.15197255422222));
#733=CARTESIAN_POINT('',(6.94517559558609,14.,-96.4001272225501));
#734=CARTESIAN_POINT('',(6.94517559558609,14.,-6.15197255422222));
#735=CARTESIAN_POINT('',(5.94517559558609,14.,-97.4001272225501));
#736=CARTESIAN_POINT('Origin',(5.94517559558609,14.,-96.4001272225501));
#737=CARTESIAN_POINT('',(-6.49109962059712,14.,-97.4001272225501));
#738=CARTESIAN_POINT('',(6.94517559558609,14.,-97.4001272225501));
#739=CARTESIAN_POINT('',(-7.49109962059713,14.,-96.4001272225501));
#740=CARTESIAN_POINT('Origin',(-6.49109962059713,14.,-96.4001272225501));
#741=CARTESIAN_POINT('',(-7.49109962059713,14.,-97.4001272225501));
#742=CARTESIAN_POINT('Origin',(6.94517559558609,16.,-6.15197255422222));
#743=CARTESIAN_POINT('',(5.94517559558609,15.,-6.15197255422222));
#744=CARTESIAN_POINT('',(-3.62746544899413,15.,-6.15197255422222));
#745=CARTESIAN_POINT('',(5.94517559558609,16.,-6.15197255422222));
#746=CARTESIAN_POINT('Origin',(5.94517559558609,16.,-96.4001272225501));
#747=CARTESIAN_POINT('',(6.94517559558609,15.,-96.4001272225501));
#748=CARTESIAN_POINT('',(6.94517559558609,16.,-96.4001272225501));
#749=CARTESIAN_POINT('',(5.94517559558609,15.,-97.4001272225501));
#750=CARTESIAN_POINT('Origin',(5.94517559558609,15.,-96.4001272225501));
#751=CARTESIAN_POINT('',(5.94517559558609,16.,-97.4001272225501));
#752=CARTESIAN_POINT('Origin',(6.94517559558609,16.,-97.4001272225501));
#753=CARTESIAN_POINT('',(6.94517559558609,15.,-7.15197255422222));
#754=CARTESIAN_POINT('',(6.94517559558609,16.,-7.15197255422222));
#755=CARTESIAN_POINT('',(6.94517559558609,15.,-34.0977037468137));
#756=CARTESIAN_POINT('Origin',(5.94517559558609,16.,-7.15197255422222));
#757=CARTESIAN_POINT('Origin',(5.94517559558609,15.,-7.15197255422222));
#758=CARTESIAN_POINT('Origin',(-6.49109962059713,16.,-96.4001272225501));
#759=CARTESIAN_POINT('',(-6.49109962059713,15.,-97.4001272225501));
#760=CARTESIAN_POINT('',(-6.49109962059713,16.,-97.4001272225501));
#761=CARTESIAN_POINT('',(-7.49109962059713,15.,-96.4001272225501));
#762=CARTESIAN_POINT('Origin',(-6.49109962059713,15.,-96.4001272225501));
#763=CARTESIAN_POINT('',(-7.49109962059713,16.,-96.4001272225501));
#764=CARTESIAN_POINT('Origin',(-7.49109962059713,16.,-6.15197255422222));
#765=CARTESIAN_POINT('',(-7.49109962059713,15.,-79.7217810809776));
#766=CARTESIAN_POINT('Origin',(-7.49109962059713,16.,-97.4001272225501));
#767=CARTESIAN_POINT('',(3.59067215909747,15.,-97.4001272225501));
#768=CARTESIAN_POINT('Origin',(-15.0935482470328,0.,-96.4693973322517));
#769=CARTESIAN_POINT('',(-13.1432485356597,0.,-101.07334466425));
#770=CARTESIAN_POINT('',(-10.0935482470328,0.,-96.4693973322517));
#771=CARTESIAN_POINT('Origin',(-15.0935482470328,0.,-96.4693973322517));
#772=CARTESIAN_POINT('',(-10.0935482470328,15.,-96.4693973322517));
#773=CARTESIAN_POINT('',(-10.0935482470328,0.,-96.4693973322517));
#774=CARTESIAN_POINT('',(-13.1432485356597,15.,-101.07334466425));
#775=CARTESIAN_POINT('Origin',(-15.0935482470328,15.,-96.4693973322517));
#776=CARTESIAN_POINT('',(-13.1432485356597,0.,-101.07334466425));
#777=CARTESIAN_POINT('Origin',(-10.0935482470328,0.,-100.));
#778=CARTESIAN_POINT('',(-10.0935482470328,0.,-2.01250341598138));
#779=CARTESIAN_POINT('',(-10.0935482470328,0.,-100.));
#780=CARTESIAN_POINT('',(-10.0935482470328,15.,-2.01250341598138));
#781=CARTESIAN_POINT('',(-10.0935482470328,0.,-2.01250341598137));
#782=CARTESIAN_POINT('',(-10.0935482470328,15.,-100.));
#783=CARTESIAN_POINT('Origin',(-15.0935482470328,0.,-2.01250341598137));
#784=CARTESIAN_POINT('',(-11.3054555026281,0.,1.25098449724712));
#785=CARTESIAN_POINT('Origin',(-15.0935482470328,0.,-2.01250341598137));
#786=CARTESIAN_POINT('',(-11.3054555026281,15.,1.25098449724712));
#787=CARTESIAN_POINT('',(-11.3054555026281,0.,1.25098449724712));
#788=CARTESIAN_POINT('Origin',(-15.0935482470328,15.,-2.01250341598137));
#789=CARTESIAN_POINT('Origin',(0.,0.,10.9907717400136));
#790=CARTESIAN_POINT('',(11.2353854616497,0.,1.17023747835505));
#791=CARTESIAN_POINT('Origin',(0.,0.,10.9907717400136));
#792=CARTESIAN_POINT('',(11.2353854616497,15.,1.17023747835505));
#793=CARTESIAN_POINT('',(11.2353854616497,0.,1.17023747835505));
#794=CARTESIAN_POINT('Origin',(0.,15.,10.9907717400136));
#795=CARTESIAN_POINT('Origin',(15.,0.,-2.12030615114478));
#796=CARTESIAN_POINT('',(10.,0.,-2.12030615114479));
#797=CARTESIAN_POINT('Origin',(15.,0.,-2.12030615114478));
#798=CARTESIAN_POINT('',(10.,15.,-2.12030615114479));
#799=CARTESIAN_POINT('',(10.,0.,-2.12030615114478));
#800=CARTESIAN_POINT('Origin',(15.,15.,-2.12030615114478));
#801=CARTESIAN_POINT('Origin',(10.,0.,-0.0851832822975496));
#802=CARTESIAN_POINT('',(10.,0.,-96.3720202897265));
#803=CARTESIAN_POINT('',(10.,0.,-100.));
#804=CARTESIAN_POINT('',(10.,15.,-96.3720202897265));
#805=CARTESIAN_POINT('',(10.,0.,-96.3720202897265));
#806=CARTESIAN_POINT('',(10.,15.,-100.));
#807=CARTESIAN_POINT('Origin',(15.,0.,-96.3720202897265));
#808=CARTESIAN_POINT('',(13.1595032744643,0.,-101.020952619121));
#809=CARTESIAN_POINT('Origin',(15.,0.,-96.3720202897265));
#810=CARTESIAN_POINT('',(13.1595032744643,15.,-101.020952619121));
#811=CARTESIAN_POINT('',(13.1595032744643,0.,-101.020952619121));
#812=CARTESIAN_POINT('Origin',(15.,15.,-96.3720202897265));
#813=CARTESIAN_POINT('Origin',(3.66627879646502,0.,-125.));
#814=CARTESIAN_POINT('',(10.,0.,-150.));
#815=CARTESIAN_POINT('Origin',(3.66627879646502,0.,-125.));
#816=CARTESIAN_POINT('',(10.,15.,-150.));
#817=CARTESIAN_POINT('',(10.,0.,-150.));
#818=CARTESIAN_POINT('Origin',(3.66627879646502,15.,-125.));
#819=CARTESIAN_POINT('Origin',(5.,0.,-115.));
#820=CARTESIAN_POINT('',(10.,0.,-115.));
#821=CARTESIAN_POINT('',(5.,0.,-110.));
#822=CARTESIAN_POINT('Origin',(5.,0.,-115.));
#823=CARTESIAN_POINT('',(5.,15.,-110.));
#824=CARTESIAN_POINT('',(5.,0.,-110.));
#825=CARTESIAN_POINT('',(10.,15.,-115.));
#826=CARTESIAN_POINT('Origin',(5.,15.,-115.));
#827=CARTESIAN_POINT('',(10.,0.,-115.));
#828=CARTESIAN_POINT('Origin',(10.,0.,-110.));
#829=CARTESIAN_POINT('',(-5.,0.,-110.));
#830=CARTESIAN_POINT('',(-10.,0.,-110.));
#831=CARTESIAN_POINT('',(-5.,15.,-110.));
#832=CARTESIAN_POINT('',(-5.,0.,-110.));
#833=CARTESIAN_POINT('',(-10.,15.,-110.));
#834=CARTESIAN_POINT('Origin',(-5.,0.,-115.));
#835=CARTESIAN_POINT('',(-10.,0.,-115.));
#836=CARTESIAN_POINT('Origin',(-5.,0.,-115.));
#837=CARTESIAN_POINT('',(-10.,15.,-115.));
#838=CARTESIAN_POINT('',(-10.,0.,-115.));
#839=CARTESIAN_POINT('Origin',(-5.,15.,-115.));
#840=CARTESIAN_POINT('Origin',(-10.,0.,-110.));
#841=CARTESIAN_POINT('',(-10.,0.,-150.));
#842=CARTESIAN_POINT('',(-10.,0.,-150.));
#843=CARTESIAN_POINT('',(-10.,15.,-150.));
#844=CARTESIAN_POINT('',(-10.,0.,-150.));
#845=CARTESIAN_POINT('',(-10.,15.,-150.));
#846=CARTESIAN_POINT('Origin',(0.,15.,10.));
#847=CARTESIAN_POINT('',(10.,15.,10.));
#848=CARTESIAN_POINT('Origin',(0.,15.,10.));
#849=CARTESIAN_POINT('',(10.,0.,10.));
#850=CARTESIAN_POINT('',(10.,15.,10.));
#851=CARTESIAN_POINT('Origin',(0.,0.,10.));
#852=CARTESIAN_POINT('Origin',(10.,0.,-150.));
#853=CARTESIAN_POINT('',(10.,15.,-110.));
#854=CARTESIAN_POINT('',(10.,0.,-110.));
#855=CARTESIAN_POINT('Origin',(-3.01314054167879,0.,-124.986840318163));
#856=CARTESIAN_POINT('Origin',(-3.01314054167879,15.,-124.986840318163));
#857=CARTESIAN_POINT('Origin',(-3.01314054167879,0.,-124.986840318163));
#858=CARTESIAN_POINT('Origin',(0.236168722608858,15.,-62.0434349394051));
#859=CARTESIAN_POINT('Origin',(0.236168722608858,0.,-62.0434349394051));
#860=CARTESIAN_POINT('',(85.8351651580465,97.8763100814694,280.363535318994));
#861=UNCERTAINTY_MEASURE_WITH_UNIT(LENGTH_MEASURE(0.01),#867,
'DISTANCE_ACCURACY_VALUE',
'Maximum model space distance between geometric entities at asserted c
onnectivities');
#862=UNCERTAINTY_MEASURE_WITH_UNIT(LENGTH_MEASURE(0.01),#867,
'DISTANCE_ACCURACY_VALUE',
'Maximum model space distance between geometric entities at asserted c
onnectivities');
#863=UNCERTAINTY_MEASURE_WITH_UNIT(LENGTH_MEASURE(0.01),#867,
'DISTANCE_ACCURACY_VALUE',
'Maximum model space distance between geometric entities at asserted c
onnectivities');
#864=(
GEOMETRIC_REPRESENTATION_CONTEXT(3)
GLOBAL_UNCERTAINTY_ASSIGNED_CONTEXT((#861))
GLOBAL_UNIT_ASSIGNED_CONTEXT((#867,#869,#870))
REPRESENTATION_CONTEXT('','3D')
);
#865=(
GEOMETRIC_REPRESENTATION_CONTEXT(3)
GLOBAL_UNCERTAINTY_ASSIGNED_CONTEXT((#862))
GLOBAL_UNIT_ASSIGNED_CONTEXT((#867,#869,#870))
REPRESENTATION_CONTEXT('','3D')
);
#866=(
GEOMETRIC_REPRESENTATION_CONTEXT(3)
GLOBAL_UNCERTAINTY_ASSIGNED_CONTEXT((#863))
GLOBAL_UNIT_ASSIGNED_CONTEXT((#867,#869,#870))
REPRESENTATION_CONTEXT('','3D')
);
#867=(
LENGTH_UNIT()
NAMED_UNIT(*)
SI_UNIT(.MILLI.,.METRE.)
);
#868=(
LENGTH_UNIT()
NAMED_UNIT(*)
SI_UNIT($,.METRE.)
);
#869=(
NAMED_UNIT(*)
PLANE_ANGLE_UNIT()
SI_UNIT($,.RADIAN.)
);
#870=(
NAMED_UNIT(*)
SI_UNIT($,.STERADIAN.)
SOLID_ANGLE_UNIT()
);
#871=SHAPE_DEFINITION_REPRESENTATION(#873,#876);
#872=SHAPE_DEFINITION_REPRESENTATION(#874,#877);
#873=PRODUCT_DEFINITION_SHAPE('',$,#879);
#874=PRODUCT_DEFINITION_SHAPE('',$,#880);
#875=PRODUCT_DEFINITION_SHAPE($,$,#16);
#876=SHAPE_REPRESENTATION('',(#505,#561),#864);
#877=SHAPE_REPRESENTATION('',(#506),#865);
#878=PRODUCT_DEFINITION_CONTEXT('part definition',#886,'design');
#879=PRODUCT_DEFINITION('Untitled','Untitled',#881,#878);
#880=PRODUCT_DEFINITION('Component1','Component1',#882,#878);
#881=PRODUCT_DEFINITION_FORMATION('',$,#888);
#882=PRODUCT_DEFINITION_FORMATION('',$,#889);
#883=PRODUCT_RELATED_PRODUCT_CATEGORY('Untitled','Untitled',(#888));
#884=PRODUCT_RELATED_PRODUCT_CATEGORY('Component1','Component1',(#889));
#885=APPLICATION_PROTOCOL_DEFINITION('international standard',
'automotive_design',2009,#886);
#886=APPLICATION_CONTEXT(
'Core Data for Automotive Mechanical Design Process');
#887=PRODUCT_CONTEXT('part definition',#886,'mechanical');
#888=PRODUCT('Untitled','Untitled',$,(#887));
#889=PRODUCT('Component1','Component1',$,(#887));
#890=PRESENTATION_STYLE_ASSIGNMENT((#892));
#891=PRESENTATION_STYLE_ASSIGNMENT((#893));
#892=SURFACE_STYLE_USAGE(.BOTH.,#894);
#893=SURFACE_STYLE_USAGE(.BOTH.,#895);
#894=SURFACE_SIDE_STYLE('',(#896));
#895=SURFACE_SIDE_STYLE('',(#897));
#896=SURFACE_STYLE_FILL_AREA(#898);
#897=SURFACE_STYLE_FILL_AREA(#899);
#898=FILL_AREA_STYLE('Steel - Satin',(#900));
#899=FILL_AREA_STYLE('Aluminum - Satin',(#901));
#900=FILL_AREA_STYLE_COLOUR('Steel - Satin',#902);
#901=FILL_AREA_STYLE_COLOUR('Aluminum - Satin',#903);
#902=COLOUR_RGB('Steel - Satin',0.627450980392157,0.627450980392157,0.627450980392157);
#903=COLOUR_RGB('Aluminum - Satin',0.96078431372549,0.96078431372549,0.964705882352941);
ENDSEC;
END-ISO-10303-21;
