ISO-10303-21;
HEADER;
/* Generated by software containing ST-Developer
 * from STEP Tools, Inc. (www.steptools.com) 
 */

FILE_DESCRIPTION(
/* description */ (''),
/* implementation_level */ '2;1');

FILE_NAME(
/* name */ '41115_3ce6b43c_8b509218-0581-11ec-80ed-02d1834e9dbb.step',
/* time_stamp */ '2026-02-10T10:27:44Z',
/* author */ (''),
/* organization */ (''),
/* preprocessor_version */ 'ST-DEVELOPER v20.1',
/* originating_system */ 'Autodesk Translation Framework v14.24.0.0',
/* authorisation */ '');

FILE_SCHEMA (('AUTOMOTIVE_DESIGN { 1 0 10303 214 3 1 1 }'));
ENDSEC;

DATA;
#10=MECHANICAL_DESIGN_GEOMETRIC_PRESENTATION_REPRESENTATION('',(#13),#1415);
#11=SHAPE_REPRESENTATION_RELATIONSHIP('SRR','None',#1422,#12);
#12=ADVANCED_BREP_SHAPE_REPRESENTATION('',(#14),#1414);
#13=STYLED_ITEM('',(#1432),#14);
#14=MANIFOLD_SOLID_BREP('Body1',#779);
#15=FACE_BOUND('',#106,.T.);
#16=FACE_BOUND('',#129,.T.);
#17=PLANE('',#819);
#18=PLANE('',#822);
#19=PLANE('',#823);
#20=PLANE('',#850);
#21=PLANE('',#853);
#22=PLANE('',#876);
#23=PLANE('',#877);
#24=PLANE('',#900);
#25=PLANE('',#902);
#26=PLANE('',#906);
#27=TOROIDAL_SURFACE('',#796,5.19999999999999,0.2);
#28=TOROIDAL_SURFACE('',#802,5.19999999999999,0.2);
#29=TOROIDAL_SURFACE('',#808,5.2,0.2);
#30=TOROIDAL_SURFACE('',#814,5.19999999999999,0.2);
#31=TOROIDAL_SURFACE('',#831,6.09999999999999,0.2);
#32=TOROIDAL_SURFACE('',#836,6.09999999999999,0.2);
#33=TOROIDAL_SURFACE('',#841,6.09999999999999,0.2);
#34=TOROIDAL_SURFACE('',#846,6.1,0.2);
#35=TOROIDAL_SURFACE('',#857,5.19999999999999,0.2);
#36=TOROIDAL_SURFACE('',#862,5.19999999999999,0.2);
#37=TOROIDAL_SURFACE('',#867,5.19999999999999,0.2);
#38=TOROIDAL_SURFACE('',#873,5.2,0.2);
#39=TOROIDAL_SURFACE('',#882,5.29999999999999,1.);
#40=TOROIDAL_SURFACE('',#888,5.29999999999999,1.);
#41=TOROIDAL_SURFACE('',#892,5.29999999999999,1.);
#42=TOROIDAL_SURFACE('',#896,5.29999999999999,1.);
#43=FACE_OUTER_BOUND('',#93,.T.);
#44=FACE_OUTER_BOUND('',#94,.T.);
#45=FACE_OUTER_BOUND('',#95,.T.);
#46=FACE_OUTER_BOUND('',#96,.T.);
#47=FACE_OUTER_BOUND('',#97,.T.);
#48=FACE_OUTER_BOUND('',#98,.T.);
#49=FACE_OUTER_BOUND('',#99,.T.);
#50=FACE_OUTER_BOUND('',#100,.T.);
#51=FACE_OUTER_BOUND('',#101,.T.);
#52=FACE_OUTER_BOUND('',#102,.T.);
#53=FACE_OUTER_BOUND('',#103,.T.);
#54=FACE_OUTER_BOUND('',#104,.T.);
#55=FACE_OUTER_BOUND('',#105,.T.);
#56=FACE_OUTER_BOUND('',#107,.T.);
#57=FACE_OUTER_BOUND('',#108,.T.);
#58=FACE_OUTER_BOUND('',#109,.T.);
#59=FACE_OUTER_BOUND('',#110,.T.);
#60=FACE_OUTER_BOUND('',#111,.T.);
#61=FACE_OUTER_BOUND('',#112,.T.);
#62=FACE_OUTER_BOUND('',#113,.T.);
#63=FACE_OUTER_BOUND('',#114,.T.);
#64=FACE_OUTER_BOUND('',#115,.T.);
#65=FACE_OUTER_BOUND('',#116,.T.);
#66=FACE_OUTER_BOUND('',#117,.T.);
#67=FACE_OUTER_BOUND('',#118,.T.);
#68=FACE_OUTER_BOUND('',#119,.T.);
#69=FACE_OUTER_BOUND('',#120,.T.);
#70=FACE_OUTER_BOUND('',#121,.T.);
#71=FACE_OUTER_BOUND('',#122,.T.);
#72=FACE_OUTER_BOUND('',#123,.T.);
#73=FACE_OUTER_BOUND('',#124,.T.);
#74=FACE_OUTER_BOUND('',#125,.T.);
#75=FACE_OUTER_BOUND('',#126,.T.);
#76=FACE_OUTER_BOUND('',#127,.T.);
#77=FACE_OUTER_BOUND('',#128,.T.);
#78=FACE_OUTER_BOUND('',#130,.T.);
#79=FACE_OUTER_BOUND('',#131,.T.);
#80=FACE_OUTER_BOUND('',#132,.T.);
#81=FACE_OUTER_BOUND('',#133,.T.);
#82=FACE_OUTER_BOUND('',#134,.T.);
#83=FACE_OUTER_BOUND('',#135,.T.);
#84=FACE_OUTER_BOUND('',#136,.T.);
#85=FACE_OUTER_BOUND('',#137,.T.);
#86=FACE_OUTER_BOUND('',#138,.T.);
#87=FACE_OUTER_BOUND('',#139,.T.);
#88=FACE_OUTER_BOUND('',#140,.T.);
#89=FACE_OUTER_BOUND('',#141,.T.);
#90=FACE_OUTER_BOUND('',#142,.T.);
#91=FACE_OUTER_BOUND('',#143,.T.);
#92=FACE_OUTER_BOUND('',#144,.T.);
#93=EDGE_LOOP('',(#481,#482,#483,#484));
#94=EDGE_LOOP('',(#485,#486,#487,#488));
#95=EDGE_LOOP('',(#489,#490,#491,#492));
#96=EDGE_LOOP('',(#493,#494,#495,#496));
#97=EDGE_LOOP('',(#497,#498,#499,#500));
#98=EDGE_LOOP('',(#501,#502,#503,#504));
#99=EDGE_LOOP('',(#505,#506,#507,#508));
#100=EDGE_LOOP('',(#509,#510,#511,#512));
#101=EDGE_LOOP('',(#513,#514,#515,#516));
#102=EDGE_LOOP('',(#517,#518,#519,#520));
#103=EDGE_LOOP('',(#521,#522,#523,#524));
#104=EDGE_LOOP('',(#525,#526,#527,#528));
#105=EDGE_LOOP('',(#529,#530,#531,#532,#533,#534,#535,#536));
#106=EDGE_LOOP('',(#537,#538,#539,#540,#541,#542,#543,#544));
#107=EDGE_LOOP('',(#545,#546,#547,#548));
#108=EDGE_LOOP('',(#549,#550,#551,#552));
#109=EDGE_LOOP('',(#553,#554,#555,#556));
#110=EDGE_LOOP('',(#557,#558,#559,#560));
#111=EDGE_LOOP('',(#561,#562,#563,#564));
#112=EDGE_LOOP('',(#565,#566,#567,#568));
#113=EDGE_LOOP('',(#569,#570,#571,#572));
#114=EDGE_LOOP('',(#573,#574,#575,#576));
#115=EDGE_LOOP('',(#577,#578,#579,#580));
#116=EDGE_LOOP('',(#581,#582,#583,#584));
#117=EDGE_LOOP('',(#585,#586,#587,#588));
#118=EDGE_LOOP('',(#589,#590,#591,#592));
#119=EDGE_LOOP('',(#593,#594,#595,#596));
#120=EDGE_LOOP('',(#597,#598,#599,#600));
#121=EDGE_LOOP('',(#601,#602,#603,#604));
#122=EDGE_LOOP('',(#605,#606,#607,#608));
#123=EDGE_LOOP('',(#609,#610,#611,#612));
#124=EDGE_LOOP('',(#613,#614,#615,#616));
#125=EDGE_LOOP('',(#617,#618,#619,#620));
#126=EDGE_LOOP('',(#621,#622,#623,#624));
#127=EDGE_LOOP('',(#625,#626,#627,#628));
#128=EDGE_LOOP('',(#629,#630,#631,#632,#633,#634,#635,#636));
#129=EDGE_LOOP('',(#637,#638,#639,#640,#641,#642,#643,#644));
#130=EDGE_LOOP('',(#645,#646,#647,#648));
#131=EDGE_LOOP('',(#649,#650,#651,#652));
#132=EDGE_LOOP('',(#653,#654,#655,#656));
#133=EDGE_LOOP('',(#657,#658,#659,#660));
#134=EDGE_LOOP('',(#661,#662,#663,#664));
#135=EDGE_LOOP('',(#665,#666,#667,#668));
#136=EDGE_LOOP('',(#669,#670,#671,#672));
#137=EDGE_LOOP('',(#673,#674,#675,#676));
#138=EDGE_LOOP('',(#677,#678,#679,#680));
#139=EDGE_LOOP('',(#681,#682,#683,#684));
#140=EDGE_LOOP('',(#685,#686,#687,#688));
#141=EDGE_LOOP('',(#689,#690,#691,#692));
#142=EDGE_LOOP('',(#693,#694,#695,#696));
#143=EDGE_LOOP('',(#697,#698,#699,#700));
#144=EDGE_LOOP('',(#701,#702,#703,#704));
#145=LINE('',#1191,#193);
#146=LINE('',#1194,#194);
#147=LINE('',#1205,#195);
#148=LINE('',#1206,#196);
#149=LINE('',#1217,#197);
#150=LINE('',#1218,#198);
#151=LINE('',#1229,#199);
#152=LINE('',#1230,#200);
#153=LINE('',#1236,#201);
#154=LINE('',#1239,#202);
#155=LINE('',#1242,#203);
#156=LINE('',#1243,#204);
#157=LINE('',#1246,#205);
#158=LINE('',#1250,#206);
#159=LINE('',#1251,#207);
#160=LINE('',#1255,#208);
#161=LINE('',#1259,#209);
#162=LINE('',#1263,#210);
#163=LINE('',#1267,#211);
#164=LINE('',#1273,#212);
#165=LINE('',#1282,#213);
#166=LINE('',#1290,#214);
#167=LINE('',#1298,#215);
#168=LINE('',#1303,#216);
#169=LINE('',#1306,#217);
#170=LINE('',#1309,#218);
#171=LINE('',#1310,#219);
#172=LINE('',#1313,#220);
#173=LINE('',#1317,#221);
#174=LINE('',#1318,#222);
#175=LINE('',#1323,#223);
#176=LINE('',#1326,#224);
#177=LINE('',#1334,#225);
#178=LINE('',#1342,#226);
#179=LINE('',#1353,#227);
#180=LINE('',#1354,#228);
#181=LINE('',#1359,#229);
#182=LINE('',#1365,#230);
#183=LINE('',#1369,#231);
#184=LINE('',#1373,#232);
#185=LINE('',#1376,#233);
#186=LINE('',#1385,#234);
#187=LINE('',#1399,#235);
#188=LINE('',#1401,#236);
#189=LINE('',#1403,#237);
#190=LINE('',#1405,#238);
#191=LINE('',#1406,#239);
#192=LINE('',#1410,#240);
#193=VECTOR('',#913,10.);
#194=VECTOR('',#916,10.);
#195=VECTOR('',#929,10.);
#196=VECTOR('',#930,10.);
#197=VECTOR('',#943,10.);
#198=VECTOR('',#944,10.);
#199=VECTOR('',#957,10.);
#200=VECTOR('',#958,10.);
#201=VECTOR('',#967,10.);
#202=VECTOR('',#970,10.);
#203=VECTOR('',#973,10.);
#204=VECTOR('',#974,10.);
#205=VECTOR('',#977,10.);
#206=VECTOR('',#982,10.);
#207=VECTOR('',#983,10.);
#208=VECTOR('',#986,10.);
#209=VECTOR('',#989,10.);
#210=VECTOR('',#992,10.);
#211=VECTOR('',#995,10.);
#212=VECTOR('',#1002,10.);
#213=VECTOR('',#1015,10.);
#214=VECTOR('',#1026,10.);
#215=VECTOR('',#1037,10.);
#216=VECTOR('',#1044,10.);
#217=VECTOR('',#1047,10.);
#218=VECTOR('',#1050,10.);
#219=VECTOR('',#1051,10.);
#220=VECTOR('',#1054,10.);
#221=VECTOR('',#1059,10.);
#222=VECTOR('',#1060,10.);
#223=VECTOR('',#1065,10.);
#224=VECTOR('',#1068,10.);
#225=VECTOR('',#1079,10.);
#226=VECTOR('',#1090,10.);
#227=VECTOR('',#1103,10.);
#228=VECTOR('',#1104,10.);
#229=VECTOR('',#1113,10.);
#230=VECTOR('',#1118,10.);
#231=VECTOR('',#1121,10.);
#232=VECTOR('',#1124,10.);
#233=VECTOR('',#1127,10.);
#234=VECTOR('',#1140,10.);
#235=VECTOR('',#1165,10.);
#236=VECTOR('',#1168,10.);
#237=VECTOR('',#1171,10.);
#238=VECTOR('',#1174,10.);
#239=VECTOR('',#1175,10.);
#240=VECTOR('',#1182,10.);
#241=CIRCLE('',#794,0.200000000000002);
#242=CIRCLE('',#795,0.2);
#243=CIRCLE('',#797,0.2);
#244=CIRCLE('',#798,5.19999999999999);
#245=CIRCLE('',#799,4.99999999999999);
#246=CIRCLE('',#801,0.199999999999996);
#247=CIRCLE('',#803,0.2);
#248=CIRCLE('',#804,5.19999999999999);
#249=CIRCLE('',#805,4.99999999999999);
#250=CIRCLE('',#807,0.200000000000005);
#251=CIRCLE('',#809,0.2);
#252=CIRCLE('',#810,5.2);
#253=CIRCLE('',#811,5.);
#254=CIRCLE('',#813,0.2);
#255=CIRCLE('',#815,5.19999999999999);
#256=CIRCLE('',#816,4.99999999999999);
#257=CIRCLE('',#818,4.99999999999999);
#258=CIRCLE('',#821,4.99999999999999);
#259=CIRCLE('',#824,6.09999999999999);
#260=CIRCLE('',#825,6.09999999999999);
#261=CIRCLE('',#826,6.09999999999999);
#262=CIRCLE('',#827,6.1);
#263=CIRCLE('',#829,0.200000000000002);
#264=CIRCLE('',#830,0.2);
#265=CIRCLE('',#832,0.2);
#266=CIRCLE('',#833,6.29999999999999);
#267=CIRCLE('',#835,0.2);
#268=CIRCLE('',#837,0.2);
#269=CIRCLE('',#838,6.29999999999999);
#270=CIRCLE('',#840,0.2);
#271=CIRCLE('',#842,0.2);
#272=CIRCLE('',#843,6.29999999999999);
#273=CIRCLE('',#845,0.2);
#274=CIRCLE('',#847,6.29999999999999);
#275=CIRCLE('',#849,6.29999999999999);
#276=CIRCLE('',#852,6.29999999999999);
#277=CIRCLE('',#855,0.2);
#278=CIRCLE('',#856,0.200000000000005);
#279=CIRCLE('',#858,0.2);
#280=CIRCLE('',#859,5.19999999999999);
#281=CIRCLE('',#861,0.199999999999996);
#282=CIRCLE('',#863,0.199999999999996);
#283=CIRCLE('',#864,5.19999999999999);
#284=CIRCLE('',#866,0.2);
#285=CIRCLE('',#868,0.2);
#286=CIRCLE('',#869,5.19999999999999);
#287=CIRCLE('',#870,4.99999999999999);
#288=CIRCLE('',#872,0.2);
#289=CIRCLE('',#874,5.2);
#290=CIRCLE('',#875,5.);
#291=CIRCLE('',#878,5.29999999999999);
#292=CIRCLE('',#879,5.29999999999999);
#293=CIRCLE('',#880,5.29999999999999);
#294=CIRCLE('',#881,5.3);
#295=CIRCLE('',#883,1.);
#296=CIRCLE('',#884,6.29999999999999);
#297=CIRCLE('',#885,1.00000000000001);
#298=CIRCLE('',#887,1.);
#299=CIRCLE('',#889,1.);
#300=CIRCLE('',#891,1.);
#301=CIRCLE('',#893,1.);
#302=CIRCLE('',#895,1.);
#303=CIRCLE('',#897,1.);
#304=CIRCLE('',#898,6.3);
#305=VERTEX_POINT('',#1187);
#306=VERTEX_POINT('',#1188);
#307=VERTEX_POINT('',#1190);
#308=VERTEX_POINT('',#1192);
#309=VERTEX_POINT('',#1196);
#310=VERTEX_POINT('',#1197);
#311=VERTEX_POINT('',#1202);
#312=VERTEX_POINT('',#1203);
#313=VERTEX_POINT('',#1208);
#314=VERTEX_POINT('',#1209);
#315=VERTEX_POINT('',#1214);
#316=VERTEX_POINT('',#1215);
#317=VERTEX_POINT('',#1220);
#318=VERTEX_POINT('',#1221);
#319=VERTEX_POINT('',#1226);
#320=VERTEX_POINT('',#1227);
#321=VERTEX_POINT('',#1235);
#322=VERTEX_POINT('',#1237);
#323=VERTEX_POINT('',#1241);
#324=VERTEX_POINT('',#1245);
#325=VERTEX_POINT('',#1249);
#326=VERTEX_POINT('',#1253);
#327=VERTEX_POINT('',#1254);
#328=VERTEX_POINT('',#1256);
#329=VERTEX_POINT('',#1258);
#330=VERTEX_POINT('',#1260);
#331=VERTEX_POINT('',#1262);
#332=VERTEX_POINT('',#1264);
#333=VERTEX_POINT('',#1266);
#334=VERTEX_POINT('',#1270);
#335=VERTEX_POINT('',#1272);
#336=VERTEX_POINT('',#1276);
#337=VERTEX_POINT('',#1280);
#338=VERTEX_POINT('',#1284);
#339=VERTEX_POINT('',#1288);
#340=VERTEX_POINT('',#1292);
#341=VERTEX_POINT('',#1296);
#342=VERTEX_POINT('',#1302);
#343=VERTEX_POINT('',#1304);
#344=VERTEX_POINT('',#1308);
#345=VERTEX_POINT('',#1312);
#346=VERTEX_POINT('',#1316);
#347=VERTEX_POINT('',#1320);
#348=VERTEX_POINT('',#1321);
#349=VERTEX_POINT('',#1324);
#350=VERTEX_POINT('',#1328);
#351=VERTEX_POINT('',#1332);
#352=VERTEX_POINT('',#1336);
#353=VERTEX_POINT('',#1340);
#354=VERTEX_POINT('',#1344);
#355=VERTEX_POINT('',#1345);
#356=VERTEX_POINT('',#1350);
#357=VERTEX_POINT('',#1351);
#358=VERTEX_POINT('',#1361);
#359=VERTEX_POINT('',#1362);
#360=VERTEX_POINT('',#1364);
#361=VERTEX_POINT('',#1366);
#362=VERTEX_POINT('',#1368);
#363=VERTEX_POINT('',#1370);
#364=VERTEX_POINT('',#1372);
#365=VERTEX_POINT('',#1374);
#366=VERTEX_POINT('',#1378);
#367=VERTEX_POINT('',#1380);
#368=VERTEX_POINT('',#1395);
#369=EDGE_CURVE('',#305,#306,#241,.T.);
#370=EDGE_CURVE('',#306,#307,#145,.T.);
#371=EDGE_CURVE('',#307,#308,#242,.T.);
#372=EDGE_CURVE('',#308,#305,#146,.T.);
#373=EDGE_CURVE('',#309,#310,#243,.T.);
#374=EDGE_CURVE('',#310,#308,#244,.T.);
#375=EDGE_CURVE('',#307,#309,#245,.T.);
#376=EDGE_CURVE('',#311,#312,#246,.T.);
#377=EDGE_CURVE('',#312,#310,#147,.T.);
#378=EDGE_CURVE('',#309,#311,#148,.T.);
#379=EDGE_CURVE('',#313,#314,#247,.T.);
#380=EDGE_CURVE('',#314,#312,#248,.T.);
#381=EDGE_CURVE('',#311,#313,#249,.T.);
#382=EDGE_CURVE('',#315,#316,#250,.T.);
#383=EDGE_CURVE('',#316,#314,#149,.T.);
#384=EDGE_CURVE('',#313,#315,#150,.T.);
#385=EDGE_CURVE('',#317,#318,#251,.T.);
#386=EDGE_CURVE('',#318,#316,#252,.T.);
#387=EDGE_CURVE('',#315,#317,#253,.T.);
#388=EDGE_CURVE('',#319,#320,#254,.T.);
#389=EDGE_CURVE('',#320,#318,#151,.T.);
#390=EDGE_CURVE('',#317,#319,#152,.T.);
#391=EDGE_CURVE('',#305,#320,#255,.T.);
#392=EDGE_CURVE('',#319,#306,#256,.T.);
#393=EDGE_CURVE('',#321,#311,#153,.T.);
#394=EDGE_CURVE('',#322,#321,#257,.T.);
#395=EDGE_CURVE('',#322,#313,#154,.T.);
#396=EDGE_CURVE('',#323,#309,#155,.T.);
#397=EDGE_CURVE('',#321,#323,#156,.T.);
#398=EDGE_CURVE('',#324,#307,#157,.T.);
#399=EDGE_CURVE('',#323,#324,#258,.T.);
#400=EDGE_CURVE('',#325,#306,#158,.T.);
#401=EDGE_CURVE('',#324,#325,#159,.T.);
#402=EDGE_CURVE('',#326,#327,#160,.T.);
#403=EDGE_CURVE('',#328,#326,#259,.T.);
#404=EDGE_CURVE('',#329,#328,#161,.T.);
#405=EDGE_CURVE('',#330,#329,#260,.T.);
#406=EDGE_CURVE('',#331,#330,#162,.T.);
#407=EDGE_CURVE('',#332,#331,#261,.T.);
#408=EDGE_CURVE('',#333,#332,#163,.T.);
#409=EDGE_CURVE('',#327,#333,#262,.T.);
#410=EDGE_CURVE('',#327,#334,#263,.T.);
#411=EDGE_CURVE('',#334,#335,#164,.T.);
#412=EDGE_CURVE('',#335,#326,#264,.T.);
#413=EDGE_CURVE('',#336,#328,#265,.T.);
#414=EDGE_CURVE('',#335,#336,#266,.T.);
#415=EDGE_CURVE('',#337,#329,#267,.T.);
#416=EDGE_CURVE('',#336,#337,#165,.T.);
#417=EDGE_CURVE('',#338,#330,#268,.T.);
#418=EDGE_CURVE('',#337,#338,#269,.T.);
#419=EDGE_CURVE('',#339,#331,#270,.T.);
#420=EDGE_CURVE('',#338,#339,#166,.T.);
#421=EDGE_CURVE('',#340,#332,#271,.T.);
#422=EDGE_CURVE('',#339,#340,#272,.T.);
#423=EDGE_CURVE('',#341,#333,#273,.T.);
#424=EDGE_CURVE('',#340,#341,#167,.T.);
#425=EDGE_CURVE('',#341,#334,#274,.T.);
#426=EDGE_CURVE('',#342,#337,#168,.T.);
#427=EDGE_CURVE('',#343,#342,#275,.T.);
#428=EDGE_CURVE('',#343,#338,#169,.T.);
#429=EDGE_CURVE('',#344,#336,#170,.T.);
#430=EDGE_CURVE('',#342,#344,#171,.T.);
#431=EDGE_CURVE('',#345,#335,#172,.T.);
#432=EDGE_CURVE('',#344,#345,#276,.T.);
#433=EDGE_CURVE('',#346,#334,#173,.T.);
#434=EDGE_CURVE('',#345,#346,#174,.T.);
#435=EDGE_CURVE('',#347,#348,#277,.T.);
#436=EDGE_CURVE('',#348,#322,#175,.T.);
#437=EDGE_CURVE('',#322,#349,#278,.T.);
#438=EDGE_CURVE('',#349,#347,#176,.T.);
#439=EDGE_CURVE('',#321,#350,#279,.T.);
#440=EDGE_CURVE('',#350,#349,#280,.T.);
#441=EDGE_CURVE('',#323,#351,#281,.T.);
#442=EDGE_CURVE('',#351,#350,#177,.T.);
#443=EDGE_CURVE('',#324,#352,#282,.T.);
#444=EDGE_CURVE('',#352,#351,#283,.T.);
#445=EDGE_CURVE('',#325,#353,#284,.T.);
#446=EDGE_CURVE('',#353,#352,#178,.T.);
#447=EDGE_CURVE('',#354,#355,#285,.T.);
#448=EDGE_CURVE('',#355,#353,#286,.T.);
#449=EDGE_CURVE('',#325,#354,#287,.T.);
#450=EDGE_CURVE('',#356,#357,#288,.T.);
#451=EDGE_CURVE('',#357,#355,#179,.T.);
#452=EDGE_CURVE('',#354,#356,#180,.T.);
#453=EDGE_CURVE('',#347,#357,#289,.T.);
#454=EDGE_CURVE('',#356,#348,#290,.T.);
#455=EDGE_CURVE('',#348,#315,#181,.T.);
#456=EDGE_CURVE('',#358,#359,#291,.T.);
#457=EDGE_CURVE('',#360,#358,#182,.T.);
#458=EDGE_CURVE('',#361,#360,#292,.T.);
#459=EDGE_CURVE('',#362,#361,#183,.T.);
#460=EDGE_CURVE('',#363,#362,#293,.T.);
#461=EDGE_CURVE('',#364,#363,#184,.T.);
#462=EDGE_CURVE('',#365,#364,#294,.T.);
#463=EDGE_CURVE('',#359,#365,#185,.T.);
#464=EDGE_CURVE('',#359,#366,#295,.T.);
#465=EDGE_CURVE('',#366,#367,#296,.T.);
#466=EDGE_CURVE('',#367,#358,#297,.T.);
#467=EDGE_CURVE('',#343,#360,#298,.T.);
#468=EDGE_CURVE('',#367,#343,#186,.T.);
#469=EDGE_CURVE('',#342,#361,#299,.T.);
#470=EDGE_CURVE('',#344,#362,#300,.T.);
#471=EDGE_CURVE('',#345,#363,#301,.T.);
#472=EDGE_CURVE('',#346,#364,#302,.T.);
#473=EDGE_CURVE('',#368,#365,#303,.T.);
#474=EDGE_CURVE('',#346,#368,#304,.T.);
#475=EDGE_CURVE('',#368,#366,#187,.T.);
#476=EDGE_CURVE('',#367,#339,#188,.T.);
#477=EDGE_CURVE('',#366,#340,#189,.T.);
#478=EDGE_CURVE('',#356,#317,#190,.T.);
#479=EDGE_CURVE('',#354,#319,#191,.T.);
#480=EDGE_CURVE('',#368,#341,#192,.T.);
#481=ORIENTED_EDGE('',*,*,#369,.T.);
#482=ORIENTED_EDGE('',*,*,#370,.T.);
#483=ORIENTED_EDGE('',*,*,#371,.T.);
#484=ORIENTED_EDGE('',*,*,#372,.T.);
#485=ORIENTED_EDGE('',*,*,#373,.T.);
#486=ORIENTED_EDGE('',*,*,#374,.T.);
#487=ORIENTED_EDGE('',*,*,#371,.F.);
#488=ORIENTED_EDGE('',*,*,#375,.T.);
#489=ORIENTED_EDGE('',*,*,#376,.T.);
#490=ORIENTED_EDGE('',*,*,#377,.T.);
#491=ORIENTED_EDGE('',*,*,#373,.F.);
#492=ORIENTED_EDGE('',*,*,#378,.T.);
#493=ORIENTED_EDGE('',*,*,#379,.T.);
#494=ORIENTED_EDGE('',*,*,#380,.T.);
#495=ORIENTED_EDGE('',*,*,#376,.F.);
#496=ORIENTED_EDGE('',*,*,#381,.T.);
#497=ORIENTED_EDGE('',*,*,#382,.T.);
#498=ORIENTED_EDGE('',*,*,#383,.T.);
#499=ORIENTED_EDGE('',*,*,#379,.F.);
#500=ORIENTED_EDGE('',*,*,#384,.T.);
#501=ORIENTED_EDGE('',*,*,#385,.T.);
#502=ORIENTED_EDGE('',*,*,#386,.T.);
#503=ORIENTED_EDGE('',*,*,#382,.F.);
#504=ORIENTED_EDGE('',*,*,#387,.T.);
#505=ORIENTED_EDGE('',*,*,#388,.T.);
#506=ORIENTED_EDGE('',*,*,#389,.T.);
#507=ORIENTED_EDGE('',*,*,#385,.F.);
#508=ORIENTED_EDGE('',*,*,#390,.T.);
#509=ORIENTED_EDGE('',*,*,#369,.F.);
#510=ORIENTED_EDGE('',*,*,#391,.T.);
#511=ORIENTED_EDGE('',*,*,#388,.F.);
#512=ORIENTED_EDGE('',*,*,#392,.T.);
#513=ORIENTED_EDGE('',*,*,#381,.F.);
#514=ORIENTED_EDGE('',*,*,#393,.F.);
#515=ORIENTED_EDGE('',*,*,#394,.F.);
#516=ORIENTED_EDGE('',*,*,#395,.T.);
#517=ORIENTED_EDGE('',*,*,#378,.F.);
#518=ORIENTED_EDGE('',*,*,#396,.F.);
#519=ORIENTED_EDGE('',*,*,#397,.F.);
#520=ORIENTED_EDGE('',*,*,#393,.T.);
#521=ORIENTED_EDGE('',*,*,#375,.F.);
#522=ORIENTED_EDGE('',*,*,#398,.F.);
#523=ORIENTED_EDGE('',*,*,#399,.F.);
#524=ORIENTED_EDGE('',*,*,#396,.T.);
#525=ORIENTED_EDGE('',*,*,#370,.F.);
#526=ORIENTED_EDGE('',*,*,#400,.F.);
#527=ORIENTED_EDGE('',*,*,#401,.F.);
#528=ORIENTED_EDGE('',*,*,#398,.T.);
#529=ORIENTED_EDGE('',*,*,#402,.F.);
#530=ORIENTED_EDGE('',*,*,#403,.F.);
#531=ORIENTED_EDGE('',*,*,#404,.F.);
#532=ORIENTED_EDGE('',*,*,#405,.F.);
#533=ORIENTED_EDGE('',*,*,#406,.F.);
#534=ORIENTED_EDGE('',*,*,#407,.F.);
#535=ORIENTED_EDGE('',*,*,#408,.F.);
#536=ORIENTED_EDGE('',*,*,#409,.F.);
#537=ORIENTED_EDGE('',*,*,#372,.F.);
#538=ORIENTED_EDGE('',*,*,#374,.F.);
#539=ORIENTED_EDGE('',*,*,#377,.F.);
#540=ORIENTED_EDGE('',*,*,#380,.F.);
#541=ORIENTED_EDGE('',*,*,#383,.F.);
#542=ORIENTED_EDGE('',*,*,#386,.F.);
#543=ORIENTED_EDGE('',*,*,#389,.F.);
#544=ORIENTED_EDGE('',*,*,#391,.F.);
#545=ORIENTED_EDGE('',*,*,#410,.T.);
#546=ORIENTED_EDGE('',*,*,#411,.T.);
#547=ORIENTED_EDGE('',*,*,#412,.T.);
#548=ORIENTED_EDGE('',*,*,#402,.T.);
#549=ORIENTED_EDGE('',*,*,#413,.T.);
#550=ORIENTED_EDGE('',*,*,#403,.T.);
#551=ORIENTED_EDGE('',*,*,#412,.F.);
#552=ORIENTED_EDGE('',*,*,#414,.T.);
#553=ORIENTED_EDGE('',*,*,#415,.T.);
#554=ORIENTED_EDGE('',*,*,#404,.T.);
#555=ORIENTED_EDGE('',*,*,#413,.F.);
#556=ORIENTED_EDGE('',*,*,#416,.T.);
#557=ORIENTED_EDGE('',*,*,#417,.T.);
#558=ORIENTED_EDGE('',*,*,#405,.T.);
#559=ORIENTED_EDGE('',*,*,#415,.F.);
#560=ORIENTED_EDGE('',*,*,#418,.T.);
#561=ORIENTED_EDGE('',*,*,#419,.T.);
#562=ORIENTED_EDGE('',*,*,#406,.T.);
#563=ORIENTED_EDGE('',*,*,#417,.F.);
#564=ORIENTED_EDGE('',*,*,#420,.T.);
#565=ORIENTED_EDGE('',*,*,#421,.T.);
#566=ORIENTED_EDGE('',*,*,#407,.T.);
#567=ORIENTED_EDGE('',*,*,#419,.F.);
#568=ORIENTED_EDGE('',*,*,#422,.T.);
#569=ORIENTED_EDGE('',*,*,#423,.T.);
#570=ORIENTED_EDGE('',*,*,#408,.T.);
#571=ORIENTED_EDGE('',*,*,#421,.F.);
#572=ORIENTED_EDGE('',*,*,#424,.T.);
#573=ORIENTED_EDGE('',*,*,#410,.F.);
#574=ORIENTED_EDGE('',*,*,#409,.T.);
#575=ORIENTED_EDGE('',*,*,#423,.F.);
#576=ORIENTED_EDGE('',*,*,#425,.T.);
#577=ORIENTED_EDGE('',*,*,#418,.F.);
#578=ORIENTED_EDGE('',*,*,#426,.F.);
#579=ORIENTED_EDGE('',*,*,#427,.F.);
#580=ORIENTED_EDGE('',*,*,#428,.T.);
#581=ORIENTED_EDGE('',*,*,#416,.F.);
#582=ORIENTED_EDGE('',*,*,#429,.F.);
#583=ORIENTED_EDGE('',*,*,#430,.F.);
#584=ORIENTED_EDGE('',*,*,#426,.T.);
#585=ORIENTED_EDGE('',*,*,#414,.F.);
#586=ORIENTED_EDGE('',*,*,#431,.F.);
#587=ORIENTED_EDGE('',*,*,#432,.F.);
#588=ORIENTED_EDGE('',*,*,#429,.T.);
#589=ORIENTED_EDGE('',*,*,#411,.F.);
#590=ORIENTED_EDGE('',*,*,#433,.F.);
#591=ORIENTED_EDGE('',*,*,#434,.F.);
#592=ORIENTED_EDGE('',*,*,#431,.T.);
#593=ORIENTED_EDGE('',*,*,#435,.T.);
#594=ORIENTED_EDGE('',*,*,#436,.T.);
#595=ORIENTED_EDGE('',*,*,#437,.T.);
#596=ORIENTED_EDGE('',*,*,#438,.T.);
#597=ORIENTED_EDGE('',*,*,#439,.T.);
#598=ORIENTED_EDGE('',*,*,#440,.T.);
#599=ORIENTED_EDGE('',*,*,#437,.F.);
#600=ORIENTED_EDGE('',*,*,#394,.T.);
#601=ORIENTED_EDGE('',*,*,#441,.T.);
#602=ORIENTED_EDGE('',*,*,#442,.T.);
#603=ORIENTED_EDGE('',*,*,#439,.F.);
#604=ORIENTED_EDGE('',*,*,#397,.T.);
#605=ORIENTED_EDGE('',*,*,#443,.T.);
#606=ORIENTED_EDGE('',*,*,#444,.T.);
#607=ORIENTED_EDGE('',*,*,#441,.F.);
#608=ORIENTED_EDGE('',*,*,#399,.T.);
#609=ORIENTED_EDGE('',*,*,#445,.T.);
#610=ORIENTED_EDGE('',*,*,#446,.T.);
#611=ORIENTED_EDGE('',*,*,#443,.F.);
#612=ORIENTED_EDGE('',*,*,#401,.T.);
#613=ORIENTED_EDGE('',*,*,#447,.T.);
#614=ORIENTED_EDGE('',*,*,#448,.T.);
#615=ORIENTED_EDGE('',*,*,#445,.F.);
#616=ORIENTED_EDGE('',*,*,#449,.T.);
#617=ORIENTED_EDGE('',*,*,#450,.T.);
#618=ORIENTED_EDGE('',*,*,#451,.T.);
#619=ORIENTED_EDGE('',*,*,#447,.F.);
#620=ORIENTED_EDGE('',*,*,#452,.T.);
#621=ORIENTED_EDGE('',*,*,#435,.F.);
#622=ORIENTED_EDGE('',*,*,#453,.T.);
#623=ORIENTED_EDGE('',*,*,#450,.F.);
#624=ORIENTED_EDGE('',*,*,#454,.T.);
#625=ORIENTED_EDGE('',*,*,#384,.F.);
#626=ORIENTED_EDGE('',*,*,#395,.F.);
#627=ORIENTED_EDGE('',*,*,#436,.F.);
#628=ORIENTED_EDGE('',*,*,#455,.T.);
#629=ORIENTED_EDGE('',*,*,#456,.F.);
#630=ORIENTED_EDGE('',*,*,#457,.F.);
#631=ORIENTED_EDGE('',*,*,#458,.F.);
#632=ORIENTED_EDGE('',*,*,#459,.F.);
#633=ORIENTED_EDGE('',*,*,#460,.F.);
#634=ORIENTED_EDGE('',*,*,#461,.F.);
#635=ORIENTED_EDGE('',*,*,#462,.F.);
#636=ORIENTED_EDGE('',*,*,#463,.F.);
#637=ORIENTED_EDGE('',*,*,#438,.F.);
#638=ORIENTED_EDGE('',*,*,#440,.F.);
#639=ORIENTED_EDGE('',*,*,#442,.F.);
#640=ORIENTED_EDGE('',*,*,#444,.F.);
#641=ORIENTED_EDGE('',*,*,#446,.F.);
#642=ORIENTED_EDGE('',*,*,#448,.F.);
#643=ORIENTED_EDGE('',*,*,#451,.F.);
#644=ORIENTED_EDGE('',*,*,#453,.F.);
#645=ORIENTED_EDGE('',*,*,#464,.T.);
#646=ORIENTED_EDGE('',*,*,#465,.T.);
#647=ORIENTED_EDGE('',*,*,#466,.T.);
#648=ORIENTED_EDGE('',*,*,#456,.T.);
#649=ORIENTED_EDGE('',*,*,#467,.T.);
#650=ORIENTED_EDGE('',*,*,#457,.T.);
#651=ORIENTED_EDGE('',*,*,#466,.F.);
#652=ORIENTED_EDGE('',*,*,#468,.T.);
#653=ORIENTED_EDGE('',*,*,#469,.T.);
#654=ORIENTED_EDGE('',*,*,#458,.T.);
#655=ORIENTED_EDGE('',*,*,#467,.F.);
#656=ORIENTED_EDGE('',*,*,#427,.T.);
#657=ORIENTED_EDGE('',*,*,#470,.T.);
#658=ORIENTED_EDGE('',*,*,#459,.T.);
#659=ORIENTED_EDGE('',*,*,#469,.F.);
#660=ORIENTED_EDGE('',*,*,#430,.T.);
#661=ORIENTED_EDGE('',*,*,#471,.T.);
#662=ORIENTED_EDGE('',*,*,#460,.T.);
#663=ORIENTED_EDGE('',*,*,#470,.F.);
#664=ORIENTED_EDGE('',*,*,#432,.T.);
#665=ORIENTED_EDGE('',*,*,#472,.T.);
#666=ORIENTED_EDGE('',*,*,#461,.T.);
#667=ORIENTED_EDGE('',*,*,#471,.F.);
#668=ORIENTED_EDGE('',*,*,#434,.T.);
#669=ORIENTED_EDGE('',*,*,#473,.T.);
#670=ORIENTED_EDGE('',*,*,#462,.T.);
#671=ORIENTED_EDGE('',*,*,#472,.F.);
#672=ORIENTED_EDGE('',*,*,#474,.T.);
#673=ORIENTED_EDGE('',*,*,#464,.F.);
#674=ORIENTED_EDGE('',*,*,#463,.T.);
#675=ORIENTED_EDGE('',*,*,#473,.F.);
#676=ORIENTED_EDGE('',*,*,#475,.T.);
#677=ORIENTED_EDGE('',*,*,#420,.F.);
#678=ORIENTED_EDGE('',*,*,#428,.F.);
#679=ORIENTED_EDGE('',*,*,#468,.F.);
#680=ORIENTED_EDGE('',*,*,#476,.T.);
#681=ORIENTED_EDGE('',*,*,#422,.F.);
#682=ORIENTED_EDGE('',*,*,#476,.F.);
#683=ORIENTED_EDGE('',*,*,#465,.F.);
#684=ORIENTED_EDGE('',*,*,#477,.T.);
#685=ORIENTED_EDGE('',*,*,#390,.F.);
#686=ORIENTED_EDGE('',*,*,#478,.F.);
#687=ORIENTED_EDGE('',*,*,#452,.F.);
#688=ORIENTED_EDGE('',*,*,#479,.T.);
#689=ORIENTED_EDGE('',*,*,#387,.F.);
#690=ORIENTED_EDGE('',*,*,#455,.F.);
#691=ORIENTED_EDGE('',*,*,#454,.F.);
#692=ORIENTED_EDGE('',*,*,#478,.T.);
#693=ORIENTED_EDGE('',*,*,#392,.F.);
#694=ORIENTED_EDGE('',*,*,#479,.F.);
#695=ORIENTED_EDGE('',*,*,#449,.F.);
#696=ORIENTED_EDGE('',*,*,#400,.T.);
#697=ORIENTED_EDGE('',*,*,#425,.F.);
#698=ORIENTED_EDGE('',*,*,#480,.F.);
#699=ORIENTED_EDGE('',*,*,#474,.F.);
#700=ORIENTED_EDGE('',*,*,#433,.T.);
#701=ORIENTED_EDGE('',*,*,#424,.F.);
#702=ORIENTED_EDGE('',*,*,#477,.F.);
#703=ORIENTED_EDGE('',*,*,#475,.F.);
#704=ORIENTED_EDGE('',*,*,#480,.T.);
#705=CYLINDRICAL_SURFACE('',#793,0.2);
#706=CYLINDRICAL_SURFACE('',#800,0.2);
#707=CYLINDRICAL_SURFACE('',#806,0.2);
#708=CYLINDRICAL_SURFACE('',#812,0.2);
#709=CYLINDRICAL_SURFACE('',#817,4.99999999999999);
#710=CYLINDRICAL_SURFACE('',#820,4.99999999999999);
#711=CYLINDRICAL_SURFACE('',#828,0.2);
#712=CYLINDRICAL_SURFACE('',#834,0.2);
#713=CYLINDRICAL_SURFACE('',#839,0.2);
#714=CYLINDRICAL_SURFACE('',#844,0.2);
#715=CYLINDRICAL_SURFACE('',#848,6.29999999999999);
#716=CYLINDRICAL_SURFACE('',#851,6.29999999999999);
#717=CYLINDRICAL_SURFACE('',#854,0.2);
#718=CYLINDRICAL_SURFACE('',#860,0.2);
#719=CYLINDRICAL_SURFACE('',#865,0.2);
#720=CYLINDRICAL_SURFACE('',#871,0.2);
#721=CYLINDRICAL_SURFACE('',#886,1.);
#722=CYLINDRICAL_SURFACE('',#890,1.);
#723=CYLINDRICAL_SURFACE('',#894,1.);
#724=CYLINDRICAL_SURFACE('',#899,1.);
#725=CYLINDRICAL_SURFACE('',#901,6.29999999999999);
#726=CYLINDRICAL_SURFACE('',#903,5.);
#727=CYLINDRICAL_SURFACE('',#904,4.99999999999999);
#728=CYLINDRICAL_SURFACE('',#905,6.29999999999999);
#729=ADVANCED_FACE('',(#43),#705,.T.);
#730=ADVANCED_FACE('',(#44),#27,.T.);
#731=ADVANCED_FACE('',(#45),#706,.T.);
#732=ADVANCED_FACE('',(#46),#28,.T.);
#733=ADVANCED_FACE('',(#47),#707,.T.);
#734=ADVANCED_FACE('',(#48),#29,.T.);
#735=ADVANCED_FACE('',(#49),#708,.T.);
#736=ADVANCED_FACE('',(#50),#30,.T.);
#737=ADVANCED_FACE('',(#51),#709,.F.);
#738=ADVANCED_FACE('',(#52),#17,.T.);
#739=ADVANCED_FACE('',(#53),#710,.F.);
#740=ADVANCED_FACE('',(#54),#18,.T.);
#741=ADVANCED_FACE('',(#55,#15),#19,.F.);
#742=ADVANCED_FACE('',(#56),#711,.T.);
#743=ADVANCED_FACE('',(#57),#31,.T.);
#744=ADVANCED_FACE('',(#58),#712,.T.);
#745=ADVANCED_FACE('',(#59),#32,.T.);
#746=ADVANCED_FACE('',(#60),#713,.T.);
#747=ADVANCED_FACE('',(#61),#33,.T.);
#748=ADVANCED_FACE('',(#62),#714,.T.);
#749=ADVANCED_FACE('',(#63),#34,.T.);
#750=ADVANCED_FACE('',(#64),#715,.T.);
#751=ADVANCED_FACE('',(#65),#20,.T.);
#752=ADVANCED_FACE('',(#66),#716,.T.);
#753=ADVANCED_FACE('',(#67),#21,.T.);
#754=ADVANCED_FACE('',(#68),#717,.T.);
#755=ADVANCED_FACE('',(#69),#35,.T.);
#756=ADVANCED_FACE('',(#70),#718,.T.);
#757=ADVANCED_FACE('',(#71),#36,.T.);
#758=ADVANCED_FACE('',(#72),#719,.T.);
#759=ADVANCED_FACE('',(#73),#37,.T.);
#760=ADVANCED_FACE('',(#74),#720,.T.);
#761=ADVANCED_FACE('',(#75),#38,.T.);
#762=ADVANCED_FACE('',(#76),#22,.T.);
#763=ADVANCED_FACE('',(#77,#16),#23,.T.);
#764=ADVANCED_FACE('',(#78),#39,.T.);
#765=ADVANCED_FACE('',(#79),#721,.T.);
#766=ADVANCED_FACE('',(#80),#40,.T.);
#767=ADVANCED_FACE('',(#81),#722,.T.);
#768=ADVANCED_FACE('',(#82),#41,.T.);
#769=ADVANCED_FACE('',(#83),#723,.T.);
#770=ADVANCED_FACE('',(#84),#42,.T.);
#771=ADVANCED_FACE('',(#85),#724,.T.);
#772=ADVANCED_FACE('',(#86),#24,.T.);
#773=ADVANCED_FACE('',(#87),#725,.T.);
#774=ADVANCED_FACE('',(#88),#25,.T.);
#775=ADVANCED_FACE('',(#89),#726,.F.);
#776=ADVANCED_FACE('',(#90),#727,.F.);
#777=ADVANCED_FACE('',(#91),#728,.T.);
#778=ADVANCED_FACE('',(#92),#26,.T.);
#779=CLOSED_SHELL('',(#729,#730,#731,#732,#733,#734,#735,#736,#737,#738,
#739,#740,#741,#742,#743,#744,#745,#746,#747,#748,#749,#750,#751,#752,#753,
#754,#755,#756,#757,#758,#759,#760,#761,#762,#763,#764,#765,#766,#767,#768,
#769,#770,#771,#772,#773,#774,#775,#776,#777,#778));
#780=DERIVED_UNIT_ELEMENT(#782,1.);
#781=DERIVED_UNIT_ELEMENT(#1417,-3.);
#782=(
MASS_UNIT()
NAMED_UNIT(*)
SI_UNIT(.KILO.,.GRAM.)
);
#783=DERIVED_UNIT((#780,#781));
#784=MEASURE_REPRESENTATION_ITEM('density measure',
POSITIVE_RATIO_MEASURE(7850.),#783);
#785=PROPERTY_DEFINITION_REPRESENTATION(#790,#787);
#786=PROPERTY_DEFINITION_REPRESENTATION(#791,#788);
#787=REPRESENTATION('material name',(#789),#1414);
#788=REPRESENTATION('density',(#784),#1414);
#789=DESCRIPTIVE_REPRESENTATION_ITEM('Steel','Steel');
#790=PROPERTY_DEFINITION('material property','material name',#1424);
#791=PROPERTY_DEFINITION('material property','density of part',#1424);
#792=AXIS2_PLACEMENT_3D('',#1185,#907,#908);
#793=AXIS2_PLACEMENT_3D('',#1186,#909,#910);
#794=AXIS2_PLACEMENT_3D('',#1189,#911,#912);
#795=AXIS2_PLACEMENT_3D('',#1193,#914,#915);
#796=AXIS2_PLACEMENT_3D('',#1195,#917,#918);
#797=AXIS2_PLACEMENT_3D('',#1198,#919,#920);
#798=AXIS2_PLACEMENT_3D('',#1199,#921,#922);
#799=AXIS2_PLACEMENT_3D('',#1200,#923,#924);
#800=AXIS2_PLACEMENT_3D('',#1201,#925,#926);
#801=AXIS2_PLACEMENT_3D('',#1204,#927,#928);
#802=AXIS2_PLACEMENT_3D('',#1207,#931,#932);
#803=AXIS2_PLACEMENT_3D('',#1210,#933,#934);
#804=AXIS2_PLACEMENT_3D('',#1211,#935,#936);
#805=AXIS2_PLACEMENT_3D('',#1212,#937,#938);
#806=AXIS2_PLACEMENT_3D('',#1213,#939,#940);
#807=AXIS2_PLACEMENT_3D('',#1216,#941,#942);
#808=AXIS2_PLACEMENT_3D('',#1219,#945,#946);
#809=AXIS2_PLACEMENT_3D('',#1222,#947,#948);
#810=AXIS2_PLACEMENT_3D('',#1223,#949,#950);
#811=AXIS2_PLACEMENT_3D('',#1224,#951,#952);
#812=AXIS2_PLACEMENT_3D('',#1225,#953,#954);
#813=AXIS2_PLACEMENT_3D('',#1228,#955,#956);
#814=AXIS2_PLACEMENT_3D('',#1231,#959,#960);
#815=AXIS2_PLACEMENT_3D('',#1232,#961,#962);
#816=AXIS2_PLACEMENT_3D('',#1233,#963,#964);
#817=AXIS2_PLACEMENT_3D('',#1234,#965,#966);
#818=AXIS2_PLACEMENT_3D('',#1238,#968,#969);
#819=AXIS2_PLACEMENT_3D('',#1240,#971,#972);
#820=AXIS2_PLACEMENT_3D('',#1244,#975,#976);
#821=AXIS2_PLACEMENT_3D('',#1247,#978,#979);
#822=AXIS2_PLACEMENT_3D('',#1248,#980,#981);
#823=AXIS2_PLACEMENT_3D('',#1252,#984,#985);
#824=AXIS2_PLACEMENT_3D('',#1257,#987,#988);
#825=AXIS2_PLACEMENT_3D('',#1261,#990,#991);
#826=AXIS2_PLACEMENT_3D('',#1265,#993,#994);
#827=AXIS2_PLACEMENT_3D('',#1268,#996,#997);
#828=AXIS2_PLACEMENT_3D('',#1269,#998,#999);
#829=AXIS2_PLACEMENT_3D('',#1271,#1000,#1001);
#830=AXIS2_PLACEMENT_3D('',#1274,#1003,#1004);
#831=AXIS2_PLACEMENT_3D('',#1275,#1005,#1006);
#832=AXIS2_PLACEMENT_3D('',#1277,#1007,#1008);
#833=AXIS2_PLACEMENT_3D('',#1278,#1009,#1010);
#834=AXIS2_PLACEMENT_3D('',#1279,#1011,#1012);
#835=AXIS2_PLACEMENT_3D('',#1281,#1013,#1014);
#836=AXIS2_PLACEMENT_3D('',#1283,#1016,#1017);
#837=AXIS2_PLACEMENT_3D('',#1285,#1018,#1019);
#838=AXIS2_PLACEMENT_3D('',#1286,#1020,#1021);
#839=AXIS2_PLACEMENT_3D('',#1287,#1022,#1023);
#840=AXIS2_PLACEMENT_3D('',#1289,#1024,#1025);
#841=AXIS2_PLACEMENT_3D('',#1291,#1027,#1028);
#842=AXIS2_PLACEMENT_3D('',#1293,#1029,#1030);
#843=AXIS2_PLACEMENT_3D('',#1294,#1031,#1032);
#844=AXIS2_PLACEMENT_3D('',#1295,#1033,#1034);
#845=AXIS2_PLACEMENT_3D('',#1297,#1035,#1036);
#846=AXIS2_PLACEMENT_3D('',#1299,#1038,#1039);
#847=AXIS2_PLACEMENT_3D('',#1300,#1040,#1041);
#848=AXIS2_PLACEMENT_3D('',#1301,#1042,#1043);
#849=AXIS2_PLACEMENT_3D('',#1305,#1045,#1046);
#850=AXIS2_PLACEMENT_3D('',#1307,#1048,#1049);
#851=AXIS2_PLACEMENT_3D('',#1311,#1052,#1053);
#852=AXIS2_PLACEMENT_3D('',#1314,#1055,#1056);
#853=AXIS2_PLACEMENT_3D('',#1315,#1057,#1058);
#854=AXIS2_PLACEMENT_3D('',#1319,#1061,#1062);
#855=AXIS2_PLACEMENT_3D('',#1322,#1063,#1064);
#856=AXIS2_PLACEMENT_3D('',#1325,#1066,#1067);
#857=AXIS2_PLACEMENT_3D('',#1327,#1069,#1070);
#858=AXIS2_PLACEMENT_3D('',#1329,#1071,#1072);
#859=AXIS2_PLACEMENT_3D('',#1330,#1073,#1074);
#860=AXIS2_PLACEMENT_3D('',#1331,#1075,#1076);
#861=AXIS2_PLACEMENT_3D('',#1333,#1077,#1078);
#862=AXIS2_PLACEMENT_3D('',#1335,#1080,#1081);
#863=AXIS2_PLACEMENT_3D('',#1337,#1082,#1083);
#864=AXIS2_PLACEMENT_3D('',#1338,#1084,#1085);
#865=AXIS2_PLACEMENT_3D('',#1339,#1086,#1087);
#866=AXIS2_PLACEMENT_3D('',#1341,#1088,#1089);
#867=AXIS2_PLACEMENT_3D('',#1343,#1091,#1092);
#868=AXIS2_PLACEMENT_3D('',#1346,#1093,#1094);
#869=AXIS2_PLACEMENT_3D('',#1347,#1095,#1096);
#870=AXIS2_PLACEMENT_3D('',#1348,#1097,#1098);
#871=AXIS2_PLACEMENT_3D('',#1349,#1099,#1100);
#872=AXIS2_PLACEMENT_3D('',#1352,#1101,#1102);
#873=AXIS2_PLACEMENT_3D('',#1355,#1105,#1106);
#874=AXIS2_PLACEMENT_3D('',#1356,#1107,#1108);
#875=AXIS2_PLACEMENT_3D('',#1357,#1109,#1110);
#876=AXIS2_PLACEMENT_3D('',#1358,#1111,#1112);
#877=AXIS2_PLACEMENT_3D('',#1360,#1114,#1115);
#878=AXIS2_PLACEMENT_3D('',#1363,#1116,#1117);
#879=AXIS2_PLACEMENT_3D('',#1367,#1119,#1120);
#880=AXIS2_PLACEMENT_3D('',#1371,#1122,#1123);
#881=AXIS2_PLACEMENT_3D('',#1375,#1125,#1126);
#882=AXIS2_PLACEMENT_3D('',#1377,#1128,#1129);
#883=AXIS2_PLACEMENT_3D('',#1379,#1130,#1131);
#884=AXIS2_PLACEMENT_3D('',#1381,#1132,#1133);
#885=AXIS2_PLACEMENT_3D('',#1382,#1134,#1135);
#886=AXIS2_PLACEMENT_3D('',#1383,#1136,#1137);
#887=AXIS2_PLACEMENT_3D('',#1384,#1138,#1139);
#888=AXIS2_PLACEMENT_3D('',#1386,#1141,#1142);
#889=AXIS2_PLACEMENT_3D('',#1387,#1143,#1144);
#890=AXIS2_PLACEMENT_3D('',#1388,#1145,#1146);
#891=AXIS2_PLACEMENT_3D('',#1389,#1147,#1148);
#892=AXIS2_PLACEMENT_3D('',#1390,#1149,#1150);
#893=AXIS2_PLACEMENT_3D('',#1391,#1151,#1152);
#894=AXIS2_PLACEMENT_3D('',#1392,#1153,#1154);
#895=AXIS2_PLACEMENT_3D('',#1393,#1155,#1156);
#896=AXIS2_PLACEMENT_3D('',#1394,#1157,#1158);
#897=AXIS2_PLACEMENT_3D('',#1396,#1159,#1160);
#898=AXIS2_PLACEMENT_3D('',#1397,#1161,#1162);
#899=AXIS2_PLACEMENT_3D('',#1398,#1163,#1164);
#900=AXIS2_PLACEMENT_3D('',#1400,#1166,#1167);
#901=AXIS2_PLACEMENT_3D('',#1402,#1169,#1170);
#902=AXIS2_PLACEMENT_3D('',#1404,#1172,#1173);
#903=AXIS2_PLACEMENT_3D('',#1407,#1176,#1177);
#904=AXIS2_PLACEMENT_3D('',#1408,#1178,#1179);
#905=AXIS2_PLACEMENT_3D('',#1409,#1180,#1181);
#906=AXIS2_PLACEMENT_3D('',#1411,#1183,#1184);
#907=DIRECTION('axis',(0.,0.,1.));
#908=DIRECTION('refdir',(1.,0.,0.));
#909=DIRECTION('center_axis',(6.71376642253559E-17,-0.258819045102521,-0.965925826289068));
#910=DIRECTION('ref_axis',(-0.707106781186532,-0.683012701892234,0.183012701892223));
#911=DIRECTION('center_axis',(-2.94034683507447E-17,-0.258819045102521,
-0.965925826289068));
#912=DIRECTION('ref_axis',(-1.00876835738818E-16,-0.965925826289068,0.258819045102521));
#913=DIRECTION('',(6.71376642253559E-17,-0.258819045102521,-0.965925826289068));
#914=DIRECTION('center_axis',(2.94034683507447E-17,0.258819045102521,0.965925826289068));
#915=DIRECTION('ref_axis',(-1.,1.05049718515686E-16,2.29272316357289E-18));
#916=DIRECTION('',(-6.71376642253559E-17,0.258819045102521,0.965925826289068));
#917=DIRECTION('center_axis',(1.00876835738818E-16,0.965925826289068,-0.258819045102521));
#918=DIRECTION('ref_axis',(-1.,0.,0.));
#919=DIRECTION('center_axis',(1.,-1.05049718515686E-16,-2.29272316357293E-18));
#920=DIRECTION('ref_axis',(2.94034683507447E-17,0.258819045102521,0.965925826289068));
#921=DIRECTION('center_axis',(-1.00876835738818E-16,-0.965925826289068,
0.258819045102521));
#922=DIRECTION('ref_axis',(0.707106781186549,-0.183012701892219,-0.683012701892218));
#923=DIRECTION('center_axis',(1.00876835738818E-16,0.965925826289068,-0.258819045102521));
#924=DIRECTION('ref_axis',(0.707106781186549,-0.183012701892219,-0.683012701892218));
#925=DIRECTION('center_axis',(-1.,1.22464679914735E-16,6.72862439166761E-17));
#926=DIRECTION('ref_axis',(-2.9607434002929E-18,-0.500000000000019,0.866025403784428));
#927=DIRECTION('center_axis',(1.,5.64188754317075E-15,2.14455691253609E-14));
#928=DIRECTION('ref_axis',(-2.21750570241528E-14,0.258819045102521,0.965925826289068));
#929=DIRECTION('',(1.,-1.22464679914735E-16,-6.72862439166761E-17));
#930=DIRECTION('',(-1.,1.22464679914735E-16,6.72862439166761E-17));
#931=DIRECTION('center_axis',(1.00876835738818E-16,0.965925826289068,-0.258819045102521));
#932=DIRECTION('ref_axis',(-1.,0.,0.));
#933=DIRECTION('center_axis',(-2.94034683507447E-17,-0.258819045102521,
-0.965925826289068));
#934=DIRECTION('ref_axis',(1.,-1.05049718515686E-16,-2.29272316357289E-18));
#935=DIRECTION('center_axis',(-1.00876835738818E-16,-0.965925826289068,
0.258819045102521));
#936=DIRECTION('ref_axis',(-0.707106781186547,-0.18301270189222,-0.68301270189222));
#937=DIRECTION('center_axis',(1.00876835738818E-16,0.965925826289068,-0.258819045102521));
#938=DIRECTION('ref_axis',(-0.707106781186547,-0.18301270189222,-0.68301270189222));
#939=DIRECTION('center_axis',(-6.71376642253558E-17,0.258819045102521,0.965925826289068));
#940=DIRECTION('ref_axis',(0.707106781186547,-0.683012701892219,0.18301270189222));
#941=DIRECTION('center_axis',(-2.94034683507447E-17,-0.258819045102521,
-0.965925826289068));
#942=DIRECTION('ref_axis',(1.,-1.05049718515686E-16,-2.29272316357289E-18));
#943=DIRECTION('',(6.71376642253558E-17,-0.258819045102521,-0.965925826289068));
#944=DIRECTION('',(-6.71376642253558E-17,0.258819045102521,0.965925826289068));
#945=DIRECTION('center_axis',(1.00876835738818E-16,0.965925826289068,-0.258819045102521));
#946=DIRECTION('ref_axis',(-1.,0.,0.));
#947=DIRECTION('center_axis',(-1.,5.85198698020199E-15,2.14501545716876E-14));
#948=DIRECTION('ref_axis',(-2.22338639608538E-14,-0.258819045102521,-0.965925826289068));
#949=DIRECTION('center_axis',(-1.00876835738818E-16,-0.965925826289068,
0.258819045102521));
#950=DIRECTION('ref_axis',(-0.707106781186547,0.18301270189222,0.683012701892219));
#951=DIRECTION('center_axis',(1.00876835738818E-16,0.965925826289068,-0.258819045102521));
#952=DIRECTION('ref_axis',(-0.707106781186548,0.18301270189222,0.683012701892219));
#953=DIRECTION('center_axis',(1.,-1.22464679914735E-16,-6.72862439166761E-17));
#954=DIRECTION('ref_axis',(-1.39700645830828E-16,-0.866025403784439,-0.5));
#955=DIRECTION('center_axis',(-1.,-5.64188754317062E-15,-2.14455691253605E-14));
#956=DIRECTION('ref_axis',(2.21750570241524E-14,-0.258819045102521,-0.965925826289068));
#957=DIRECTION('',(-1.,1.22464679914735E-16,6.72862439166761E-17));
#958=DIRECTION('',(1.,-1.22464679914735E-16,-6.72862439166761E-17));
#959=DIRECTION('center_axis',(1.00876835738818E-16,0.965925826289068,-0.258819045102521));
#960=DIRECTION('ref_axis',(-1.,0.,0.));
#961=DIRECTION('center_axis',(-1.00876835738818E-16,-0.965925826289068,
0.258819045102521));
#962=DIRECTION('ref_axis',(0.707106781186548,0.183012701892219,0.683012701892219));
#963=DIRECTION('center_axis',(1.00876835738818E-16,0.965925826289068,-0.258819045102521));
#964=DIRECTION('ref_axis',(0.707106781186548,0.183012701892219,0.683012701892219));
#965=DIRECTION('center_axis',(-1.00876835738818E-16,-0.965925826289068,
0.258819045102521));
#966=DIRECTION('ref_axis',(2.63513179074964E-15,-0.258819045102521,-0.965925826289068));
#967=DIRECTION('',(-1.00876835738818E-16,-0.965925826289068,0.258819045102521));
#968=DIRECTION('center_axis',(-1.00876835738818E-16,-0.965925826289068,
0.258819045102521));
#969=DIRECTION('ref_axis',(-0.707106781186547,-0.18301270189222,-0.68301270189222));
#970=DIRECTION('',(-1.00876835738818E-16,-0.965925826289068,0.258819045102521));
#971=DIRECTION('center_axis',(9.66897122674209E-17,0.258819045102521,0.965925826289068));
#972=DIRECTION('ref_axis',(-1.,1.22464679914735E-16,6.72862439166763E-17));
#973=DIRECTION('',(-1.00876835738818E-16,-0.965925826289068,0.258819045102521));
#974=DIRECTION('',(1.,-1.22464679914735E-16,-6.72862439166761E-17));
#975=DIRECTION('center_axis',(-1.00876835738818E-16,-0.965925826289068,
0.258819045102521));
#976=DIRECTION('ref_axis',(1.,1.27421522428903E-15,5.14519412048221E-15));
#977=DIRECTION('',(-1.00876835738818E-16,-0.965925826289068,0.258819045102521));
#978=DIRECTION('center_axis',(-1.00876835738818E-16,-0.965925826289068,
0.258819045102521));
#979=DIRECTION('ref_axis',(0.707106781186549,-0.183012701892219,-0.683012701892218));
#980=DIRECTION('center_axis',(-1.,8.00630347692237E-17,-9.09588500908795E-17));
#981=DIRECTION('ref_axis',(6.71376642253558E-17,-0.258819045102521,-0.965925826289068));
#982=DIRECTION('',(-1.00876835738818E-16,-0.965925826289068,0.258819045102521));
#983=DIRECTION('',(-6.71376642253559E-17,0.258819045102521,0.965925826289068));
#984=DIRECTION('center_axis',(1.00876835738818E-16,0.965925826289068,-0.258819045102521));
#985=DIRECTION('ref_axis',(-1.,1.05049718515686E-16,2.29272316357283E-18));
#986=DIRECTION('',(-6.71376642253558E-17,0.258819045102521,0.965925826289068));
#987=DIRECTION('center_axis',(1.00876835738818E-16,0.965925826289068,-0.258819045102521));
#988=DIRECTION('ref_axis',(-0.707106781186547,-0.18301270189222,-0.68301270189222));
#989=DIRECTION('',(-1.,1.22464679914735E-16,6.72862439166761E-17));
#990=DIRECTION('center_axis',(1.00876835738818E-16,0.965925826289068,-0.258819045102521));
#991=DIRECTION('ref_axis',(0.707106781186548,-0.183012701892219,-0.683012701892218));
#992=DIRECTION('',(-2.94034683507447E-17,-0.258819045102521,-0.965925826289068));
#993=DIRECTION('center_axis',(1.00876835738818E-16,0.965925826289068,-0.258819045102521));
#994=DIRECTION('ref_axis',(0.707106781186548,0.183012701892219,0.683012701892219));
#995=DIRECTION('',(1.,-1.22464679914735E-16,-6.72862439166761E-17));
#996=DIRECTION('center_axis',(1.00876835738818E-16,0.965925826289068,-0.258819045102521));
#997=DIRECTION('ref_axis',(-0.707106781186547,0.18301270189222,0.683012701892219));
#998=DIRECTION('center_axis',(6.71376642253558E-17,-0.258819045102521,-0.965925826289068));
#999=DIRECTION('ref_axis',(-0.707106781186532,-0.683012701892234,0.183012701892223));
#1000=DIRECTION('center_axis',(-2.94034683507447E-17,-0.258819045102521,
-0.965925826289068));
#1001=DIRECTION('ref_axis',(-1.00876835738818E-16,-0.965925826289068,0.258819045102521));
#1002=DIRECTION('',(6.71376642253558E-17,-0.258819045102521,-0.965925826289068));
#1003=DIRECTION('center_axis',(2.94034683507447E-17,0.258819045102521,0.965925826289068));
#1004=DIRECTION('ref_axis',(-1.,1.05049718515686E-16,2.29272316357289E-18));
#1005=DIRECTION('center_axis',(-1.00876835738818E-16,-0.965925826289068,
0.258819045102521));
#1006=DIRECTION('ref_axis',(1.,0.,0.));
#1007=DIRECTION('center_axis',(-1.,1.05049718515686E-16,2.29272316357293E-18));
#1008=DIRECTION('ref_axis',(-2.94034683507447E-17,-0.258819045102521,-0.965925826289068));
#1009=DIRECTION('center_axis',(-1.00876835738818E-16,-0.965925826289068,
0.258819045102521));
#1010=DIRECTION('ref_axis',(-0.707106781186547,-0.18301270189222,-0.68301270189222));
#1011=DIRECTION('center_axis',(1.,-1.22464679914735E-16,-6.72862439166761E-17));
#1012=DIRECTION('ref_axis',(-1.39700645830828E-16,-0.86602540378445,-0.499999999999981));
#1013=DIRECTION('center_axis',(-1.,5.85198698020199E-15,2.14501545716876E-14));
#1014=DIRECTION('ref_axis',(-2.22338639608538E-14,-0.258819045102521,-0.965925826289068));
#1015=DIRECTION('',(1.,-1.22464679914735E-16,-6.72862439166761E-17));
#1016=DIRECTION('center_axis',(-1.00876835738818E-16,-0.965925826289068,
0.258819045102521));
#1017=DIRECTION('ref_axis',(1.,0.,0.));
#1018=DIRECTION('center_axis',(2.21750570241524E-14,-0.258819045102521,
-0.965925826289068));
#1019=DIRECTION('ref_axis',(1.,5.64188754317062E-15,2.14455691253605E-14));
#1020=DIRECTION('center_axis',(-1.00876835738818E-16,-0.965925826289068,
0.258819045102521));
#1021=DIRECTION('ref_axis',(0.707106781186549,-0.183012701892219,-0.683012701892218));
#1022=DIRECTION('center_axis',(2.94034683507447E-17,0.258819045102521,0.965925826289068));
#1023=DIRECTION('ref_axis',(0.707106781186547,-0.683012701892219,0.18301270189222));
#1024=DIRECTION('center_axis',(-2.94034683507447E-17,-0.258819045102521,
-0.965925826289068));
#1025=DIRECTION('ref_axis',(1.,-1.05049718515686E-16,-2.29272316357289E-18));
#1026=DIRECTION('',(2.94034683507447E-17,0.258819045102521,0.965925826289068));
#1027=DIRECTION('center_axis',(-1.00876835738818E-16,-0.965925826289068,
0.258819045102521));
#1028=DIRECTION('ref_axis',(1.,0.,0.));
#1029=DIRECTION('center_axis',(1.,-1.05049718515686E-16,-2.29272316357293E-18));
#1030=DIRECTION('ref_axis',(2.94034683507447E-17,0.258819045102521,0.965925826289068));
#1031=DIRECTION('center_axis',(-1.00876835738818E-16,-0.965925826289068,
0.258819045102521));
#1032=DIRECTION('ref_axis',(0.707106781186548,0.183012701892219,0.683012701892219));
#1033=DIRECTION('center_axis',(-1.,1.22464679914735E-16,6.72862439166761E-17));
#1034=DIRECTION('ref_axis',(-2.9607434002929E-18,-0.500000000000019,0.866025403784428));
#1035=DIRECTION('center_axis',(1.,-1.05049718515686E-16,-2.29272316357293E-18));
#1036=DIRECTION('ref_axis',(2.94034683507447E-17,0.258819045102521,0.965925826289068));
#1037=DIRECTION('',(-1.,1.22464679914735E-16,6.72862439166761E-17));
#1038=DIRECTION('center_axis',(-1.00876835738818E-16,-0.965925826289068,
0.258819045102521));
#1039=DIRECTION('ref_axis',(1.,0.,0.));
#1040=DIRECTION('center_axis',(-1.00876835738818E-16,-0.965925826289068,
0.258819045102521));
#1041=DIRECTION('ref_axis',(-0.707106781186547,0.18301270189222,0.683012701892219));
#1042=DIRECTION('center_axis',(-1.00876835738818E-16,-0.965925826289068,
0.258819045102521));
#1043=DIRECTION('ref_axis',(1.,9.89604997995994E-16,4.08301429560292E-15));
#1044=DIRECTION('',(-1.00876835738818E-16,-0.965925826289068,0.258819045102521));
#1045=DIRECTION('center_axis',(1.00876835738818E-16,0.965925826289068,-0.258819045102521));
#1046=DIRECTION('ref_axis',(0.707106781186549,-0.183012701892219,-0.683012701892218));
#1047=DIRECTION('',(-1.00876835738818E-16,-0.965925826289068,0.258819045102521));
#1048=DIRECTION('center_axis',(-9.66897122674209E-17,-0.258819045102521,
-0.965925826289068));
#1049=DIRECTION('ref_axis',(1.,-1.22464679914735E-16,-6.72862439166763E-17));
#1050=DIRECTION('',(-1.00876835738818E-16,-0.965925826289068,0.258819045102521));
#1051=DIRECTION('',(-1.,1.22464679914735E-16,6.72862439166761E-17));
#1052=DIRECTION('center_axis',(-1.00876835738818E-16,-0.965925826289068,
0.258819045102521));
#1053=DIRECTION('ref_axis',(2.08530705474479E-15,-0.258819045102521,-0.965925826289068));
#1054=DIRECTION('',(-1.00876835738818E-16,-0.965925826289068,0.258819045102521));
#1055=DIRECTION('center_axis',(1.00876835738818E-16,0.965925826289068,-0.258819045102521));
#1056=DIRECTION('ref_axis',(-0.707106781186547,-0.18301270189222,-0.68301270189222));
#1057=DIRECTION('center_axis',(-1.,8.00630347692237E-17,-9.09588500908795E-17));
#1058=DIRECTION('ref_axis',(6.71376642253558E-17,-0.258819045102521,-0.965925826289068));
#1059=DIRECTION('',(-1.00876835738818E-16,-0.965925826289068,0.258819045102521));
#1060=DIRECTION('',(-6.71376642253558E-17,0.258819045102521,0.965925826289068));
#1061=DIRECTION('center_axis',(6.71376642253558E-17,-0.258819045102521,
-0.965925826289068));
#1062=DIRECTION('ref_axis',(0.707106781186556,0.683012701892211,-0.183012701892217));
#1063=DIRECTION('center_axis',(-2.94034683507447E-17,-0.258819045102521,
-0.965925826289068));
#1064=DIRECTION('ref_axis',(1.00876835738818E-16,0.965925826289068,-0.258819045102521));
#1065=DIRECTION('',(6.71376642253558E-17,-0.258819045102521,-0.965925826289068));
#1066=DIRECTION('center_axis',(2.94034683507447E-17,0.258819045102521,0.965925826289068));
#1067=DIRECTION('ref_axis',(1.,-1.05049718515686E-16,-2.29272316357289E-18));
#1068=DIRECTION('',(-6.71376642253558E-17,0.258819045102521,0.965925826289068));
#1069=DIRECTION('center_axis',(-1.00876835738818E-16,-0.965925826289068,
0.258819045102521));
#1070=DIRECTION('ref_axis',(1.,0.,0.));
#1071=DIRECTION('center_axis',(-1.,1.05049718515686E-16,2.29272316357293E-18));
#1072=DIRECTION('ref_axis',(2.94034683507447E-17,0.258819045102521,0.965925826289068));
#1073=DIRECTION('center_axis',(1.00876835738818E-16,0.965925826289068,-0.258819045102521));
#1074=DIRECTION('ref_axis',(-0.707106781186547,-0.18301270189222,-0.68301270189222));
#1075=DIRECTION('center_axis',(1.,-1.22464679914735E-16,-6.72862439166761E-17));
#1076=DIRECTION('ref_axis',(1.39700645830828E-16,0.866025403784444,0.49999999999999));
#1077=DIRECTION('center_axis',(-1.,1.05049718515686E-16,2.29272316357293E-18));
#1078=DIRECTION('ref_axis',(2.94034683507447E-17,0.258819045102521,0.965925826289068));
#1079=DIRECTION('',(-1.,1.22464679914735E-16,6.72862439166761E-17));
#1080=DIRECTION('center_axis',(-1.00876835738818E-16,-0.965925826289068,
0.258819045102521));
#1081=DIRECTION('ref_axis',(1.,0.,0.));
#1082=DIRECTION('center_axis',(-2.94034683507447E-17,-0.258819045102521,
-0.965925826289068));
#1083=DIRECTION('ref_axis',(-1.,1.05049718515686E-16,2.29272316357289E-18));
#1084=DIRECTION('center_axis',(1.00876835738818E-16,0.965925826289068,-0.258819045102521));
#1085=DIRECTION('ref_axis',(0.707106781186549,-0.183012701892219,-0.683012701892218));
#1086=DIRECTION('center_axis',(-6.71376642253559E-17,0.258819045102521,
0.965925826289068));
#1087=DIRECTION('ref_axis',(-0.707106781186539,0.683012701892227,-0.183012701892222));
#1088=DIRECTION('center_axis',(-2.94034683507447E-17,-0.258819045102521,
-0.965925826289068));
#1089=DIRECTION('ref_axis',(-1.,1.05049718515686E-16,2.29272316357289E-18));
#1090=DIRECTION('',(6.71376642253559E-17,-0.258819045102521,-0.965925826289068));
#1091=DIRECTION('center_axis',(-1.00876835738818E-16,-0.965925826289068,
0.258819045102521));
#1092=DIRECTION('ref_axis',(1.,0.,0.));
#1093=DIRECTION('center_axis',(1.,-5.85198698020199E-15,-2.14501545716876E-14));
#1094=DIRECTION('ref_axis',(-2.22338639608538E-14,-0.258819045102521,-0.965925826289068));
#1095=DIRECTION('center_axis',(1.00876835738818E-16,0.965925826289068,-0.258819045102521));
#1096=DIRECTION('ref_axis',(0.707106781186548,0.183012701892219,0.683012701892219));
#1097=DIRECTION('center_axis',(-1.00876835738818E-16,-0.965925826289068,
0.258819045102521));
#1098=DIRECTION('ref_axis',(0.707106781186548,0.183012701892219,0.683012701892219));
#1099=DIRECTION('center_axis',(-1.,1.22464679914735E-16,6.72862439166761E-17));
#1100=DIRECTION('ref_axis',(2.96074340028828E-18,0.49999999999999,-0.866025403784444));
#1101=DIRECTION('center_axis',(1.,-1.05049718515686E-16,-2.29272316357293E-18));
#1102=DIRECTION('ref_axis',(-2.94034683507447E-17,-0.258819045102521,-0.965925826289068));
#1103=DIRECTION('',(1.,-1.22464679914735E-16,-6.72862439166761E-17));
#1104=DIRECTION('',(-1.,1.22464679914735E-16,6.72862439166761E-17));
#1105=DIRECTION('center_axis',(-1.00876835738818E-16,-0.965925826289068,
0.258819045102521));
#1106=DIRECTION('ref_axis',(1.,0.,0.));
#1107=DIRECTION('center_axis',(1.00876835738818E-16,0.965925826289068,-0.258819045102521));
#1108=DIRECTION('ref_axis',(-0.707106781186547,0.18301270189222,0.683012701892219));
#1109=DIRECTION('center_axis',(-1.00876835738818E-16,-0.965925826289068,
0.258819045102521));
#1110=DIRECTION('ref_axis',(-0.707106781186548,0.18301270189222,0.683012701892219));
#1111=DIRECTION('center_axis',(1.,-8.00630347692237E-17,9.09588500908795E-17));
#1112=DIRECTION('ref_axis',(-6.71376642253558E-17,0.258819045102521,0.965925826289068));
#1113=DIRECTION('',(-1.00876835738818E-16,-0.965925826289068,0.258819045102521));
#1114=DIRECTION('center_axis',(1.00876835738818E-16,0.965925826289068,-0.258819045102521));
#1115=DIRECTION('ref_axis',(-1.,1.05049718515686E-16,2.29272316357283E-18));
#1116=DIRECTION('center_axis',(-1.00876835738818E-16,-0.965925826289068,
0.258819045102521));
#1117=DIRECTION('ref_axis',(0.707106781186548,0.183012701892219,0.683012701892219));
#1118=DIRECTION('',(2.94034683507447E-17,0.258819045102521,0.965925826289068));
#1119=DIRECTION('center_axis',(-1.00876835738818E-16,-0.965925826289068,
0.258819045102521));
#1120=DIRECTION('ref_axis',(0.707106781186549,-0.183012701892219,-0.683012701892218));
#1121=DIRECTION('',(1.,-1.22464679914735E-16,-6.72862439166761E-17));
#1122=DIRECTION('center_axis',(-1.00876835738818E-16,-0.965925826289068,
0.258819045102521));
#1123=DIRECTION('ref_axis',(-0.707106781186547,-0.18301270189222,-0.68301270189222));
#1124=DIRECTION('',(6.71376642253558E-17,-0.258819045102521,-0.965925826289068));
#1125=DIRECTION('center_axis',(-1.00876835738818E-16,-0.965925826289068,
0.258819045102521));
#1126=DIRECTION('ref_axis',(-0.707106781186547,0.18301270189222,0.683012701892219));
#1127=DIRECTION('',(-1.,1.22464679914735E-16,6.72862439166761E-17));
#1128=DIRECTION('center_axis',(1.00876835738818E-16,0.965925826289068,-0.258819045102521));
#1129=DIRECTION('ref_axis',(-1.,0.,0.));
#1130=DIRECTION('center_axis',(1.,-1.05049718515686E-16,-2.29272316357293E-18));
#1131=DIRECTION('ref_axis',(1.00876835738818E-16,0.965925826289068,-0.258819045102521));
#1132=DIRECTION('center_axis',(1.00876835738818E-16,0.965925826289068,-0.258819045102521));
#1133=DIRECTION('ref_axis',(0.707106781186548,0.183012701892219,0.683012701892219));
#1134=DIRECTION('center_axis',(2.94034683507447E-17,0.258819045102521,0.965925826289068));
#1135=DIRECTION('ref_axis',(1.,-1.05049718515686E-16,-2.29272316357289E-18));
#1136=DIRECTION('center_axis',(-2.94034683507447E-17,-0.258819045102521,
-0.965925826289068));
#1137=DIRECTION('ref_axis',(0.707106781186549,0.683012701892218,-0.183012701892219));
#1138=DIRECTION('center_axis',(2.94034683507447E-17,0.258819045102521,0.965925826289068));
#1139=DIRECTION('ref_axis',(1.,-1.05049718515686E-16,-2.29272316357289E-18));
#1140=DIRECTION('',(-2.94034683507447E-17,-0.258819045102521,-0.965925826289068));
#1141=DIRECTION('center_axis',(1.00876835738818E-16,0.965925826289068,-0.258819045102521));
#1142=DIRECTION('ref_axis',(-1.,0.,0.));
#1143=DIRECTION('center_axis',(1.,-1.05049718515686E-16,-2.29272316357293E-18));
#1144=DIRECTION('ref_axis',(-2.94034683507447E-17,-0.258819045102521,-0.965925826289068));
#1145=DIRECTION('center_axis',(-1.,1.22464679914735E-16,6.72862439166761E-17));
#1146=DIRECTION('ref_axis',(2.96074340029014E-18,0.500000000000002,-0.866025403784438));
#1147=DIRECTION('center_axis',(1.,-1.05049718515686E-16,-2.29272316357293E-18));
#1148=DIRECTION('ref_axis',(-2.94034683507447E-17,-0.258819045102521,-0.965925826289068));
#1149=DIRECTION('center_axis',(1.00876835738818E-16,0.965925826289068,-0.258819045102521));
#1150=DIRECTION('ref_axis',(-1.,0.,0.));
#1151=DIRECTION('center_axis',(-2.94034683507447E-17,-0.258819045102521,
-0.965925826289068));
#1152=DIRECTION('ref_axis',(-1.,1.05049718515686E-16,2.29272316357289E-18));
#1153=DIRECTION('center_axis',(-6.71376642253558E-17,0.258819045102521,
0.965925826289068));
#1154=DIRECTION('ref_axis',(-0.707106781186546,0.683012701892221,-0.18301270189222));
#1155=DIRECTION('center_axis',(-2.94034683507447E-17,-0.258819045102521,
-0.965925826289068));
#1156=DIRECTION('ref_axis',(-1.,1.05049718515686E-16,2.29272316357289E-18));
#1157=DIRECTION('center_axis',(1.00876835738818E-16,0.965925826289068,-0.258819045102521));
#1158=DIRECTION('ref_axis',(-1.,0.,0.));
#1159=DIRECTION('center_axis',(-1.,1.05049718515686E-16,2.29272316357293E-18));
#1160=DIRECTION('ref_axis',(2.94034683507447E-17,0.258819045102521,0.965925826289068));
#1161=DIRECTION('center_axis',(1.00876835738818E-16,0.965925826289068,-0.258819045102521));
#1162=DIRECTION('ref_axis',(-0.707106781186547,0.18301270189222,0.683012701892219));
#1163=DIRECTION('center_axis',(1.,-1.22464679914735E-16,-6.72862439166761E-17));
#1164=DIRECTION('ref_axis',(1.39700645830828E-16,0.86602540378444,0.499999999999998));
#1165=DIRECTION('',(1.,-1.22464679914735E-16,-6.72862439166761E-17));
#1166=DIRECTION('center_axis',(1.,-1.05049718515686E-16,-2.29272316357293E-18));
#1167=DIRECTION('ref_axis',(2.94034683507447E-17,0.258819045102521,0.965925826289068));
#1168=DIRECTION('',(-1.00876835738818E-16,-0.965925826289068,0.258819045102521));
#1169=DIRECTION('center_axis',(-1.00876835738818E-16,-0.965925826289068,
0.258819045102521));
#1170=DIRECTION('ref_axis',(7.34306976049258E-16,0.258819045102521,0.965925826289068));
#1171=DIRECTION('',(-1.00876835738818E-16,-0.965925826289068,0.258819045102521));
#1172=DIRECTION('center_axis',(-9.66897122674209E-17,-0.258819045102521,
-0.965925826289068));
#1173=DIRECTION('ref_axis',(1.,-1.22464679914735E-16,-6.72862439166763E-17));
#1174=DIRECTION('',(-1.00876835738818E-16,-0.965925826289068,0.258819045102521));
#1175=DIRECTION('',(-1.00876835738818E-16,-0.965925826289068,0.258819045102521));
#1176=DIRECTION('center_axis',(-1.00876835738818E-16,-0.965925826289068,
0.258819045102521));
#1177=DIRECTION('ref_axis',(-1.,-1.24827771951766E-16,-8.5562175077739E-16));
#1178=DIRECTION('center_axis',(-1.00876835738818E-16,-0.965925826289068,
0.258819045102521));
#1179=DIRECTION('ref_axis',(1.805760307751E-15,0.258819045102521,0.965925826289068));
#1180=DIRECTION('center_axis',(-1.00876835738818E-16,-0.965925826289068,
0.258819045102521));
#1181=DIRECTION('ref_axis',(-1.,-7.73927342362602E-17,-6.78591779964175E-16));
#1182=DIRECTION('',(-1.00876835738818E-16,-0.965925826289068,0.258819045102521));
#1183=DIRECTION('center_axis',(9.66897122674209E-17,0.258819045102521,0.965925826289068));
#1184=DIRECTION('ref_axis',(-1.,1.22464679914735E-16,6.72862439166763E-17));
#1185=CARTESIAN_POINT('',(0.,0.,0.));
#1186=CARTESIAN_POINT('Origin',(-17.4619996714294,-39.9617782576323,42.3309518251781));
#1187=CARTESIAN_POINT('',(-17.4619996714294,-37.1785444042112,53.4908626365229));
#1188=CARTESIAN_POINT('',(-17.6619996714294,-36.9853592389534,53.4390988275024));
#1189=CARTESIAN_POINT('Origin',(-17.4619996714294,-36.9853592389534,53.4390988275024));
#1190=CARTESIAN_POINT('',(-17.6619996714294,-48.8910353136693,9.00651081820522));
#1191=CARTESIAN_POINT('',(-17.6619996714294,-39.9617782576323,42.3309518251781));
#1192=CARTESIAN_POINT('',(-17.4619996714294,-49.0842204789271,9.05827462722573));
#1193=CARTESIAN_POINT('Origin',(-17.4619996714294,-48.8910353136693,9.00651081820522));
#1194=CARTESIAN_POINT('',(-17.4619996714294,-40.1549634228902,42.3827156341986));
#1195=CARTESIAN_POINT('Origin',(-22.6619996714294,-48.8910353136693,9.0065108182052));
#1196=CARTESIAN_POINT('',(-22.6619996714294,-50.1851305391819,4.17688168675986));
#1197=CARTESIAN_POINT('',(-22.6619996714294,-50.4300795134602,4.03546033052256));
#1198=CARTESIAN_POINT('Origin',(-22.6619996714294,-50.2368943482024,3.98369652150205));
#1199=CARTESIAN_POINT('Origin',(-22.6619996714294,-49.0842204789271,9.0582746272257));
#1200=CARTESIAN_POINT('Origin',(-22.6619996714294,-48.8910353136693,9.0065108182052));
#1201=CARTESIAN_POINT('Origin',(-39.1619996714294,-50.2368943482024,3.98369652150205));
#1202=CARTESIAN_POINT('',(-88.6619996714294,-50.1851305391819,4.17688168675987));
#1203=CARTESIAN_POINT('',(-88.6619996714294,-50.4300795134602,4.03546033052256));
#1204=CARTESIAN_POINT('Origin',(-88.6619996714294,-50.2368943482024,3.98369652150205));
#1205=CARTESIAN_POINT('',(-39.1619996714294,-50.4300795134602,4.03546033052256));
#1206=CARTESIAN_POINT('',(-39.1619996714294,-50.1851305391819,4.17688168675987));
#1207=CARTESIAN_POINT('Origin',(-88.6619996714294,-48.8910353136693,9.0065108182052));
#1208=CARTESIAN_POINT('',(-93.6619996714294,-48.8910353136693,9.00651081820521));
#1209=CARTESIAN_POINT('',(-93.8619996714294,-49.0842204789271,9.05827462722571));
#1210=CARTESIAN_POINT('Origin',(-93.8619996714294,-48.8910353136693,9.00651081820521));
#1211=CARTESIAN_POINT('Origin',(-88.6619996714294,-49.0842204789271,9.0582746272257));
#1212=CARTESIAN_POINT('Origin',(-88.6619996714294,-48.8910353136693,9.0065108182052));
#1213=CARTESIAN_POINT('Origin',(-93.8619996714294,-45.9146162949903,20.1146578205295));
#1214=CARTESIAN_POINT('',(-93.6619996714294,-36.9853592389533,53.4390988275024));
#1215=CARTESIAN_POINT('',(-93.8619996714294,-37.1785444042112,53.4908626365229));
#1216=CARTESIAN_POINT('Origin',(-93.8619996714294,-36.9853592389533,53.4390988275024));
#1217=CARTESIAN_POINT('',(-93.8619996714294,-46.1078014602481,20.16642162955));
#1218=CARTESIAN_POINT('',(-93.6619996714294,-45.9146162949903,20.1146578205295));
#1219=CARTESIAN_POINT('Origin',(-88.6619996714294,-36.9853592389533,53.4390988275024));
#1220=CARTESIAN_POINT('',(-88.6619996714294,-35.6912640134407,58.2687279589477));
#1221=CARTESIAN_POINT('',(-88.6619996714294,-35.832685369678,58.513676933226));
#1222=CARTESIAN_POINT('Origin',(-88.6619996714294,-35.6395002044202,58.4619131242055));
#1223=CARTESIAN_POINT('Origin',(-88.6619996714294,-37.1785444042112,53.4908626365229));
#1224=CARTESIAN_POINT('Origin',(-88.6619996714294,-36.9853592389533,53.4390988275024));
#1225=CARTESIAN_POINT('Origin',(-72.1619996714294,-35.6395002044202,58.4619131242055));
#1226=CARTESIAN_POINT('',(-22.6619996714294,-35.6912640134407,58.2687279589477));
#1227=CARTESIAN_POINT('',(-22.6619996714294,-35.8326853696781,58.513676933226));
#1228=CARTESIAN_POINT('Origin',(-22.6619996714294,-35.6395002044202,58.4619131242055));
#1229=CARTESIAN_POINT('',(-72.1619996714294,-35.832685369678,58.513676933226));
#1230=CARTESIAN_POINT('',(-72.1619996714294,-35.6912640134407,58.2687279589477));
#1231=CARTESIAN_POINT('Origin',(-22.6619996714294,-36.9853592389534,53.4390988275024));
#1232=CARTESIAN_POINT('Origin',(-22.6619996714294,-37.1785444042112,53.4908626365229));
#1233=CARTESIAN_POINT('Origin',(-22.6619996714294,-36.9853592389534,53.4390988275024));
#1234=CARTESIAN_POINT('Origin',(-88.6619996714294,-47.152368826349,8.54063653702066));
#1235=CARTESIAN_POINT('',(-88.6619996714294,-48.6396492171194,3.76277121459584));
#1236=CARTESIAN_POINT('',(-88.6619996714294,-48.4464640518616,3.71100740557534));
#1237=CARTESIAN_POINT('',(-93.6619996714294,-47.3455539916068,8.59240034604117));
#1238=CARTESIAN_POINT('Origin',(-88.6619996714294,-47.3455539916068,8.59240034604117));
#1239=CARTESIAN_POINT('',(-93.6619996714294,-47.152368826349,8.54063653702067));
#1240=CARTESIAN_POINT('Origin',(-22.6619996714294,-48.4464640518616,3.71100740557533));
#1241=CARTESIAN_POINT('',(-22.6619996714294,-48.6396492171194,3.76277121459583));
#1242=CARTESIAN_POINT('',(-22.6619996714294,-48.4464640518616,3.71100740557533));
#1243=CARTESIAN_POINT('',(-39.1619996714294,-48.6396492171194,3.76277121459583));
#1244=CARTESIAN_POINT('Origin',(-22.6619996714294,-47.152368826349,8.54063653702066));
#1245=CARTESIAN_POINT('',(-17.6619996714294,-47.3455539916068,8.5924003460412));
#1246=CARTESIAN_POINT('',(-17.6619996714294,-47.152368826349,8.54063653702069));
#1247=CARTESIAN_POINT('Origin',(-22.6619996714294,-47.3455539916068,8.59240034604117));
#1248=CARTESIAN_POINT('Origin',(-17.6619996714294,-35.246692751633,52.9732245463178));
#1249=CARTESIAN_POINT('',(-17.6619996714294,-35.4398779168908,53.0249883553383));
#1250=CARTESIAN_POINT('',(-17.6619996714294,-35.246692751633,52.9732245463178));
#1251=CARTESIAN_POINT('',(-17.6619996714294,-38.4162969355698,41.916841353014));
#1252=CARTESIAN_POINT('Origin',(-55.6619996714294,-43.1313824415691,31.2745686318743));
#1253=CARTESIAN_POINT('',(-94.7619996714294,-49.0842204789271,9.05827462722571));
#1254=CARTESIAN_POINT('',(-94.7619996714294,-37.1785444042112,53.4908626365229));
#1255=CARTESIAN_POINT('',(-94.7619996714294,-40.1549634228902,42.3827156341986));
#1256=CARTESIAN_POINT('',(-88.6619996714294,-50.6630166540525,3.1661270868624));
#1257=CARTESIAN_POINT('Origin',(-88.6619996714294,-49.0842204789271,9.0582746272257));
#1258=CARTESIAN_POINT('',(-22.6619996714294,-50.6630166540525,3.16612708686239));
#1259=CARTESIAN_POINT('',(-72.1619996714294,-50.6630166540525,3.1661270868624));
#1260=CARTESIAN_POINT('',(-16.5619996714294,-49.0842204789271,9.05827462722572));
#1261=CARTESIAN_POINT('Origin',(-22.6619996714294,-49.0842204789271,9.0582746272257));
#1262=CARTESIAN_POINT('',(-16.5619996714294,-37.1785444042112,53.4908626365229));
#1263=CARTESIAN_POINT('',(-16.5619996714294,-46.1078014602481,20.16642162955));
#1264=CARTESIAN_POINT('',(-22.6619996714294,-35.5997482290858,59.3830101768862));
#1265=CARTESIAN_POINT('Origin',(-22.6619996714294,-37.1785444042112,53.4908626365229));
#1266=CARTESIAN_POINT('',(-88.6619996714294,-35.5997482290858,59.3830101768862));
#1267=CARTESIAN_POINT('',(-39.1619996714294,-35.5997482290858,59.3830101768862));
#1268=CARTESIAN_POINT('Origin',(-88.6619996714294,-37.1785444042112,53.4908626365229));
#1269=CARTESIAN_POINT('Origin',(-94.7619996714294,-39.9617782576323,42.3309518251781));
#1270=CARTESIAN_POINT('',(-94.9619996714294,-36.9853592389533,53.4390988275024));
#1271=CARTESIAN_POINT('Origin',(-94.7619996714294,-36.9853592389533,53.4390988275024));
#1272=CARTESIAN_POINT('',(-94.9619996714294,-48.8910353136693,9.00651081820521));
#1273=CARTESIAN_POINT('',(-94.9619996714294,-39.9617782576323,42.3309518251781));
#1274=CARTESIAN_POINT('Origin',(-94.7619996714294,-48.8910353136693,9.00651081820521));
#1275=CARTESIAN_POINT('Origin',(-88.6619996714294,-48.8910353136693,9.0065108182052));
#1276=CARTESIAN_POINT('',(-88.6619996714294,-50.5215952978152,2.92117811258409));
#1277=CARTESIAN_POINT('Origin',(-88.6619996714294,-50.4698314887947,3.1143632778419));
#1278=CARTESIAN_POINT('Origin',(-88.6619996714294,-48.8910353136693,9.0065108182052));
#1279=CARTESIAN_POINT('Origin',(-72.1619996714294,-50.4698314887947,3.11436327784189));
#1280=CARTESIAN_POINT('',(-22.6619996714294,-50.5215952978152,2.92117811258408));
#1281=CARTESIAN_POINT('Origin',(-22.6619996714294,-50.4698314887947,3.11436327784189));
#1282=CARTESIAN_POINT('',(-72.1619996714294,-50.5215952978152,2.92117811258408));
#1283=CARTESIAN_POINT('Origin',(-22.6619996714294,-48.8910353136693,9.0065108182052));
#1284=CARTESIAN_POINT('',(-16.3619996714294,-48.8910353136693,9.00651081820522));
#1285=CARTESIAN_POINT('Origin',(-16.5619996714294,-48.8910353136693,9.00651081820522));
#1286=CARTESIAN_POINT('Origin',(-22.6619996714294,-48.8910353136693,9.0065108182052));
#1287=CARTESIAN_POINT('Origin',(-16.5619996714294,-45.9146162949903,20.1146578205295));
#1288=CARTESIAN_POINT('',(-16.3619996714294,-36.9853592389534,53.4390988275024));
#1289=CARTESIAN_POINT('Origin',(-16.5619996714294,-36.9853592389534,53.4390988275024));
#1290=CARTESIAN_POINT('',(-16.3619996714294,-45.9146162949903,20.1146578205295));
#1291=CARTESIAN_POINT('Origin',(-22.6619996714294,-36.9853592389534,53.4390988275024));
#1292=CARTESIAN_POINT('',(-22.6619996714294,-35.3547992548075,59.5244315331235));
#1293=CARTESIAN_POINT('Origin',(-22.6619996714294,-35.406563063828,59.3312463678657));
#1294=CARTESIAN_POINT('Origin',(-22.6619996714294,-36.9853592389534,53.4390988275024));
#1295=CARTESIAN_POINT('Origin',(-39.1619996714294,-35.406563063828,59.3312463678657));
#1296=CARTESIAN_POINT('',(-88.6619996714294,-35.3547992548075,59.5244315331235));
#1297=CARTESIAN_POINT('Origin',(-88.6619996714294,-35.406563063828,59.3312463678657));
#1298=CARTESIAN_POINT('',(-39.1619996714294,-35.3547992548075,59.5244315331235));
#1299=CARTESIAN_POINT('Origin',(-88.6619996714294,-36.9853592389533,53.4390988275024));
#1300=CARTESIAN_POINT('Origin',(-88.6619996714294,-36.9853592389533,53.4390988275024));
#1301=CARTESIAN_POINT('Origin',(-22.6619996714294,-47.152368826349,8.54063653702066));
#1302=CARTESIAN_POINT('',(-22.6619996714294,-49.748854636784,2.71412287650206));
#1303=CARTESIAN_POINT('',(-22.6619996714294,-48.7829288104949,2.45530383139954));
#1304=CARTESIAN_POINT('',(-16.3619996714294,-48.1182946526381,8.79945558212321));
#1305=CARTESIAN_POINT('Origin',(-22.6619996714294,-48.1182946526381,8.79945558212318));
#1306=CARTESIAN_POINT('',(-16.3619996714294,-47.152368826349,8.54063653702069));
#1307=CARTESIAN_POINT('Origin',(-88.6619996714294,-48.7829288104949,2.45530383139955));
#1308=CARTESIAN_POINT('',(-88.6619996714294,-49.7488546367839,2.71412287650207));
#1309=CARTESIAN_POINT('',(-88.6619996714294,-48.7829288104949,2.45530383139955));
#1310=CARTESIAN_POINT('',(-72.1619996714294,-49.7488546367839,2.71412287650207));
#1311=CARTESIAN_POINT('Origin',(-88.6619996714294,-47.152368826349,8.54063653702066));
#1312=CARTESIAN_POINT('',(-94.9619996714294,-48.1182946526381,8.79945558212319));
#1313=CARTESIAN_POINT('',(-94.9619996714294,-47.152368826349,8.54063653702067));
#1314=CARTESIAN_POINT('Origin',(-88.6619996714294,-48.1182946526381,8.79945558212318));
#1315=CARTESIAN_POINT('Origin',(-94.9619996714294,-35.246692751633,52.9732245463178));
#1316=CARTESIAN_POINT('',(-94.9619996714294,-36.2126185779221,53.2320435914203));
#1317=CARTESIAN_POINT('',(-94.9619996714294,-35.246692751633,52.9732245463178));
#1318=CARTESIAN_POINT('',(-94.9619996714294,-39.1890375966011,42.123896589096));
#1319=CARTESIAN_POINT('Origin',(-93.8619996714294,-44.3691349729278,19.7005473483655));
#1320=CARTESIAN_POINT('',(-93.8619996714294,-35.246692751633,52.9732245463178));
#1321=CARTESIAN_POINT('',(-93.6619996714294,-35.4398779168908,53.0249883553383));
#1322=CARTESIAN_POINT('Origin',(-93.8619996714294,-35.4398779168908,53.0249883553383));
#1323=CARTESIAN_POINT('',(-93.6619996714294,-44.3691349729278,19.7005473483655));
#1324=CARTESIAN_POINT('',(-93.8619996714294,-47.152368826349,8.54063653702067));
#1325=CARTESIAN_POINT('Origin',(-93.8619996714294,-47.3455539916068,8.59240034604117));
#1326=CARTESIAN_POINT('',(-93.8619996714294,-44.17594980767,19.648783539345));
#1327=CARTESIAN_POINT('Origin',(-88.6619996714294,-47.3455539916068,8.59240034604117));
#1328=CARTESIAN_POINT('',(-88.6619996714294,-48.4982278608821,3.51782224031752));
#1329=CARTESIAN_POINT('Origin',(-88.6619996714294,-48.6914130261399,3.56958604933802));
#1330=CARTESIAN_POINT('Origin',(-88.6619996714294,-47.152368826349,8.54063653702066));
#1331=CARTESIAN_POINT('Origin',(-39.1619996714294,-48.6914130261399,3.56958604933802));
#1332=CARTESIAN_POINT('',(-22.6619996714294,-48.4982278608821,3.51782224031752));
#1333=CARTESIAN_POINT('Origin',(-22.6619996714294,-48.6914130261399,3.56958604933802));
#1334=CARTESIAN_POINT('',(-39.1619996714294,-48.4982278608821,3.51782224031752));
#1335=CARTESIAN_POINT('Origin',(-22.6619996714294,-47.3455539916068,8.59240034604117));
#1336=CARTESIAN_POINT('',(-17.4619996714294,-47.152368826349,8.54063653702069));
#1337=CARTESIAN_POINT('Origin',(-17.4619996714294,-47.3455539916068,8.5924003460412));
#1338=CARTESIAN_POINT('Origin',(-22.6619996714294,-47.152368826349,8.54063653702066));
#1339=CARTESIAN_POINT('Origin',(-17.4619996714294,-38.4162969355698,41.916841353014));
#1340=CARTESIAN_POINT('',(-17.4619996714294,-35.246692751633,52.9732245463178));
#1341=CARTESIAN_POINT('Origin',(-17.4619996714294,-35.4398779168908,53.0249883553383));
#1342=CARTESIAN_POINT('',(-17.4619996714294,-38.223111770312,41.8650775439935));
#1343=CARTESIAN_POINT('Origin',(-22.6619996714294,-35.4398779168908,53.0249883553383));
#1344=CARTESIAN_POINT('',(-22.6619996714294,-34.1457826913782,57.8546174867837));
#1345=CARTESIAN_POINT('',(-22.6619996714294,-33.9008337170999,57.996038843021));
#1346=CARTESIAN_POINT('Origin',(-22.6619996714294,-34.0940188823577,58.0478026520415));
#1347=CARTESIAN_POINT('Origin',(-22.6619996714294,-35.246692751633,52.9732245463178));
#1348=CARTESIAN_POINT('Origin',(-22.6619996714294,-35.4398779168908,53.0249883553383));
#1349=CARTESIAN_POINT('Origin',(-72.1619996714294,-34.0940188823577,58.0478026520415));
#1350=CARTESIAN_POINT('',(-88.6619996714294,-34.1457826913782,57.8546174867837));
#1351=CARTESIAN_POINT('',(-88.6619996714294,-33.9008337170999,57.996038843021));
#1352=CARTESIAN_POINT('Origin',(-88.6619996714294,-34.0940188823577,58.0478026520415));
#1353=CARTESIAN_POINT('',(-72.1619996714294,-33.9008337170999,57.996038843021));
#1354=CARTESIAN_POINT('',(-72.1619996714294,-34.1457826913782,57.8546174867837));
#1355=CARTESIAN_POINT('Origin',(-88.6619996714294,-35.4398779168908,53.0249883553383));
#1356=CARTESIAN_POINT('Origin',(-88.6619996714294,-35.246692751633,52.9732245463178));
#1357=CARTESIAN_POINT('Origin',(-88.6619996714294,-35.4398779168908,53.0249883553383));
#1358=CARTESIAN_POINT('Origin',(-93.6619996714294,-47.152368826349,8.54063653702067));
#1359=CARTESIAN_POINT('',(-93.6619996714294,-35.246692751633,52.9732245463178));
#1360=CARTESIAN_POINT('Origin',(-55.6619996714294,-41.199530788991,30.7569305416692));
#1361=CARTESIAN_POINT('',(-17.3619996714294,-35.246692751633,52.9732245463178));
#1362=CARTESIAN_POINT('',(-22.6619996714294,-33.8749518125897,58.0926314256499));
#1363=CARTESIAN_POINT('Origin',(-22.6619996714294,-35.246692751633,52.9732245463178));
#1364=CARTESIAN_POINT('',(-17.3619996714294,-47.152368826349,8.54063653702069));
#1365=CARTESIAN_POINT('',(-17.3619996714294,-44.17594980767,19.648783539345));
#1366=CARTESIAN_POINT('',(-22.6619996714294,-48.5241097653924,3.42122965768861));
#1367=CARTESIAN_POINT('Origin',(-22.6619996714294,-47.152368826349,8.54063653702066));
#1368=CARTESIAN_POINT('',(-88.6619996714294,-48.5241097653924,3.42122965768862));
#1369=CARTESIAN_POINT('',(-72.1619996714294,-48.5241097653924,3.42122965768862));
#1370=CARTESIAN_POINT('',(-93.9619996714294,-47.152368826349,8.54063653702067));
#1371=CARTESIAN_POINT('Origin',(-88.6619996714294,-47.152368826349,8.54063653702066));
#1372=CARTESIAN_POINT('',(-93.9619996714294,-35.246692751633,52.9732245463178));
#1373=CARTESIAN_POINT('',(-93.9619996714294,-38.223111770312,41.8650775439935));
#1374=CARTESIAN_POINT('',(-88.6619996714294,-33.8749518125897,58.0926314256499));
#1375=CARTESIAN_POINT('Origin',(-88.6619996714294,-35.246692751633,52.9732245463178));
#1376=CARTESIAN_POINT('',(-39.1619996714294,-33.8749518125897,58.0926314256499));
#1377=CARTESIAN_POINT('Origin',(-22.6619996714294,-36.2126185779221,53.2320435914203));
#1378=CARTESIAN_POINT('',(-22.6619996714294,-34.5820585937762,59.3173762970415));
#1379=CARTESIAN_POINT('Origin',(-22.6619996714294,-34.8408776388787,58.3514504707524));
#1380=CARTESIAN_POINT('',(-16.3619996714294,-36.2126185779221,53.2320435914203));
#1381=CARTESIAN_POINT('Origin',(-22.6619996714294,-36.2126185779221,53.2320435914203));
#1382=CARTESIAN_POINT('Origin',(-17.3619996714294,-36.2126185779221,53.2320435914203));
#1383=CARTESIAN_POINT('Origin',(-17.3619996714294,-45.1418756339591,19.9076025844475));
#1384=CARTESIAN_POINT('Origin',(-17.3619996714294,-48.1182946526381,8.79945558212321));
#1385=CARTESIAN_POINT('',(-16.3619996714294,-45.1418756339591,19.9076025844475));
#1386=CARTESIAN_POINT('Origin',(-22.6619996714294,-48.1182946526381,8.79945558212318));
#1387=CARTESIAN_POINT('Origin',(-22.6619996714294,-49.4900355916814,3.68004870279113));
#1388=CARTESIAN_POINT('Origin',(-72.1619996714294,-49.4900355916814,3.68004870279114));
#1389=CARTESIAN_POINT('Origin',(-88.6619996714294,-49.4900355916814,3.68004870279114));
#1390=CARTESIAN_POINT('Origin',(-88.6619996714294,-48.1182946526381,8.79945558212318));
#1391=CARTESIAN_POINT('Origin',(-93.9619996714294,-48.1182946526381,8.79945558212319));
#1392=CARTESIAN_POINT('Origin',(-93.9619996714294,-39.1890375966011,42.123896589096));
#1393=CARTESIAN_POINT('Origin',(-93.9619996714294,-36.2126185779221,53.2320435914203));
#1394=CARTESIAN_POINT('Origin',(-88.6619996714294,-36.2126185779221,53.2320435914204));
#1395=CARTESIAN_POINT('',(-88.6619996714294,-34.5820585937762,59.3173762970415));
#1396=CARTESIAN_POINT('Origin',(-88.6619996714294,-34.8408776388787,58.3514504707524));
#1397=CARTESIAN_POINT('Origin',(-88.6619996714294,-36.2126185779221,53.2320435914204));
#1398=CARTESIAN_POINT('Origin',(-39.1619996714294,-34.8408776388787,58.3514504707524));
#1399=CARTESIAN_POINT('',(-39.1619996714294,-34.5820585937762,59.3173762970415));
#1400=CARTESIAN_POINT('Origin',(-16.3619996714294,-47.152368826349,8.54063653702069));
#1401=CARTESIAN_POINT('',(-16.3619996714294,-35.246692751633,52.9732245463178));
#1402=CARTESIAN_POINT('Origin',(-22.6619996714294,-35.246692751633,52.9732245463178));
#1403=CARTESIAN_POINT('',(-22.6619996714294,-33.6161327674871,59.0585572519389));
#1404=CARTESIAN_POINT('Origin',(-88.6619996714294,-33.9525975261204,57.8028536777632));
#1405=CARTESIAN_POINT('',(-88.6619996714294,-33.9525975261204,57.8028536777632));
#1406=CARTESIAN_POINT('',(-22.6619996714294,-33.9525975261204,57.8028536777632));
#1407=CARTESIAN_POINT('Origin',(-88.6619996714294,-35.246692751633,52.9732245463178));
#1408=CARTESIAN_POINT('Origin',(-22.6619996714294,-35.246692751633,52.9732245463178));
#1409=CARTESIAN_POINT('Origin',(-88.6619996714294,-35.246692751633,52.9732245463178));
#1410=CARTESIAN_POINT('',(-88.6619996714294,-33.6161327674871,59.0585572519389));
#1411=CARTESIAN_POINT('Origin',(-22.6619996714294,-33.6161327674871,59.0585572519389));
#1412=UNCERTAINTY_MEASURE_WITH_UNIT(LENGTH_MEASURE(0.001),#1416,
'DISTANCE_ACCURACY_VALUE',
'Maximum model space distance between geometric entities at asserted c
onnectivities');
#1413=UNCERTAINTY_MEASURE_WITH_UNIT(LENGTH_MEASURE(0.001),#1416,
'DISTANCE_ACCURACY_VALUE',
'Maximum model space distance between geometric entities at asserted c
onnectivities');
#1414=(
GEOMETRIC_REPRESENTATION_CONTEXT(3)
GLOBAL_UNCERTAINTY_ASSIGNED_CONTEXT((#1412))
GLOBAL_UNIT_ASSIGNED_CONTEXT((#1416,#1418,#1419))
REPRESENTATION_CONTEXT('','3D')
);
#1415=(
GEOMETRIC_REPRESENTATION_CONTEXT(3)
GLOBAL_UNCERTAINTY_ASSIGNED_CONTEXT((#1413))
GLOBAL_UNIT_ASSIGNED_CONTEXT((#1416,#1418,#1419))
REPRESENTATION_CONTEXT('','3D')
);
#1416=(
LENGTH_UNIT()
NAMED_UNIT(*)
SI_UNIT(.CENTI.,.METRE.)
);
#1417=(
LENGTH_UNIT()
NAMED_UNIT(*)
SI_UNIT($,.METRE.)
);
#1418=(
NAMED_UNIT(*)
PLANE_ANGLE_UNIT()
SI_UNIT($,.RADIAN.)
);
#1419=(
NAMED_UNIT(*)
SI_UNIT($,.STERADIAN.)
SOLID_ANGLE_UNIT()
);
#1420=SHAPE_DEFINITION_REPRESENTATION(#1421,#1422);
#1421=PRODUCT_DEFINITION_SHAPE('',$,#1424);
#1422=SHAPE_REPRESENTATION('',(#792),#1414);
#1423=PRODUCT_DEFINITION_CONTEXT('part definition',#1428,'design');
#1424=PRODUCT_DEFINITION('temp_body','Untitled',#1425,#1423);
#1425=PRODUCT_DEFINITION_FORMATION('',$,#1430);
#1426=PRODUCT_RELATED_PRODUCT_CATEGORY('Untitled','Untitled',(#1430));
#1427=APPLICATION_PROTOCOL_DEFINITION('international standard',
'automotive_design',2009,#1428);
#1428=APPLICATION_CONTEXT(
'Core Data for Automotive Mechanical Design Process');
#1429=PRODUCT_CONTEXT('part definition',#1428,'mechanical');
#1430=PRODUCT('temp_body','Untitled',$,(#1429));
#1431=PRESENTATION_STYLE_ASSIGNMENT((#1433));
#1432=PRESENTATION_STYLE_ASSIGNMENT((#1434));
#1433=SURFACE_STYLE_USAGE(.BOTH.,#1435);
#1434=SURFACE_STYLE_USAGE(.BOTH.,#1436);
#1435=SURFACE_SIDE_STYLE('',(#1437));
#1436=SURFACE_SIDE_STYLE('',(#1438));
#1437=SURFACE_STYLE_FILL_AREA(#1439);
#1438=SURFACE_STYLE_FILL_AREA(#1440);
#1439=FILL_AREA_STYLE('Steel - Satin',(#1441));
#1440=FILL_AREA_STYLE('Opaque(160,160,160)',(#1442));
#1441=FILL_AREA_STYLE_COLOUR('Steel - Satin',#1443);
#1442=FILL_AREA_STYLE_COLOUR('Opaque(160,160,160)',#1444);
#1443=COLOUR_RGB('Steel - Satin',0.627450980392157,0.627450980392157,0.627450980392157);
#1444=COLOUR_RGB('Opaque(160,160,160)',0.627450980392157,0.627450980392157,
0.627450980392157);
ENDSEC;
END-ISO-10303-21;
