ISO-10303-21;
HEADER;
/* Generated by software containing ST-Developer
 * from STEP Tools, Inc. (www.steptools.com) 
 */

FILE_DESCRIPTION(
/* description */ (''),
/* implementation_level */ '2;1');

FILE_NAME(
/* name */ '23216_fusion-360-151130-1568-9adb3c2f-bullet_v1.step',
/* time_stamp */ '2026-02-10T10:44:59Z',
/* author */ (''),
/* organization */ (''),
/* preprocessor_version */ 'ST-DEVELOPER v20.1',
/* originating_system */ 'Autodesk Translation Framework v14.24.0.0',
/* authorisation */ '');

FILE_SCHEMA (('AUTOMOTIVE_DESIGN { 1 0 10303 214 3 1 1 }'));
ENDSEC;

DATA;
#10=MECHANICAL_DESIGN_GEOMETRIC_PRESENTATION_REPRESENTATION('',(#13),#472);
#11=SHAPE_REPRESENTATION_RELATIONSHIP('SRR','None',#479,#12);
#12=ADVANCED_BREP_SHAPE_REPRESENTATION('',(#14),#471);
#13=STYLED_ITEM('',(#488),#14);
#14=MANIFOLD_SOLID_BREP('Body1',#210);
#15=FACE_BOUND('',#53,.T.);
#16=(
BOUNDED_SURFACE()
B_SPLINE_SURFACE(2,2,((#414,#415,#416,#417,#418,#419,#420,#421,#422),(#423,
#424,#425,#426,#427,#428,#429,#430,#431),(#432,#433,#434,#435,#436,#437,
#438,#439,#440),(#441,#442,#443,#444,#445,#446,#447,#448,#449),(#450,#451,
#452,#453,#454,#455,#456,#457,#458)),.UNSPECIFIED.,.F.,.T.,.F.)
B_SPLINE_SURFACE_WITH_KNOTS((3,2,3),(3,2,2,2,3),(-1.39411895014414E-16,
0.785398166377681,1.57079633275536),(-3.14159265358979,-1.5707963267949,
0.,1.5707963267949,3.14159265358979),.UNSPECIFIED.)
GEOMETRIC_REPRESENTATION_ITEM()
RATIONAL_B_SPLINE_SURFACE(((1.,0.707106781186548,1.,0.707106781186548,1.,
0.707106781186548,1.,0.707106781186548,1.),(0.923879531941047,0.653281482034968,
0.923879531941047,0.653281482034968,0.923879531941047,0.653281482034968,
0.923879531941047,0.653281482034968,0.923879531941047),(1.,0.707106781186548,
1.,0.707106781186548,1.,0.707106781186548,1.,0.707106781186548,1.),(0.923879531941047,
0.653281482034968,0.923879531941047,0.653281482034968,0.923879531941047,
0.653281482034968,0.923879531941047,0.653281482034968,0.923879531941047),
(1.,0.707106781186548,1.,0.707106781186548,1.,0.707106781186548,1.,0.707106781186548,
1.)))
REPRESENTATION_ITEM('')
SURFACE()
);
#17=B_SPLINE_CURVE_WITH_KNOTS('',3,(#317,#318,#319,#320,#321,#322,#323,
#324,#325,#326,#327,#328,#329,#330,#331,#332),.UNSPECIFIED.,.F.,.F.,(4,
2,2,2,2,2,2,4),(1.79080190819801,1.96481897492768,2.13885597542089,2.22528527356525,
2.31171457170961,2.40635485611562,2.50099514052164,2.59121360404515),
 .UNSPECIFIED.);
#18=B_SPLINE_CURVE_WITH_KNOTS('',3,(#334,#335,#336,#337,#338,#339,#340,
#341,#342,#343,#344,#345,#346,#347,#348,#349,#350,#351),.UNSPECIFIED.,.F.,
 .F.,(4,2,2,2,2,2,2,2,4),(0.990350344823792,1.08056880834731,1.17520909275332,
1.26984937715934,1.3562786753037,1.44270797344806,1.61674497394127,1.79078197443447,
1.79080190819801),.UNSPECIFIED.);
#19=B_SPLINE_CURVE_WITH_KNOTS('',3,(#378,#379,#380,#381,#382,#383,#384,
#385,#386,#387,#388,#389,#390,#391,#392,#393),.UNSPECIFIED.,.F.,.F.,(4,
2,2,2,2,2,2,4),(1.79130259176338,1.97346641489226,2.15563023802115,2.24817671859336,
2.34072319916556,2.4280692943901,2.51541538961464,2.59226036492223),
 .UNSPECIFIED.);
#20=B_SPLINE_CURVE_WITH_KNOTS('',3,(#394,#395,#396,#397,#398,#399,#400,
#401,#402,#403,#404,#405,#406,#407,#408,#409),.UNSPECIFIED.,.F.,.F.,(4,
2,2,2,2,2,2,4),(0.990344818604518,1.06718979391211,1.15453588913665,1.24188198436119,
1.3344284649334,1.4269749455056,1.60913876863449,1.79130259176338),
 .UNSPECIFIED.);
#21=PLANE('',#227);
#22=PLANE('',#228);
#23=PLANE('',#233);
#24=PLANE('',#234);
#25=PLANE('',#235);
#26=PLANE('',#236);
#27=PLANE('',#237);
#28=PLANE('',#244);
#29=FACE_OUTER_BOUND('',#41,.T.);
#30=FACE_OUTER_BOUND('',#42,.T.);
#31=FACE_OUTER_BOUND('',#43,.T.);
#32=FACE_OUTER_BOUND('',#44,.T.);
#33=FACE_OUTER_BOUND('',#45,.T.);
#34=FACE_OUTER_BOUND('',#46,.T.);
#35=FACE_OUTER_BOUND('',#47,.T.);
#36=FACE_OUTER_BOUND('',#48,.T.);
#37=FACE_OUTER_BOUND('',#49,.T.);
#38=FACE_OUTER_BOUND('',#50,.T.);
#39=FACE_OUTER_BOUND('',#51,.T.);
#40=FACE_OUTER_BOUND('',#52,.T.);
#41=EDGE_LOOP('',(#139,#140,#141,#142));
#42=EDGE_LOOP('',(#143,#144,#145,#146,#147,#148,#149));
#43=EDGE_LOOP('',(#150,#151,#152,#153));
#44=EDGE_LOOP('',(#154,#155,#156,#157));
#45=EDGE_LOOP('',(#158));
#46=EDGE_LOOP('',(#159,#160,#161,#162));
#47=EDGE_LOOP('',(#163,#164,#165,#166,#167,#168,#169));
#48=EDGE_LOOP('',(#170,#171,#172,#173));
#49=EDGE_LOOP('',(#174,#175,#176,#177));
#50=EDGE_LOOP('',(#178,#179,#180,#181,#182,#183,#184,#185,#186,#187));
#51=EDGE_LOOP('',(#188,#189,#190,#191,#192));
#52=EDGE_LOOP('',(#193));
#53=EDGE_LOOP('',(#194));
#54=LINE('',#309,#68);
#55=LINE('',#312,#69);
#56=LINE('',#315,#70);
#57=LINE('',#353,#71);
#58=LINE('',#355,#72);
#59=LINE('',#356,#73);
#60=LINE('',#359,#74);
#61=LINE('',#365,#75);
#62=LINE('',#370,#76);
#63=LINE('',#371,#77);
#64=LINE('',#374,#78);
#65=LINE('',#376,#79);
#66=LINE('',#411,#80);
#67=LINE('',#466,#81);
#68=VECTOR('',#251,17.5);
#69=VECTOR('',#254,10.);
#70=VECTOR('',#257,10.);
#71=VECTOR('',#258,10.);
#72=VECTOR('',#259,10.);
#73=VECTOR('',#260,10.);
#74=VECTOR('',#263,10.);
#75=VECTOR('',#270,5.);
#76=VECTOR('',#277,10.);
#77=VECTOR('',#278,10.);
#78=VECTOR('',#281,10.);
#79=VECTOR('',#282,10.);
#80=VECTOR('',#285,10.);
#81=VECTOR('',#298,7.);
#82=CIRCLE('',#225,17.5);
#83=CIRCLE('',#226,17.5);
#84=CIRCLE('',#229,6.89897948556636);
#85=CIRCLE('',#231,5.);
#86=CIRCLE('',#232,5.);
#87=CIRCLE('',#238,6.89897948556636);
#88=CIRCLE('',#239,5.);
#89=CIRCLE('',#240,7.);
#90=CIRCLE('',#241,7.);
#91=CIRCLE('',#243,7.);
#92=VERTEX_POINT('',#305);
#93=VERTEX_POINT('',#306);
#94=VERTEX_POINT('',#308);
#95=VERTEX_POINT('',#310);
#96=VERTEX_POINT('',#314);
#97=VERTEX_POINT('',#316);
#98=VERTEX_POINT('',#333);
#99=VERTEX_POINT('',#352);
#100=VERTEX_POINT('',#354);
#101=VERTEX_POINT('',#358);
#102=VERTEX_POINT('',#362);
#103=VERTEX_POINT('',#364);
#104=VERTEX_POINT('',#369);
#105=VERTEX_POINT('',#373);
#106=VERTEX_POINT('',#375);
#107=VERTEX_POINT('',#377);
#108=VERTEX_POINT('',#459);
#109=VERTEX_POINT('',#461);
#110=VERTEX_POINT('',#465);
#111=EDGE_CURVE('',#92,#93,#82,.T.);
#112=EDGE_CURVE('',#93,#94,#54,.T.);
#113=EDGE_CURVE('',#94,#95,#83,.T.);
#114=EDGE_CURVE('',#92,#95,#55,.T.);
#115=EDGE_CURVE('',#96,#94,#56,.T.);
#116=EDGE_CURVE('',#97,#96,#17,.T.);
#117=EDGE_CURVE('',#98,#97,#18,.T.);
#118=EDGE_CURVE('',#99,#98,#57,.T.);
#119=EDGE_CURVE('',#100,#99,#58,.T.);
#120=EDGE_CURVE('',#95,#100,#59,.T.);
#121=EDGE_CURVE('',#93,#101,#60,.T.);
#122=EDGE_CURVE('',#96,#101,#84,.T.);
#123=EDGE_CURVE('',#102,#102,#85,.T.);
#124=EDGE_CURVE('',#102,#103,#61,.T.);
#125=EDGE_CURVE('',#103,#103,#86,.T.);
#126=EDGE_CURVE('',#104,#92,#62,.T.);
#127=EDGE_CURVE('',#100,#104,#63,.T.);
#128=EDGE_CURVE('',#105,#104,#64,.T.);
#129=EDGE_CURVE('',#106,#105,#65,.T.);
#130=EDGE_CURVE('',#107,#106,#19,.T.);
#131=EDGE_CURVE('',#101,#107,#20,.T.);
#132=EDGE_CURVE('',#105,#99,#66,.T.);
#133=EDGE_CURVE('',#106,#98,#87,.T.);
#134=EDGE_CURVE('',#107,#108,#88,.T.);
#135=EDGE_CURVE('',#108,#109,#89,.T.);
#136=EDGE_CURVE('',#109,#108,#90,.T.);
#137=EDGE_CURVE('',#109,#110,#67,.T.);
#138=EDGE_CURVE('',#110,#110,#91,.T.);
#139=ORIENTED_EDGE('',*,*,#111,.T.);
#140=ORIENTED_EDGE('',*,*,#112,.T.);
#141=ORIENTED_EDGE('',*,*,#113,.T.);
#142=ORIENTED_EDGE('',*,*,#114,.F.);
#143=ORIENTED_EDGE('',*,*,#113,.F.);
#144=ORIENTED_EDGE('',*,*,#115,.F.);
#145=ORIENTED_EDGE('',*,*,#116,.F.);
#146=ORIENTED_EDGE('',*,*,#117,.F.);
#147=ORIENTED_EDGE('',*,*,#118,.F.);
#148=ORIENTED_EDGE('',*,*,#119,.F.);
#149=ORIENTED_EDGE('',*,*,#120,.F.);
#150=ORIENTED_EDGE('',*,*,#112,.F.);
#151=ORIENTED_EDGE('',*,*,#121,.T.);
#152=ORIENTED_EDGE('',*,*,#122,.F.);
#153=ORIENTED_EDGE('',*,*,#115,.T.);
#154=ORIENTED_EDGE('',*,*,#123,.F.);
#155=ORIENTED_EDGE('',*,*,#124,.T.);
#156=ORIENTED_EDGE('',*,*,#125,.T.);
#157=ORIENTED_EDGE('',*,*,#124,.F.);
#158=ORIENTED_EDGE('',*,*,#125,.F.);
#159=ORIENTED_EDGE('',*,*,#126,.T.);
#160=ORIENTED_EDGE('',*,*,#114,.T.);
#161=ORIENTED_EDGE('',*,*,#120,.T.);
#162=ORIENTED_EDGE('',*,*,#127,.T.);
#163=ORIENTED_EDGE('',*,*,#111,.F.);
#164=ORIENTED_EDGE('',*,*,#126,.F.);
#165=ORIENTED_EDGE('',*,*,#128,.F.);
#166=ORIENTED_EDGE('',*,*,#129,.F.);
#167=ORIENTED_EDGE('',*,*,#130,.F.);
#168=ORIENTED_EDGE('',*,*,#131,.F.);
#169=ORIENTED_EDGE('',*,*,#121,.F.);
#170=ORIENTED_EDGE('',*,*,#119,.T.);
#171=ORIENTED_EDGE('',*,*,#132,.F.);
#172=ORIENTED_EDGE('',*,*,#128,.T.);
#173=ORIENTED_EDGE('',*,*,#127,.F.);
#174=ORIENTED_EDGE('',*,*,#133,.F.);
#175=ORIENTED_EDGE('',*,*,#129,.T.);
#176=ORIENTED_EDGE('',*,*,#132,.T.);
#177=ORIENTED_EDGE('',*,*,#118,.T.);
#178=ORIENTED_EDGE('',*,*,#116,.T.);
#179=ORIENTED_EDGE('',*,*,#122,.T.);
#180=ORIENTED_EDGE('',*,*,#131,.T.);
#181=ORIENTED_EDGE('',*,*,#134,.T.);
#182=ORIENTED_EDGE('',*,*,#135,.T.);
#183=ORIENTED_EDGE('',*,*,#136,.T.);
#184=ORIENTED_EDGE('',*,*,#134,.F.);
#185=ORIENTED_EDGE('',*,*,#130,.T.);
#186=ORIENTED_EDGE('',*,*,#133,.T.);
#187=ORIENTED_EDGE('',*,*,#117,.T.);
#188=ORIENTED_EDGE('',*,*,#136,.F.);
#189=ORIENTED_EDGE('',*,*,#137,.T.);
#190=ORIENTED_EDGE('',*,*,#138,.F.);
#191=ORIENTED_EDGE('',*,*,#137,.F.);
#192=ORIENTED_EDGE('',*,*,#135,.F.);
#193=ORIENTED_EDGE('',*,*,#138,.T.);
#194=ORIENTED_EDGE('',*,*,#123,.T.);
#195=CYLINDRICAL_SURFACE('',#224,17.5);
#196=CYLINDRICAL_SURFACE('',#230,5.);
#197=CYLINDRICAL_SURFACE('',#242,7.);
#198=ADVANCED_FACE('',(#29),#195,.T.);
#199=ADVANCED_FACE('',(#30),#21,.T.);
#200=ADVANCED_FACE('',(#31),#22,.F.);
#201=ADVANCED_FACE('',(#32),#196,.F.);
#202=ADVANCED_FACE('',(#33),#23,.F.);
#203=ADVANCED_FACE('',(#34),#24,.T.);
#204=ADVANCED_FACE('',(#35),#25,.T.);
#205=ADVANCED_FACE('',(#36),#26,.T.);
#206=ADVANCED_FACE('',(#37),#27,.F.);
#207=ADVANCED_FACE('',(#38),#16,.F.);
#208=ADVANCED_FACE('',(#39),#197,.T.);
#209=ADVANCED_FACE('',(#40,#15),#28,.T.);
#210=CLOSED_SHELL('',(#198,#199,#200,#201,#202,#203,#204,#205,#206,#207,
#208,#209));
#211=DERIVED_UNIT_ELEMENT(#213,1.);
#212=DERIVED_UNIT_ELEMENT(#474,-3.);
#213=(
MASS_UNIT()
NAMED_UNIT(*)
SI_UNIT(.KILO.,.GRAM.)
);
#214=DERIVED_UNIT((#211,#212));
#215=MEASURE_REPRESENTATION_ITEM('density measure',
POSITIVE_RATIO_MEASURE(7850.),#214);
#216=PROPERTY_DEFINITION_REPRESENTATION(#221,#218);
#217=PROPERTY_DEFINITION_REPRESENTATION(#222,#219);
#218=REPRESENTATION('material name',(#220),#471);
#219=REPRESENTATION('density',(#215),#471);
#220=DESCRIPTIVE_REPRESENTATION_ITEM('Steel','Steel');
#221=PROPERTY_DEFINITION('material property','material name',#481);
#222=PROPERTY_DEFINITION('material property','density of part',#481);
#223=AXIS2_PLACEMENT_3D('',#303,#245,#246);
#224=AXIS2_PLACEMENT_3D('',#304,#247,#248);
#225=AXIS2_PLACEMENT_3D('',#307,#249,#250);
#226=AXIS2_PLACEMENT_3D('',#311,#252,#253);
#227=AXIS2_PLACEMENT_3D('',#313,#255,#256);
#228=AXIS2_PLACEMENT_3D('',#357,#261,#262);
#229=AXIS2_PLACEMENT_3D('',#360,#264,#265);
#230=AXIS2_PLACEMENT_3D('',#361,#266,#267);
#231=AXIS2_PLACEMENT_3D('',#363,#268,#269);
#232=AXIS2_PLACEMENT_3D('',#366,#271,#272);
#233=AXIS2_PLACEMENT_3D('',#367,#273,#274);
#234=AXIS2_PLACEMENT_3D('',#368,#275,#276);
#235=AXIS2_PLACEMENT_3D('',#372,#279,#280);
#236=AXIS2_PLACEMENT_3D('',#410,#283,#284);
#237=AXIS2_PLACEMENT_3D('',#412,#286,#287);
#238=AXIS2_PLACEMENT_3D('',#413,#288,#289);
#239=AXIS2_PLACEMENT_3D('',#460,#290,#291);
#240=AXIS2_PLACEMENT_3D('',#462,#292,#293);
#241=AXIS2_PLACEMENT_3D('',#463,#294,#295);
#242=AXIS2_PLACEMENT_3D('',#464,#296,#297);
#243=AXIS2_PLACEMENT_3D('',#467,#299,#300);
#244=AXIS2_PLACEMENT_3D('',#468,#301,#302);
#245=DIRECTION('axis',(0.,0.,1.));
#246=DIRECTION('refdir',(1.,0.,0.));
#247=DIRECTION('center_axis',(0.,9.9579925010296E-17,-1.));
#248=DIRECTION('ref_axis',(-0.949328441476351,0.314285714285714,3.1720657846433E-17));
#249=DIRECTION('center_axis',(0.,8.57021372024816E-17,-1.));
#250=DIRECTION('ref_axis',(-0.949328441476351,0.314285714285714,3.1720657846433E-17));
#251=DIRECTION('',(0.,9.9579925010296E-17,-1.));
#252=DIRECTION('center_axis',(0.,-8.57021372024816E-17,1.));
#253=DIRECTION('ref_axis',(-0.949328441476351,0.314285714285714,3.1720657846433E-17));
#254=DIRECTION('',(0.,9.9579925010296E-17,-1.));
#255=DIRECTION('center_axis',(0.,8.57021372024816E-17,-1.));
#256=DIRECTION('ref_axis',(-1.,0.,0.));
#257=DIRECTION('',(-1.,0.,0.));
#258=DIRECTION('',(-1.,0.,0.));
#259=DIRECTION('',(0.,1.,8.57021372024816E-17));
#260=DIRECTION('',(1.,0.,0.));
#261=DIRECTION('center_axis',(0.,-1.,-9.9579925010296E-17));
#262=DIRECTION('ref_axis',(-1.,0.,0.));
#263=DIRECTION('',(1.,0.,0.));
#264=DIRECTION('center_axis',(0.,1.,9.9579925010296E-17));
#265=DIRECTION('ref_axis',(0.,9.9579925010296E-17,-1.));
#266=DIRECTION('center_axis',(0.,-1.,-9.9579925010296E-17));
#267=DIRECTION('ref_axis',(0.,9.9579925010296E-17,-1.));
#268=DIRECTION('center_axis',(0.,-1.,-9.9579925010296E-17));
#269=DIRECTION('ref_axis',(0.,9.9579925010296E-17,-1.));
#270=DIRECTION('',(0.,-1.,-9.9579925010296E-17));
#271=DIRECTION('center_axis',(0.,-1.,-9.9579925010296E-17));
#272=DIRECTION('ref_axis',(0.,9.9579925010296E-17,-1.));
#273=DIRECTION('center_axis',(0.,-1.,-9.9579925010296E-17));
#274=DIRECTION('ref_axis',(0.,9.9579925010296E-17,-1.));
#275=DIRECTION('center_axis',(0.,-1.,-8.57021372024816E-17));
#276=DIRECTION('ref_axis',(0.,8.57021372024816E-17,-1.));
#277=DIRECTION('',(-1.,0.,0.));
#278=DIRECTION('',(0.,-9.9579925010296E-17,1.));
#279=DIRECTION('center_axis',(0.,-8.57021372024816E-17,1.));
#280=DIRECTION('ref_axis',(1.,0.,0.));
#281=DIRECTION('',(0.,-1.,-8.57021372024816E-17));
#282=DIRECTION('',(1.,0.,0.));
#283=DIRECTION('center_axis',(1.,0.,0.));
#284=DIRECTION('ref_axis',(0.,9.9579925010296E-17,-1.));
#285=DIRECTION('',(0.,9.9579925010296E-17,-1.));
#286=DIRECTION('center_axis',(0.,-1.,-9.9579925010296E-17));
#287=DIRECTION('ref_axis',(-1.,0.,0.));
#288=DIRECTION('center_axis',(0.,1.,9.9579925010296E-17));
#289=DIRECTION('ref_axis',(0.,9.9579925010296E-17,-1.));
#290=DIRECTION('center_axis',(-1.,1.21950236423192E-32,-1.22464679914735E-16));
#291=DIRECTION('ref_axis',(-1.22464679914735E-16,0.,1.));
#292=DIRECTION('center_axis',(0.,-1.,-9.9579925010296E-17));
#293=DIRECTION('ref_axis',(-1.,1.49975978266186E-32,1.22464679914735E-16));
#294=DIRECTION('center_axis',(0.,-1.,-9.9579925010296E-17));
#295=DIRECTION('ref_axis',(-1.,1.49975978266186E-32,1.22464679914735E-16));
#296=DIRECTION('center_axis',(0.,-1.,-9.9579925010296E-17));
#297=DIRECTION('ref_axis',(1.,0.,0.));
#298=DIRECTION('',(0.,1.,9.9579925010296E-17));
#299=DIRECTION('center_axis',(0.,1.,9.9579925010296E-17));
#300=DIRECTION('ref_axis',(1.,0.,0.));
#301=DIRECTION('center_axis',(0.,1.,9.9579925010296E-17));
#302=DIRECTION('ref_axis',(-1.,0.,0.));
#303=CARTESIAN_POINT('',(0.,0.,0.));
#304=CARTESIAN_POINT('Origin',(-8.38675264669288,5.5,1.99999997019768));
#305=CARTESIAN_POINT('',(-25.000000372529,11.,5.99999997019768));
#306=CARTESIAN_POINT('',(-8.38675264669288,23.,5.99999997019768));
#307=CARTESIAN_POINT('Origin',(-8.38675264669288,5.5,5.99999997019768));
#308=CARTESIAN_POINT('',(-8.38675264669288,23.,1.99999997019768));
#309=CARTESIAN_POINT('',(-8.38675264669288,23.,1.99999997019768));
#310=CARTESIAN_POINT('',(-25.000000372529,11.,1.99999997019768));
#311=CARTESIAN_POINT('Origin',(-8.38675264669288,5.5,1.99999997019768));
#312=CARTESIAN_POINT('',(-25.000000372529,11.,1.99999997019768));
#313=CARTESIAN_POINT('Origin',(79.999999627471,19.,1.99999997019768));
#314=CARTESIAN_POINT('',(-6.60272050457042,23.,1.99999997019768));
#315=CARTESIAN_POINT('',(79.999999627471,23.,1.99999997019768));
#316=CARTESIAN_POINT('',(-0.000199339986970415,19.,1.99999997019768));
#317=CARTESIAN_POINT('Ctrl Pts',(-0.000199339986970554,19.,1.99999997019768));
#318=CARTESIAN_POINT('Ctrl Pts',(-0.5802699146607,18.9999999999998,1.99999997019768));
#319=CARTESIAN_POINT('Ctrl Pts',(-1.22007224947549,18.9903393073977,1.99999997019768));
#320=CARTESIAN_POINT('Ctrl Pts',(-2.47443953115652,19.1146313531629,1.99999997019768));
#321=CARTESIAN_POINT('Ctrl Pts',(-3.08798867213821,19.2586167458241,1.99999997019768));
#322=CARTESIAN_POINT('Ctrl Pts',(-3.89006181629089,19.5910116440762,1.99999997019768));
#323=CARTESIAN_POINT('Ctrl Pts',(-4.17187843911303,19.7344047106017,1.99999997019768));
#324=CARTESIAN_POINT('Ctrl Pts',(-4.70231625781705,20.0728603821785,1.99999997019768));
#325=CARTESIAN_POINT('Ctrl Pts',(-4.95089378524164,20.2679914208702,1.99999997019768));
#326=CARTESIAN_POINT('Ctrl Pts',(-5.39232807511968,20.6796063004705,1.99999997019768));
#327=CARTESIAN_POINT('Ctrl Pts',(-5.62230534342093,20.9379482553078,1.99999997019768));
#328=CARTESIAN_POINT('Ctrl Pts',(-6.01944916478488,21.4989846293932,1.99999997019768));
#329=CARTESIAN_POINT('Ctrl Pts',(-6.18658992607493,21.8016973055567,1.99999997019768));
#330=CARTESIAN_POINT('Ctrl Pts',(-6.43157439580007,22.367099734014,1.99999997019768));
#331=CARTESIAN_POINT('Ctrl Pts',(-6.53437474147288,22.6795536877549,1.99999997019768));
#332=CARTESIAN_POINT('Ctrl Pts',(-6.60272050457042,23.,1.99999997019768));
#333=CARTESIAN_POINT('',(6.60272050457042,23.,1.99999997019768));
#334=CARTESIAN_POINT('Ctrl Pts',(6.60272050457042,23.,1.99999997019768));
#335=CARTESIAN_POINT('Ctrl Pts',(6.53437474147288,22.6795536877549,1.99999997019768));
#336=CARTESIAN_POINT('Ctrl Pts',(6.43157439580007,22.367099734014,1.99999997019768));
#337=CARTESIAN_POINT('Ctrl Pts',(6.18658992607493,21.8016973055567,1.99999997019768));
#338=CARTESIAN_POINT('Ctrl Pts',(6.01944916478488,21.4989846293932,1.99999997019768));
#339=CARTESIAN_POINT('Ctrl Pts',(5.62230534342092,20.9379482553078,1.99999997019768));
#340=CARTESIAN_POINT('Ctrl Pts',(5.39232807511968,20.6796063004705,1.99999997019768));
#341=CARTESIAN_POINT('Ctrl Pts',(4.95089378524164,20.2679914208702,1.99999997019768));
#342=CARTESIAN_POINT('Ctrl Pts',(4.70231625781705,20.0728603821785,1.99999997019768));
#343=CARTESIAN_POINT('Ctrl Pts',(4.17187843911303,19.7344047106017,1.99999997019768));
#344=CARTESIAN_POINT('Ctrl Pts',(3.89006181629089,19.5910116440762,1.99999997019768));
#345=CARTESIAN_POINT('Ctrl Pts',(3.08798867213821,19.2586167458241,1.99999997019768));
#346=CARTESIAN_POINT('Ctrl Pts',(2.47443953115652,19.1146313531629,1.99999997019768));
#347=CARTESIAN_POINT('Ctrl Pts',(1.22000040931289,18.9903321889398,1.99999997019768));
#348=CARTESIAN_POINT('Ctrl Pts',(0.580123334977358,19.,1.99999997019768));
#349=CARTESIAN_POINT('Ctrl Pts',(-6.64458784600808E-5,19.,1.99999997019768));
#350=CARTESIAN_POINT('Ctrl Pts',(-0.000132892540819154,19.,1.99999997019768));
#351=CARTESIAN_POINT('Ctrl Pts',(-0.000199339986970415,19.,1.99999997019768));
#352=CARTESIAN_POINT('',(79.999999627471,23.,1.99999997019768));
#353=CARTESIAN_POINT('',(79.999999627471,23.,1.99999997019768));
#354=CARTESIAN_POINT('',(79.999999627471,11.,1.99999997019768));
#355=CARTESIAN_POINT('',(79.999999627471,19.,1.99999997019768));
#356=CARTESIAN_POINT('',(79.999999627471,11.,1.99999997019768));
#357=CARTESIAN_POINT('Origin',(-12.5000001862645,23.,3.99999996026357));
#358=CARTESIAN_POINT('',(-6.60272048651585,23.,5.99999997019768));
#359=CARTESIAN_POINT('',(-25.000000372529,23.,5.99999997019768));
#360=CARTESIAN_POINT('Origin',(0.,23.,3.99999994039536));
#361=CARTESIAN_POINT('Origin',(0.,29.5,3.99999994039536));
#362=CARTESIAN_POINT('',(-6.12323399573677E-16,34.,8.99999994039536));
#363=CARTESIAN_POINT('Origin',(0.,34.,3.99999994039536));
#364=CARTESIAN_POINT('',(-6.12323399573677E-16,25.,8.99999994039536));
#365=CARTESIAN_POINT('',(-6.12323399573677E-16,29.5,8.99999994039536));
#366=CARTESIAN_POINT('Origin',(0.,25.,3.99999994039536));
#367=CARTESIAN_POINT('Origin',(0.,25.,3.99999994039536));
#368=CARTESIAN_POINT('Origin',(0.,11.,3.99999994039536));
#369=CARTESIAN_POINT('',(79.999999627471,11.,5.99999997019768));
#370=CARTESIAN_POINT('',(-25.000000372529,11.,5.99999997019768));
#371=CARTESIAN_POINT('',(79.999999627471,11.,5.99999997019768));
#372=CARTESIAN_POINT('Origin',(0.,19.,5.99999997019768));
#373=CARTESIAN_POINT('',(79.999999627471,23.,5.99999997019768));
#374=CARTESIAN_POINT('',(79.999999627471,19.,5.99999997019768));
#375=CARTESIAN_POINT('',(6.60272048651585,23.,5.99999997019768));
#376=CARTESIAN_POINT('',(-25.000000372529,23.,5.99999997019768));
#377=CARTESIAN_POINT('',(0.,19.,5.99999997019768));
#378=CARTESIAN_POINT('Ctrl Pts',(0.,19.,5.99999997019768));
#379=CARTESIAN_POINT('Ctrl Pts',(0.607212743762956,19.,5.99999997019768));
#380=CARTESIAN_POINT('Ctrl Pts',(1.27742016228175,18.989438128506,5.99999997019768));
#381=CARTESIAN_POINT('Ctrl Pts',(2.58655827232599,19.1332290131869,5.99999997019768));
#382=CARTESIAN_POINT('Ctrl Pts',(3.22438456992954,19.2974647392043,5.99999997019768));
#383=CARTESIAN_POINT('Ctrl Pts',(4.05897373800187,19.6742528288931,5.99999997019768));
#384=CARTESIAN_POINT('Ctrl Pts',(4.35457938664485,19.8390501626458,5.99999997019768));
#385=CARTESIAN_POINT('Ctrl Pts',(4.90478399131872,20.2264979693148,5.99999997019768));
#386=CARTESIAN_POINT('Ctrl Pts',(5.15933829974187,20.4492118412639,5.99999997019768));
#387=CARTESIAN_POINT('Ctrl Pts',(5.5726360048131,20.8836717800288,5.99999997019768));
#388=CARTESIAN_POINT('Ctrl Pts',(5.77199216476999,21.1331707424379,5.99999997019768));
#389=CARTESIAN_POINT('Ctrl Pts',(6.11525753358051,21.6677071949602,5.99999997019768));
#390=CARTESIAN_POINT('Ctrl Pts',(6.25914597688382,21.9527580198834,5.99999997019768));
#391=CARTESIAN_POINT('Ctrl Pts',(6.4617439794118,22.4611822968404,5.99999997019768));
#392=CARTESIAN_POINT('Ctrl Pts',(6.54447527860098,22.7269112058256,5.99999997019768));
#393=CARTESIAN_POINT('Ctrl Pts',(6.60272048651585,23.,5.99999997019768));
#394=CARTESIAN_POINT('Ctrl Pts',(-6.60272048651585,23.,5.99999997019768));
#395=CARTESIAN_POINT('Ctrl Pts',(-6.54447527860098,22.7269112058256,5.99999997019768));
#396=CARTESIAN_POINT('Ctrl Pts',(-6.4617439794118,22.4611822968404,5.99999997019768));
#397=CARTESIAN_POINT('Ctrl Pts',(-6.25914597688382,21.9527580198834,5.99999997019768));
#398=CARTESIAN_POINT('Ctrl Pts',(-6.11525753358051,21.6677071949602,5.99999997019768));
#399=CARTESIAN_POINT('Ctrl Pts',(-5.77199216476999,21.1331707424379,5.99999997019768));
#400=CARTESIAN_POINT('Ctrl Pts',(-5.5726360048131,20.8836717800288,5.99999997019768));
#401=CARTESIAN_POINT('Ctrl Pts',(-5.15933829974187,20.4492118412639,5.99999997019768));
#402=CARTESIAN_POINT('Ctrl Pts',(-4.90478399131872,20.2264979693148,5.99999997019768));
#403=CARTESIAN_POINT('Ctrl Pts',(-4.35457938664485,19.8390501626458,5.99999997019768));
#404=CARTESIAN_POINT('Ctrl Pts',(-4.05897373800187,19.6742528288931,5.99999997019768));
#405=CARTESIAN_POINT('Ctrl Pts',(-3.22438456992954,19.2974647392043,5.99999997019768));
#406=CARTESIAN_POINT('Ctrl Pts',(-2.58655827232599,19.1332290131869,5.99999997019768));
#407=CARTESIAN_POINT('Ctrl Pts',(-1.27742016228175,18.989438128506,5.99999997019768));
#408=CARTESIAN_POINT('Ctrl Pts',(-0.607212743762956,19.,5.99999997019768));
#409=CARTESIAN_POINT('Ctrl Pts',(6.93889390390723E-17,19.,5.99999997019768));
#410=CARTESIAN_POINT('Origin',(79.999999627471,19.,5.99999997019768));
#411=CARTESIAN_POINT('',(79.999999627471,23.,5.99999997019768));
#412=CARTESIAN_POINT('Origin',(39.999900143742,23.,3.99999995529652));
#413=CARTESIAN_POINT('Origin',(0.,23.,3.99999994039536));
#414=CARTESIAN_POINT('Ctrl Pts',(0.,24.,10.9999999403954));
#415=CARTESIAN_POINT('Ctrl Pts',(-7.,24.,10.9999999403954));
#416=CARTESIAN_POINT('Ctrl Pts',(-7.,24.,3.99999994039536));
#417=CARTESIAN_POINT('Ctrl Pts',(-7.,24.,-3.00000005960464));
#418=CARTESIAN_POINT('Ctrl Pts',(0.,24.,-3.00000005960464));
#419=CARTESIAN_POINT('Ctrl Pts',(7.,24.,-3.00000005960464));
#420=CARTESIAN_POINT('Ctrl Pts',(7.,24.,3.99999994039536));
#421=CARTESIAN_POINT('Ctrl Pts',(7.,24.,10.9999999403954));
#422=CARTESIAN_POINT('Ctrl Pts',(0.,24.,10.9999999403954));
#423=CARTESIAN_POINT('Ctrl Pts',(0.,21.9289321794056,10.9999999403954));
#424=CARTESIAN_POINT('Ctrl Pts',(-7.,21.9289321794056,10.9999999403954));
#425=CARTESIAN_POINT('Ctrl Pts',(-7.,21.9289321794056,3.99999994039536));
#426=CARTESIAN_POINT('Ctrl Pts',(-7.,21.9289321794056,-3.00000005960464));
#427=CARTESIAN_POINT('Ctrl Pts',(0.,21.9289321794056,-3.00000005960464));
#428=CARTESIAN_POINT('Ctrl Pts',(7.,21.9289321794056,-3.00000005960464));
#429=CARTESIAN_POINT('Ctrl Pts',(7.,21.9289321794056,3.99999994039536));
#430=CARTESIAN_POINT('Ctrl Pts',(7.,21.9289321794056,10.9999999403954));
#431=CARTESIAN_POINT('Ctrl Pts',(0.,21.9289321794056,10.9999999403954));
#432=CARTESIAN_POINT('Ctrl Pts',(0.,20.4644660835305,9.53553383579139));
#433=CARTESIAN_POINT('Ctrl Pts',(-5.53553389539602,20.4644660835305,9.53553383579138));
#434=CARTESIAN_POINT('Ctrl Pts',(-5.53553389539602,20.4644660835305,3.99999994039536));
#435=CARTESIAN_POINT('Ctrl Pts',(-5.53553389539602,20.4644660835305,-1.53553395500066));
#436=CARTESIAN_POINT('Ctrl Pts',(0.,20.4644660835305,-1.53553395500067));
#437=CARTESIAN_POINT('Ctrl Pts',(5.53553389539602,20.4644660835305,-1.53553395500066));
#438=CARTESIAN_POINT('Ctrl Pts',(5.53553389539602,20.4644660835305,3.99999994039536));
#439=CARTESIAN_POINT('Ctrl Pts',(5.53553389539602,20.4644660835305,9.53553383579138));
#440=CARTESIAN_POINT('Ctrl Pts',(0.,20.4644660835305,9.53553383579139));
#441=CARTESIAN_POINT('Ctrl Pts',(0.,18.9999999876555,8.07106773118741));
#442=CARTESIAN_POINT('Ctrl Pts',(-4.07106779079205,18.9999999876555,8.07106773118741));
#443=CARTESIAN_POINT('Ctrl Pts',(-4.07106779079205,18.9999999876555,3.99999994039536));
#444=CARTESIAN_POINT('Ctrl Pts',(-4.07106779079205,18.9999999876555,-0.0710678503966883));
#445=CARTESIAN_POINT('Ctrl Pts',(0.,18.9999999876555,-0.0710678503966894));
#446=CARTESIAN_POINT('Ctrl Pts',(4.07106779079205,18.9999999876555,-0.0710678503966883));
#447=CARTESIAN_POINT('Ctrl Pts',(4.07106779079205,18.9999999876555,3.99999994039536));
#448=CARTESIAN_POINT('Ctrl Pts',(4.07106779079205,18.9999999876555,8.07106773118741));
#449=CARTESIAN_POINT('Ctrl Pts',(0.,18.9999999876555,8.07106773118741));
#450=CARTESIAN_POINT('Ctrl Pts',(0.,19.,5.99999991059304));
#451=CARTESIAN_POINT('Ctrl Pts',(-1.99999997019768,19.,5.99999991059304));
#452=CARTESIAN_POINT('Ctrl Pts',(-1.99999997019768,19.,3.99999994039536));
#453=CARTESIAN_POINT('Ctrl Pts',(-1.99999997019768,19.,1.99999997019768));
#454=CARTESIAN_POINT('Ctrl Pts',(0.,19.,1.99999997019768));
#455=CARTESIAN_POINT('Ctrl Pts',(1.99999997019768,19.,1.99999997019768));
#456=CARTESIAN_POINT('Ctrl Pts',(1.99999997019768,19.,3.99999994039536));
#457=CARTESIAN_POINT('Ctrl Pts',(1.99999997019768,19.,5.99999991059304));
#458=CARTESIAN_POINT('Ctrl Pts',(0.,19.,5.99999991059304));
#459=CARTESIAN_POINT('',(-8.57252759403147E-16,24.,10.9999999403954));
#460=CARTESIAN_POINT('Origin',(-2.44929359829471E-16,24.,5.99999994039536));
#461=CARTESIAN_POINT('',(-7.,24.,3.99999994039536));
#462=CARTESIAN_POINT('Origin',(0.,24.,3.99999994039536));
#463=CARTESIAN_POINT('Origin',(0.,24.,3.99999994039536));
#464=CARTESIAN_POINT('Origin',(0.,26.5,3.99999994039536));
#465=CARTESIAN_POINT('',(-7.,34.,3.99999994039536));
#466=CARTESIAN_POINT('',(-7.,26.5,3.99999994039536));
#467=CARTESIAN_POINT('Origin',(0.,34.,3.99999994039536));
#468=CARTESIAN_POINT('Origin',(0.,34.,3.99999994039536));
#469=UNCERTAINTY_MEASURE_WITH_UNIT(LENGTH_MEASURE(0.01),#473,
'DISTANCE_ACCURACY_VALUE',
'Maximum model space distance between geometric entities at asserted c
onnectivities');
#470=UNCERTAINTY_MEASURE_WITH_UNIT(LENGTH_MEASURE(0.01),#473,
'DISTANCE_ACCURACY_VALUE',
'Maximum model space distance between geometric entities at asserted c
onnectivities');
#471=(
GEOMETRIC_REPRESENTATION_CONTEXT(3)
GLOBAL_UNCERTAINTY_ASSIGNED_CONTEXT((#469))
GLOBAL_UNIT_ASSIGNED_CONTEXT((#473,#475,#476))
REPRESENTATION_CONTEXT('','3D')
);
#472=(
GEOMETRIC_REPRESENTATION_CONTEXT(3)
GLOBAL_UNCERTAINTY_ASSIGNED_CONTEXT((#470))
GLOBAL_UNIT_ASSIGNED_CONTEXT((#473,#475,#476))
REPRESENTATION_CONTEXT('','3D')
);
#473=(
LENGTH_UNIT()
NAMED_UNIT(*)
SI_UNIT(.MILLI.,.METRE.)
);
#474=(
LENGTH_UNIT()
NAMED_UNIT(*)
SI_UNIT($,.METRE.)
);
#475=(
NAMED_UNIT(*)
PLANE_ANGLE_UNIT()
SI_UNIT($,.RADIAN.)
);
#476=(
NAMED_UNIT(*)
SI_UNIT($,.STERADIAN.)
SOLID_ANGLE_UNIT()
);
#477=SHAPE_DEFINITION_REPRESENTATION(#478,#479);
#478=PRODUCT_DEFINITION_SHAPE('',$,#481);
#479=SHAPE_REPRESENTATION('',(#223),#471);
#480=PRODUCT_DEFINITION_CONTEXT('part definition',#485,'design');
#481=PRODUCT_DEFINITION('Untitled','Untitled',#482,#480);
#482=PRODUCT_DEFINITION_FORMATION('',$,#487);
#483=PRODUCT_RELATED_PRODUCT_CATEGORY('Untitled','Untitled',(#487));
#484=APPLICATION_PROTOCOL_DEFINITION('international standard',
'automotive_design',2009,#485);
#485=APPLICATION_CONTEXT(
'Core Data for Automotive Mechanical Design Process');
#486=PRODUCT_CONTEXT('part definition',#485,'mechanical');
#487=PRODUCT('Untitled','Untitled',$,(#486));
#488=PRESENTATION_STYLE_ASSIGNMENT((#489));
#489=SURFACE_STYLE_USAGE(.BOTH.,#490);
#490=SURFACE_SIDE_STYLE('',(#491));
#491=SURFACE_STYLE_FILL_AREA(#492);
#492=FILL_AREA_STYLE('Steel - Satin',(#493));
#493=FILL_AREA_STYLE_COLOUR('Steel - Satin',#494);
#494=COLOUR_RGB('Steel - Satin',0.627450980392157,0.627450980392157,0.627450980392157);
ENDSEC;
END-ISO-10303-21;
